<?xml version="1.0" encoding="UTF-8" standalone="no"?>
<svg
   width="10.5pt"
   height="12pt"
   viewBox="0 0 10.5 12"
   version="1.1"
   id="svg12"
   sodipodi:docname="PDFicon.pdf"
   xmlns:inkscape="http://www.inkscape.org/namespaces/inkscape"
   xmlns:sodipodi="http://sodipodi.sourceforge.net/DTD/sodipodi-0.dtd"
   xmlns="http://www.w3.org/2000/svg"
   xmlns:svg="http://www.w3.org/2000/svg">
  <sodipodi:namedview
     id="namedview12"
     pagecolor="#ffffff"
     bordercolor="#000000"
     borderopacity="0.25"
     inkscape:showpageshadow="2"
     inkscape:pageopacity="0.0"
     inkscape:pagecheckerboard="0"
     inkscape:deskcolor="#d1d1d1"
     inkscape:document-units="pt" />
  <defs
     id="defs1">
    <clipPath
       id="clip-0">
      <path
         clip-rule="nonzero"
         d="M 0 4 L 10.5 4 L 10.5 10 L 0 10 Z M 0 4 "
         id="path1" />
    </clipPath>
  </defs>
  <path
     fill-rule="nonzero"
     fill="rgb(100%, 100%, 100%)"
     fill-opacity="1"
     d="M 1.28125 11.726562 L 1.28125 0.273438 L 6.535156 0.273438 L 9.226562 2.960938 L 9.226562 11.726562 Z M 1.28125 11.726562 "
     id="path2" />
  <path
     fill-rule="nonzero"
     fill="rgb(0%, 0%, 0%)"
     fill-opacity="1"
     d="M 6.421875 0.550781 L 8.953125 3.078125 L 8.953125 11.449219 L 1.554688 11.449219 L 1.554688 0.550781 L 6.421875 0.550781 M 6.652344 0 L 1.003906 0 L 1.003906 12 L 9.5 12 L 9.5 2.847656 Z M 6.652344 0 "
     id="path3" />
  <path
     fill-rule="nonzero"
     fill="rgb(100%, 100%, 100%)"
     fill-opacity="1"
     d="M 9.226562 11.726562 L 1.28125 11.726562 L 1.28125 0.273438 L 6.535156 0.273438 L 6.597656 0.335938 L 6.597656 2.902344 L 9.167969 2.902344 L 9.226562 2.960938 Z M 9.226562 11.726562 "
     id="path4" />
  <path
     fill-rule="nonzero"
     fill="rgb(0%, 0%, 0%)"
     fill-opacity="1"
     d="M 6.324219 0.550781 L 6.324219 3.179688 L 8.949219 3.179688 L 8.949219 11.449219 L 1.554688 11.449219 L 1.554688 0.550781 L 6.324219 0.550781 M 6.652344 0 L 1.003906 0 L 1.003906 12 L 9.5 12 L 9.5 2.847656 L 9.28125 2.628906 L 6.875 2.628906 L 6.875 0.222656 Z M 6.652344 0 "
     id="path5" />
  <path
     fill-rule="nonzero"
     fill="rgb(0%, 0%, 0%)"
     fill-opacity="1"
     d="M 8.390625 2.46875 L 7.058594 2.46875 L 7.058594 1.125 L 8.390625 2.421875 Z M 8.390625 2.46875 "
     id="path6" />
  <path
     fill-rule="nonzero"
     fill="rgb(0%, 0%, 0%)"
     fill-opacity="1"
     d="M 7.332031 1.777344 L 7.761719 2.195312 L 7.332031 2.195312 L 7.332031 1.777344 M 7.160156 0.839844 L 6.78125 0.839844 L 6.78125 2.746094 L 8.664062 2.746094 L 8.664062 2.304688 Z M 7.160156 0.839844 "
     id="path7" />
  <g
     clip-path="url(#clip-0)"
     id="g9">
    <path
       fill-rule="nonzero"
       fill="rgb(92.939758%, 10.980225%, 14.117432%)"
       fill-opacity="1"
       d="M 10.234375 9.242188 L 0.273438 9.242188 L 0.273438 5.222656 L 0.78125 4.714844 L 0.78125 5.351562 L 9.726562 5.351562 L 9.726562 4.714844 L 10.234375 5.222656 Z M 10.234375 9.242188 "
       id="path8" />
    <path
       fill-rule="nonzero"
       fill="rgb(92.939758%, 10.980225%, 14.117432%)"
       fill-opacity="1"
       d="M 9.949219 5.253906 L 10.007812 5.3125 L 10.007812 9.019531 L 0.5 9.019531 L 0.5 5.3125 L 0.558594 5.253906 L 0.558594 5.574219 L 9.949219 5.574219 L 9.949219 5.253906 M 9.5 4.171875 L 9.5 5.128906 L 1.003906 5.128906 L 1.003906 4.171875 L 0.0507812 5.128906 L 0.0507812 9.464844 L 10.457031 9.464844 L 10.457031 5.128906 Z M 9.5 4.171875 "
       id="path9" />
  </g>
  <path
     fill-rule="nonzero"
     fill="rgb(100%, 100%, 100%)"
     fill-opacity="1"
     d="M 1.609375 8.800781 L 1.609375 5.9375 L 2.65625 5.9375 C 2.8125 5.9375 2.960938 5.953125 3.101562 5.984375 C 3.242188 6.015625 3.367188 6.066406 3.472656 6.144531 C 3.578125 6.214844 3.660156 6.316406 3.722656 6.4375 C 3.789062 6.558594 3.820312 6.707031 3.820312 6.886719 C 3.820312 7.0625 3.789062 7.214844 3.722656 7.339844 C 3.660156 7.46875 3.578125 7.570312 3.472656 7.65625 C 3.367188 7.734375 3.246094 7.792969 3.105469 7.835938 C 2.96875 7.875 2.824219 7.890625 2.675781 7.890625 L 2.367188 7.890625 L 2.367188 8.800781 Z M 2.367188 7.292969 L 2.640625 7.292969 C 2.789062 7.292969 2.898438 7.257812 2.96875 7.1875 C 3.042969 7.117188 3.078125 7.015625 3.078125 6.886719 C 3.078125 6.757812 3.039062 6.667969 2.960938 6.613281 C 2.882812 6.5625 2.769531 6.535156 2.621094 6.535156 L 2.367188 6.535156 Z M 2.367188 7.292969 "
     id="path10" />
  <path
     fill-rule="nonzero"
     fill="rgb(100%, 100%, 100%)"
     fill-opacity="1"
     d="M 4.289062 8.800781 L 4.289062 5.9375 L 5.132812 5.9375 C 5.351562 5.9375 5.546875 5.960938 5.726562 6.015625 C 5.910156 6.070312 6.066406 6.152344 6.195312 6.265625 C 6.324219 6.382812 6.421875 6.527344 6.496094 6.707031 C 6.566406 6.886719 6.605469 7.101562 6.605469 7.355469 C 6.605469 7.605469 6.570312 7.824219 6.5 8.007812 C 6.429688 8.1875 6.328125 8.339844 6.199219 8.457031 C 6.074219 8.574219 5.921875 8.660156 5.746094 8.714844 C 5.570312 8.773438 5.382812 8.800781 5.175781 8.800781 Z M 5.042969 8.191406 L 5.089844 8.191406 C 5.191406 8.191406 5.289062 8.179688 5.378906 8.15625 C 5.472656 8.128906 5.546875 8.085938 5.613281 8.023438 C 5.679688 7.960938 5.734375 7.878906 5.773438 7.769531 C 5.808594 7.660156 5.828125 7.523438 5.828125 7.355469 C 5.828125 7.1875 5.808594 7.050781 5.773438 6.945312 C 5.734375 6.839844 5.679688 6.757812 5.613281 6.699219 C 5.546875 6.640625 5.472656 6.601562 5.378906 6.578125 C 5.289062 6.554688 5.191406 6.542969 5.089844 6.542969 L 5.042969 6.542969 Z M 5.042969 8.191406 "
     id="path11" />
  <path
     fill-rule="nonzero"
     fill="rgb(100%, 100%, 100%)"
     fill-opacity="1"
     d="M 7.117188 8.800781 L 7.117188 5.9375 L 8.984375 5.9375 L 8.984375 6.570312 L 7.875 6.570312 L 7.875 7.117188 L 8.824219 7.117188 L 8.824219 7.75 L 7.875 7.75 L 7.875 8.800781 Z M 7.117188 8.800781 "
     id="path12" />
</svg>
