<?xml version="1.0" encoding="UTF-8" standalone="no"?>
<!-- Created with Inkscape (http://www.inkscape.org/) -->

<svg
   version="1.1"
   id="svg1"
   width="914"
   height="730"
   viewBox="0 0 914 730"
   sodipodi:docname="pencil.pdf"
   xmlns:inkscape="http://www.inkscape.org/namespaces/inkscape"
   xmlns:sodipodi="http://sodipodi.sourceforge.net/DTD/sodipodi-0.dtd"
   xmlns="http://www.w3.org/2000/svg"
   xmlns:svg="http://www.w3.org/2000/svg">
  <defs
     id="defs1">
    <linearGradient
       x1="30.361"
       y1="599.55603"
       x2="84.473"
       y2="599.55603"
       gradientUnits="userSpaceOnUse"
       gradientTransform="scale(0.75)"
       spreadMethod="pad"
       id="linearGradient2">
      <stop
         style="stop-opacity:1;stop-color:#fffffe"
         offset="0"
         id="stop1" />
      <stop
         style="stop-opacity:1;stop-color:#e5bd95"
         offset="1"
         id="stop2" />
    </linearGradient>
    <clipPath
       clipPathUnits="userSpaceOnUse"
       id="clipPath2">
      <path
         d="M 0,0 H 686 V 548 H 0 Z"
         id="path2" />
    </clipPath>
    <clipPath
       clipPathUnits="userSpaceOnUse"
       id="clipPath4">
      <path
         d="m 48.438,431.891 c 0.16,0.773 0.062,0.386 0.292,1.164 0.461,1.347 1.458,3.035 3.645,4.238 0.285,2.512 1.363,4.953 3.105,6.871 1.231,1.363 2.688,2.348 4.282,2.914 0.308,1.906 1.187,3.891 2.523,5.469 0.324,0.391 0.688,0.742 1.067,1.066 -11.329,4.496 -24.801,9.735 -35.707,13.813 -0.825,-0.852 -1.61,-2.039 -1.188,-3.254 -1.609,-0.149 -2.727,-1.332 -3.684,-2.508 v -0.035 c 8.528,-9.93 17.09,-19.832 25.649,-29.738 z"
         transform="scale(1.3333333)"
         id="path4" />
    </clipPath>
    <linearGradient
       x1="779.70001"
       y1="28.452999"
       x2="801.60602"
       y2="28.452999"
       gradientUnits="userSpaceOnUse"
       gradientTransform="scale(0.75)"
       spreadMethod="pad"
       id="linearGradient5">
      <stop
         style="stop-opacity:1;stop-color:#fffffe"
         offset="0"
         id="stop4" />
      <stop
         style="stop-opacity:1;stop-color:#e5bd95"
         offset="1"
         id="stop5" />
    </linearGradient>
    <clipPath
       clipPathUnits="userSpaceOnUse"
       id="clipPath5">
      <path
         d="M 0,0 H 686 V 548 H 0 Z"
         id="path5" />
    </clipPath>
    <clipPath
       clipPathUnits="userSpaceOnUse"
       id="clipPath7">
      <path
         d="m 584.773,11.203 c 2.122,0.016 6.86,2.731 11.153,8.332 2.597,3.508 4.969,7.473 5.277,11.926 v 0.016 h -0.012 c -8.734,-3.52 -15.257,-10.813 -16.418,-20.274 z"
         transform="scale(1.3333333)"
         id="path7" />
    </clipPath>
    <linearGradient
       x1="244.868"
       y1="626.93402"
       x2="314.43301"
       y2="626.93402"
       gradientUnits="userSpaceOnUse"
       gradientTransform="scale(0.75)"
       spreadMethod="pad"
       id="linearGradient8">
      <stop
         style="stop-opacity:1;stop-color:#fffffe"
         offset="0"
         id="stop7" />
      <stop
         style="stop-opacity:1;stop-color:#e5bd95"
         offset="1"
         id="stop8" />
    </linearGradient>
    <linearGradient
       x1="751.13"
       y1="44.610001"
       x2="793.341"
       y2="44.610001"
       gradientUnits="userSpaceOnUse"
       gradientTransform="scale(0.75)"
       spreadMethod="pad"
       id="linearGradient10">
      <stop
         style="stop-opacity:1;stop-color:#fffffe"
         offset="0"
         id="stop9" />
      <stop
         style="stop-opacity:1;stop-color:#e5bd95"
         offset="1"
         id="stop10" />
    </linearGradient>
    <clipPath
       clipPathUnits="userSpaceOnUse"
       id="clipPath10">
      <path
         d="M 0,0 H 686 V 548 H 0 Z"
         id="path10" />
    </clipPath>
    <clipPath
       clipPathUnits="userSpaceOnUse"
       id="clipPath12">
      <path
         d="m 577.836,16.969 c 1,3.89 3.199,8.101 6.047,11.812 2.929,4.039 6.816,7.141 11.125,9.571 v 0.003 c -4.59,3.961 -9.289,7.797 -14.004,11.602 h -0.016 C 573.391,44.695 567.207,37.789 563.352,29.375 Z"
         transform="scale(1.3333333)"
         id="path12" />
    </clipPath>
    <linearGradient
       x1="181.916"
       y1="590.84003"
       x2="188.595"
       y2="590.84003"
       gradientUnits="userSpaceOnUse"
       gradientTransform="scale(0.75)"
       spreadMethod="pad"
       id="linearGradient13">
      <stop
         style="stop-opacity:1;stop-color:#fffffe"
         offset="0"
         id="stop12" />
      <stop
         style="stop-opacity:1;stop-color:#e5bd95"
         offset="1"
         id="stop13" />
    </linearGradient>
    <clipPath
       clipPathUnits="userSpaceOnUse"
       id="clipPath13">
      <path
         d="M 0,0 H 686 V 548 H 0 Z"
         id="path13" />
    </clipPath>
    <clipPath
       clipPathUnits="userSpaceOnUse"
       id="clipPath15">
      <path
         d="m 137.227,440.809 c 2.781,1.171 1.371,0.488 4.218,2.086 -1.218,1.628 -3.101,2.218 -5.004,2.55 0.512,-3.125 0.254,-1.582 0.766,-4.636 z"
         transform="scale(1.3333333)"
         id="path15" />
    </clipPath>
    <linearGradient
       x1="176.78101"
       y1="611.21997"
       x2="189.67999"
       y2="611.21997"
       gradientUnits="userSpaceOnUse"
       gradientTransform="scale(0.75)"
       spreadMethod="pad"
       id="linearGradient16">
      <stop
         style="stop-opacity:1;stop-color:#fffffe"
         offset="0"
         id="stop15" />
      <stop
         style="stop-opacity:1;stop-color:#e5bd95"
         offset="1"
         id="stop16" />
    </linearGradient>
    <clipPath
       clipPathUnits="userSpaceOnUse"
       id="clipPath16">
      <path
         d="M 0,0 H 686 V 548 H 0 Z"
         id="path16" />
    </clipPath>
    <clipPath
       clipPathUnits="userSpaceOnUse"
       id="clipPath18">
      <path
         d="m 142.137,445.395 c 0.367,3.941 -0.129,7.894 -0.742,11.781 -1.297,7.562 -3.293,11.84 -4.321,12.461 -1.808,1.109 -3.308,1.703 -4.48,1.797 -0.016,-1.204 0.078,-2.297 0.187,-3.161 0.582,-4.183 1.957,-12.66 3.281,-20.574 0.594,-0.027 1.176,-0.094 1.715,-0.187 1.653,-0.25 3.071,-1.102 4.356,-2.117 z"
         transform="scale(1.3333333)"
         id="path18" />
    </clipPath>
    <linearGradient
       x1="383.40799"
       y1="397.914"
       x2="398.14999"
       y2="397.914"
       gradientUnits="userSpaceOnUse"
       gradientTransform="scale(0.75)"
       spreadMethod="pad"
       id="linearGradient19">
      <stop
         style="stop-opacity:1;stop-color:#fffffe"
         offset="0"
         id="stop18" />
      <stop
         style="stop-opacity:1;stop-color:#e5bd95"
         offset="1"
         id="stop19" />
    </linearGradient>
    <linearGradient
       x1="78.563004"
       y1="566.19598"
       x2="126.711"
       y2="566.19598"
       gradientUnits="userSpaceOnUse"
       gradientTransform="scale(0.75)"
       spreadMethod="pad"
       id="linearGradient21">
      <stop
         style="stop-opacity:1;stop-color:#fffffe"
         offset="0"
         id="stop20" />
      <stop
         style="stop-opacity:1;stop-color:#e5bd95"
         offset="1"
         id="stop21" />
    </linearGradient>
    <linearGradient
       x1="73.219002"
       y1="554.21802"
       x2="120.909"
       y2="554.21802"
       gradientUnits="userSpaceOnUse"
       gradientTransform="scale(0.75)"
       spreadMethod="pad"
       id="linearGradient23">
      <stop
         style="stop-opacity:1;stop-color:#fffffe"
         offset="0"
         id="stop22" />
      <stop
         style="stop-opacity:1;stop-color:#e5bd95"
         offset="1"
         id="stop23" />
    </linearGradient>
    <linearGradient
       x1="247.02"
       y1="625.23798"
       x2="260.004"
       y2="625.23798"
       gradientUnits="userSpaceOnUse"
       gradientTransform="scale(0.75)"
       spreadMethod="pad"
       id="linearGradient25">
      <stop
         style="stop-opacity:1;stop-color:#fffffe"
         offset="0"
         id="stop24" />
      <stop
         style="stop-opacity:1;stop-color:#e5bd95"
         offset="1"
         id="stop25" />
    </linearGradient>
    <linearGradient
       x1="245.98"
       y1="604.73602"
       x2="253.79601"
       y2="604.73602"
       gradientUnits="userSpaceOnUse"
       gradientTransform="scale(0.75)"
       spreadMethod="pad"
       id="linearGradient27">
      <stop
         style="stop-opacity:1;stop-color:#fffffe"
         offset="0"
         id="stop26" />
      <stop
         style="stop-opacity:1;stop-color:#e5bd95"
         offset="1"
         id="stop27" />
    </linearGradient>
    <linearGradient
       x1="88.32"
       y1="579.24402"
       x2="133.90601"
       y2="579.24402"
       gradientUnits="userSpaceOnUse"
       gradientTransform="scale(0.75)"
       spreadMethod="pad"
       id="linearGradient29">
      <stop
         style="stop-opacity:1;stop-color:#fffffe"
         offset="0"
         id="stop28" />
      <stop
         style="stop-opacity:1;stop-color:#e5bd95"
         offset="1"
         id="stop29" />
    </linearGradient>
    <clipPath
       clipPathUnits="userSpaceOnUse"
       id="clipPath29">
      <path
         d="M 0,0 H 686 V 548 H 0 Z"
         id="path29" />
    </clipPath>
    <clipPath
       clipPathUnits="userSpaceOnUse"
       id="clipPath31">
      <path
         d="m 96.238,419.781 c 1.227,1.715 2.633,3.242 4.184,4.563 L 68.566,449.09 h -0.011 c -0.68,-0.25 -0.336,-0.074 -1.004,-0.578 -1.016,-1.028 -1.363,-2.676 -1.324,-3.024 l 1.324,-3.55 z"
         transform="scale(1.3333333)"
         id="path31" />
    </clipPath>
    <linearGradient
       x1="508.134"
       y1="276.07401"
       x2="534.19397"
       y2="276.07401"
       gradientUnits="userSpaceOnUse"
       gradientTransform="scale(0.75)"
       spreadMethod="pad"
       id="linearGradient32">
      <stop
         style="stop-opacity:1;stop-color:#fffffe"
         offset="0"
         id="stop31" />
      <stop
         style="stop-opacity:1;stop-color:#e5bd95"
         offset="1"
         id="stop32" />
    </linearGradient>
    <clipPath
       clipPathUnits="userSpaceOnUse"
       id="clipPath32">
      <path
         d="M 0,0 H 686 V 548 H 0 Z"
         id="path32" />
    </clipPath>
    <clipPath
       clipPathUnits="userSpaceOnUse"
       id="clipPath34">
      <path
         d="m 400.648,199.473 v 0.011 l -1.429,2.153 -18.106,13.011 z"
         transform="scale(1.3333333)"
         id="path34" />
    </clipPath>
    <linearGradient
       x1="118.156"
       y1="371.67599"
       x2="480.68399"
       y2="371.67599"
       gradientUnits="userSpaceOnUse"
       gradientTransform="scale(0.75)"
       spreadMethod="pad"
       id="linearGradient35">
      <stop
         style="stop-opacity:1;stop-color:#fffffe"
         offset="0"
         id="stop34" />
      <stop
         style="stop-opacity:1;stop-color:#e5bd95"
         offset="1"
         id="stop35" />
    </linearGradient>
    <linearGradient
       x1="326.71799"
       y1="622.72803"
       x2="379.35199"
       y2="622.72803"
       gradientUnits="userSpaceOnUse"
       gradientTransform="scale(0.75)"
       spreadMethod="pad"
       id="linearGradient37">
      <stop
         style="stop-opacity:1;stop-color:#fffffe"
         offset="0"
         id="stop36" />
      <stop
         style="stop-opacity:1;stop-color:#e5bd95"
         offset="1"
         id="stop37" />
    </linearGradient>
    <linearGradient
       x1="366.20401"
       y1="393.478"
       x2="385.42499"
       y2="393.478"
       gradientUnits="userSpaceOnUse"
       gradientTransform="scale(0.75)"
       spreadMethod="pad"
       id="linearGradient39">
      <stop
         style="stop-opacity:1;stop-color:#fffffe"
         offset="0"
         id="stop38" />
      <stop
         style="stop-opacity:1;stop-color:#e5bd95"
         offset="1"
         id="stop39" />
    </linearGradient>
    <linearGradient
       x1="328.50601"
       y1="622.07202"
       x2="338.76999"
       y2="622.07202"
       gradientUnits="userSpaceOnUse"
       gradientTransform="scale(0.75)"
       spreadMethod="pad"
       id="linearGradient41">
      <stop
         style="stop-opacity:1;stop-color:#fffffe"
         offset="0"
         id="stop40" />
      <stop
         style="stop-opacity:1;stop-color:#e5bd95"
         offset="1"
         id="stop41" />
    </linearGradient>
    <clipPath
       clipPathUnits="userSpaceOnUse"
       id="clipPath41">
      <path
         d="M 0,0 H 686 V 548 H 0 Z"
         id="path41" />
    </clipPath>
    <clipPath
       clipPathUnits="userSpaceOnUse"
       id="clipPath43">
      <path
         d="m 251.109,453.992 c 0.485,0.863 1.067,2.266 1.621,4.469 1.766,7.031 1.809,15.727 0.094,17.551 -1.457,1.55 -2.797,2.59 -3.996,3.101 -0.176,-0.726 -0.297,-1.39 -0.363,-1.957 -0.5,-3.777 -1.34,-11.609 -2.082,-18.804 2.336,-0.852 3.863,-2.254 4.726,-4.36 z"
         transform="scale(1.3333333)"
         id="path43" />
    </clipPath>
    <linearGradient
       x1="245.68201"
       y1="279.508"
       x2="741.90399"
       y2="279.508"
       gradientUnits="userSpaceOnUse"
       gradientTransform="scale(0.75)"
       spreadMethod="pad"
       id="linearGradient44">
      <stop
         style="stop-opacity:1;stop-color:#fffffe"
         offset="0"
         id="stop43" />
      <stop
         style="stop-opacity:1;stop-color:#e5bd95"
         offset="1"
         id="stop44" />
    </linearGradient>
    <clipPath
       clipPathUnits="userSpaceOnUse"
       id="clipPath44">
      <path
         d="M 0,0 H 686 V 548 H 0 Z"
         id="path44" />
    </clipPath>
    <clipPath
       clipPathUnits="userSpaceOnUse"
       id="clipPath46">
      <path
         d="m 552.578,67.461 c 1.199,0.996 2.442,1.902 3.727,2.684 l -362.66,281.781 h -2.618 c -4.894,-0.063 -2.718,-0.082 -6.527,0 h -0.238 v -0.09 z"
         transform="scale(1.3333333)"
         id="path46" />
    </clipPath>
    <linearGradient
       x1="177.536"
       y1="614.55603"
       x2="239.09399"
       y2="614.55603"
       gradientUnits="userSpaceOnUse"
       gradientTransform="scale(0.75)"
       spreadMethod="pad"
       id="linearGradient47">
      <stop
         style="stop-opacity:1;stop-color:#fffffe"
         offset="0"
         id="stop46" />
      <stop
         style="stop-opacity:1;stop-color:#e5bd95"
         offset="1"
         id="stop47" />
    </linearGradient>
    <clipPath
       clipPathUnits="userSpaceOnUse"
       id="clipPath47">
      <path
         d="M 0,0 H 686 V 548 H 0 Z"
         id="path47" />
    </clipPath>
    <clipPath
       clipPathUnits="userSpaceOnUse"
       id="clipPath49">
      <path
         d="m 138.016,436.105 c 13.64,2.356 27.379,4.09 41.125,5.711 0.113,1.204 0.054,0.598 0.179,1.813 v 0.258 c -0.539,17.758 -10.191,40.453 -30.488,41.843 -5.91,-0.039 -10.301,-1.66 -13.027,-4.832 -1.364,-1.554 -2.172,-3.336 -2.645,-5.089 0.231,-0.028 0.457,-0.043 0.703,-0.082 1.672,-0.313 3.508,-1.079 5.52,-2.321 4.765,-2.918 7.129,-17.605 7.277,-24.449 0.16,-6.953 -1.379,-8.805 -2.551,-9.598 -2.214,-1.488 -4.468,-2.418 -6.144,-2.972 l 0.043,-0.282 z"
         transform="scale(1.3333333)"
         id="path49" />
    </clipPath>
    <linearGradient
       x1="327.76001"
       y1="606.46997"
       x2="333.763"
       y2="606.46997"
       gradientUnits="userSpaceOnUse"
       gradientTransform="scale(0.75)"
       spreadMethod="pad"
       id="linearGradient50">
      <stop
         style="stop-opacity:1;stop-color:#fffffe"
         offset="0"
         id="stop49" />
      <stop
         style="stop-opacity:1;stop-color:#e5bd95"
         offset="1"
         id="stop50" />
    </linearGradient>
    <clipPath
       clipPathUnits="userSpaceOnUse"
       id="clipPath50">
      <path
         d="M 0,0 H 686 V 548 H 0 Z"
         id="path50" />
    </clipPath>
    <clipPath
       clipPathUnits="userSpaceOnUse"
       id="clipPath52">
      <path
         d="m 248.105,452.469 c 1.321,0.101 0.649,-0.004 2.004,0.336 l 0.215,0.133 v 0.007 c -0.562,2.114 -2.211,3.364 -4.062,4.285 -0.293,-2.918 -0.145,-1.484 -0.442,-4.304 v -0.043 c 1.426,-0.406 0.676,-0.258 2.25,-0.414 z"
         transform="scale(1.3333333)"
         id="path52" />
    </clipPath>
    <linearGradient
       x1="215.89"
       y1="274.836"
       x2="734.51202"
       y2="274.836"
       gradientUnits="userSpaceOnUse"
       gradientTransform="scale(0.75)"
       spreadMethod="pad"
       id="linearGradient53">
      <stop
         style="stop-opacity:1;stop-color:#fffffe"
         offset="0"
         id="stop52" />
      <stop
         style="stop-opacity:1;stop-color:#e5bd95"
         offset="1"
         id="stop53" />
    </linearGradient>
    <linearGradient
       x1="168.42"
       y1="537.23798"
       x2="182.043"
       y2="537.23798"
       gradientUnits="userSpaceOnUse"
       gradientTransform="scale(0.75)"
       spreadMethod="pad"
       id="linearGradient55">
      <stop
         style="stop-opacity:1;stop-color:#fffffe"
         offset="0"
         id="stop54" />
      <stop
         style="stop-opacity:1;stop-color:#e5bd95"
         offset="1"
         id="stop55" />
    </linearGradient>
    <linearGradient
       x1="129.064"
       y1="533.10797"
       x2="183.687"
       y2="533.10797"
       gradientUnits="userSpaceOnUse"
       gradientTransform="scale(0.75)"
       spreadMethod="pad"
       id="linearGradient57">
      <stop
         style="stop-opacity:1;stop-color:#fffffe"
         offset="0"
         id="stop56" />
      <stop
         style="stop-opacity:1;stop-color:#e5bd95"
         offset="1"
         id="stop57" />
    </linearGradient>
    <linearGradient
       x1="146.02"
       y1="491.20999"
       x2="898.73401"
       y2="491.20999"
       gradientUnits="userSpaceOnUse"
       gradientTransform="scale(0.75)"
       spreadMethod="pad"
       id="linearGradient59">
      <stop
         style="stop-opacity:1;stop-color:#fffffe"
         offset="0"
         id="stop58" />
      <stop
         style="stop-opacity:1;stop-color:#e5bd95"
         offset="1"
         id="stop59" />
    </linearGradient>
    <clipPath
       clipPathUnits="userSpaceOnUse"
       id="clipPath59">
      <path
         d="M 0,0 H 686 V 548 H 0 Z"
         id="path59" />
    </clipPath>
    <clipPath
       clipPathUnits="userSpaceOnUse"
       id="clipPath61">
      <path
         d="m 399.168,201.711 -1.785,2.691 c 3.441,2.282 9.719,6.399 17.859,11.774 39.055,25.719 120.34,79.246 141.047,94.148 39.406,28.364 61.387,39.246 80.77,48.844 11.613,5.75 22.586,11.191 35.937,19.777 9.992,50.059 -39.312,127.739 -99.019,156.086 -43.633,-32.293 -79.45,-51.554 -98.418,-52.906 -5.063,-0.363 -9.868,-0.687 -14.43,-1.012 -62.047,-4.308 -80.758,-5.617 -129.586,-29.793 -22.344,-11.07 -72.145,-12.41 -108.516,-13.379 -13.742,-0.367 -25.609,-0.691 -32.48,-1.472 l -2.617,-0.313 c -15.946,-1.82 -48.383,-5.519 -67.864,-10.488 2.063,0.066 4.344,0.137 6.856,0.215 4.023,0.137 8.652,0.273 14,0.472 l 3.402,0.122 -1.269,-3.157 c -4.899,-12.125 -6.168,-21.261 -7.196,-28.593 -0.797,-5.602 -1.402,-10.043 -3.347,-13.973 -3.551,-7.223 -13.961,-7.734 -22.762,-7.141 19.156,-10.988 68.137,-16.281 83.121,-14.972 29.781,2.621 87.762,-15.469 110.82,-49.801 l 0.243,-0.363 0.136,-0.407 c 1.985,-5.82 1.457,-30.347 -1.39,-36.328 l -2.996,1.418 81.429,-58.512 18,-12.937 z M 176.766,368.32 v 0.188 c 0,0.125 -0.016,0.297 -0.028,0.527 -0.027,0.461 -0.082,1.137 -0.121,2 -0.082,1.727 -0.148,4.184 -0.07,7.141 0.043,1.484 0.082,3.078 0.203,4.765 0.121,1.688 0.27,3.469 0.488,5.305 0.203,1.852 0.473,3.738 0.782,5.656 0.312,1.93 0.714,3.864 1.121,5.805 0.457,1.93 0.929,3.863 1.5,5.738 0.281,0.934 0.566,1.864 0.89,2.782 0.309,0.906 0.621,1.808 0.973,2.687 0.672,1.742 1.43,3.414 2.211,4.953 0.785,1.539 1.648,2.957 2.512,4.211 0.851,1.258 1.753,2.336 2.621,3.227 0.402,0.461 0.863,0.84 1.265,1.187 0.395,0.367 0.785,0.664 1.164,0.906 0.7,0.54 1.336,0.836 1.754,1.04 0.418,0.203 0.649,0.312 0.649,0.312 0,0 -0.176,-0.176 -0.5,-0.516 -0.164,-0.16 -0.364,-0.363 -0.594,-0.605 -0.215,-0.231 -0.445,-0.555 -0.715,-0.863 -0.269,-0.325 -0.555,-0.692 -0.812,-1.121 -0.254,-0.446 -0.606,-0.84 -0.875,-1.364 -0.582,-1 -1.161,-2.176 -1.758,-3.457 -0.567,-1.297 -1.117,-2.742 -1.66,-4.281 -0.539,-1.539 -1.067,-3.184 -1.551,-4.898 -1,-3.442 -1.918,-7.157 -2.77,-10.911 -1.687,-7.504 -3.129,-15.132 -4.386,-20.855 -0.594,-2.863 -1.161,-5.25 -1.567,-6.938 -0.203,-0.839 -0.39,-1.488 -0.512,-1.945 -0.121,-0.473 -0.214,-0.676 -0.214,-0.676 z m -14.555,7.762 c 0,0 -0.27,0.863 -0.66,2.391 -0.391,1.511 -0.934,3.683 -1.379,6.332 -0.945,5.277 -1.606,12.539 -0.418,19.843 0.594,3.633 1.676,7.262 3.293,10.395 0.769,1.594 1.758,3.012 2.73,4.309 1.039,1.253 2.106,2.363 3.2,3.238 1.066,0.918 2.16,1.621 3.144,2.148 0.512,0.254 0.945,0.539 1.402,0.715 0.446,0.176 0.864,0.352 1.231,0.485 0.742,0.312 1.363,0.417 1.769,0.539 0.403,0.109 0.618,0.175 0.618,0.175 0,0 -0.172,-0.148 -0.512,-0.402 -0.336,-0.258 -0.852,-0.582 -1.445,-1.066 -0.606,-0.489 -1.309,-1.082 -2.063,-1.809 -0.394,-0.34 -0.758,-0.758 -1.148,-1.191 -0.407,-0.418 -0.797,-0.875 -1.188,-1.375 -0.797,-0.973 -1.527,-2.121 -2.254,-3.336 -0.691,-1.254 -1.379,-2.578 -1.918,-4.047 -0.566,-1.446 -1.066,-2.973 -1.472,-4.578 -0.418,-1.578 -0.754,-3.239 -1.028,-4.914 -1.117,-6.684 -1.199,-13.661 -1.429,-18.954 -0.067,-2.648 -0.176,-4.859 -0.27,-6.425 -0.094,-1.567 -0.203,-2.473 -0.203,-2.473 z m 30.051,7.602 c 0,0 0.191,0.566 0.539,1.527 0.191,0.469 0.379,1.051 0.648,1.699 0.258,0.649 0.528,1.391 0.867,2.172 0.321,0.785 0.672,1.621 1.039,2.527 0.375,0.875 0.77,1.809 1.172,2.782 0.407,0.945 0.84,1.929 1.258,2.941 0.445,0.984 0.836,2.023 1.27,3.023 0.418,1.012 0.82,2.04 1.226,3.024 0.352,1.027 0.77,2 1.121,2.957 0.309,0.973 0.703,1.902 0.973,2.797 0.297,0.902 0.566,1.754 0.824,2.535 0.199,0.797 0.43,1.539 0.633,2.203 0.203,0.66 0.297,1.254 0.434,1.738 0.226,0.989 0.418,1.567 0.418,1.567 0,0 0.203,-0.551 0.457,-1.551 0.109,-0.5 0.324,-1.133 0.379,-1.852 0.082,-0.714 0.16,-1.523 0.214,-2.429 0.016,-0.891 -0.039,-1.848 -0.105,-2.875 -0.07,-1.024 -0.27,-2.078 -0.461,-3.172 -0.215,-1.094 -0.527,-2.199 -0.836,-3.32 -0.352,-1.11 -0.77,-2.215 -1.187,-3.293 -0.489,-1.067 -0.934,-2.161 -1.485,-3.176 -0.527,-1.024 -1.066,-2.012 -1.664,-2.942 -1.144,-1.863 -2.387,-3.484 -3.508,-4.82 -1.16,-1.32 -2.187,-2.363 -2.968,-3.035 -0.77,-0.691 -1.258,-1.027 -1.258,-1.027 z"
         transform="scale(1.3333333)"
         id="path61" />
    </clipPath>
    <linearGradient
       x1="741.69397"
       y1="59.726002"
       x2="767.76703"
       y2="59.726002"
       gradientUnits="userSpaceOnUse"
       gradientTransform="scale(0.75)"
       spreadMethod="pad"
       id="linearGradient62">
      <stop
         style="stop-opacity:1;stop-color:#fffffe"
         offset="0"
         id="stop61" />
      <stop
         style="stop-opacity:1;stop-color:#e5bd95"
         offset="1"
         id="stop62" />
    </linearGradient>
    <linearGradient
       x1="726.08002"
       y1="68.460999"
       x2="763.48798"
       y2="68.460999"
       gradientUnits="userSpaceOnUse"
       gradientTransform="scale(0.75)"
       spreadMethod="pad"
       id="linearGradient64">
      <stop
         style="stop-opacity:1;stop-color:#fffffe"
         offset="0"
         id="stop63" />
      <stop
         style="stop-opacity:1;stop-color:#e5bd95"
         offset="1"
         id="stop64" />
    </linearGradient>
  </defs>
  <sodipodi:namedview
     id="namedview1"
     pagecolor="#ffffff"
     bordercolor="#000000"
     borderopacity="0.25"
     inkscape:showpageshadow="2"
     inkscape:pageopacity="0.0"
     inkscape:pagecheckerboard="0"
     inkscape:deskcolor="#d1d1d1">
    <inkscape:page
       x="0"
       y="0"
       inkscape:label="1"
       id="page1"
       width="914"
       height="730"
       margin="0"
       bleed="0" />
  </sodipodi:namedview>
  <g
     id="g1"
     inkscape:groupmode="layer"
     inkscape:label="1">
    <g
       id="g3"
       clip-path="url(#clipPath4)">
      <path
         d="m 48.438,431.891 c 0.16,0.773 0.062,0.386 0.292,1.164 0.461,1.347 1.458,3.035 3.645,4.238 0.285,2.512 1.363,4.953 3.105,6.871 1.231,1.363 2.688,2.348 4.282,2.914 0.308,1.906 1.187,3.891 2.523,5.469 0.324,0.391 0.688,0.742 1.067,1.066 -11.329,4.496 -24.801,9.735 -35.707,13.813 -0.825,-0.852 -1.61,-2.039 -1.188,-3.254 -1.609,-0.149 -2.727,-1.332 -3.684,-2.508 v -0.035 c 8.528,-9.93 17.09,-19.832 25.649,-29.738 z"
         transform="scale(1.3333333)"
         style="fill:url(#linearGradient2);stroke:none"
         opacity="1"
         clip-path="url(#clipPath2)"
         id="path3" />
    </g>
    <g
       id="g6"
       clip-path="url(#clipPath7)">
      <path
         d="m 584.773,11.203 c 2.122,0.016 6.86,2.731 11.153,8.332 2.597,3.508 4.969,7.473 5.277,11.926 v 0.016 h -0.012 c -8.734,-3.52 -15.257,-10.813 -16.418,-20.274 z"
         transform="scale(1.3333333)"
         style="fill:url(#linearGradient5);stroke:none"
         opacity="1"
         clip-path="url(#clipPath5)"
         id="path6" />
    </g>
    <path
       id="path8"
       d="m 183.918,442.375 c 2.098,0.234 1.016,0.109 3.254,0.371 l 2.621,0.297 c 7.152,0.824 19.156,1.148 33.059,1.512 3.781,0.109 7.71,0.215 11.734,0.336 5.305,25.746 -7.602,47.847 -23.356,52.058 -6.601,1.77 -12.003,1.281 -16.05,-1.418 -2.797,-1.863 -4.539,-4.496 -5.629,-7.074 1.836,-0.609 4.277,-2.023 7.273,-5.223 3.93,-4.172 2.77,-18.011 0.758,-26.058 -2.176,-8.653 -4.859,-9.571 -5.75,-9.867 -3.094,-1.039 -5.859,-1.039 -7.793,-0.809 -0.277,-2.781 -0.148,-1.488 -0.387,-3.875 v -0.25 z"
       transform="scale(1.3333333)"
       style="fill:url(#linearGradient8);stroke:none" />
    <g
       id="g11"
       clip-path="url(#clipPath12)">
      <path
         d="m 577.836,16.969 c 1,3.89 3.199,8.101 6.047,11.812 2.929,4.039 6.816,7.141 11.125,9.571 v 0.003 c -4.59,3.961 -9.289,7.797 -14.004,11.602 h -0.016 C 573.391,44.695 567.207,37.789 563.352,29.375 Z"
         transform="scale(1.3333333)"
         style="fill:url(#linearGradient10);stroke:none"
         opacity="1"
         clip-path="url(#clipPath10)"
         id="path11" />
    </g>
    <g
       id="g14"
       clip-path="url(#clipPath15)">
      <path
         d="m 137.227,440.809 c 2.781,1.171 1.371,0.488 4.218,2.086 -1.218,1.628 -3.101,2.218 -5.004,2.55 0.512,-3.125 0.254,-1.582 0.766,-4.636 z"
         transform="scale(1.3333333)"
         style="fill:url(#linearGradient13);stroke:none"
         opacity="1"
         clip-path="url(#clipPath13)"
         id="path14" />
    </g>
    <g
       id="g17"
       clip-path="url(#clipPath18)">
      <path
         d="m 142.137,445.395 c 0.367,3.941 -0.129,7.894 -0.742,11.781 -1.297,7.562 -3.293,11.84 -4.321,12.461 -1.808,1.109 -3.308,1.703 -4.48,1.797 -0.016,-1.204 0.078,-2.297 0.187,-3.161 0.582,-4.183 1.957,-12.66 3.281,-20.574 0.594,-0.027 1.176,-0.094 1.715,-0.187 1.653,-0.25 3.071,-1.102 4.36,-2.117 z"
         transform="scale(1.3333333)"
         style="fill:url(#linearGradient16);stroke:none"
         opacity="1"
         clip-path="url(#clipPath16)"
         id="path17" />
    </g>
    <path
       id="path19"
       d="m 297.766,279.414 c 0.742,6.051 0.906,12.168 0.816,18.258 -0.035,2.613 -0.141,5.312 -0.668,7.887 -2.891,4.226 -6.398,8.179 -10.355,11.894 4.832,-9.273 7.129,-20.738 5.347,-28.621 -0.379,-1.687 -0.961,-3.133 -1.703,-4.32 l 6.539,-5.098 z"
       transform="scale(1.3333333)"
       style="fill:url(#linearGradient19);stroke:none" />
    <path
       id="path21"
       d="m 91.164,408.266 c 0.723,3.429 2.191,6.613 3.871,9.664 v 0.004 l -29.863,23.043 -2.106,0.043 c -1.214,0.027 -2.132,-0.704 -2.683,-1.313 -1.055,-1.16 -1.61,-2.793 -1.434,-4.266 l 0.297,-2.55 31.902,-24.625 z"
       transform="scale(1.3333333)"
       style="fill:url(#linearGradient21);stroke:none" />
    <path
       id="path23"
       d="m 90.16,399.383 c 0.176,4.297 0,2.164 0.524,6.39 v 0.055 l -33.829,26.125 h -0.039 l -0.269,-0.074 c -0.621,-0.176 -1.375,-0.473 -1.539,-0.957 -0.406,-1.149 0.742,-3.891 2.078,-5.793 z"
       transform="scale(1.3333333)"
       style="fill:url(#linearGradient23);stroke:none" />
    <path
       id="path25"
       d="m 191.777,453.633 c 1.293,2.875 1.848,6.004 2.43,9.078 1.402,8.586 0.824,15.984 -0.609,17.496 -1.469,1.582 -3.469,3.363 -5.371,4.012 -0.137,-0.688 -0.243,-1.336 -0.325,-1.903 -0.636,-4.793 -1.687,-14.621 -2.632,-23.75 2.808,-0.738 4.894,-2.605 6.503,-4.933 z"
       transform="scale(1.3333333)"
       style="fill:url(#linearGradient25);stroke:none" />
    <path
       id="path27"
       d="m 186.18,450.793 c 2.703,0.199 1.312,-0.008 4.164,0.676 -0.93,2.386 -2.59,3.898 -5.305,4.832 -0.187,-1.863 -0.379,-3.688 -0.551,-5.403 1.055,-0.105 0.516,-0.07 1.625,-0.105 z"
       transform="scale(1.3333333)"
       style="fill:url(#linearGradient27);stroke:none" />
    <g
       id="g30"
       clip-path="url(#clipPath31)">
      <path
         d="m 96.238,419.781 c 1.227,1.715 2.633,3.242 4.184,4.563 L 68.566,449.09 h -0.011 c -0.68,-0.25 -0.336,-0.074 -1.004,-0.578 -1.016,-1.028 -1.363,-2.676 -1.324,-3.024 l 1.324,-3.55 z"
         transform="scale(1.3333333)"
         style="fill:url(#linearGradient29);stroke:none"
         opacity="1"
         clip-path="url(#clipPath29)"
         id="path30" />
    </g>
    <g
       id="g33"
       clip-path="url(#clipPath34)">
      <path
         d="m 400.648,199.473 v 0.011 l -1.429,2.153 -18.106,13.011 z"
         transform="scale(1.3333333)"
         style="fill:url(#linearGradient32);stroke:none"
         opacity="1"
         clip-path="url(#clipPath32)"
         id="path33" />
    </g>
    <path
       id="path35"
       d="m 340.723,175.836 c 9.07,0 15.593,2.484 19.695,4.793 l -76.395,59.457 c -0.027,-1.137 0,-2.391 0.188,-3.676 0.137,-1.012 0.363,-2.008 0.648,-2.941 0.121,-0.473 0.297,-0.903 0.446,-1.324 0.148,-0.43 0.324,-0.821 0.5,-1.172 0.324,-0.731 0.66,-1.297 0.902,-1.703 0.231,-0.403 0.367,-0.633 0.367,-0.633 0,0 -0.191,0.187 -0.515,0.527 -0.348,0.324 -0.821,0.797 -1.336,1.441 -0.27,0.313 -0.551,0.649 -0.809,1.043 -0.269,0.391 -0.582,0.793 -0.836,1.239 -0.543,0.894 -1.066,1.89 -1.488,2.929 -0.891,2.082 -1.414,4.321 -1.645,6.036 -0.066,0.406 -0.109,0.785 -0.136,1.136 l -11.258,8.758 -0.039,-0.051 -0.137,-0.23 c -0.094,-0.149 -0.203,-0.324 -0.309,-0.512 -0.257,-0.312 -0.472,-0.918 -0.746,-1.488 -0.269,-0.567 -0.445,-1.281 -0.699,-1.985 -0.164,-0.753 -0.406,-1.523 -0.527,-2.375 -0.067,-0.429 -0.137,-0.863 -0.215,-1.296 -0.043,-0.446 -0.082,-0.891 -0.137,-1.336 -0.109,-0.903 -0.094,-1.836 -0.148,-2.766 0.015,-0.945 -0.028,-1.879 0.039,-2.809 0.043,-0.918 0.109,-1.836 0.219,-2.714 0.066,-0.875 0.226,-1.727 0.336,-2.536 0.148,-0.796 0.296,-1.554 0.445,-2.257 0.191,-0.672 0.324,-1.321 0.5,-1.875 0.187,-0.555 0.324,-1.039 0.472,-1.43 0.309,-0.77 0.485,-1.215 0.485,-1.215 0,0 -0.242,0.402 -0.66,1.133 -0.203,0.363 -0.418,0.836 -0.676,1.363 -0.27,0.528 -0.484,1.16 -0.781,1.824 -0.258,0.688 -0.512,1.43 -0.77,2.211 -0.23,0.813 -0.527,1.649 -0.73,2.539 -0.231,0.879 -0.446,1.797 -0.621,2.743 -0.204,0.945 -0.309,1.914 -0.473,2.886 -0.078,0.985 -0.227,1.973 -0.254,2.946 -0.016,0.484 -0.043,0.968 -0.055,1.457 0,0.484 0.012,0.957 0.028,1.429 -0.016,0.946 0.132,1.864 0.203,2.743 0.16,0.875 0.254,1.714 0.484,2.484 0.242,0.781 0.363,1.457 0.715,2.144 0.148,0.34 0.297,0.661 0.418,0.946 0.07,0.148 0.137,0.285 0.203,0.418 l 0.109,0.191 -8.804,6.856 c -0.16,-0.055 -0.324,-0.122 -0.496,-0.231 -0.246,-0.121 -0.543,-0.226 -0.813,-0.43 -0.281,-0.187 -0.594,-0.363 -0.89,-0.648 -0.325,-0.242 -0.649,-0.512 -0.957,-0.852 -0.665,-0.632 -1.297,-1.468 -1.958,-2.375 -0.621,-0.957 -1.269,-1.996 -1.835,-3.171 -1.165,-2.309 -2.149,-4.981 -2.946,-7.75 -1.605,-5.52 -2.469,-11.34 -2.847,-15.7 -0.176,-2.187 -0.243,-4.023 -0.231,-5.304 0.016,-1.285 0.094,-2.028 0.094,-2.028 0,0 -0.176,0.715 -0.375,2 -0.192,1.282 -0.395,3.117 -0.516,5.344 -0.242,4.441 -0.215,10.395 0.637,16.391 0.43,2.984 1.066,5.98 1.996,8.761 0.445,1.403 1.012,2.727 1.609,3.997 0.645,1.242 1.309,2.414 2.106,3.441 0.375,0.527 0.781,1.012 1.199,1.445 0.352,0.418 0.742,0.754 1.109,1.078 l -10.843,8.438 c -5.399,1.972 -11.961,3.644 -18.332,4.387 -2.539,0.125 -5.035,0.257 -7.086,0.421 l -0.192,0.012 c -3.199,-0.027 -6.195,-0.379 -8.773,-1.16 l -0.621,-0.191 c -0.285,-0.133 -0.555,-0.254 -0.852,-0.403 -0.539,-0.242 -1.051,-0.636 -1.617,-0.972 -0.57,-0.352 -1.148,-0.704 -1.758,-1.082 -0.593,-0.418 -1.172,-0.891 -1.793,-1.348 -1.257,-0.879 -2.457,-2 -3.726,-3.133 -0.664,-0.539 -1.242,-1.199 -1.864,-1.82 -0.593,-0.637 -1.257,-1.258 -1.851,-1.946 -1.16,-1.378 -2.402,-2.742 -3.481,-4.238 -1.16,-1.445 -2.187,-3 -3.214,-4.512 -0.528,-0.742 -0.957,-1.55 -1.43,-2.308 -0.461,-0.77 -0.957,-1.512 -1.352,-2.293 -0.836,-1.539 -1.66,-3.024 -2.308,-4.496 -0.727,-1.446 -1.281,-2.848 -1.809,-4.156 -0.539,-1.297 -0.902,-2.54 -1.281,-3.622 -0.297,-1.105 -0.567,-2.062 -0.77,-2.859 -0.297,-1.621 -0.461,-2.566 -0.461,-2.566 0,0 0.071,0.945 0.176,2.605 0.121,0.824 0.285,1.824 0.461,2.969 0.27,1.121 0.5,2.418 0.891,3.797 0.39,1.375 0.797,2.875 1.363,4.414 0.512,1.566 1.176,3.172 1.848,4.832 0.324,0.836 0.746,1.648 1.121,2.496 0.406,0.84 0.758,1.703 1.215,2.539 0.89,1.676 1.785,3.387 2.808,5.023 0.946,1.688 2.094,3.254 3.16,4.844 0.555,0.785 1.161,1.512 1.743,2.27 0.578,0.73 1.121,1.5 1.765,2.16 1.231,1.375 2.406,2.726 3.688,3.859 0.621,0.594 1.215,1.176 1.824,1.715 0.644,0.5 1.254,0.988 1.848,1.457 0.605,0.449 1.148,0.945 1.742,1.313 0.578,0.363 1.121,0.699 1.633,1.023 -0.5,8.047 -3.633,18.832 -9.911,27.719 l -15.523,12.082 -0.016,-0.137 c 0,0 -0.55,0.121 -1.539,0.313 -0.484,0.105 -1.093,0.254 -1.781,0.297 -0.699,0.039 -1.496,0.214 -2.375,0.175 h -0.906 c -0.621,0.012 -1.281,0.024 -1.942,-0.082 -0.527,-0.043 -1.054,-0.093 -1.582,-0.148 -0.539,-0.082 -1.093,-0.192 -1.66,-0.285 -1.133,-0.16 -2.265,-0.551 -3.453,-0.852 -1.148,-0.418 -2.363,-0.769 -3.523,-1.293 -1.192,-0.472 -2.325,-1.055 -3.473,-1.609 -1.117,-0.606 -2.227,-1.188 -3.266,-1.848 -1.054,-0.621 -2.05,-1.269 -2.996,-1.902 -0.945,-0.621 -1.797,-1.27 -2.621,-1.836 -1.59,-1.188 -2.902,-2.215 -3.82,-2.93 -0.902,-0.73 -1.43,-1.164 -1.43,-1.164 0,0 0.418,0.527 1.16,1.434 0.743,0.89 1.825,2.172 3.172,3.683 0.676,0.731 1.406,1.555 2.231,2.379 0.808,0.836 1.672,1.699 2.617,2.563 0.918,0.89 1.945,1.742 2.984,2.621 1.067,0.836 2.145,1.699 3.309,2.469 1.133,0.835 2.375,1.511 3.562,2.242 1.254,0.621 2.469,1.324 3.739,1.793 0.636,0.257 1.257,0.527 1.879,0.757 0.621,0.204 1.242,0.391 1.847,0.583 0.149,0.05 0.285,0.093 0.434,0.132 l -37.449,29.149 c -14.907,3.629 -27.891,8.773 -33.09,15.754 -3.071,4.625 -1.672,2.254 -4.207,7.109 h -0.223 c -1.707,-0.953 -2.746,-2.625 -3.672,-4.273 -2.144,-4.418 -1.902,-9.653 -0.902,-11.598 1.969,-3.836 6.047,-11.164 11.191,-20.441 17.551,-31.614 46.926,-84.547 53.649,-107.282 7.937,-26.824 11.218,-37.922 66.703,-43.175 32.172,-3.051 59.59,-8.625 81.621,-13.106 15.512,-3.16 27.769,-5.644 35.937,-6.023 0.809,-0.039 1.594,-0.055 2.364,-0.055 z"
       transform="scale(1.3333333)"
       style="fill:url(#linearGradient35);stroke:none" />
    <path
       id="path37"
       d="m 245.266,445.238 c 12.742,0.399 25.461,1.25 38.164,2.328 4.48,19.993 -5.414,37.246 -17.539,40.5 -4.969,1.309 -9.016,0.973 -12.016,-1.039 -2.254,-1.5 -3.602,-3.699 -4.387,-5.781 1.27,-0.523 2.93,-1.578 4.942,-3.723 2.754,-2.945 2.023,-13.273 0.445,-19.601 -1.066,-4.242 -2.43,-6.656 -4.063,-7.211 -2.027,-0.688 -3.835,-0.484 -5.226,-0.082 -0.172,-1.797 -0.356,-3.594 -0.539,-5.391 z"
       transform="scale(1.3333333)"
       style="fill:url(#linearGradient37);stroke:none" />
    <path
       id="path39"
       d="m 287.695,287.227 c 0.43,0.835 0.715,1.769 0.903,2.578 0.968,4.375 0.257,8.84 -0.485,13.183 h -0.019 c -4.66,-1.41 -9.063,-3.523 -13.442,-5.625 z"
       transform="scale(1.3333333)"
       style="fill:url(#linearGradient39);stroke:none" />
    <g
       id="g42"
       clip-path="url(#clipPath43)">
      <path
         d="m 246.383,458.352 c 0.742,7.195 1.582,15.027 2.082,18.804 0.066,0.567 0.187,1.231 0.363,1.957 1.199,-0.511 2.539,-1.551 3.996,-3.101 1.715,-1.824 1.672,-10.52 -0.094,-17.551 -0.554,-2.203 -1.136,-3.606 -1.621,-4.469 -0.863,2.106 -2.39,3.508 -4.726,4.36 z"
         transform="scale(1.3333333)"
         style="fill:url(#linearGradient41);stroke:none"
         opacity="1"
         clip-path="url(#clipPath41)"
         id="path42" />
    </g>
    <g
       id="g45"
       clip-path="url(#clipPath46)">
      <path
         d="m 552.578,67.461 c 1.199,0.996 2.442,1.902 3.727,2.684 l -362.66,281.781 h -2.606 c -4.91,-0.063 -2.727,-0.082 -6.547,0 h -0.23 v -0.09 z"
         transform="scale(1.3333333)"
         style="fill:url(#linearGradient44);stroke:none"
         opacity="1"
         clip-path="url(#clipPath44)"
         id="path45" />
    </g>
    <g
       id="g48"
       clip-path="url(#clipPath49)">
      <path
         d="m 138.016,436.105 c 13.64,2.356 27.379,4.09 41.125,5.711 0.113,1.204 0.054,0.598 0.179,1.817 v 0.25 c -0.539,17.758 -10.191,40.457 -30.488,41.847 -5.91,-0.039 -10.301,-1.66 -13.027,-4.832 -1.364,-1.554 -2.172,-3.336 -2.645,-5.089 0.231,-0.028 0.457,-0.043 0.703,-0.082 1.672,-0.313 3.508,-1.079 5.52,-2.321 4.765,-2.918 7.129,-17.605 7.277,-24.449 0.16,-6.953 -1.379,-8.805 -2.551,-9.598 -2.214,-1.488 -4.468,-2.418 -6.144,-2.972 l 0.043,-0.282 z"
         transform="scale(1.3333333)"
         style="fill:url(#linearGradient47);stroke:none"
         opacity="1"
         clip-path="url(#clipPath47)"
         id="path48" />
    </g>
    <g
       id="g51"
       clip-path="url(#clipPath52)">
      <path
         d="m 248.105,452.469 c 1.321,0.101 0.649,-0.004 2.004,0.336 l 0.215,0.133 v 0.007 c -0.562,2.114 -2.211,3.364 -4.062,4.285 -0.293,-2.918 -0.145,-1.484 -0.442,-4.304 v -0.043 c 1.426,-0.406 0.68,-0.258 2.25,-0.414 z"
         transform="scale(1.3333333)"
         style="fill:url(#linearGradient50);stroke:none"
         opacity="1"
         clip-path="url(#clipPath50)"
         id="path51" />
    </g>
    <path
       id="path53"
       d="m 544.387,58.516 c 1.886,2.718 4.148,5.136 6.496,7.453 V 65.98 L 180.328,352.066 c -6.152,0.289 -12.285,0.899 -18.41,1.551 L 544.152,58.516 Z"
       transform="scale(1.3333333)"
       style="fill:url(#linearGradient53);stroke:none" />
    <path
       id="path55"
       d="m 130.148,387.438 c 0.981,5.089 0.532,2.457 1.336,7.898 0.911,7.852 2.684,15.539 5.047,23.074 v 0.008 c -1.429,-0.898 -0.707,-0.422 -2.156,-1.43 -0.406,-0.285 -0.836,-0.582 -1.23,-0.945 -0.403,-0.363 -0.836,-0.688 -1.227,-1.105 -0.406,-0.395 -0.809,-0.813 -1.176,-1.27 -0.39,-0.445 -0.754,-0.918 -1.094,-1.418 -0.375,-0.488 -0.648,-1.039 -0.984,-1.566 -0.258,-0.567 -0.582,-1.106 -0.809,-1.7 -0.527,-1.175 -0.851,-2.433 -1.109,-3.699 -0.281,-1.269 -0.379,-2.582 -0.418,-3.863 -0.012,-1.281 0.039,-2.563 0.188,-3.793 0.191,-1.227 0.394,-2.418 0.691,-3.512 0.309,-1.105 0.621,-2.144 1.012,-3.062 0.363,-0.934 0.781,-1.754 1.176,-2.457 0.503,-0.801 0.25,-0.414 0.753,-1.16 z"
       transform="scale(1.3333333)"
       style="fill:url(#linearGradient55);stroke:none" />
    <path
       id="path57"
       d="m 114.691,377.852 c 6.047,0 11.961,0.984 13.864,4.847 0.609,1.242 1.066,2.606 1.445,4.102 -0.406,0.351 -0.836,0.769 -1.281,1.312 -0.555,0.66 -1.133,1.457 -1.633,2.387 -1.066,1.852 -1.957,4.199 -2.484,6.82 -0.219,1.321 -0.407,2.7 -0.407,4.118 0.016,1.414 0.094,2.859 0.379,4.277 0.309,1.418 0.715,2.82 1.336,4.117 0.555,1.309 1.336,2.512 2.172,3.578 0.434,0.528 0.84,1.055 1.324,1.485 0.446,0.472 0.934,0.89 1.418,1.269 0.957,0.785 1.93,1.418 2.875,1.902 0.918,0.543 1.836,0.868 2.621,1.204 0.2,0.066 0.375,0.121 0.567,0.187 0.554,1.57 0.273,0.785 0.847,2.359 h -0.089 c -7.227,-0.234 -3.7,-0.121 -10.586,-0.332 -10.911,-0.351 -17.539,-0.554 -21.239,-1.324 -4.183,-3.09 -7.246,-8.316 -8.461,-14.605 -1.785,-9.235 0.539,-19.305 6.223,-26.922 l 0.027,-0.039 h 0.012 c 3.024,-0.309 7.074,-0.742 11.07,-0.742 z"
       transform="scale(1.3333333)"
       style="fill:url(#linearGradient57);stroke:none" />
    <g
       id="g60"
       clip-path="url(#clipPath61)">
      <path
         d="m 399.168,201.711 -1.785,2.691 c 3.441,2.282 9.719,6.399 17.859,11.774 39.055,25.719 120.34,79.246 141.047,94.148 39.406,28.364 61.387,39.246 80.77,48.844 11.613,5.75 22.586,11.191 35.937,19.777 9.992,50.059 -39.312,127.739 -99.019,156.086 -43.633,-32.293 -79.45,-51.554 -98.418,-52.906 -5.063,-0.363 -9.868,-0.687 -14.43,-1.012 -62.047,-4.308 -80.758,-5.617 -129.586,-29.793 -22.344,-11.07 -72.145,-12.41 -108.516,-13.379 -13.742,-0.367 -25.609,-0.691 -32.48,-1.472 l -2.617,-0.313 c -15.946,-1.82 -48.383,-5.519 -67.864,-10.488 2.063,0.066 4.344,0.137 6.856,0.215 4.023,0.137 8.652,0.273 14,0.472 l 3.402,0.122 -1.269,-3.157 c -4.899,-12.125 -6.168,-21.261 -7.196,-28.593 -0.797,-5.602 -1.402,-10.043 -3.347,-13.973 -3.551,-7.223 -13.961,-7.734 -22.762,-7.141 19.156,-10.988 68.137,-16.281 83.121,-14.972 29.781,2.621 87.762,-15.469 110.82,-49.801 l 0.243,-0.363 0.136,-0.407 c 1.985,-5.82 1.457,-30.347 -1.39,-36.328 l -2.996,1.418 81.429,-58.512 18,-12.937 z M 176.766,368.32 v 0.188 c 0,0.125 -0.016,0.297 -0.028,0.527 -0.027,0.461 -0.082,1.137 -0.121,2 -0.082,1.727 -0.148,4.184 -0.07,7.141 0.043,1.484 0.082,3.078 0.203,4.765 0.121,1.688 0.27,3.469 0.488,5.305 0.203,1.852 0.473,3.738 0.782,5.656 0.312,1.93 0.714,3.864 1.121,5.805 0.457,1.93 0.929,3.863 1.5,5.738 0.281,0.934 0.566,1.864 0.89,2.782 0.309,0.906 0.621,1.808 0.973,2.687 0.672,1.742 1.43,3.414 2.211,4.953 0.785,1.539 1.648,2.957 2.512,4.211 0.851,1.258 1.753,2.336 2.621,3.227 0.402,0.461 0.863,0.84 1.265,1.187 0.395,0.367 0.785,0.664 1.164,0.906 0.7,0.54 1.336,0.836 1.754,1.04 0.418,0.203 0.649,0.312 0.649,0.312 0,0 -0.176,-0.176 -0.5,-0.516 -0.164,-0.16 -0.364,-0.363 -0.594,-0.605 -0.215,-0.231 -0.445,-0.555 -0.715,-0.863 -0.269,-0.325 -0.555,-0.692 -0.812,-1.121 -0.254,-0.446 -0.606,-0.84 -0.875,-1.364 -0.582,-1 -1.161,-2.176 -1.758,-3.457 -0.567,-1.297 -1.117,-2.742 -1.66,-4.281 -0.539,-1.539 -1.067,-3.184 -1.551,-4.898 -1,-3.442 -1.918,-7.157 -2.77,-10.911 -1.687,-7.504 -3.129,-15.132 -4.386,-20.855 -0.594,-2.863 -1.161,-5.25 -1.567,-6.938 -0.203,-0.839 -0.39,-1.488 -0.512,-1.945 -0.121,-0.473 -0.214,-0.676 -0.214,-0.676 z m -14.555,7.762 c 0,0 -0.27,0.863 -0.66,2.391 -0.391,1.511 -0.934,3.683 -1.379,6.332 -0.945,5.277 -1.606,12.539 -0.418,19.843 0.594,3.633 1.676,7.262 3.293,10.395 0.769,1.594 1.758,3.012 2.73,4.309 1.039,1.253 2.106,2.363 3.2,3.238 1.066,0.918 2.16,1.621 3.144,2.148 0.512,0.254 0.945,0.539 1.402,0.715 0.446,0.176 0.864,0.352 1.231,0.485 0.742,0.312 1.363,0.417 1.769,0.539 0.403,0.109 0.618,0.175 0.618,0.175 0,0 -0.172,-0.148 -0.512,-0.402 -0.336,-0.258 -0.852,-0.582 -1.445,-1.066 -0.606,-0.489 -1.309,-1.082 -2.063,-1.809 -0.394,-0.34 -0.758,-0.758 -1.148,-1.191 -0.407,-0.418 -0.797,-0.875 -1.188,-1.375 -0.797,-0.973 -1.527,-2.121 -2.254,-3.336 -0.691,-1.254 -1.379,-2.578 -1.918,-4.047 -0.566,-1.446 -1.066,-2.973 -1.472,-4.578 -0.418,-1.578 -0.754,-3.239 -1.028,-4.914 -1.117,-6.684 -1.199,-13.661 -1.429,-18.954 -0.067,-2.648 -0.176,-4.859 -0.27,-6.425 -0.094,-1.567 -0.203,-2.473 -0.203,-2.473 z m 30.051,7.602 c 0,0 0.191,0.566 0.539,1.527 0.191,0.469 0.379,1.051 0.648,1.699 0.258,0.649 0.528,1.391 0.867,2.172 0.321,0.785 0.672,1.621 1.039,2.527 0.375,0.875 0.77,1.809 1.172,2.782 0.407,0.945 0.84,1.929 1.258,2.941 0.445,0.984 0.836,2.023 1.27,3.023 0.418,1.012 0.82,2.04 1.226,3.024 0.352,1.027 0.77,2 1.121,2.957 0.309,0.973 0.703,1.902 0.973,2.797 0.297,0.902 0.566,1.754 0.824,2.535 0.199,0.797 0.43,1.539 0.633,2.203 0.203,0.66 0.297,1.254 0.434,1.738 0.226,0.989 0.418,1.567 0.418,1.567 0,0 0.203,-0.551 0.457,-1.551 0.109,-0.5 0.324,-1.133 0.379,-1.852 0.082,-0.714 0.16,-1.523 0.214,-2.429 0.016,-0.891 -0.039,-1.848 -0.105,-2.875 -0.07,-1.024 -0.27,-2.078 -0.461,-3.172 -0.215,-1.094 -0.527,-2.199 -0.836,-3.32 -0.352,-1.11 -0.77,-2.215 -1.187,-3.293 -0.489,-1.067 -0.934,-2.161 -1.485,-3.176 -0.527,-1.024 -1.066,-2.012 -1.664,-2.942 -1.144,-1.863 -2.387,-3.484 -3.508,-4.82 -1.16,-1.32 -2.187,-2.363 -2.968,-3.035 -0.77,-0.691 -1.258,-1.027 -1.258,-1.027 z"
         transform="scale(1.3333333)"
         style="fill:url(#linearGradient59);stroke:none"
         opacity="1"
         clip-path="url(#clipPath59)"
         id="path60" />
    </g>
    <path
       id="path62"
       d="m 558.07,33.953 c 4.391,9.531 12.907,16.848 17.754,20.465 -0.918,0.805 -0.449,0.398 -1.398,1.227 h -0.012 c -8.133,-4.278 -14.172,-11.977 -18.137,-20.141 0.621,-0.527 1.215,-1.051 1.793,-1.551 z"
       transform="scale(1.3333333)"
       style="fill:url(#linearGradient62);stroke:none" />
    <path
       id="path64"
       d="m 554.523,37.031 c 0.93,1.942 2.079,3.832 2.454,4.442 1.839,2.957 7.695,11.543 15.636,15.726 -3.41,2.942 -6.937,5.735 -10.504,8.481 h -0.035 C 554.105,61.539 547.953,53.832 544.559,45.566 v -0.004 c 3.328,-2.835 6.644,-5.683 9.964,-8.531 z"
       transform="scale(1.3333333)"
       style="fill:url(#linearGradient64);stroke:none" />
    <path
       id="path65"
       d="m 204.328,401.98 c 0.317,1.122 0.629,2.219 0.844,3.309 0.18,1.102 0.39,2.156 0.461,3.176 0.058,1.027 0.121,1.992 0.101,2.883 -0.05,0.898 -0.136,1.718 -0.214,2.433 -0.051,0.711 -0.274,1.336 -0.383,1.84 -0.258,1.008 -0.457,1.559 -0.457,1.559 0,0 -0.184,-0.586 -0.422,-1.567 -0.133,-0.492 -0.219,-1.078 -0.426,-1.738 -0.203,-0.664 -0.426,-1.402 -0.633,-2.199 -0.258,-0.785 -0.531,-1.641 -0.824,-2.543 -0.273,-0.895 -0.668,-1.821 -0.977,-2.789 -0.339,-0.965 -0.769,-1.946 -1.117,-2.957 -0.402,-0.996 -0.812,-2.016 -1.222,-3.028 -0.442,-1.007 -0.829,-2.039 -1.27,-3.031 -0.43,-1.004 -0.848,-1.988 -1.258,-2.945 -0.406,-0.961 -0.801,-1.895 -1.176,-2.781 -0.367,-0.895 -0.718,-1.743 -1.043,-2.524 -0.332,-0.777 -0.601,-1.523 -0.859,-2.172 -0.269,-0.64 -0.465,-1.23 -0.652,-1.703 -0.352,-0.953 -0.539,-1.523 -0.539,-1.523 0,0 0.496,0.34 1.258,1.031 0.781,0.68 1.812,1.715 2.964,3.031 1.125,1.34 2.371,2.965 3.508,4.832 0.594,0.922 1.141,1.914 1.668,2.934 0.555,1.008 0.992,2.105 1.481,3.168 0.425,1.094 0.832,2.199 1.187,3.304 m -10.148,24.254 c 0.32,0.336 0.492,0.512 0.492,0.512 0,0 -0.223,-0.105 -0.641,-0.305 -0.422,-0.203 -1.058,-0.5 -1.758,-1.043 -0.371,-0.246 -0.773,-0.535 -1.164,-0.898 -0.394,-0.355 -0.859,-0.73 -1.261,-1.191 -0.864,-0.899 -1.766,-1.977 -2.621,-3.235 -0.86,-1.254 -1.727,-2.664 -2.508,-4.207 -0.785,-1.543 -1.543,-3.207 -2.211,-4.961 -0.36,-0.871 -0.668,-1.769 -0.977,-2.683 -0.328,-0.907 -0.605,-1.84 -0.886,-2.782 -0.571,-1.875 -1.04,-3.804 -1.5,-5.734 -0.415,-1.941 -0.813,-3.879 -1.122,-5.801 -0.32,-1.918 -0.582,-3.816 -0.789,-5.656 -0.214,-1.836 -0.363,-3.617 -0.48,-5.305 -0.117,-1.691 -0.168,-3.289 -0.207,-4.769 -0.082,-2.953 -0.008,-5.418 0.074,-7.145 0.031,-0.859 0.094,-1.539 0.113,-2 0.016,-0.226 0.028,-0.398 0.036,-0.519 l -0.012,-0.192 c 0,0 0.101,0.196 0.226,0.68 0.118,0.449 0.313,1.109 0.508,1.945 0.41,1.68 0.965,4.075 1.563,6.938 1.261,5.726 2.703,13.344 4.398,20.851 0.844,3.754 1.766,7.477 2.762,10.907 0.488,1.726 1.015,3.367 1.558,4.906 0.536,1.539 1.09,2.976 1.661,4.277 0.593,1.289 1.168,2.453 1.754,3.453 0.261,0.524 0.613,0.926 0.871,1.364 0.261,0.437 0.546,0.797 0.816,1.121 0.27,0.32 0.488,0.633 0.715,0.871 0.23,0.238 0.426,0.437 0.59,0.601 m -17.555,0.02 c 0.34,0.258 0.52,0.394 0.52,0.394 0,0 -0.215,-0.058 -0.625,-0.164 -0.399,-0.129 -1.032,-0.234 -1.762,-0.539 -0.375,-0.144 -0.785,-0.312 -1.231,-0.492 -0.457,-0.18 -0.898,-0.457 -1.402,-0.711 -0.988,-0.539 -2.078,-1.23 -3.145,-2.144 -1.097,-0.883 -2.168,-1.989 -3.199,-3.246 -0.976,-1.293 -1.961,-2.715 -2.734,-4.301 -1.621,-3.145 -2.692,-6.766 -3.289,-10.399 -1.192,-7.3 -0.531,-14.574 0.414,-19.847 0.449,-2.649 0.984,-4.821 1.375,-6.34 0.391,-1.516 0.66,-2.379 0.66,-2.379 0,0 0.109,0.898 0.207,2.465 0.102,1.562 0.207,3.789 0.274,6.433 0.226,5.286 0.312,12.262 1.425,18.954 0.266,1.671 0.61,3.324 1.028,4.914 0.41,1.597 0.898,3.132 1.468,4.578 0.547,1.461 1.239,2.785 1.914,4.043 0.731,1.211 1.461,2.363 2.258,3.339 0.395,0.489 0.781,0.958 1.188,1.372 0.39,0.425 0.754,0.855 1.152,1.187 0.754,0.731 1.461,1.324 2.063,1.809 0.597,0.488 1.109,0.816 1.441,1.074 m -34.488,19.137 c 0.246,2.386 0.183,6.379 -0.742,11.789 -1.29,7.562 -3.297,11.836 -4.313,12.457 -1.816,1.109 -3.316,1.707 -4.492,1.797 -0.016,-1.207 0.078,-2.301 0.195,-3.164 0.574,-4.176 1.957,-12.665 3.274,-20.571 0.601,-0.027 1.171,-0.09 1.714,-0.191 1.731,-0.324 3.161,-1.028 4.364,-2.117 m -5.703,0.058 c 0.269,-1.609 0.531,-3.172 0.781,-4.644 1.226,0.441 2.738,1.113 4.23,2.09 -1.234,1.543 -2.824,2.351 -5.011,2.554 m 0.105,-27.035 c -0.664,-0.422 -1.418,-0.844 -2.168,-1.422 -0.402,-0.293 -0.828,-0.586 -1.223,-0.957 -0.406,-0.351 -0.843,-0.683 -1.226,-1.101 -0.41,-0.391 -0.813,-0.805 -1.176,-1.266 -0.391,-0.445 -0.754,-0.922 -1.101,-1.422 -0.372,-0.476 -0.649,-1.039 -0.981,-1.566 -0.254,-0.571 -0.582,-1.106 -0.809,-1.703 -0.523,-1.165 -0.851,-2.422 -1.113,-3.692 -0.277,-1.269 -0.379,-2.574 -0.418,-3.859 -0.012,-1.293 0.051,-2.567 0.199,-3.801 0.184,-1.219 0.387,-2.406 0.68,-3.512 0.313,-1.093 0.625,-2.136 1.012,-3.058 0.375,-0.93 0.777,-1.754 1.183,-2.461 0.262,-0.43 0.508,-0.817 0.754,-1.16 0.539,2.312 0.91,4.925 1.328,7.906 0.868,6.199 1.915,13.644 5.059,23.074 m -32.961,-39.785 0.027,-0.031 h 0.012 c 7.613,-0.801 21.785,-2.297 24.93,4.097 0.613,1.25 1.078,2.61 1.457,4.106 -0.414,0.347 -0.844,0.773 -1.293,1.308 -0.547,0.664 -1.121,1.461 -1.633,2.395 -1.062,1.84 -1.957,4.191 -2.469,6.816 -0.222,1.317 -0.418,2.696 -0.414,4.114 0.016,1.414 0.098,2.859 0.383,4.277 0.309,1.418 0.715,2.82 1.324,4.121 0.567,1.316 1.344,2.508 2.18,3.578 0.43,0.524 0.844,1.051 1.328,1.488 0.449,0.477 0.934,0.887 1.418,1.27 0.949,0.781 1.93,1.414 2.871,1.902 0.914,0.543 1.84,0.86 2.621,1.196 0.203,0.066 0.379,0.121 0.571,0.187 0.269,0.777 0.547,1.567 0.843,2.371 -3.964,-0.14 -7.507,-0.246 -10.675,-0.347 -10.911,-0.344 -17.539,-0.551 -21.231,-1.321 -4.195,-3.082 -7.262,-8.304 -8.473,-14.605 -1.777,-9.235 0.551,-19.297 6.223,-26.922 m 54.039,-24.473 c -3.808,0.496 -7.707,1.082 -11.609,1.754 l 31.961,-24.875 c 0.926,0.004 1.449,0.008 1.449,0.008 l -0.137,-1.027 74.063,-57.653 c 0.426,-0.308 0.828,-0.613 1.183,-0.922 L 539.223,49.836 c 0.953,2.059 2.246,4.383 3.816,6.75 z M 550.887,65.977 180.328,352.074 c -5.351,0.258 -11.668,0.77 -18.41,1.551 L 544.297,58.402 c 1.91,2.657 4.133,5.289 6.59,7.575 m -357.414,286.07 h -0.028 c -2.164,-0.192 -5.371,-0.238 -9.312,-0.121 L 552.578,67.465 c 1.199,0.996 2.445,1.906 3.723,2.683 z m 81.179,-54.684 13.043,-10.133 c 0.426,0.829 0.715,1.762 0.899,2.575 0.765,3.375 0.601,8.113 -0.481,13.187 -3.554,-6.047 -7.211,-6.574 -13.461,-5.629 m 18.25,-8.531 c -0.379,-1.684 -0.961,-3.129 -1.703,-4.324 l 6.571,-5.106 c 1.046,7.989 1.144,22.262 0.14,26.153 -2.887,4.226 -6.398,8.191 -10.355,11.894 4.836,-9.265 7.133,-20.734 5.347,-28.617 M 572.617,57.199 c -2.945,2.516 -6.637,5.567 -10.523,8.496 -7.653,-3.101 -15.375,-14.367 -17.535,-20.136 2.183,-1.864 6.203,-5.297 9.957,-8.532 0.933,1.946 2.082,3.84 2.457,4.442 1.843,2.953 7.695,11.543 15.644,15.73 m 3.211,-2.785 c -0.43,0.379 -0.906,0.797 -1.41,1.234 -8.824,-4.203 -15.797,-15.07 -18.145,-20.136 0.622,-0.539 1.227,-1.063 1.801,-1.563 4.387,9.531 12.903,16.848 17.754,20.465 m 8.953,-43.207 c 2.121,0.012 6.848,2.723 11.145,8.332 4.023,5.242 5.262,9.695 5.285,11.941 -13.668,-5.55 -16.035,-16.273 -16.43,-20.273 m 10.223,27.141 c -4.82,4.183 -10.961,9.164 -14.012,11.617 -4.156,-2.961 -13.961,-10.754 -17.648,-20.594 l 14.492,-12.406 c 0.996,3.89 3.203,8.105 6.047,11.812 3.469,4.52 7.406,7.844 11.121,9.571 M 90.156,377.52 c -2.144,-4.422 -1.89,-9.665 -0.898,-11.602 1.976,-3.836 6.043,-11.164 11.195,-20.441 17.551,-31.622 46.93,-84.547 53.652,-107.286 7.93,-26.816 11.215,-37.914 66.7,-43.175 32.16,-3.047 59.586,-8.621 81.617,-13.102 15.519,-3.152 27.777,-5.644 35.941,-6.023 10.309,-0.477 17.606,2.238 22.051,4.738 l -76.387,59.457 c -0.035,-1.141 0,-2.398 0.188,-3.668 0.129,-1.016 0.359,-2.016 0.64,-2.949 0.118,-0.473 0.301,-0.907 0.454,-1.328 0.148,-0.43 0.32,-0.817 0.5,-1.168 0.316,-0.731 0.652,-1.301 0.898,-1.7 0.238,-0.402 0.375,-0.636 0.375,-0.636 0,0 -0.191,0.191 -0.527,0.519 -0.34,0.328 -0.821,0.805 -1.332,1.446 -0.274,0.308 -0.551,0.656 -0.813,1.05 -0.269,0.387 -0.574,0.789 -0.828,1.243 -0.547,0.886 -1.07,1.882 -1.492,2.921 -0.887,2.079 -1.422,4.317 -1.652,6.039 -0.059,0.407 -0.102,0.786 -0.133,1.129 l -11.254,8.758 -0.039,-0.043 -0.129,-0.23 c -0.102,-0.16 -0.203,-0.332 -0.317,-0.516 -0.254,-0.316 -0.468,-0.926 -0.738,-1.48 -0.273,-0.582 -0.453,-1.282 -0.707,-1.993 -0.16,-0.753 -0.414,-1.527 -0.527,-2.378 -0.067,-0.422 -0.137,-0.856 -0.211,-1.29 -0.043,-0.445 -0.09,-0.89 -0.133,-1.339 -0.117,-0.907 -0.105,-1.84 -0.164,-2.774 0.019,-0.933 -0.016,-1.875 0.055,-2.797 0.035,-0.925 0.105,-1.836 0.211,-2.714 0.066,-0.887 0.23,-1.727 0.339,-2.54 0.145,-0.796 0.293,-1.554 0.446,-2.25 0.183,-0.687 0.316,-1.336 0.496,-1.882 0.183,-0.551 0.32,-1.043 0.472,-1.43 0.313,-0.777 0.493,-1.223 0.493,-1.223 0,0 -0.243,0.418 -0.664,1.145 -0.211,0.367 -0.418,0.836 -0.68,1.359 -0.262,0.531 -0.488,1.156 -0.777,1.824 -0.254,0.68 -0.516,1.426 -0.782,2.215 -0.226,0.801 -0.515,1.641 -0.718,2.528 -0.235,0.882 -0.446,1.808 -0.622,2.754 -0.207,0.941 -0.312,1.917 -0.472,2.89 -0.082,0.977 -0.235,1.957 -0.254,2.938 -0.024,0.488 -0.039,0.976 -0.063,1.453 0.008,0.484 0.02,0.965 0.028,1.437 -0.008,0.942 0.14,1.864 0.203,2.742 0.168,0.875 0.262,1.715 0.488,2.481 0.242,0.781 0.367,1.461 0.711,2.152 0.152,0.336 0.297,0.649 0.426,0.938 0.07,0.148 0.133,0.285 0.199,0.418 l 0.113,0.187 -8.808,6.856 c -0.16,-0.055 -0.324,-0.118 -0.5,-0.219 -0.246,-0.133 -0.531,-0.234 -0.805,-0.441 -0.281,-0.192 -0.598,-0.368 -0.898,-0.641 -0.313,-0.246 -0.641,-0.52 -0.953,-0.859 -0.665,-0.629 -1.301,-1.461 -1.961,-2.375 -0.625,-0.954 -1.266,-2 -1.829,-3.165 -1.164,-2.316 -2.152,-4.992 -2.945,-7.75 -1.613,-5.523 -2.473,-11.335 -2.844,-15.707 -0.183,-2.187 -0.246,-4.019 -0.234,-5.3 0.012,-1.285 0.09,-2.02 0.09,-2.02 0,0 -0.18,0.711 -0.371,1.992 -0.196,1.282 -0.395,3.125 -0.52,5.344 -0.25,4.438 -0.222,10.402 0.641,16.383 0.422,2.992 1.055,5.984 1.992,8.769 0.445,1.399 1.016,2.731 1.609,3.989 0.645,1.246 1.309,2.425 2.106,3.449 0.371,0.527 0.785,1.008 1.203,1.449 0.344,0.406 0.734,0.75 1.109,1.078 l -10.839,8.438 c -5.403,1.965 -11.969,3.636 -18.344,4.39 -2.535,0.118 -5.028,0.254 -7.082,0.414 l -0.188,0.008 c -3.199,-0.027 -6.199,-0.375 -8.781,-1.156 l -0.617,-0.184 c -0.281,-0.136 -0.551,-0.265 -0.848,-0.41 -0.543,-0.25 -1.055,-0.633 -1.621,-0.968 -0.566,-0.348 -1.152,-0.715 -1.762,-1.09 -0.586,-0.414 -1.172,-0.879 -1.785,-1.34 -1.265,-0.887 -2.461,-2.008 -3.734,-3.141 -0.656,-0.543 -1.235,-1.195 -1.856,-1.816 -0.605,-0.641 -1.257,-1.254 -1.847,-1.938 -1.164,-1.379 -2.414,-2.746 -3.492,-4.246 -1.157,-1.449 -2.184,-2.992 -3.208,-4.512 -0.531,-0.746 -0.96,-1.546 -1.441,-2.308 -0.453,-0.774 -0.953,-1.516 -1.348,-2.297 -0.832,-1.535 -1.648,-3.023 -2.304,-4.488 -0.727,-1.442 -1.274,-2.856 -1.813,-4.16 -0.527,-1.301 -0.89,-2.54 -1.281,-3.622 -0.297,-1.105 -0.555,-2.066 -0.77,-2.859 -0.293,-1.629 -0.457,-2.559 -0.457,-2.559 0,0 0.063,0.942 0.172,2.594 0.129,0.824 0.282,1.824 0.461,2.973 0.27,1.121 0.5,2.422 0.895,3.797 0.394,1.371 0.797,2.875 1.367,4.414 0.508,1.566 1.168,3.168 1.848,4.832 0.32,0.844 0.742,1.652 1.121,2.5 0.402,0.828 0.758,1.707 1.218,2.527 0.879,1.68 1.77,3.391 2.797,5.028 0.957,1.687 2.098,3.257 3.168,4.843 0.543,0.793 1.16,1.516 1.735,2.266 0.586,0.742 1.129,1.504 1.769,2.168 1.235,1.371 2.403,2.73 3.688,3.867 0.625,0.586 1.222,1.168 1.828,1.703 0.64,0.504 1.258,0.992 1.851,1.461 0.606,0.453 1.145,0.945 1.739,1.313 0.57,0.359 1.113,0.699 1.625,1.023 -0.5,8.051 -3.633,18.836 -9.91,27.719 l -15.516,12.082 -0.02,-0.133 c 0,0 -0.558,0.113 -1.531,0.313 -0.492,0.101 -1.094,0.253 -1.793,0.293 -0.695,0.035 -1.496,0.21 -2.371,0.179 -0.871,-0.027 -1.84,0.067 -2.855,-0.082 -0.512,-0.047 -1.039,-0.097 -1.582,-0.148 -0.536,-0.078 -1.082,-0.196 -1.645,-0.297 -1.133,-0.16 -2.269,-0.551 -3.461,-0.844 -1.152,-0.418 -2.367,-0.769 -3.523,-1.301 -1.184,-0.468 -2.328,-1.043 -3.469,-1.605 -1.117,-0.606 -2.234,-1.188 -3.274,-1.84 -1.05,-0.625 -2.05,-1.273 -2.988,-1.906 -0.949,-0.621 -1.804,-1.27 -2.621,-1.84 -1.598,-1.184 -2.91,-2.207 -3.824,-2.934 -0.91,-0.726 -1.43,-1.148 -1.43,-1.148 0,0 0.422,0.516 1.164,1.422 0.746,0.894 1.824,2.176 3.164,3.683 0.688,0.735 1.41,1.563 2.231,2.383 0.804,0.836 1.676,1.703 2.617,2.567 0.922,0.886 1.945,1.738 2.984,2.609 1.063,0.84 2.153,1.703 3.317,2.477 1.129,0.832 2.371,1.507 3.562,2.238 1.254,0.621 2.465,1.324 3.742,1.797 0.629,0.257 1.243,0.527 1.864,0.757 0.633,0.2 1.25,0.395 1.851,0.586 0.149,0.051 0.289,0.086 0.434,0.133 l -37.449,29.149 c -14.895,3.625 -27.887,8.773 -33.082,15.746 -1.672,2.246 -3.102,4.676 -4.27,7.222 -1.566,-0.906 -2.855,-2.363 -3.84,-4.378 m -23.922,67.968 1.321,-3.558 28.687,-22.145 c 1.227,1.707 2.629,3.235 4.172,4.563 l -31.848,24.746 c -0.3,-0.055 -0.636,-0.211 -1.011,-0.59 -1.024,-1.02 -1.375,-2.664 -1.321,-3.016 m -5.851,-5.773 c -1.055,-1.164 -1.602,-2.797 -1.434,-4.27 l 0.293,-2.547 31.922,-24.644 c 0.832,3.578 2.145,6.832 3.867,9.676 l -29.859,23.054 -2.102,0.039 c -1.222,0.024 -2.136,-0.703 -2.687,-1.308 m -3.293,-14.586 33.07,-25.75 c 0.004,2.168 0.176,4.324 0.531,6.449 l -33.843,26.129 -0.305,-0.082 c -0.613,-0.172 -1.379,-0.477 -1.539,-0.949 -0.395,-1.156 0.75,-3.891 2.086,-5.797 m -30.633,39.047 c -1.418,-0.102 -2.793,-1.215 -3.695,-2.535 7.558,-8.793 17.133,-19.887 25.679,-29.766 0.067,0.391 0.153,0.785 0.286,1.168 0.457,1.359 1.461,3.047 3.644,4.254 0.285,2.508 1.371,4.953 3.102,6.867 1.238,1.359 2.699,2.348 4.285,2.914 0.312,1.91 1.191,3.883 2.523,5.465 0.332,0.395 0.692,0.746 1.063,1.07 -11.317,4.492 -24.793,9.742 -35.696,13.813 -0.828,-0.852 -1.605,-2.039 -1.191,-3.25 m 122.367,21.551 c -5.906,-0.043 -10.289,-1.665 -13.023,-4.825 -1.356,-1.562 -2.172,-3.336 -2.645,-5.097 0.235,-0.028 0.465,-0.039 0.707,-0.078 1.668,-0.313 3.504,-1.086 5.524,-2.325 4.761,-2.914 7.121,-17.601 7.277,-24.449 0.156,-6.945 -1.383,-8.801 -2.555,-9.59 -2.211,-1.496 -4.476,-2.422 -6.148,-2.972 l 0.047,-0.286 c 13.984,2.418 29.269,4.325 41.125,5.711 0.058,0.567 0.121,1.2 0.191,1.899 -0.363,24.887 -16.347,42.113 -30.5,42.012 m 36.211,-29.422 c -0.191,-1.871 -0.375,-3.692 -0.551,-5.41 1.391,-0.18 3.508,-0.215 5.86,0.57 -0.926,2.39 -2.598,3.906 -5.309,4.84 m 6.746,-2.676 c 0.789,1.777 1.715,4.699 2.426,9.078 1.398,8.598 0.82,15.992 -0.602,17.508 -1.48,1.582 -3.472,3.355 -5.375,4.004 -0.144,-0.696 -0.253,-1.34 -0.328,-1.903 -0.636,-4.796 -1.687,-14.617 -2.632,-23.746 3.082,-0.957 5.191,-2.554 6.511,-4.941 m 3.395,41.906 c -2.789,-1.871 -4.531,-4.5 -5.625,-7.078 1.828,-0.613 4.273,-2.023 7.273,-5.219 3.922,-4.183 2.774,-18.019 0.758,-26.054 -2.172,-8.664 -4.863,-9.575 -5.746,-9.875 -3.09,-1.043 -5.871,-1.039 -7.797,-0.805 -0.156,-1.582 -0.297,-2.984 -0.414,-4.168 1.23,0.144 2.43,0.281 3.551,0.41 l 2.621,0.297 c 7.152,0.824 19.16,1.145 33.058,1.516 3.778,0.105 7.707,0.211 11.731,0.328 5.312,25.746 -7.606,47.851 -23.352,52.054 -6.609,1.774 -12.011,1.293 -16.058,-1.406 m 27.859,-57.597 c -13.746,-0.368 -25.617,-0.688 -32.484,-1.473 l -2.621,-0.301 c -15.946,-1.824 -48.391,-5.527 -67.868,-10.496 2.071,0.07 4.348,0.141 6.86,0.223 4.023,0.125 8.656,0.269 14,0.468 l 3.402,0.125 -1.273,-3.16 c -4.895,-12.133 -6.168,-21.262 -7.199,-28.597 -0.782,-5.61 -1.403,-10.043 -3.34,-13.981 -3.551,-7.215 -13.957,-7.726 -22.758,-7.141 19.148,-10.984 68.133,-16.281 83.113,-14.96 29.785,2.621 87.766,-15.481 110.817,-49.805 l 0.246,-0.36 0.14,-0.414 c 1.989,-5.812 1.453,-30.347 -1.398,-36.328 l -2.988,1.422 81.425,-58.512 14.024,-10.89 c 4.137,2.594 12.75,7.57 20.105,12.41 39.063,25.727 120.344,79.254 141.055,94.16 39.406,28.363 61.379,39.242 80.766,48.84 11.605,5.75 22.589,11.191 35.941,19.773 9.988,50.059 -39.316,127.743 -99.031,156.094 -43.625,-32.297 -79.434,-51.562 -98.41,-52.91 -5.063,-0.359 -9.86,-0.695 -14.426,-1.012 C 399.09,476.801 380.367,475.5 331.547,451.32 309.203,440.254 259.398,438.918 223.035,437.938 m 23.231,19.3 c -0.157,-1.511 -0.305,-2.976 -0.446,-4.359 1.055,-0.387 2.567,-0.656 4.289,-0.078 l 0.215,0.133 c -0.664,2.121 -1.926,3.468 -4.058,4.304 m 4.847,-3.254 c 0.485,0.868 1.067,2.282 1.614,4.477 1.765,7.027 1.812,15.719 0.093,17.551 -1.457,1.55 -2.789,2.59 -3.992,3.105 -0.172,-0.726 -0.293,-1.394 -0.363,-1.961 -0.504,-3.785 -1.34,-11.613 -2.082,-18.801 2.34,-0.851 3.871,-2.265 4.73,-4.371 m 2.762,33.047 c -2.258,-1.508 -3.598,-3.707 -4.395,-5.789 1.282,-0.519 2.942,-1.574 4.95,-3.719 2.758,-2.941 2.027,-13.273 0.441,-19.601 -1.062,-4.238 -2.426,-6.66 -4.055,-7.211 -2.031,-0.688 -3.843,-0.492 -5.222,-0.074 -0.223,-2.223 -0.41,-4.098 -0.539,-5.403 12.715,0.461 25.965,1.145 38.371,2.336 4.492,19.985 -5.41,37.246 -17.535,40.489 -4.961,1.324 -9.012,0.984 -12.016,-1.028 m 426.926,-111.203 -0.438,-1.98 -1.703,-1.106 c -14.285,-9.289 -25.765,-14.972 -37.926,-20.992 -19.101,-9.457 -40.75,-20.18 -79.605,-48.141 -20.832,-14.996 -102.16,-68.554 -141.242,-94.293 l -0.094,-0.062 c -6.684,-4.402 -12.09,-7.961 -15.711,-10.352 L 565.656,73.363 c 9.246,-6.812 17.598,-14.465 18.735,-15.515 1.953,-1.555 17.101,-13.653 22.05,-18.789 l 0.028,-0.032 C 612.461,33.543 608.633,22.496 602.496,14.5 596.266,6.371 588.75,2.004 582.887,3.094 c -1.379,0.261 -2.629,0.808 -3.707,1.636 -0.496,0.379 -0.942,0.821 -1.403,1.379 l -15.586,13.348 -0.046,-0.16 -5.946,5.293 c -4.14,3.683 -16.156,13.937 -18.508,15.949 L 365.887,174.27 c -5.68,-3.512 -14.895,-7.254 -27.907,-6.653 -4.742,0.223 -10.839,1.063 -19.773,2.727 -5.277,0.984 -11.184,2.187 -17.461,3.461 -7.547,1.535 -16.101,3.273 -25.113,4.953 -20.426,3.808 -38.098,6.355 -55.61,8.012 -9.429,0.898 -17.281,1.941 -24.007,3.195 -14.114,2.629 -23.602,6.207 -30.758,11.594 -10.692,8.05 -14.656,19.289 -19.094,34.285 -6.465,21.867 -35.566,74.289 -52.973,105.656 -5.175,9.32 -9.261,16.684 -11.293,20.629 -2.511,4.879 -2.168,12.875 0.813,19.008 1.668,3.433 4.09,6.129 7.055,7.875 l -0.055,0.23 -38.594,30.039 -0.394,0.52 c -0.137,0.183 -0.356,0.476 -0.618,0.863 L 50,420.785 C 20.215,455.195 4.766,473.211 4.078,474.344 l -1.828,3.031 2.863,2.086 c 0.949,0.691 1.871,0.992 4.016,0.594 3.73,-0.7 12.984,-3.946 31.93,-11.223 12.414,-4.762 24.734,-9.652 29.648,-11.613 L 71.891,457 106.629,430.008 c 5.426,2.269 13.867,4.504 25.129,6.644 -1.613,9.508 -4.145,24.66 -4.988,30.793 -0.938,6.852 0.636,13.043 4.441,17.434 3.93,4.539 9.84,6.863 17.574,6.922 1.551,0.008 3.137,-0.133 4.707,-0.43 10.938,-2.035 20.91,-10.976 26.653,-23.461 0.761,7.125 1.343,12.223 1.738,15.203 1.015,7.664 4.539,13.871 9.922,17.469 4.863,3.25 10.914,4.234 17.968,2.918 0.989,-0.184 2.008,-0.418 3.028,-0.691 13.187,-3.524 25.222,-17.262 28.347,-36.161 0.493,4.606 0.965,8.813 1.293,11.301 0.821,6.192 3.68,11.207 8.059,14.129 4.508,3.012 10.176,3.664 16.957,1.848 13.852,-3.699 26.063,-21.406 22.59,-43.992 17.562,2.023 29.953,4.91 37.824,8.808 50.285,24.906 69.387,26.231 132.688,30.633 4.562,0.313 9.355,0.645 14.41,1.004 17.414,1.242 53.172,20.859 95.644,52.476 l 2.356,1.758 2.676,-1.226 c 30.886,-14.114 60.543,-41.184 81.359,-74.278 20.918,-33.257 29.594,-67.254 23.797,-93.281"
       style="fill:#0a0b09;fill-opacity:1;fill-rule:nonzero;stroke:none"
       transform="scale(1.3333333)" />
  </g>
</svg>
