<?xml version="1.0" encoding="UTF-8" standalone="no"?>
<svg
   width="473.867pt"
   height="44.418pt"
   viewBox="0 0 473.867 44.418"
   version="1.1"
   id="svg22"
   sodipodi:docname="Long2.pdf"
   xmlns:inkscape="http://www.inkscape.org/namespaces/inkscape"
   xmlns:sodipodi="http://sodipodi.sourceforge.net/DTD/sodipodi-0.dtd"
   xmlns:xlink="http://www.w3.org/1999/xlink"
   xmlns="http://www.w3.org/2000/svg"
   xmlns:svg="http://www.w3.org/2000/svg">
  <sodipodi:namedview
     id="namedview22"
     pagecolor="#ffffff"
     bordercolor="#000000"
     borderopacity="0.25"
     inkscape:showpageshadow="2"
     inkscape:pageopacity="0.0"
     inkscape:pagecheckerboard="0"
     inkscape:deskcolor="#d1d1d1"
     inkscape:document-units="pt" />
  <defs
     id="defs7">
    <g
       id="g7">
      <g
         id="glyph-0-0">
        <path
           d="M 6.1875 -6.828125 L 5.140625 -6.828125 L 3.203125 -3.5 L 1.203125 -6.828125 L 0.125 -6.828125 L 2.75 -2.671875 L 2.75 0 L 3.625 0 L 3.625 -2.671875 Z M 6.1875 -6.828125 "
           id="path1" />
      </g>
      <g
         id="glyph-1-0">
        <path
           d="M 3.890625 -4.640625 L 3.890625 -5.1875 L 0.34375 -5.1875 L 0.34375 -4.546875 L 3.203125 -4.546875 C 2.15625 -3.203125 1.40625 -1.65625 1.03125 0 L 1.734375 0 C 2.03125 -1.71875 2.78125 -3.3125 3.890625 -4.640625 Z M 3.890625 -4.640625 "
           id="path2" />
      </g>
      <g
         id="glyph-1-1">
        <path
           d="M 3.84375 -1.5 C 3.84375 -2.09375 3.546875 -2.5 2.921875 -2.796875 C 3.46875 -3.125 3.65625 -3.390625 3.65625 -3.890625 C 3.65625 -4.71875 3 -5.3125 2.0625 -5.3125 C 1.125 -5.3125 0.46875 -4.71875 0.46875 -3.890625 C 0.46875 -3.390625 0.640625 -3.125 1.1875 -2.796875 C 0.578125 -2.5 0.28125 -2.09375 0.28125 -1.5 C 0.28125 -0.53125 1.015625 0.109375 2.0625 0.109375 C 3.109375 0.109375 3.84375 -0.53125 3.84375 -1.5 Z M 2.984375 -3.875 C 2.984375 -3.390625 2.609375 -3.046875 2.0625 -3.046875 C 1.5 -3.046875 1.140625 -3.390625 1.140625 -3.890625 C 1.140625 -4.390625 1.5 -4.71875 2.0625 -4.71875 C 2.625 -4.71875 2.984375 -4.390625 2.984375 -3.875 Z M 3.171875 -1.484375 C 3.171875 -0.859375 2.71875 -0.46875 2.046875 -0.46875 C 1.40625 -0.46875 0.953125 -0.875 0.953125 -1.484375 C 0.953125 -2.109375 1.40625 -2.5 2.0625 -2.5 C 2.71875 -2.5 3.171875 -2.109375 3.171875 -1.484375 Z M 3.171875 -1.484375 "
           id="path3" />
      </g>
      <g
         id="glyph-1-2">
        <path
           d="M 3.8125 -2.78125 C 3.8125 -4.4375 3.234375 -5.3125 2.015625 -5.3125 C 1.015625 -5.3125 0.28125 -4.59375 0.28125 -3.546875 C 0.28125 -2.5625 0.953125 -1.890625 1.921875 -1.890625 C 2.421875 -1.890625 2.78125 -2.078125 3.125 -2.484375 C 3.125 -1.1875 2.703125 -0.46875 1.953125 -0.46875 C 1.484375 -0.46875 1.15625 -0.765625 1.0625 -1.265625 L 0.390625 -1.265625 C 0.53125 -0.40625 1.09375 0.109375 1.90625 0.109375 C 3.140625 0.109375 3.8125 -0.9375 3.8125 -2.78125 Z M 3.09375 -3.5625 C 3.09375 -2.90625 2.640625 -2.484375 1.984375 -2.484375 C 1.359375 -2.484375 0.953125 -2.890625 0.953125 -3.59375 C 0.953125 -4.28125 1.40625 -4.734375 2.015625 -4.734375 C 2.625 -4.734375 3.09375 -4.25 3.09375 -3.5625 Z M 3.09375 -3.5625 "
           id="path4" />
      </g>
      <g
         id="glyph-1-3">
        <path
           d="M 2.59375 0 L 2.59375 -5.3125 L 2.15625 -5.3125 C 1.9375 -4.484375 1.78125 -4.375 0.765625 -4.25 L 0.765625 -3.78125 L 1.9375 -3.78125 L 1.9375 0 Z M 2.59375 0 "
           id="path5" />
      </g>
      <g
         id="glyph-1-4">
        <path
           d="M 3.796875 -2.546875 C 3.796875 -4.390625 3.203125 -5.3125 2.0625 -5.3125 C 0.90625 -5.3125 0.328125 -4.375 0.328125 -2.59375 C 0.328125 -0.8125 0.921875 0.109375 2.0625 0.109375 C 3.1875 0.109375 3.796875 -0.8125 3.796875 -2.546875 Z M 3.125 -2.609375 C 3.125 -1.109375 2.78125 -0.4375 2.046875 -0.4375 C 1.34375 -0.4375 1 -1.140625 1 -2.59375 C 1 -4.046875 1.34375 -4.71875 2.0625 -4.71875 C 2.765625 -4.71875 3.125 -4.03125 3.125 -2.609375 Z M 3.125 -2.609375 "
           id="path6" />
      </g>
      <g
         id="glyph-1-5">
        <path
           d="M 3.828125 -3.75 C 3.828125 -4.640625 3.125 -5.3125 2.125 -5.3125 C 1.046875 -5.3125 0.40625 -4.75 0.375 -3.46875 L 1.03125 -3.46875 C 1.078125 -4.359375 1.453125 -4.734375 2.109375 -4.734375 C 2.703125 -4.734375 3.15625 -4.296875 3.15625 -3.734375 C 3.15625 -3.3125 2.90625 -2.953125 2.4375 -2.6875 L 1.75 -2.296875 C 0.640625 -1.671875 0.3125 -1.171875 0.25 0 L 3.78125 0 L 3.78125 -0.65625 L 1 -0.65625 C 1.0625 -1.078125 1.296875 -1.359375 1.953125 -1.75 L 2.703125 -2.140625 C 3.4375 -2.546875 3.828125 -3.09375 3.828125 -3.75 Z M 3.828125 -3.75 "
           id="path7" />
      </g>
    </g>
  </defs>
  <path
     fill="none"
     stroke-width="0.3985"
     stroke-linecap="butt"
     stroke-linejoin="miter"
     stroke="rgb(0%, 0%, 0%)"
     stroke-opacity="1"
     stroke-miterlimit="10"
     d="M -14.174844 -12.048813 L 14.172812 -12.048813 L 14.172812 12.048844 L -14.174844 12.048844 Z M -14.174844 -12.048813 "
     transform="matrix(1, 0, 0, -1, 24.335, 22.209)"
     id="path8" />
  <g
     fill="rgb(0%, 0%, 0%)"
     fill-opacity="1"
     id="g8">
    <use
       xlink:href="#glyph-0-0"
       x="18.777"
       y="24.751"
       id="use8" />
  </g>
  <g
     fill="rgb(0%, 0%, 0%)"
     fill-opacity="1"
     id="g9">
    <use
       xlink:href="#glyph-1-0"
       x="25.229"
       y="26.597"
       id="use9" />
  </g>
  <path
     fill="none"
     stroke-width="0.3985"
     stroke-linecap="butt"
     stroke-linejoin="miter"
     stroke="rgb(0%, 0%, 0%)"
     stroke-opacity="1"
     stroke-miterlimit="10"
     d="M 70.868125 -12.048813 L 99.211875 -12.048813 L 99.211875 12.048844 L 70.868125 12.048844 Z M 70.868125 -12.048813 "
     transform="matrix(1, 0, 0, -1, 24.335, 22.209)"
     id="path9" />
  <g
     fill="rgb(0%, 0%, 0%)"
     fill-opacity="1"
     id="g10">
    <use
       xlink:href="#glyph-0-0"
       x="103.816"
       y="24.751"
       id="use10" />
  </g>
  <g
     fill="rgb(0%, 0%, 0%)"
     fill-opacity="1"
     id="g11">
    <use
       xlink:href="#glyph-1-1"
       x="110.269"
       y="26.597"
       id="use11" />
  </g>
  <path
     fill="none"
     stroke-width="0.3985"
     stroke-linecap="butt"
     stroke-linejoin="miter"
     stroke="rgb(0%, 0%, 0%)"
     stroke-opacity="1"
     stroke-miterlimit="10"
     d="M 155.907187 -12.048813 L 184.254844 -12.048813 L 184.254844 12.048844 L 155.907187 12.048844 Z M 155.907187 -12.048813 "
     transform="matrix(1, 0, 0, -1, 24.335, 22.209)"
     id="path11" />
  <g
     fill="rgb(0%, 0%, 0%)"
     fill-opacity="1"
     id="g12">
    <use
       xlink:href="#glyph-0-0"
       x="188.856"
       y="24.751"
       id="use12" />
  </g>
  <g
     fill="rgb(0%, 0%, 0%)"
     fill-opacity="1"
     id="g13">
    <use
       xlink:href="#glyph-1-2"
       x="195.308"
       y="26.597"
       id="use13" />
  </g>
  <path
     fill="none"
     stroke-width="0.3985"
     stroke-linecap="butt"
     stroke-linejoin="miter"
     stroke="rgb(0%, 0%, 0%)"
     stroke-opacity="1"
     stroke-miterlimit="10"
     d="M 240.94625 -12.048813 L 269.293906 -12.048813 L 269.293906 12.048844 L 240.94625 12.048844 Z M 240.94625 -12.048813 "
     transform="matrix(1, 0, 0, -1, 24.335, 22.209)"
     id="path13" />
  <g
     fill="rgb(0%, 0%, 0%)"
     fill-opacity="1"
     id="g14">
    <use
       xlink:href="#glyph-0-0"
       x="271.812"
       y="24.751"
       id="use14" />
  </g>
  <g
     fill="rgb(0%, 0%, 0%)"
     fill-opacity="1"
     id="g16">
    <use
       xlink:href="#glyph-1-3"
       x="278.265"
       y="26.597"
       id="use15" />
    <use
       xlink:href="#glyph-1-4"
       x="282.430496"
       y="26.597"
       id="use16" />
  </g>
  <path
     fill="none"
     stroke-width="0.3985"
     stroke-linecap="butt"
     stroke-linejoin="miter"
     stroke="rgb(0%, 0%, 0%)"
     stroke-opacity="1"
     stroke-miterlimit="10"
     d="M 325.989219 -12.048813 L 354.336875 -12.048813 L 354.336875 12.048844 L 325.989219 12.048844 Z M 325.989219 -12.048813 "
     transform="matrix(1, 0, 0, -1, 24.335, 22.209)"
     id="path16" />
  <g
     fill="rgb(0%, 0%, 0%)"
     fill-opacity="1"
     id="g17">
    <use
       xlink:href="#glyph-0-0"
       x="356.852"
       y="24.751"
       id="use17" />
  </g>
  <g
     fill="rgb(0%, 0%, 0%)"
     fill-opacity="1"
     id="g19">
    <use
       xlink:href="#glyph-1-3"
       x="363.304"
       y="26.597"
       id="use18" />
    <use
       xlink:href="#glyph-1-3"
       x="367.469496"
       y="26.597"
       id="use19" />
  </g>
  <path
     fill="none"
     stroke-width="0.3985"
     stroke-linecap="butt"
     stroke-linejoin="miter"
     stroke="rgb(0%, 0%, 0%)"
     stroke-opacity="1"
     stroke-miterlimit="10"
     d="M 411.028281 -12.048813 L 439.375938 -12.048813 L 439.375938 12.048844 L 411.028281 12.048844 Z M 411.028281 -12.048813 "
     transform="matrix(1, 0, 0, -1, 24.335, 22.209)"
     id="path19" />
  <g
     fill="rgb(0%, 0%, 0%)"
     fill-opacity="1"
     id="g20">
    <use
       xlink:href="#glyph-0-0"
       x="441.891"
       y="24.751"
       id="use20" />
  </g>
  <g
     fill="rgb(0%, 0%, 0%)"
     fill-opacity="1"
     id="g22">
    <use
       xlink:href="#glyph-1-3"
       x="448.343"
       y="26.597"
       id="use21" />
    <use
       xlink:href="#glyph-1-5"
       x="452.508496"
       y="26.597"
       id="use22" />
  </g>
</svg>
