<?xml version="1.0" encoding="UTF-8" standalone="no"?>
<!-- Created with Inkscape (http://www.inkscape.org/) -->

<svg
   version="1.1"
   id="svg1"
   width="153.83733"
   height="116.04267"
   viewBox="0 0 153.83733 116.04267"
   sodipodi:docname="Scales-of-Justice.pdf"
   xmlns:inkscape="http://www.inkscape.org/namespaces/inkscape"
   xmlns:sodipodi="http://sodipodi.sourceforge.net/DTD/sodipodi-0.dtd"
   xmlns="http://www.w3.org/2000/svg"
   xmlns:svg="http://www.w3.org/2000/svg">
  <defs
     id="defs1" />
  <sodipodi:namedview
     id="namedview1"
     pagecolor="#ffffff"
     bordercolor="#000000"
     borderopacity="0.25"
     inkscape:showpageshadow="2"
     inkscape:pageopacity="0.0"
     inkscape:pagecheckerboard="0"
     inkscape:deskcolor="#d1d1d1">
    <inkscape:page
       x="0"
       y="0"
       inkscape:label="1"
       id="page1"
       width="153.83733"
       height="116.04267"
       margin="0"
       bleed="0" />
  </sodipodi:namedview>
  <g
     id="g1"
     inkscape:groupmode="layer"
     inkscape:label="1">
    <path
       id="path1"
       d="M -5.66927,0 V 56.69362 H 5.66927 V 0 Z"
       style="fill:#000000;fill-opacity:1;fill-rule:nonzero;stroke:none"
       transform="matrix(1.3333333,0,0,-1.3333333,76.918667,99.596)" />
    <path
       id="path2"
       d="m -5.66927,0 -28.34681,-5.66927 v -5.66928 h 68.03216 v 5.66928 L 5.66927,0 Z"
       style="fill:#000000;fill-opacity:1;fill-rule:nonzero;stroke:none"
       transform="matrix(1.3333333,0,0,-1.3333333,76.918667,99.596)" />
    <path
       id="path3"
       d="M -5.66927,56.69362 H -42.5202 v 5.66926 c 6.63272,0 10.77553,-2.26853 17.00827,0 10.26782,3.73723 14.5852,11.33898 25.51193,11.33898 10.92673,0 15.24411,-7.60175 25.51193,-11.33898 6.23274,-2.26853 10.37555,0 17.00827,0 V 56.69362 H 5.66927 Z"
       style="fill:#000000;fill-opacity:1;fill-rule:nonzero;stroke:none"
       transform="matrix(1.3333333,0,0,-1.3333333,76.918667,99.596)" />
    <path
       id="path4"
       d="m -48.18947,22.67754 14.17339,34.01608 14.1734,-34.01608"
       style="fill:none;stroke:#000000;stroke-width:1.59404;stroke-linecap:butt;stroke-linejoin:miter;stroke-miterlimit:10;stroke-dasharray:none;stroke-opacity:1"
       transform="matrix(1.3333333,0,0,-1.3333333,76.918667,99.596)" />
    <path
       id="path5"
       d="m -56.6936,22.67754 c 4.9624,-8.59514 12.75273,-11.33898 22.67752,-11.33898 9.9248,0 17.71513,2.74384 22.67752,11.33898 z"
       style="fill:#000000;fill-opacity:1;fill-rule:nonzero;stroke:none"
       transform="matrix(1.3333333,0,0,-1.3333333,76.918667,99.596)" />
    <path
       id="path6"
       d="M 19.84268,22.67754 34.01608,56.69362 48.18947,22.67754"
       style="fill:none;stroke:#000000;stroke-width:1.59404;stroke-linecap:butt;stroke-linejoin:miter;stroke-miterlimit:10;stroke-dasharray:none;stroke-opacity:1"
       transform="matrix(1.3333333,0,0,-1.3333333,76.918667,99.596)" />
    <path
       id="path7"
       d="m 11.33856,22.67754 c 4.96239,-8.59514 12.75272,-11.33898 22.67752,-11.33898 9.92479,0 17.71512,2.74384 22.67752,11.33898 z"
       style="fill:#000000;fill-opacity:1;fill-rule:nonzero;stroke:none"
       transform="matrix(1.3333333,0,0,-1.3333333,76.918667,99.596)" />
  </g>
</svg>
