<?xml version="1.0" encoding="UTF-8" standalone="no"?>
<!-- Created with Inkscape (http://www.inkscape.org/) -->

<svg
   version="1.1"
   id="svg1"
   width="315.52933"
   height="315.20001"
   viewBox="0 0 315.52933 315.20001"
   sodipodi:docname="Intro.pdf"
   xmlns:inkscape="http://www.inkscape.org/namespaces/inkscape"
   xmlns:sodipodi="http://sodipodi.sourceforge.net/DTD/sodipodi-0.dtd"
   xmlns="http://www.w3.org/2000/svg"
   xmlns:svg="http://www.w3.org/2000/svg">
  <defs
     id="defs1" />
  <sodipodi:namedview
     id="namedview1"
     pagecolor="#ffffff"
     bordercolor="#000000"
     borderopacity="0.25"
     inkscape:showpageshadow="2"
     inkscape:pageopacity="0.0"
     inkscape:pagecheckerboard="0"
     inkscape:deskcolor="#d1d1d1">
    <inkscape:page
       x="0"
       y="0"
       inkscape:label="1"
       id="page1"
       width="315.52933"
       height="315.20001"
       margin="0"
       bleed="0" />
  </sodipodi:namedview>
  <g
     id="g1"
     inkscape:groupmode="layer"
     inkscape:label="1">
    <path
       id="path1"
       d="M -14.17339,-28.3468 H 10.47102"
       style="fill:none;stroke:#000000;stroke-width:0.3985;stroke-linecap:butt;stroke-linejoin:miter;stroke-miterlimit:10;stroke-dasharray:none;stroke-opacity:1"
       transform="matrix(1.3333333,0,0,-1.3333333,33.177333,23.354667)" />
    <path
       id="path2"
       d="M 3.68454,0 0.6434,1.14696 1.64552,0 0.6434,-1.14696 Z"
       style="fill:#000000;fill-opacity:1;fill-rule:nonzero;stroke:#000000;stroke-width:0.3985;stroke-linecap:butt;stroke-linejoin:miter;stroke-miterlimit:10;stroke-dasharray:none;stroke-opacity:1"
       transform="matrix(1.3333333,0,0,-1.3333333,45.07748,61.1504)" />
    <path
       id="path3"
       d="m -13.65541,-53.02333 c 3.51152,11.68683 23.79532,11.68785 27.30984,0.0031"
       style="fill:none;stroke:#000000;stroke-width:0.3985;stroke-linecap:butt;stroke-linejoin:miter;stroke-miterlimit:10;stroke-dasharray:none;stroke-opacity:1"
       transform="matrix(1.3333333,0,0,-1.3333333,33.177333,23.354667)" />
    <path
       id="path4"
       d="M 3.68454,0 0.6434,1.14696 1.64552,0 0.6434,-1.14696 Z"
       style="fill:#000000;fill-opacity:1;fill-rule:nonzero;stroke:#000000;stroke-width:0.3985;stroke-linecap:butt;stroke-linejoin:miter;stroke-miterlimit:10;stroke-dasharray:none;stroke-opacity:1"
       transform="matrix(-0.24616,1.3103467,1.3103467,0.24616,15.373067,92.04428)" />
    <path
       id="path5"
       d="M 3.68454,0 0.6434,1.14696 1.64552,0 0.6434,-1.14696 Z"
       style="fill:#000000;fill-opacity:1;fill-rule:nonzero;stroke:#000000;stroke-width:0.3985;stroke-linecap:butt;stroke-linejoin:miter;stroke-miterlimit:10;stroke-dasharray:none;stroke-opacity:1"
       transform="matrix(0.24628,1.31032,1.31032,-0.24628,50.98108,92.0442)" />
    <path
       id="path6"
       d="m -4.44342,-85.62654 c -6.1516,10.55496 15.05084,10.55136 8.88054,-0.01086"
       style="fill:none;stroke:#000000;stroke-width:0.3985;stroke-linecap:butt;stroke-linejoin:miter;stroke-miterlimit:10;stroke-dasharray:none;stroke-opacity:1"
       transform="matrix(1.3333333,0,0,-1.3333333,33.177333,23.354667)" />
    <path
       id="path7"
       d="M 2.26721,0 0.64345,0.61548 1.18489,0 0.64345,-0.61548 Z"
       style="fill:#000000;fill-opacity:1;fill-rule:nonzero;stroke:#000000;stroke-width:0.3985;stroke-linecap:butt;stroke-linejoin:miter;stroke-miterlimit:10;stroke-dasharray:none;stroke-opacity:1"
       transform="matrix(0.73673333,1.1112,1.1112,-0.73673333,26.477773,136.32973)" />
    <path
       id="path8"
       d="M 2.26721,0 0.64345,0.61548 1.18489,0 0.64345,-0.61548 Z"
       style="fill:#000000;fill-opacity:1;fill-rule:nonzero;stroke:#000000;stroke-width:0.3985;stroke-linecap:butt;stroke-linejoin:miter;stroke-miterlimit:10;stroke-dasharray:none;stroke-opacity:1"
       transform="matrix(-0.73742667,1.11076,1.11076,0.73742667,39.879933,136.32956)" />
    <path
       id="path9"
       d="M -14.17339,-123.30858 H 14.1734 v 19.84268 h -28.34679 z"
       style="fill:none;stroke:#000000;stroke-width:0.3985;stroke-linecap:butt;stroke-linejoin:miter;stroke-miterlimit:10;stroke-dasharray:none;stroke-opacity:1"
       transform="matrix(1.3333333,0,0,-1.3333333,33.177333,23.354667)" />
    <path
       id="path10"
       d="m 14.17339,-141.73404 c 0,5.47948 -6.34555,9.92134 -14.17339,9.92134 -7.82784,0 -14.17339,-4.44186 -14.17339,-9.92134 0,-5.47948 6.34555,-9.92134 14.17339,-9.92134 7.82784,0 14.17339,4.44186 14.17339,9.92134 z"
       style="fill:none;stroke:#000000;stroke-width:0.3985;stroke-linecap:butt;stroke-linejoin:miter;stroke-miterlimit:10;stroke-dasharray:none;stroke-opacity:1"
       transform="matrix(1.3333333,0,0,-1.3333333,33.177333,23.354667)" />
    <path
       id="path11"
       d="m 0,-160.28023 -8.4876,-14.70094 H 8.4876 Z"
       style="fill:none;stroke:#000000;stroke-width:0.3985;stroke-linecap:butt;stroke-linejoin:miter;stroke-miterlimit:10;stroke-dasharray:none;stroke-opacity:1"
       transform="matrix(1.3333333,0,0,-1.3333333,33.177333,23.354667)" />
    <path
       id="path12"
       d="M 3.2473672,5.703125e-4 V -6.6322422 H 2.7083047 c -0.2929688,1.0195313 -0.4804688,1.1601563 -1.75781251,1.3125 v 0.5976563 H 2.4270547 V 5.703125e-4 Z m 0,0"
       style="fill:#000000;fill-opacity:1;fill-rule:nonzero;stroke:none"
       aria-label="1"
       transform="matrix(1.3333333,0,0,1.3333333,29.705333,254.74533)" />
    <path
       id="path13"
       d="M -14.17339,-206.93178 H 10.47102"
       style="fill:none;stroke:#000000;stroke-width:0.3985;stroke-linecap:butt;stroke-linejoin:miter;stroke-miterlimit:10;stroke-dasharray:none;stroke-opacity:1"
       transform="matrix(1.3333333,0,0,-1.3333333,33.177333,23.354667)" />
    <path
       id="path14"
       d="M 3.68454,0 0.6434,1.14696 1.64552,0 0.6434,-1.14696 Z"
       style="fill:#000000;fill-opacity:1;fill-rule:nonzero;stroke:#000000;stroke-width:0.3985;stroke-linecap:butt;stroke-linejoin:miter;stroke-miterlimit:10;stroke-dasharray:none;stroke-opacity:1"
       transform="matrix(1.3333333,0,0,-1.3333333,45.07748,299.26371)" />
    <path
       id="path15"
       d="m 0,-184.25424 v -16.98262"
       style="fill:none;stroke:#000000;stroke-width:0.3985;stroke-linecap:butt;stroke-linejoin:miter;stroke-miterlimit:10;stroke-dasharray:none;stroke-opacity:1"
       transform="matrix(1.3333333,0,0,-1.3333333,33.177333,23.354667)" />
    <path
       id="path16"
       d="M 3.68454,0 0.6434,1.14696 1.64552,0 0.6434,-1.14696 Z"
       style="fill:#000000;fill-opacity:1;fill-rule:nonzero;stroke:#000000;stroke-width:0.3985;stroke-linecap:butt;stroke-linejoin:miter;stroke-miterlimit:10;stroke-dasharray:none;stroke-opacity:1"
       transform="matrix(0,1.3333333,1.3333333,0,33.177333,289.60927)" />
    <path
       id="path17"
       d="m 3.78584,0 c 0,0.99042 -0.80287,1.79329 -1.79329,1.79329 -0.99043,0 -1.7933,-0.80287 -1.7933,-1.79329 0,-0.99042 0.80287,-1.79329 1.7933,-1.79329 0.99042,0 1.79329,0.80287 1.79329,1.79329 z"
       style="fill:#000000;fill-opacity:1;fill-rule:nonzero;stroke:#000000;stroke-width:0.3985;stroke-linecap:butt;stroke-linejoin:miter;stroke-miterlimit:10;stroke-dasharray:none;stroke-opacity:1"
       transform="matrix(0,1.3333333,1.3333333,0,33.177333,296.60696)" />
    <path
       id="path18"
       d="m 5.9299609,-2.0493438 c 0,-1.078125 -0.5507812,-1.5820312 -1.8046875,-1.828125 L 3.0471484,-4.0766875 C 2.0510547,-4.2759063 1.7580859,-4.475125 1.7580859,-4.9673125 c 0,-0.515625 0.4570313,-0.84375 1.1835938,-0.84375 0.890625,0 1.4296875,0.375 1.4296875,1.0664062 h 1.3125 c 0,-1.4414062 -1.0078125,-2.1914062 -2.6835938,-2.1914062 -1.6289062,0 -2.57812496,0.7617187 -2.57812496,2.0976562 0,1.0664063 0.52734375,1.5585938 1.92187496,1.8398438 l 0.9492188,0.1875 c 0.9375,0.1757812 1.2890625,0.375 1.2890625,0.9257812 0,0.5742188 -0.5273438,0.8789063 -1.3828125,0.8789063 -0.9492188,0 -1.5351563,-0.4101563 -1.5351563,-1.1367188 H 0.30496094 c 0,1.4648438 1.07812496,2.2617188 2.82421876,2.2617188 1.7578125,0 2.8007812,-0.78515625 2.8007812,-2.1679688 z m 5.3554691,-3 H 9.9377734 L 8.8830859,-1.3696563 7.7698047,-5.0493438 H 6.3283984 L 8.2151172,0.212375 v 0.0351563 c 0,0.48046875 -0.3632813,0.8437499 -0.8203125,0.8437499 -0.1054688,0 -0.1757813,-0.011719 -0.3398438,-0.058594 v 0.9843751 c 0.1875,0.023437 0.3046875,0.035156 0.46875,0.035156 0.8789063,0 1.3359375,-0.1640625 1.6757813,-1.125 z m 7.877929,5.0507813 v -3.5742188 c 0,-0.984375 -0.597656,-1.5703125 -1.605468,-1.5703125 -0.632813,0 -1.089844,0.234375 -1.476563,0.75 -0.246094,-0.46875 -0.75,-0.75 -1.382812,-0.75 -0.574219,0 -0.949219,0.1992188 -1.382813,0.7148438 v -0.6210938 h -1.300781 v 5.0507813 h 1.3125 v -3.0351563 c 0,-0.6210937 0.339844,-0.9960937 0.902344,-0.9960937 0.433593,0 0.703125,0.2578125 0.703125,0.65625 v 3.375 h 1.3125 v -3.0351563 c 0,-0.6210937 0.339843,-0.9960937 0.902343,-0.9960937 0.433594,0 0.714844,0.2578125 0.714844,0.65625 v 3.375 z M 25.1575,-2.4595 c 0,-1.4296875 -0.785156,-2.6835938 -2.121094,-2.6835938 -0.621093,0 -1.078125,0.234375 -1.394531,0.7382813 V -6.818875 h -1.3125 v 6.8203125 h 1.3125 V -0.5845 c 0.316406,0.43359375 0.761719,0.66796875 1.394531,0.66796875 1.207032,0 2.121094,-1.01953125 2.121094,-2.54296875 z m -1.300781,-0.058594 c 0,0.9140625 -0.46875,1.5117188 -1.113281,1.5117188 -0.65625,0 -1.101563,-0.5742188 -1.101563,-1.5351563 0,-0.9257812 0.445313,-1.5 1.101563,-1.5 0.644531,0 1.113281,0.5859375 1.113281,1.5234375 z m 6.975586,0.023437 c 0,-1.7109375 -0.925782,-2.6484375 -2.519532,-2.6484375 -1.535156,0 -2.484375,0.9609375 -2.484375,2.6132813 0,1.6640625 0.949219,2.61328125 2.496094,2.61328125 1.535156,0 2.507813,-0.94921875 2.507813,-2.57812505 z m -1.3125,-0.011719 c 0,0.9492187 -0.492188,1.53515625 -1.195313,1.53515625 -0.703125,0 -1.183594,-0.58593755 -1.183594,-1.55859375 0,-0.9609375 0.480469,-1.546875 1.183594,-1.546875 0.726563,0 1.195313,0.5742187 1.195313,1.5703125 z m 3.635742,2.5078125 V -6.818875 h -1.300781 v 6.8203125 z m 5.53418,-1.5 v -0.058594 c 0,-0.5859375 -0.316407,-1.0195312 -0.984375,-1.21875 l -1.664063,-0.46875 c -0.363281,-0.1054687 -0.457031,-0.1875 -0.457031,-0.3984375 0,-0.28125 0.304687,-0.46875 0.761719,-0.46875 0.621093,0 0.9375,0.2226563 0.949218,0.6914063 h 1.253907 c -0.01172,-1.078125 -0.832032,-1.7226563 -2.191407,-1.7226563 -1.289062,0 -2.085937,0.6445313 -2.085937,1.6875 0,0.6210938 0.175781,0.9609375 1.113281,1.2421875 l 1.558594,0.4921875 c 0.328125,0.1054688 0.445312,0.2109375 0.445312,0.3515625 0,0.3046875 -0.375,0.42187505 -0.972656,0.42187505 -0.609375,0 -0.925781,-0.10546875 -1.03125,-0.65625005 h -1.289062 c 0.03516,1.1132813 0.855468,1.68750005 2.390625,1.68750005 1.417968,0 2.203125,-0.5625 2.203125,-1.58203105 z m 0,0"
       style="fill:#000000;fill-opacity:1;fill-rule:nonzero;stroke:none"
       aria-label="Symbols"
       transform="matrix(1.3333333,0,0,1.3333333,18.706667,26.529333)" />
    <path
       id="path19"
       d="m 6.2449219,-3.4231875 c 0,-2.109375 -1.0546875,-3.3984375 -2.7773438,-3.3984375 H 0.83085937 v 6.8203125 H 3.4675781 c 1.7226563,0 2.7773438,-1.2890625 2.7773438,-3.421875 z m -0.8671875,0.011719 c 0,1.7226563 -0.7148438,2.6367188 -2.0625,2.6367188 H 1.6980469 V -6.059906 h 1.6171875 c 1.3476562,0 2.0625,0.9140625 2.0625,2.6484375 z m 2.8125,3.4101563 V -4.9114688 H 7.4167969 v 4.9101563 z M 8.2957031,-5.64975 V -6.6224063 H 7.3230469 V -5.64975 Z m 3.5449219,1.4296875 v -0.796875 c -0.128906,-0.023437 -0.1875,-0.035156 -0.292969,-0.035156 -0.503906,0 -0.890625,0.3046875 -1.335937,1.03125 v -0.890625 H 9.496875 v 4.9101563 h 0.773437 V -2.544281 c 0,-1.1132812 0.363282,-1.6640625 1.570313,-1.6757815 z m 4.828125,1.9921875 c 0,-0.7148438 -0.05859,-1.1601563 -0.199219,-1.5234375 -0.316406,-0.8085938 -1.066406,-1.3007813 -1.980469,-1.3007813 -1.371093,0 -2.25,1.0195313 -2.25,2.625 0,1.6054688 0.855469,2.5664063 2.226563,2.5664063 1.125,0 1.898437,-0.6328125 2.097656,-1.6289063 h -0.785156 c -0.210938,0.6445313 -0.65625,0.9023438 -1.277344,0.9023438 -0.820312,0 -1.429687,-0.515625 -1.453125,-1.640625 z m -0.832031,-0.6914063 c 0,0 0,0.035156 -0.01172,0.058594 h -2.753906 c 0.07031,-0.8789063 0.621093,-1.4648438 1.40625,-1.4648438 0.761718,0 1.359375,0.6328125 1.359375,1.40625 z m 5.701172,1.2304688 h -0.785157 c -0.128906,0.78515625 -0.539062,1.1015625 -1.195312,1.1015625 -0.867188,0 -1.382813,-0.65625 -1.382813,-1.8164063 0,-1.2304687 0.503907,-1.921875 1.359375,-1.921875 0.65625,0 1.066407,0.3867188 1.160157,1.0664063 h 0.785156 c -0.09375,-1.1953125 -0.84375,-1.7929688 -1.933594,-1.7929688 -1.324219,0 -2.179687,1.0195313 -2.179687,2.6484375 0,1.5820313 0.84375,2.5429688 2.167968,2.5429688 1.171875,0 1.910157,-0.703125 2.003907,-1.828125 z m 2.595703,1.6875 v -0.65625 c -0.105469,0.0234375 -0.222657,0.0351563 -0.375,0.0351563 -0.339844,0 -0.433594,-0.09375 -0.433594,-0.4335938 v -3.2109375 h 0.808594 V -4.9114688 H 23.325 V -6.259125 h -0.773438 v 1.3476562 h -0.667968 v 0.6445313 h 0.667968 v 3.55078125 c 0,0.50390625 0.339844,0.78515625 0.949219,0.78515625 0.1875,0 0.375,-0.0234375 0.632813,-0.0703125 z m 1.655273,0 V -4.9114688 H 25.01543 v 4.9101563 z M 25.894336,-5.64975 V -6.6224063 H 24.92168 V -5.64975 Z m 5.311523,3.234375 c 0,-1.6992188 -0.808593,-2.6367188 -2.226562,-2.6367188 -1.371094,0 -2.203125,0.9492188 -2.203125,2.6015625 0,1.64062505 0.820312,2.5898438 2.214844,2.5898438 1.382812,0 2.214843,-0.94921875 2.214843,-2.5546875 z m -0.808593,-0.011719 c 0,1.1484375 -0.539063,1.8398438 -1.40625,1.8398438 -0.867188,0 -1.40625,-0.6796875 -1.40625,-1.8632813 0,-1.1835937 0.539062,-1.875 1.40625,-1.875 0.878906,0 1.40625,0.6796875 1.40625,1.8984375 z m 5.80664,2.4257813 v -3.703125 c 0,-0.8203125 -0.609375,-1.3476563 -1.558594,-1.3476563 -0.726562,0 -1.195312,0.28125 -1.628906,0.9726563 V -4.911469 h -0.714844 v 4.9101563 H 33.075 V -2.708344 c 0,-0.9960937 0.550781,-1.6523437 1.347656,-1.6523437 0.609375,0 1.007813,0.375 1.007813,0.9609375 v 3.3984375 z M 41.855273,-0.02475 v -0.5859375 c -0.08203,0.0234375 -0.117187,0.0234375 -0.164062,0.0234375 -0.269531,0 -0.421875,-0.140625 -0.421875,-0.38671875 V -3.7044375 c 0,-0.8789063 -0.632813,-1.3476563 -1.839844,-1.3476563 -1.195312,0 -1.921875,0.4570313 -1.96875,1.59375 h 0.785156 c 0.07031,-0.5976562 0.421875,-0.8671875 1.148438,-0.8671875 0.703125,0 1.101562,0.2578125 1.101562,0.7265625 v 0.2109375 c 0,0.328125 -0.199218,0.46875 -0.820312,0.5390625 -1.101563,0.140625 -1.265625,0.1757813 -1.570313,0.3046875 -0.574218,0.234375 -0.855468,0.6679688 -0.855468,1.265625 0,0.89062505 0.609375,1.4179688 1.605468,1.4179688 0.632813,0 1.230469,-0.2578125 1.664063,-0.7265625 0.08203,0.375 0.421875,0.65625 0.808594,0.65625 0.164062,0 0.28125,-0.0234375 0.527343,-0.09375 z m -1.359375,-1.6757813 c 0,0.70312505 -0.714843,1.1601563 -1.476562,1.1601563 -0.609375,0 -0.960938,-0.22265625 -0.960938,-0.75 0,-0.515625 0.351563,-0.7382813 1.183594,-0.8671875 0.820313,-0.1054688 0.984375,-0.1523438 1.253906,-0.2695313 z m 2.979493,1.6992188 V -6.821625 h -0.785157 v 6.8203125 z m 6.263671,-4.21875 v -0.796875 c -0.128906,-0.023437 -0.1875,-0.035156 -0.292968,-0.035156 -0.503907,0 -0.890625,0.3046875 -1.335938,1.03125 v -0.890625 h -0.714844 v 4.9101563 H 48.16875 V -2.544281 c 0,-1.1132812 0.363281,-1.6640625 1.570312,-1.6757815 z m 4.831055,1.9921875 c 0,-0.7148438 -0.05859,-1.1601563 -0.199219,-1.5234375 -0.316406,-0.8085938 -1.066406,-1.3007813 -1.980468,-1.3007813 -1.371094,0 -2.25,1.0195313 -2.25,2.625 0,1.6054688 0.855468,2.5664063 2.226562,2.5664063 1.125,0 1.898438,-0.6328125 2.097656,-1.6289063 h -0.785156 c -0.210937,0.6445313 -0.65625,0.9023438 -1.277344,0.9023438 -0.820312,0 -1.429687,-0.515625 -1.453125,-1.640625 z m -0.832031,-0.6914063 c 0,0 0,0.035156 -0.01172,0.058594 H 50.97246 c 0.07031,-0.8789063 0.621094,-1.4648438 1.40625,-1.4648438 0.761719,0 1.359375,0.6328125 1.359375,1.40625 z m 2.651367,2.9179688 V -6.821625 h -0.785156 v 6.8203125 z M 62.055469,-0.02475 v -0.5859375 c -0.08203,0.0234375 -0.117188,0.0234375 -0.164063,0.0234375 -0.269531,0 -0.421875,-0.140625 -0.421875,-0.38671875 V -3.7044375 c 0,-0.8789063 -0.632812,-1.3476563 -1.839844,-1.3476563 -1.195312,0 -1.921875,0.4570313 -1.96875,1.59375 h 0.785157 c 0.07031,-0.5976562 0.421875,-0.8671875 1.148437,-0.8671875 0.703125,0 1.101563,0.2578125 1.101563,0.7265625 v 0.2109375 c 0,0.328125 -0.199219,0.46875 -0.820313,0.5390625 -1.101562,0.140625 -1.265625,0.1757813 -1.570312,0.3046875 -0.574219,0.234375 -0.855469,0.6679688 -0.855469,1.265625 0,0.89062505 0.609375,1.4179688 1.605469,1.4179688 0.632812,0 1.230468,-0.2578125 1.664062,-0.7265625 0.08203,0.375 0.421875,0.65625 0.808594,0.65625 0.164062,0 0.28125,-0.0234375 0.527344,-0.09375 z m -1.359375,-1.6757813 c 0,0.70312505 -0.714844,1.1601563 -1.476563,1.1601563 -0.609375,0 -0.960937,-0.22265625 -0.960937,-0.75 0,-0.515625 0.351562,-0.7382813 1.183593,-0.8671875 0.820313,-0.1054688 0.984375,-0.1523438 1.253907,-0.2695313 z m 3.940429,1.6992188 v -0.65625 c -0.105468,0.0234375 -0.222656,0.0351563 -0.375,0.0351563 -0.339843,0 -0.433593,-0.09375 -0.433593,-0.4335937 v -3.2109376 h 0.808593 V -4.9114688 H 63.82793 V -6.259125 h -0.773438 v 1.3476562 h -0.667969 v 0.6445313 h 0.667969 v 3.55078125 c 0,0.50390625 0.339844,0.78515625 0.949219,0.78515625 0.1875,0 0.375,-0.0234375 0.632812,-0.0703125 z m 1.655274,0 v -4.9101563 h -0.773438 v 4.9101563 z M 66.397266,-5.64975 V -6.6224063 H 65.424609 V -5.64975 Z m 5.311523,3.234375 c 0,-1.6992188 -0.808594,-2.6367188 -2.226562,-2.6367188 -1.371094,0 -2.203125,0.9492188 -2.203125,2.6015625 0,1.64062505 0.820312,2.5898438 2.214843,2.5898438 1.382813,0 2.214844,-0.94921875 2.214844,-2.5546875 z m -0.808594,-0.011719 c 0,1.1484375 -0.539062,1.8398438 -1.40625,1.8398438 -0.867187,0 -1.40625,-0.6796875 -1.40625,-1.8632813 0,-1.1835937 0.539063,-1.875 1.40625,-1.875 0.878907,0 1.40625,0.6796875 1.40625,1.8984375 z m 5.806641,2.4257813 v -3.703125 c 0,-0.8203125 -0.609375,-1.3476563 -1.558594,-1.3476563 -0.726562,0 -1.195312,0.28125 -1.628906,0.9726563 V -4.911469 h -0.714844 v 4.9101563 H 73.57793 V -2.708344 c 0,-0.9960937 0.550781,-1.6523437 1.347656,-1.6523437 0.609375,0 1.007812,0.375 1.007812,0.9609375 v 3.3984375 z m 4.948242,-1.3710938 c 0,-0.7382812 -0.410156,-1.1015625 -1.394531,-1.3359375 l -0.738281,-0.175781 c -0.644532,-0.1523438 -0.914063,-0.3515625 -0.914063,-0.703125 0,-0.4453125 0.398438,-0.7382813 1.042969,-0.7382813 0.621094,0 0.960937,0.2695313 0.984375,0.7851563 h 0.820312 c -0.01172,-0.9609375 -0.644531,-1.5117188 -1.78125,-1.5117188 -1.136718,0 -1.875,0.5976563 -1.875,1.5 0,0.7734375 0.386719,1.1367188 1.546875,1.4179688 l 0.738282,0.1757812 c 0.539062,0.1289063 0.75,0.2929688 0.75,0.6445313 0,0.45703125 -0.457032,0.7265625 -1.136719,0.7265625 -0.703125,0 -1.101563,-0.1640625 -1.207031,-0.9140625 h -0.820313 c 0.03516,1.13671875 0.679688,1.640625 1.957031,1.640625 1.242188,0 2.027344,-0.57421875 2.027344,-1.511719 z m 4.927734,1.3710938 v -3.703125 c 0,-0.8320313 -0.585937,-1.3476563 -1.546875,-1.3476563 -0.691406,0 -1.113281,0.2226563 -1.570312,0.8203125 V -6.821625 h -0.773438 v 6.8203125 h 0.773438 v -2.7070313 c 0,-0.9960937 0.527344,-1.6523437 1.335937,-1.6523437 0.550782,0 1.007813,0.3164062 1.007813,0.9609375 v 3.3984375 z m 2.088868,0 V -4.911469 h -0.773438 v 4.9101563 z M 88.777148,-5.64975 V -6.6224063 H 87.804492 V -5.64975 Z m 5.44336,3.2460937 c 0,-1.6523437 -0.808594,-2.6484375 -2.109375,-2.6484375 -0.667969,0 -1.195313,0.3046875 -1.558594,0.8789063 V -4.9114688 H 89.837695 V 2.03775 h 0.773438 v -2.625 c 0.410156,0.50390625 0.878906,0.7265625 1.511719,0.7265625 1.265625,0 2.097656,-0.984375 2.097656,-2.5429688 z m -0.820313,-0.023437 c 0,1.1132813 -0.5625,1.8398438 -1.417968,1.8398438 -0.820313,0 -1.371094,-0.6796875 -1.371094,-1.828125 0,-1.1484375 0.550781,-1.8984375 1.371094,-1.8984375 0.855468,0 1.417968,0.7148437 1.417968,1.8867187 z m 6.462891,4.40625 c -0.832031,-1.33593745 -1.289063,-2.90624995 -1.289063,-4.40625 0,-1.4882812 0.457032,-3.0703125 1.289063,-4.3945312 h -0.515625 c -0.9375,1.21875 -1.535156,2.9296875 -1.535156,4.3945312 0,1.47656255 0.597656,3.18750005 1.535156,4.40625 z M 103.2498,-4.220062 v -0.796875 c -0.1289,-0.023437 -0.1875,-0.035156 -0.29296,-0.035156 -0.50391,0 -0.89063,0.3046875 -1.33594,1.03125 v -0.890625 h -0.71485 v 4.9101563 h 0.77344 v -2.5429688 c 0,-1.1132812 0.36328,-1.6640625 1.57031,-1.6757815 z m 4.83106,1.9921875 c 0,-0.7148438 -0.0586,-1.1601563 -0.19922,-1.5234375 -0.31641,-0.8085938 -1.06641,-1.3007813 -1.98047,-1.3007813 -1.37109,0 -2.25,1.0195313 -2.25,2.625 0,1.6054688 0.85547,2.5664063 2.22656,2.5664063 1.125,0 1.89844,-0.6328125 2.09766,-1.6289063 h -0.78516 c -0.21093,0.6445313 -0.65625,0.9023438 -1.27734,0.9023438 -0.82031,0 -1.42969,-0.515625 -1.45312,-1.640625 z m -0.83203,-0.6914063 c 0,0 0,0.035156 -0.0117,0.058594 h -2.75391 c 0.0703,-0.8789063 0.6211,-1.4648438 1.40625,-1.4648438 0.76172,0 1.35938,0.6328125 1.35938,1.40625 z m 5.81543,2.10937505 V -4.9114688 h -0.72656 v 0.7148438 c -0.38672,-0.5742188 -0.86719,-0.8554688 -1.5,-0.8554688 -1.24219,0 -2.08594,1.0546875 -2.08594,2.6484375 0,1.5351563 0.86719,2.5429688 2.02734,2.5429688 0.60938,0 1.04297,-0.2578125 1.5586,-0.87890625 v 0.328125 c 0,1.30078125 -0.52735,1.79296875 -1.44141,1.79296875 -0.62109,0 -1.08984,-0.2226563 -1.18359,-0.8203125 h -0.79688 c 0.082,0.9257812 0.79688,1.4765625 1.95703,1.4765625 1.53516,0 2.19141,-0.6796875 2.19141,-2.84765575 z m -0.79688,-1.61718755 c 0,1.171875 -0.5039,1.8398438 -1.33593,1.8398438 -0.84375,0 -1.35938,-0.6796875 -1.35938,-1.8632813 0,-1.1835937 0.51563,-1.875 1.35938,-1.875 0.83203,0 1.33593,0.7148438 1.33593,1.8984375 z m 4.42383,-1.7929687 v -0.796875 c -0.12891,-0.023437 -0.1875,-0.035156 -0.29297,-0.035156 -0.5039,0 -0.89062,0.3046875 -1.33594,1.03125 v -0.890625 h -0.71484 v 4.9101563 h 0.77344 v -2.5429688 c 0,-1.1132812 0.36328,-1.6640625 1.57031,-1.6757815 z m 4.82813,1.9921875 c 0,-0.7148438 -0.0586,-1.1601563 -0.19922,-1.5234375 -0.31641,-0.8085938 -1.06641,-1.3007813 -1.98047,-1.3007813 -1.3711,0 -2.25,1.0195313 -2.25,2.625 0,1.6054688 0.85547,2.5664063 2.22656,2.5664063 1.125,0 1.89844,-0.6328125 2.09766,-1.6289063 h -0.78516 c -0.21094,0.6445313 -0.65625,0.9023438 -1.27734,0.9023438 -0.82032,0 -1.42969,-0.515625 -1.45313,-1.640625 z m -0.83204,-0.6914063 c 0,0 0,0.035156 -0.0117,0.058594 h -2.75391 c 0.0703,-0.8789063 0.62109,-1.4648438 1.40625,-1.4648438 0.76172,0 1.35937,0.6328125 1.35937,1.40625 z m 5.53418,1.546875 c 0,-0.7382812 -0.41015,-1.1015625 -1.39453,-1.3359375 l -0.73828,-0.1757812 c -0.64453,-0.1523438 -0.91406,-0.3515625 -0.91406,-0.703125 0,-0.4453125 0.39844,-0.7382813 1.04297,-0.7382813 0.62109,0 0.96094,0.2695313 0.98437,0.7851563 h 0.82032 c -0.0117,-0.9609375 -0.64454,-1.5117188 -1.78125,-1.5117188 -1.13672,0 -1.875,0.5976563 -1.875,1.5 0,0.7734375 0.38671,1.1367188 1.54687,1.4179688 l 0.73828,0.1757812 c 0.53906,0.1289063 0.75,0.2929688 0.75,0.6445313 0,0.45703125 -0.45703,0.7265625 -1.13672,0.7265625 -0.70312,0 -1.10156,-0.1640625 -1.20703,-0.9140625 h -0.82031 c 0.0352,1.13671875 0.67969,1.640625 1.95703,1.640625 1.24219,0 2.02734,-0.57421875 2.02734,-1.5117188 z m 4.68457,0 c 0,-0.7382812 -0.41015,-1.1015625 -1.39453,-1.3359375 l -0.73828,-0.1757812 c -0.64453,-0.1523438 -0.91406,-0.3515625 -0.91406,-0.703125 0,-0.4453125 0.39844,-0.7382813 1.04297,-0.7382813 0.62109,0 0.96094,0.2695313 0.98437,0.7851563 h 0.82032 c -0.0117,-0.9609375 -0.64454,-1.5117188 -1.78125,-1.5117188 -1.13672,0 -1.875,0.5976563 -1.875,1.5 0,0.7734375 0.38671,1.1367188 1.54687,1.4179688 l 0.73828,0.1757812 c 0.53906,0.1289063 0.75,0.2929688 0.75,0.6445313 0,0.45703125 -0.45703,0.7265625 -1.13672,0.7265625 -0.70312,0 -1.10156,-0.1640625 -1.20703,-0.9140625 h -0.82031 c 0.0352,1.13671875 0.67969,1.640625 1.95703,1.640625 1.24219,0 2.02734,-0.57421875 2.02734,-1.5117188 z m 1.81055,1.3710938 v -4.9101563 h -0.77344 v 4.9101563 z m 0.10547,-5.6484375 v -0.9726563 h -0.97266 V -5.64975 Z m 5.31445,3.234375 c 0,-1.6992188 -0.80859,-2.6367188 -2.22656,-2.6367188 -1.37109,0 -2.20312,0.9492188 -2.20312,2.6015625 0,1.64062505 0.82031,2.5898438 2.21484,2.5898438 1.38281,0 2.21484,-0.94921875 2.21484,-2.5546875 z m -0.80859,-0.011719 c 0,1.1484375 -0.53906,1.8398438 -1.40625,1.8398438 -0.86719,0 -1.40625,-0.6796875 -1.40625,-1.8632813 0,-1.1835937 0.53906,-1.875 1.40625,-1.875 0.87891,0 1.40625,0.6796875 1.40625,1.8984375 z m 5.80371,2.4257813 v -3.703125 c 0,-0.8203125 -0.60937,-1.3476563 -1.55859,-1.3476563 -0.72657,0 -1.19532,0.28125 -1.62891,0.9726563 v -0.8320313 h -0.71484 v 4.9101563 h 0.77343 v -2.7070313 c 0,-0.9960937 0.55079,-1.6523437 1.34766,-1.6523437 0.60938,0 1.00781,0.375 1.00781,0.9609375 v 3.3984375 z m 3.04981,-2.4140625 c 0,-1.4765625 -0.59766,-3.1875 -1.53516,-4.40625 h -0.51563 c 0.83204,1.3359375 1.28907,2.90625 1.28907,4.40625 0,1.48828125 -0.45703,3.0703125 -1.28907,4.3945312 h 0.51563 c 0.9375,-1.21874995 1.53516,-2.92968745 1.53516,-4.3945312 z m 0,0"
       style="fill:#000000;fill-opacity:1;fill-rule:nonzero;stroke:none"
       aria-label="Directionalrelationship(regression)"
       transform="matrix(1.3333333,0,0,1.3333333,75.4,64.408)" />
    <path
       id="path20"
       d="M 6.0457031,-6.5625e-4 V -6.8209688 H 5.2253906 v 5.578125 L 1.6511719,-6.8209688 H 0.71367187 V -6.5625e-4 H 1.5339844 V -5.5319063 L 5.0613281,-6.5625e-4 Z M 11.530078,-2.4147188 c 0,-1.6992187 -0.808594,-2.6367187 -2.2265624,-2.6367187 -1.3710937,0 -2.203125,0.9492187 -2.203125,2.6015625 0,1.640625 0.8203125,2.58984375 2.2148438,2.58984375 1.3828126,0 2.2148436,-0.94921875 2.2148436,-2.55468755 z m -0.808594,-0.011719 c 0,1.1484375 -0.539062,1.83984375 -1.4062496,1.83984375 -0.8671875,0 -1.40625,-0.67968755 -1.40625,-1.86328125 0,-1.1835938 0.5390625,-1.875 1.40625,-1.875 0.8789066,0 1.4062496,0.6796875 1.4062496,1.8984375 z m 5.806641,2.42578125 V -3.7037813 c 0,-0.8203125 -0.609375,-1.3476562 -1.558594,-1.3476562 -0.726562,0 -1.195312,0.28125 -1.628906,0.9726562 v -0.8320312 h -0.714844 v 4.91015625 h 0.773438 V -2.7076875 c 0,-0.9960938 0.550781,-1.6523438 1.347656,-1.6523438 0.609375,0 1.007812,0.375 1.007812,0.9609375 V -6.5625e-4 Z M 19.835742,-2.2506563 V -2.918625 H 17.60918 v 0.6679687 z m 5.097656,2.25000005 V -6.8209688 h -0.785156 v 2.53125 c -0.328125,-0.4921875 -0.855469,-0.7617187 -1.5,-0.7617187 -1.277344,0 -2.109375,0.984375 -2.109375,2.5546875 0,1.65234375 0.808594,2.63671875 2.132813,2.63671875 0.667968,0 1.136718,-0.2578125 1.558593,-0.8671875 v 0.7265625 z M 24.148242,-2.4381563 c 0,1.1367188 -0.539062,1.85156255 -1.359375,1.85156255 -0.867187,0 -1.441406,-0.72656255 -1.441406,-1.86328125 0,-1.1484375 0.574219,-1.8632813 1.429687,-1.8632813 0.84375,0 1.371094,0.75 1.371094,1.875 z m 2.783203,2.43750005 V -4.9108125 H 26.158008 V -6.5625e-4 Z M 27.036914,-5.6490938 V -6.62175 h -0.972656 v 0.9726562 z m 3.541992,1.4296875 v -0.796875 c -0.128906,-0.023437 -0.1875,-0.035156 -0.292969,-0.035156 -0.503906,0 -0.890625,0.3046875 -1.335937,1.03125 v -0.890625 h -0.714844 v 4.91015625 h 0.773438 V -2.543625 c 0,-1.1132813 0.363281,-1.6640625 1.570312,-1.6757813 z m 4.831055,1.9921875 c 0,-0.7148437 -0.05859,-1.1601562 -0.199219,-1.5234375 -0.316406,-0.8085937 -1.066406,-1.3007812 -1.980469,-1.3007812 -1.371093,0 -2.25,1.0195312 -2.25,2.625 0,1.60546875 0.855469,2.56640625 2.226563,2.56640625 1.125,0 1.898437,-0.6328125 2.097656,-1.62890625 h -0.785156 c -0.210938,0.64453125 -0.65625,0.90234375 -1.277344,0.90234375 -0.820312,0 -1.429687,-0.51562505 -1.453125,-1.64062505 z M 34.57793,-2.918625 c 0,0 0,0.035156 -0.01172,0.058594 h -2.753906 c 0.07031,-0.8789062 0.621093,-1.4648437 1.40625,-1.4648437 0.761718,0 1.359375,0.6328125 1.359375,1.40625 z m 5.698242,1.2304687 h -0.785156 c -0.128907,0.7851563 -0.539063,1.10156255 -1.195313,1.10156255 -0.867187,0 -1.382812,-0.65625005 -1.382812,-1.81640625 0,-1.2304688 0.503906,-1.921875 1.359375,-1.921875 0.65625,0 1.066406,0.3867187 1.160156,1.0664062 h 0.785156 c -0.09375,-1.1953125 -0.84375,-1.7929687 -1.933594,-1.7929687 -1.324218,0 -2.179687,1.0195312 -2.179687,2.6484375 0,1.58203125 0.84375,2.54296875 2.167969,2.54296875 1.171875,0 1.910156,-0.703125 2.003906,-1.82812505 z m 2.595703,1.68750005 v -0.65625 c -0.105469,0.0234375 -0.222656,0.0351563 -0.375,0.0351563 -0.339844,0 -0.433594,-0.09375 -0.433594,-0.43359375 v -3.2109376 h 0.808594 v -0.6445312 h -0.808594 v -1.3476563 h -0.773437 v 1.3476563 h -0.667969 v 0.6445312 h 0.667969 V -0.7155 c 0,0.50390625 0.339843,0.78515625 0.949218,0.78515625 0.1875,0 0.375,-0.0234375 0.632813,-0.0703125 z m 1.655273,0 V -4.9108125 H 43.753711 V -6.5625e-4 Z M 44.632617,-5.6490938 V -6.62175 h -0.972656 v 0.9726562 z m 5.314453,3.234375 c 0,-1.6992187 -0.808593,-2.6367187 -2.226562,-2.6367187 -1.371094,0 -2.203125,0.9492187 -2.203125,2.6015625 0,1.640625 0.820312,2.58984375 2.214844,2.58984375 1.382812,0 2.214843,-0.94921875 2.214843,-2.55468755 z m -0.808593,-0.011719 c 0,1.1484375 -0.539063,1.83984375 -1.40625,1.83984375 -0.867188,0 -1.40625,-0.67968755 -1.40625,-1.86328125 0,-1.1835938 0.539062,-1.875 1.40625,-1.875 0.878906,0 1.40625,0.6796875 1.40625,1.8984375 z m 5.80371,2.42578125 V -3.7037813 c 0,-0.8203125 -0.609375,-1.3476562 -1.558593,-1.3476562 -0.726563,0 -1.195313,0.28125 -1.628907,0.9726562 v -0.8320312 h -0.714843 v 4.91015625 h 0.773437 V -2.7076875 c 0,-0.9960938 0.550781,-1.6523438 1.347656,-1.6523438 0.609375,0 1.007813,0.375 1.007813,0.9609375 v 3.39843755 z m 5.651368,-0.0234375 v -0.5859375 c -0.08203,0.0234375 -0.117188,0.0234375 -0.164063,0.0234375 -0.269531,0 -0.421875,-0.140625 -0.421875,-0.38671875 v -2.7304688 c 0,-0.8789062 -0.632812,-1.3476562 -1.839844,-1.3476562 -1.195312,0 -1.921875,0.4570312 -1.96875,1.59375 h 0.785157 c 0.07031,-0.5976563 0.421875,-0.8671875 1.148437,-0.8671875 0.703125,0 1.101563,0.2578125 1.101563,0.7265625 v 0.2109375 c 0,0.328125 -0.199219,0.46875 -0.820313,0.5390625 -1.101562,0.140625 -1.265625,0.1757812 -1.570312,0.3046875 -0.574219,0.234375 -0.855469,0.6679687 -0.855469,1.265625 0,0.890625 0.609375,1.41796875 1.605469,1.41796875 0.632812,0 1.230468,-0.2578125 1.664062,-0.7265625 0.08203,0.375 0.421875,0.65625 0.808594,0.65625 0.164062,0 0.28125,-0.0234375 0.527344,-0.09375 z M 59.23418,-1.699875 c 0,0.703125 -0.714844,1.16015625 -1.476563,1.16015625 -0.609375,0 -0.960937,-0.22265625 -0.960937,-0.75000005 0,-0.515625 0.351562,-0.7382812 1.183593,-0.8671875 0.820313,-0.1054687 0.984375,-0.1523437 1.253907,-0.2695312 z m 2.979492,1.69921875 V -6.8209688 h -0.785156 v 6.82031255 z m 6.266601,-4.21875005 v -0.796875 c -0.128906,-0.023437 -0.1875,-0.035156 -0.292968,-0.035156 -0.503907,0 -0.890625,0.3046875 -1.335938,1.03125 v -0.890625 h -0.714844 v 4.91015625 h 0.773438 V -2.543625 c 0,-1.1132813 0.363281,-1.6640625 1.570312,-1.6757813 z m 4.828125,1.9921875 c 0,-0.7148437 -0.05859,-1.1601562 -0.199218,-1.5234375 -0.316407,-0.8085937 -1.066407,-1.3007812 -1.980469,-1.3007812 -1.371094,0 -2.25,1.0195312 -2.25,2.625 0,1.60546875 0.855469,2.56640625 2.226562,2.56640625 1.125,0 1.898438,-0.6328125 2.097657,-1.62890625 h -0.785157 c -0.210937,0.64453125 -0.65625,0.90234375 -1.277343,0.90234375 -0.820313,0 -1.429688,-0.51562505 -1.453125,-1.64062505 z M 72.476367,-2.918625 c 0,0 0,0.035156 -0.01172,0.058594 h -2.753906 c 0.07031,-0.8789062 0.621094,-1.4648437 1.40625,-1.4648437 0.761719,0 1.359375,0.6328125 1.359375,1.40625 z m 2.651367,2.91796875 V -6.8209688 h -0.785156 v 6.82031255 z m 5.666016,-0.0234375 v -0.5859375 c -0.08203,0.0234375 -0.117188,0.0234375 -0.164063,0.0234375 -0.269531,0 -0.421875,-0.140625 -0.421875,-0.38671875 v -2.7304688 c 0,-0.8789062 -0.632812,-1.3476562 -1.839843,-1.3476562 -1.195313,0 -1.921875,0.4570312 -1.96875,1.59375 h 0.785156 c 0.07031,-0.5976563 0.421875,-0.8671875 1.148437,-0.8671875 0.703125,0 1.101563,0.2578125 1.101563,0.7265625 v 0.2109375 c 0,0.328125 -0.199219,0.46875 -0.820313,0.5390625 -1.101562,0.140625 -1.265625,0.1757812 -1.570312,0.3046875 -0.574219,0.234375 -0.855469,0.6679687 -0.855469,1.265625 0,0.890625 0.609375,1.41796875 1.605469,1.41796875 0.632812,0 1.230469,-0.2578125 1.664062,-0.7265625 0.08203,0.375 0.421875,0.65625 0.808594,0.65625 0.164063,0 0.28125,-0.0234375 0.527344,-0.09375 z M 79.434375,-1.699875 c 0,0.703125 -0.714844,1.16015625 -1.476563,1.16015625 -0.609375,0 -0.960937,-0.22265625 -0.960937,-0.75000005 0,-0.515625 0.351562,-0.7382812 1.183594,-0.8671875 0.820312,-0.1054687 0.984375,-0.1523437 1.253906,-0.2695312 z m 3.94043,1.69921875 v -0.65625 c -0.105469,0.0234375 -0.222657,0.0351563 -0.375,0.0351563 -0.339844,0 -0.433594,-0.09375 -0.433594,-0.43359375 v -3.2109376 h 0.808594 v -0.6445312 h -0.808594 v -1.3476563 h -0.773438 v 1.3476563 h -0.667968 v 0.6445312 h 0.667968 V -0.7155 c 0,0.50390625 0.339844,0.78515625 0.949219,0.78515625 0.1875,0 0.375,-0.0234375 0.632813,-0.0703125 z m 1.655273,0 V -4.9108125 H 84.256641 V -6.5625e-4 Z M 85.135547,-5.6490938 V -6.62175 h -0.972656 v 0.9726562 z M 90.45,-2.4147188 c 0,-1.6992187 -0.808594,-2.6367187 -2.226563,-2.6367187 -1.371093,0 -2.203125,0.9492187 -2.203125,2.6015625 0,1.640625 0.820313,2.58984375 2.214844,2.58984375 1.382813,0 2.214844,-0.94921875 2.214844,-2.55468755 z m -0.808594,-0.011719 c 0,1.1484375 -0.539062,1.83984375 -1.40625,1.83984375 -0.867187,0 -1.40625,-0.67968755 -1.40625,-1.86328125 0,-1.1835938 0.539063,-1.875 1.40625,-1.875 0.878906,0 1.40625,0.6796875 1.40625,1.8984375 z m 5.803711,2.42578125 V -3.7037813 c 0,-0.8203125 -0.609375,-1.3476562 -1.558594,-1.3476562 -0.726562,0 -1.195312,0.28125 -1.628906,0.9726562 v -0.8320312 h -0.714844 v 4.91015625 h 0.773438 V -2.7076875 c 0,-0.9960938 0.550781,-1.6523438 1.347656,-1.6523438 0.609375,0 1.007813,0.375 1.007813,0.9609375 V -6.5625e-4 Z M 100.39336,-1.37175 c 0,-0.7382813 -0.410157,-1.1015625 -1.394532,-1.3359375 l -0.738281,-0.1757813 c -0.644531,-0.1523437 -0.914063,-0.3515625 -0.914063,-0.703125 0,-0.4453125 0.398438,-0.7382812 1.042969,-0.7382812 0.621094,0 0.960938,0.2695312 0.984375,0.7851562 h 0.820312 c -0.0117,-0.9609375 -0.644531,-1.5117187 -1.781249,-1.5117187 -1.136719,0 -1.875,0.5976562 -1.875,1.5 0,0.7734375 0.386718,1.1367187 1.546875,1.4179687 l 0.738281,0.1757813 c 0.539062,0.1289062 0.75,0.2929687 0.75,0.6445312 0,0.4570313 -0.457031,0.72656255 -1.136719,0.72656255 -0.703125,0 -1.101562,-0.1640625 -1.207031,-0.91406255 h -0.820313 c 0.03516,1.1367188 0.679688,1.64062505 1.957032,1.64062505 1.242187,0 2.027344,-0.57421875 2.027344,-1.51171875 z m 4.93066,1.37109375 V -3.7037813 c 0,-0.8320312 -0.58593,-1.3476562 -1.54687,-1.3476562 -0.69141,0 -1.11328,0.2226562 -1.57031,0.8203125 v -2.5898438 h -0.77344 v 6.82031255 h 0.77344 V -2.7076875 c 0,-0.9960938 0.52734,-1.6523438 1.33593,-1.6523438 0.55078,0 1.00782,0.3164063 1.00782,0.9609375 v 3.39843755 z m 2.08887,0 V -4.9108125 h -0.77344 v 4.91015625 z m 0.10547,-5.64843755 V -6.62175 h -0.97266 v 0.9726562 z M 112.95879,-2.403 c 0,-1.6523438 -0.80859,-2.6484375 -2.10938,-2.6484375 -0.66796,0 -1.19531,0.3046875 -1.55859,0.8789062 v -0.7382812 h -0.71484 v 6.9492187 h 0.77343 v -2.62499995 c 0.41016,0.50390625 0.87891,0.7265625 1.51172,0.7265625 1.26563,0 2.09766,-0.984375 2.09766,-2.54296875 z m -0.82031,-0.023437 c 0,1.1132812 -0.5625,1.83984375 -1.41797,1.83984375 -0.82031,0 -1.3711,-0.67968755 -1.3711,-1.82812505 0,-1.1484375 0.55079,-1.8984375 1.3711,-1.8984375 0.85547,0 1.41797,0.7148438 1.41797,1.8867188 z m 6.46289,4.40625 c -0.83203,-1.3359375 -1.28907,-2.90625 -1.28907,-4.40625 0,-1.4882813 0.45704,-3.0703125 1.28907,-4.3945313 h -0.51563 c -0.9375,1.21875 -1.53515,2.9296875 -1.53515,4.3945313 0,1.4765625 0.59765,3.1875 1.53515,4.40625 z m 4.85449,-3.6679688 h -0.78516 c -0.1289,0.7851563 -0.53906,1.10156255 -1.19531,1.10156255 -0.86719,0 -1.38281,-0.65625005 -1.38281,-1.81640625 0,-1.2304688 0.5039,-1.921875 1.35937,-1.921875 0.65625,0 1.06641,0.3867187 1.16016,1.0664062 h 0.78516 c -0.0937,-1.1953125 -0.84375,-1.7929687 -1.9336,-1.7929687 -1.32422,0 -2.17969,1.0195312 -2.17969,2.6484375 0,1.58203125 0.84375,2.54296875 2.16797,2.54296875 1.17188,0 1.91016,-0.703125 2.00391,-1.82812505 z m 4.98633,-0.7265625 c 0,-1.6992187 -0.8086,-2.6367187 -2.22657,-2.6367187 -1.37109,0 -2.20312,0.9492187 -2.20312,2.6015625 0,1.640625 0.82031,2.58984375 2.21484,2.58984375 1.38282,0 2.21485,-0.94921875 2.21485,-2.55468755 z m -0.8086,-0.011719 c 0,1.1484375 -0.53906,1.83984375 -1.40625,1.83984375 -0.86718,0 -1.40625,-0.67968755 -1.40625,-1.86328125 0,-1.1835938 0.53907,-1.875 1.40625,-1.875 0.87891,0 1.40625,0.6796875 1.40625,1.8984375 z m 5.6045,-2.484375 h -0.87891 l -1.38281,3.984375 -1.3125,-3.984375 h -0.87891 l 1.72266,4.91015625 h 0.85547 z m 4.9541,4.88671875 v -0.5859375 c -0.082,0.0234375 -0.11719,0.0234375 -0.16407,0.0234375 -0.26953,0 -0.42187,-0.140625 -0.42187,-0.38671875 v -2.7304688 c 0,-0.8789062 -0.63281,-1.3476562 -1.83984,-1.3476562 -1.19532,0 -1.92188,0.4570312 -1.96875,1.59375 h 0.78515 c 0.0703,-0.5976563 0.42188,-0.8671875 1.14844,-0.8671875 0.70312,0 1.10156,0.2578125 1.10156,0.7265625 v 0.2109375 c 0,0.328125 -0.19922,0.46875 -0.82031,0.5390625 -1.10156,0.140625 -1.26563,0.1757812 -1.57031,0.3046875 -0.57422,0.234375 -0.85547,0.6679687 -0.85547,1.265625 0,0.890625 0.60937,1.41796875 1.60547,1.41796875 0.63281,0 1.23047,-0.2578125 1.66406,-0.7265625 0.082,0.375 0.42187,0.65625 0.80859,0.65625 0.16407,0 0.28125,-0.0234375 0.52735,-0.09375 z M 136.83281,-1.699875 c 0,0.703125 -0.71484,1.16015625 -1.47656,1.16015625 -0.60938,0 -0.96094,-0.22265625 -0.96094,-0.75000005 0,-0.515625 0.35156,-0.7382812 1.1836,-0.8671875 0.82031,-0.1054687 0.98437,-0.1523437 1.2539,-0.2695312 z m 4.56153,-2.5195313 v -0.796875 c -0.12891,-0.023437 -0.1875,-0.035156 -0.29297,-0.035156 -0.50391,0 -0.89063,0.3046875 -1.33594,1.03125 v -0.890625 h -0.71484 v 4.91015625 h 0.77343 V -2.543625 c 0,-1.1132813 0.36328,-1.6640625 1.57032,-1.6757813 z m 1.5498,4.21875005 V -4.9108125 h -0.77344 v 4.91015625 z m 0.10547,-5.64843755 V -6.62175 h -0.97266 v 0.9726562 z m 5.5459,5.62500005 v -0.5859375 c -0.082,0.0234375 -0.11719,0.0234375 -0.16406,0.0234375 -0.26954,0 -0.42188,-0.140625 -0.42188,-0.38671875 v -2.7304688 c 0,-0.8789062 -0.63281,-1.3476562 -1.83984,-1.3476562 -1.19532,0 -1.92188,0.4570312 -1.96875,1.59375 h 0.78515 c 0.0703,-0.5976563 0.42188,-0.8671875 1.14844,-0.8671875 0.70313,0 1.10156,0.2578125 1.10156,0.7265625 v 0.2109375 c 0,0.328125 -0.19922,0.46875 -0.82031,0.5390625 -1.10156,0.140625 -1.26562,0.1757812 -1.57031,0.3046875 -0.57422,0.234375 -0.85547,0.6679687 -0.85547,1.265625 0,0.890625 0.60937,1.41796875 1.60547,1.41796875 0.63281,0 1.23047,-0.2578125 1.66406,-0.7265625 0.082,0.375 0.42188,0.65625 0.80859,0.65625 0.16407,0 0.28125,-0.0234375 0.52735,-0.09375 z M 147.23613,-1.699875 c 0,0.703125 -0.71484,1.16015625 -1.47656,1.16015625 -0.60937,0 -0.96094,-0.22265625 -0.96094,-0.75000005 0,-0.515625 0.35157,-0.7382812 1.1836,-0.8671875 0.82031,-0.1054687 0.98437,-0.1523437 1.2539,-0.2695312 z m 6.12012,1.69921875 V -3.7037813 c 0,-0.8203125 -0.60938,-1.3476562 -1.55859,-1.3476562 -0.72657,0 -1.19532,0.28125 -1.62891,0.9726562 v -0.8320312 h -0.71484 v 4.91015625 h 0.77343 V -2.7076875 c 0,-0.9960938 0.55078,-1.6523438 1.34766,-1.6523438 0.60937,0 1.00781,0.375 1.00781,0.9609375 v 3.39843755 z m 5.11523,-1.68750005 h -0.78515 c -0.12891,0.7851563 -0.53906,1.10156255 -1.19531,1.10156255 -0.86719,0 -1.38282,-0.65625005 -1.38282,-1.81640625 0,-1.2304688 0.50391,-1.921875 1.35938,-1.921875 0.65625,0 1.0664,0.3867187 1.16015,1.0664062 h 0.78516 c -0.0937,-1.1953125 -0.84375,-1.7929687 -1.93359,-1.7929687 -1.32422,0 -2.17969,1.0195312 -2.17969,2.6484375 0,1.58203125 0.84375,2.54296875 2.16797,2.54296875 1.17187,0 1.91015,-0.703125 2.0039,-1.82812505 z m 5.02149,-0.5390625 c 0,-0.7148437 -0.0586,-1.1601562 -0.19922,-1.5234375 -0.31641,-0.8085937 -1.06641,-1.3007812 -1.98047,-1.3007812 -1.37109,0 -2.25,1.0195312 -2.25,2.625 0,1.60546875 0.85547,2.56640625 2.22656,2.56640625 1.125,0 1.89844,-0.6328125 2.09766,-1.62890625 h -0.78516 c -0.21093,0.64453125 -0.65625,0.90234375 -1.27734,0.90234375 -0.82031,0 -1.42969,-0.51562505 -1.45313,-1.64062505 z m -0.83203,-0.6914062 c 0,0 0,0.035156 -0.0117,0.058594 h -2.75391 c 0.0703,-0.8789062 0.6211,-1.4648437 1.40625,-1.4648437 0.76172,0 1.35938,0.6328125 1.35938,1.40625 z m 3.63574,0.5039062 c 0,-1.4765625 -0.59766,-3.1875 -1.53516,-4.40625 h -0.51562 c 0.83203,1.3359375 1.28906,2.90625 1.28906,4.40625 0,1.4882813 -0.45703,3.07031255 -1.28906,4.3945313 h 0.51562 c 0.9375,-1.21875 1.53516,-2.9296875 1.53516,-4.3945313 z m 0,0"
       style="fill:#000000;fill-opacity:1;fill-rule:nonzero;stroke:none"
       aria-label="Non-directionalrelationship(covariance)"
       transform="matrix(1.3333333,0,0,1.3333333,75.4,102.204)" />
    <path
       id="path21"
       d="M 6.0339844,-6.8207813 H 5.1082031 L 3.2214844,-1.0434375 1.2175781,-6.8207813 H 0.28007812 L 2.7292969,-4.6875e-4 h 0.9375 z m 4.6552736,6.79687505 v -0.5859375 c -0.08203,0.0234375 -0.117188,0.0234375 -0.164063,0.0234375 -0.269531,0 -0.421875,-0.140625 -0.421875,-0.38671875 v -2.7304688 c 0,-0.8789062 -0.6328122,-1.3476562 -1.8398434,-1.3476562 -1.1953125,0 -1.921875,0.4570312 -1.96875,1.59375 h 0.7851562 c 0.070312,-0.5976563 0.421875,-0.8671875 1.1484375,-0.8671875 0.703125,0 1.1015625,0.2578125 1.1015625,0.7265625 v 0.2109375 c 0,0.328125 -0.1992187,0.46875 -0.8203125,0.5390625 -1.1015625,0.140625 -1.265625,0.1757812 -1.5703125,0.3046875 -0.5742187,0.234375 -0.8554687,0.6679687 -0.8554687,1.265625 0,0.890625 0.609375,1.41796875 1.6054687,1.41796875 0.6328125,0 1.2304688,-0.2578125 1.6640625,-0.7265625 0.082031,0.375 0.421875,0.65625 0.8085937,0.65625 0.164063,0 0.28125,-0.0234375 0.527344,-0.09375 z M 9.3298828,-1.6996875 c 0,0.703125 -0.7148437,1.16015625 -1.4765625,1.16015625 -0.609375,0 -0.9609375,-0.22265625 -0.9609375,-0.75000005 0,-0.515625 0.3515625,-0.7382812 1.1835938,-0.8671875 0.8203125,-0.1054687 0.984375,-0.1523437 1.2539062,-0.2695312 z m 4.5615232,-2.5195313 v -0.796875 c -0.128906,-0.023437 -0.1875,-0.035156 -0.292969,-0.035156 -0.503906,0 -0.890625,0.3046875 -1.335937,1.03125 v -0.890625 h -0.714844 v 4.91015625 h 0.773438 V -2.5434375 c 0,-1.1132813 0.363281,-1.6640625 1.570312,-1.6757813 z m 1.546875,4.21875005 V -4.910625 H 14.664844 V -4.6875e-4 Z M 15.54375,-5.6489063 v -0.9726562 h -0.972656 v 0.9726562 z m 5.548828,5.62500005 v -0.5859375 c -0.08203,0.0234375 -0.117187,0.0234375 -0.164062,0.0234375 -0.269532,0 -0.421875,-0.140625 -0.421875,-0.38671875 v -2.7304688 c 0,-0.8789062 -0.632813,-1.3476562 -1.839844,-1.3476562 -1.195313,0 -1.921875,0.4570312 -1.96875,1.59375 h 0.785156 c 0.07031,-0.5976563 0.421875,-0.8671875 1.148438,-0.8671875 0.703125,0 1.101562,0.2578125 1.101562,0.7265625 v 0.2109375 c 0,0.328125 -0.199219,0.46875 -0.820312,0.5390625 -1.101563,0.140625 -1.265625,0.1757812 -1.570313,0.3046875 -0.574219,0.234375 -0.855469,0.6679687 -0.855469,1.265625 0,0.890625 0.609375,1.41796875 1.605469,1.41796875 0.632813,0 1.230469,-0.2578125 1.664063,-0.7265625 0.08203,0.375 0.421875,0.65625 0.808593,0.65625 0.164063,0 0.28125,-0.0234375 0.527344,-0.09375 z M 19.733203,-1.6996875 c 0,0.703125 -0.714844,1.16015625 -1.476562,1.16015625 -0.609375,0 -0.960938,-0.22265625 -0.960938,-0.75000005 0,-0.515625 0.351563,-0.7382812 1.183594,-0.8671875 0.820312,-0.1054687 0.984375,-0.1523437 1.253906,-0.2695312 z M 25.85332,-4.6875e-4 V -3.7035938 c 0,-0.8203125 -0.609375,-1.3476562 -1.558593,-1.3476562 -0.726563,0 -1.195313,0.28125 -1.628907,0.9726562 V -4.910625 h -0.714843 v 4.91015625 h 0.773437 V -2.7075 c 0,-0.9960938 0.550781,-1.6523438 1.347656,-1.6523438 0.609375,0 1.007813,0.375 1.007813,0.9609375 v 3.39843755 z m 5.115235,-1.68750005 h -0.785157 c -0.128906,0.7851563 -0.539062,1.10156255 -1.195312,1.10156255 -0.867188,0 -1.382813,-0.65625005 -1.382813,-1.81640625 0,-1.2304688 0.503907,-1.921875 1.359375,-1.921875 0.65625,0 1.066407,0.3867187 1.160157,1.0664062 h 0.785156 c -0.09375,-1.1953125 -0.84375,-1.7929687 -1.933594,-1.7929687 -1.324219,0 -2.179687,1.0195312 -2.179687,2.6484375 0,1.58203125 0.84375,2.54296875 2.167968,2.54296875 1.171875,0 1.910157,-0.703125 2.003907,-1.82812505 z m 5.021484,-0.5390625 c 0,-0.7148437 -0.05859,-1.1601562 -0.199219,-1.5234375 -0.316406,-0.8085937 -1.066406,-1.3007812 -1.980468,-1.3007812 -1.371094,0 -2.25,1.0195312 -2.25,2.625 0,1.60546875 0.855468,2.56640625 2.226562,2.56640625 1.125,0 1.898438,-0.6328125 2.097656,-1.62890625 h -0.785156 c -0.210937,0.64453125 -0.65625,0.90234375 -1.277344,0.90234375 -0.820312,0 -1.429687,-0.51562505 -1.453125,-1.64062505 z m -0.832031,-0.6914062 c 0,0 0,0.035156 -0.01172,0.058594 h -2.753906 c 0.07031,-0.8789062 0.621094,-1.4648437 1.40625,-1.4648437 0.761719,0 1.359375,0.6328125 1.359375,1.40625 z m 0,0"
       style="fill:#000000;fill-opacity:1;fill-rule:nonzero;stroke:none"
       aria-label="Variance"
       transform="matrix(1.3333333,0,0,1.3333333,75.4,141.36)" />
    <path
       id="path22"
       d="M 7.1238281,2.34375e-5 V -6.8202891 H 5.9167969 L 3.9363281,-0.87888281 1.9089844,-6.8202891 H 0.70195312 V 2.34375e-5 H 1.5222656 V -5.7187266 L 3.4675781,2.34375e-5 H 4.3816406 L 6.3035156,-5.7187266 V 2.34375e-5 Z M 12.804492,-0.02341406 v -0.5859375 c -0.08203,0.0234375 -0.117187,0.0234375 -0.164062,0.0234375 -0.269532,0 -0.421875,-0.140625 -0.421875,-0.38671875 V -3.7031016 c 0,-0.8789062 -0.632813,-1.3476562 -1.839844,-1.3476562 -1.1953126,0 -1.9218751,0.4570312 -1.9687501,1.59375 h 0.7851563 c 0.070312,-0.5976563 0.421875,-0.8671875 1.1484378,-0.8671875 0.703125,0 1.101562,0.2578125 1.101562,0.7265625 v 0.2109375 c 0,0.328125 -0.199219,0.46875 -0.820312,0.5390625 -1.1015628,0.140625 -1.2656253,0.1757812 -1.5703128,0.3046875 -0.5742188,0.234375 -0.8554688,0.6679687 -0.8554688,1.265625 0,0.89062499 0.609375,1.41796874 1.6054688,1.41796874 0.6328128,0 1.2304688,-0.2578125 1.6640628,-0.7265625 0.08203,0.375 0.421875,0.65625 0.808593,0.65625 0.164063,0 0.28125,-0.0234375 0.527344,-0.09375 z M 11.445117,-1.6991953 c 0,0.70312499 -0.714844,1.16015624 -1.4765623,1.16015624 -0.609375,0 -0.9609375,-0.22265625 -0.9609375,-0.75000004 0,-0.515625 0.3515625,-0.7382812 1.1835938,-0.8671875 0.820312,-0.1054687 0.984375,-0.1523437 1.253906,-0.2695312 z M 17.565234,2.34375e-5 V -3.7031016 c 0,-0.8203125 -0.609375,-1.3476562 -1.558593,-1.3476562 -0.726563,0 -1.195313,0.28125 -1.628907,0.9726562 V -4.9101328 H 13.662891 V 2.34375e-5 h 0.773437 V -2.7070078 c 0,-0.9960938 0.550781,-1.6523438 1.347656,-1.6523438 0.609375,0 1.007813,0.375 1.007813,0.9609375 V 2.34375e-5 Z m 2.080078,0 V -4.9101328 H 18.871875 V 2.34375e-5 Z M 19.750781,-5.6484141 v -0.9726562 h -0.972656 v 0.9726562 z m 2.956055,1.3828125 v -0.6445312 h -0.808594 v -0.7617188 c 0,-0.328125 0.1875,-0.5039062 0.539063,-0.5039062 0.07031,0 0.09375,0 0.269531,0.011719 V -6.80857 c -0.175781,-0.035156 -0.28125,-0.046875 -0.433594,-0.046875 -0.726562,0 -1.160156,0.4101562 -1.160156,1.1132812 v 0.8320313 h -0.65625 v 0.6445312 h 0.65625 V 2.34375e-5 h 0.785156 V -4.2656016 Z m 4.854492,2.0390625 c 0,-0.7148437 -0.05859,-1.1601562 -0.199219,-1.5234375 -0.316406,-0.8085937 -1.066406,-1.3007812 -1.980468,-1.3007812 -1.371094,0 -2.25,1.0195312 -2.25,2.625 0,1.60546874 0.855468,2.56640624 2.226562,2.56640624 1.125,0 1.898438,-0.6328125 2.097656,-1.62890624 h -0.785156 c -0.210937,0.64453124 -0.65625,0.90234374 -1.277344,0.90234374 -0.820312,0 -1.429687,-0.51562504 -1.453125,-1.64062504 z m -0.832031,-0.6914062 c 0,0 0,0.035156 -0.01172,0.058594 h -2.753906 c 0.07031,-0.8789062 0.621094,-1.4648437 1.40625,-1.4648437 0.761719,0 1.359375,0.6328125 1.359375,1.40625 z m 5.53418,1.546875 c 0,-0.7382813 -0.410157,-1.1015625 -1.394532,-1.3359375 l -0.738281,-0.1757813 c -0.644531,-0.1523437 -0.914062,-0.3515625 -0.914062,-0.703125 0,-0.4453125 0.398437,-0.7382812 1.042968,-0.7382812 0.621094,0 0.960938,0.2695312 0.984375,0.7851562 h 0.820313 c -0.01172,-0.9609375 -0.644531,-1.5117187 -1.78125,-1.5117187 -1.136719,0 -1.875,0.5976562 -1.875,1.5 0,0.7734375 0.386719,1.1367187 1.546875,1.4179687 l 0.738281,0.1757813 c 0.539063,0.1289062 0.75,0.2929687 0.75,0.6445312 0,0.45703129 -0.457031,0.72656254 -1.136719,0.72656254 -0.703125,0 -1.101562,-0.1640625 -1.207031,-0.91406254 h -0.820312 c 0.03516,1.13671879 0.679687,1.64062504 1.957031,1.64062504 1.242187,0 2.027344,-0.57421875 2.027344,-1.51171874 z M 34.979297,2.34375e-5 V -0.65622656 c -0.105469,0.0234375 -0.222656,0.0351563 -0.375,0.0351563 -0.339844,0 -0.433594,-0.09375 -0.433594,-0.43359374 v -3.2109375 h 0.808594 V -4.9101327 H 34.170703 V -6.257789 h -0.773437 v 1.3476563 h -0.667969 v 0.6445312 h 0.667969 v 3.55078124 c 0,0.50390625 0.339843,0.78515625 0.949218,0.78515625 0.1875,0 0.375,-0.0234375 0.632813,-0.0703125525 z M 40.536914,1.9804922 c -0.832031,-1.33593751 -1.289062,-2.90625001 -1.289062,-4.40625 0,-1.4882813 0.457031,-3.0703125 1.289062,-4.3945313 h -0.515625 c -0.9375,1.21875 -1.535156,2.9296875 -1.535156,4.3945313 0,1.47656249 0.597656,3.18749999 1.535156,4.40625 z m 5.15625,-4.3945313 c 0,-1.6992187 -0.808594,-2.6367187 -2.226562,-2.6367187 -1.371094,0 -2.203125,0.9492187 -2.203125,2.6015625 0,1.64062499 0.820312,2.58984374 2.214843,2.58984374 1.382813,0 2.214844,-0.94921875 2.214844,-2.55468754 z m -0.808594,-0.011719 c 0,1.1484375 -0.539062,1.83984374 -1.40625,1.83984374 -0.867187,0 -1.40625,-0.67968754 -1.40625,-1.86328124 0,-1.1835938 0.539063,-1.875 1.40625,-1.875 0.878907,0 1.40625,0.6796875 1.40625,1.8984375 z m 6.146485,-0.082031 c 0,-1.59375 -0.808594,-2.5429687 -2.097657,-2.5429687 -0.679687,0 -1.148437,0.2578125 -1.523437,0.8085937 v -2.578125 H 46.636523 V 2.34375e-5 h 0.703125 V -0.70310156 c 0.375,0.57421875 0.867188,0.84375 1.558594,0.84375 1.289063,0 2.132813,-1.0546875 2.132813,-2.64843754 z m -0.820313,0.046875 c 0,1.1132813 -0.574219,1.87500004 -1.429687,1.87500004 -0.820313,0 -1.371094,-0.75000004 -1.371094,-1.86328124 0,-1.1601563 0.550781,-1.9101563 1.371094,-1.8632813 0.867187,0 1.429687,0.75 1.429687,1.8515625 z m 5.428711,1.0898438 c 0,-0.7382813 -0.410156,-1.1015625 -1.394531,-1.3359375 l -0.738281,-0.1757813 c -0.644532,-0.1523437 -0.914063,-0.3515625 -0.914063,-0.703125 0,-0.4453125 0.398438,-0.7382812 1.042969,-0.7382812 0.621094,0 0.960937,0.2695312 0.984375,0.7851562 h 0.820312 c -0.01172,-0.9609375 -0.644531,-1.5117187 -1.78125,-1.5117187 -1.136718,0 -1.875,0.5976562 -1.875,1.5 0,0.7734375 0.386719,1.1367187 1.546875,1.4179687 l 0.738282,0.1757813 c 0.539062,0.1289062 0.75,0.2929687 0.75,0.6445312 0,0.45703129 -0.457032,0.72656254 -1.136719,0.72656254 -0.703125,0 -1.101563,-0.1640625 -1.207031,-0.91406254 h -0.820313 c 0.03516,1.13671879 0.679688,1.64062504 1.957031,1.64062504 1.242188,0 2.027344,-0.57421875 2.027344,-1.51171874 z M 60.825,-2.2265391 c 0,-0.7148437 -0.05859,-1.1601562 -0.199219,-1.5234375 -0.316406,-0.8085937 -1.066406,-1.3007812 -1.980469,-1.3007812 -1.371093,0 -2.25,1.0195312 -2.25,2.625 0,1.60546874 0.855469,2.56640624 2.226563,2.56640624 1.125,0 1.898437,-0.6328125 2.097656,-1.62890624 h -0.785156 c -0.210938,0.64453124 -0.65625,0.90234374 -1.277344,0.90234374 -0.820312,0 -1.429687,-0.51562504 -1.453125,-1.64062504 z m -0.832031,-0.6914062 c 0,0 0,0.035156 -0.01172,0.058594 h -2.753906 c 0.07031,-0.8789062 0.621093,-1.4648437 1.40625,-1.4648437 0.761718,0 1.359375,0.6328125 1.359375,1.40625 z m 4.233398,-1.3007813 v -0.796875 c -0.128906,-0.023437 -0.1875,-0.035156 -0.292969,-0.035156 -0.503906,0 -0.890625,0.3046875 -1.335937,1.03125 v -0.890625 H 61.882617 V 2.34375e-5 h 0.773438 V -2.5429453 c 0,-1.1132813 0.363281,-1.6640625 1.570312,-1.6757813 z m 4.948242,-0.6914062 h -0.878906 l -1.382812,3.98437499 -1.3125,-3.98437499 H 64.721484 L 66.444141,2.34375e-5 h 0.855468 z m 4.751953,2.6835937 c 0,-0.7148437 -0.05859,-1.1601562 -0.199218,-1.5234375 -0.316407,-0.8085937 -1.066407,-1.3007812 -1.980469,-1.3007812 -1.371094,0 -2.25,1.0195312 -2.25,2.625 0,1.60546874 0.855469,2.56640624 2.226562,2.56640624 1.125,0 1.898438,-0.6328125 2.097657,-1.62890624 h -0.785157 c -0.210937,0.64453124 -0.65625,0.90234374 -1.277343,0.90234374 -0.820313,0 -1.429688,-0.51562504 -1.453125,-1.64062504 z m -0.832031,-0.6914062 c 0,0 0,0.035156 -0.01172,0.058594 h -2.753906 c 0.07031,-0.8789062 0.621094,-1.4648437 1.40625,-1.4648437 0.761719,0 1.359375,0.6328125 1.359375,1.40625 z M 78.968555,2.34375e-5 V -6.8202891 h -0.785157 v 2.53125 c -0.328125,-0.4921875 -0.855468,-0.7617187 -1.5,-0.7617187 -1.277343,0 -2.109375,0.984375 -2.109375,2.5546875 0,1.65234374 0.808594,2.63671874 2.132813,2.63671874 0.667969,0 1.136719,-0.2578125 1.558594,-0.8671875 V 2.34375e-5 Z M 78.183398,-2.4374766 c 0,1.1367188 -0.539062,1.85156254 -1.359375,1.85156254 -0.867187,0 -1.441406,-0.72656254 -1.441406,-1.86328124 0,-1.1484375 0.574219,-1.8632813 1.429688,-1.8632813 0.84375,0 1.371093,0.75 1.371093,1.875 z m 3.75586,0.023437 c 0,-1.4765625 -0.597656,-3.1875 -1.535156,-4.40625 h -0.515625 c 0.832031,1.3359375 1.289062,2.90625 1.289062,4.40625 0,1.48828129 -0.457031,3.07031254 -1.289062,4.3945313 h 0.515625 c 0.9375,-1.21875001 1.535156,-2.92968751 1.535156,-4.3945313 z m 7.866211,-2.4960937 H 88.926562 L 87.54375,-0.92575781 86.23125,-4.9101328 H 85.352344 L 87.075,2.34375e-5 h 0.855469 z m 4.951172,4.88671874 v -0.5859375 c -0.08203,0.0234375 -0.117188,0.0234375 -0.164063,0.0234375 -0.269531,0 -0.421875,-0.140625 -0.421875,-0.38671875 V -3.7031016 c 0,-0.8789062 -0.632812,-1.3476562 -1.839844,-1.3476562 -1.195312,0 -1.921875,0.4570312 -1.96875,1.59375 h 0.785157 c 0.07031,-0.5976563 0.421875,-0.8671875 1.148437,-0.8671875 0.703125,0 1.101563,0.2578125 1.101563,0.7265625 v 0.2109375 c 0,0.328125 -0.199219,0.46875 -0.820313,0.5390625 -1.101562,0.140625 -1.265625,0.1757812 -1.570312,0.3046875 -0.574219,0.234375 -0.855469,0.6679687 -0.855469,1.265625 0,0.89062499 0.609375,1.41796874 1.605469,1.41796874 0.632812,0 1.230468,-0.2578125 1.664062,-0.7265625 0.08203,0.375 0.421875,0.65625 0.808594,0.65625 0.164062,0 0.28125,-0.0234375 0.527344,-0.0937505 z M 93.397266,-1.6991953 c 0,0.70312499 -0.714844,1.16015624 -1.476563,1.16015624 -0.609375,0 -0.960937,-0.22265625 -0.960937,-0.75000004 0,-0.515625 0.351562,-0.7382812 1.183593,-0.8671875 0.820313,-0.1054687 0.984375,-0.1523437 1.253907,-0.2695312 z m 4.561523,-2.5195313 v -0.796875 c -0.128906,-0.023437 -0.1875,-0.035156 -0.292969,-0.035156 -0.503906,0 -0.890625,0.3046875 -1.335937,1.03125 v -0.890625 H 95.615039 V 2.34375e-5 h 0.773438 V -2.5429453 c 0,-1.1132813 0.363281,-1.6640625 1.570312,-1.6757813 z M 99.508594,2.34375e-5 V -4.9101328 H 98.735156 V 2.34375e-5 Z M 99.614062,-5.6484141 v -0.9726562 h -0.972656 v 0.9726562 z m 5.548828,5.62500004 v -0.5859375 c -0.082,0.0234375 -0.11719,0.0234375 -0.16406,0.0234375 -0.26953,0 -0.42188,-0.140625 -0.42188,-0.38671875 V -3.7031016 c 0,-0.8789062 -0.63281,-1.3476562 -1.83984,-1.3476562 -1.19531,0 -1.92188,0.4570312 -1.96875,1.59375 h 0.78516 c 0.0703,-0.5976563 0.42187,-0.8671875 1.14843,-0.8671875 0.70313,0 1.10157,0.2578125 1.10157,0.7265625 v 0.2109375 c 0,0.328125 -0.19922,0.46875 -0.82032,0.5390625 -1.10156,0.140625 -1.26562,0.1757812 -1.57031,0.3046875 -0.57422,0.234375 -0.85547,0.6679687 -0.85547,1.265625 0,0.89062499 0.60938,1.41796874 1.60547,1.41796874 0.63281,0 1.23047,-0.2578125 1.66406,-0.7265625 0.082,0.375 0.42188,0.65625 0.8086,0.65625 0.16406,0 0.28125,-0.0234375 0.52734,-0.09375 z m -1.35937,-1.67578124 c 0,0.70312499 -0.71485,1.16015624 -1.47657,1.16015624 -0.60937,0 -0.96093,-0.22265625 -0.96093,-0.75000004 0,-0.515625 0.35156,-0.7382812 1.18359,-0.8671875 0.82031,-0.1054687 0.98437,-0.1523437 1.25391,-0.2695312 z m 6.45996,-0.8085938 c 0,-1.59375 -0.8086,-2.5429687 -2.09766,-2.5429687 -0.67969,0 -1.14844,0.2578125 -1.52344,0.8085937 v -2.578125 h -0.77343 V 2.34375e-5 h 0.70312 V -0.70310156 c 0.375,0.57421875 0.86719,0.84375 1.55859,0.84375 1.28907,0 2.13282,-1.0546875 2.13282,-2.64843754 z m -0.82032,0.046875 c 0,1.1132813 -0.57421,1.87500004 -1.42968,1.87500004 -0.82032,0 -1.3711,-0.75000004 -1.3711,-1.86328124 0,-1.1601563 0.55078,-1.9101563 1.3711,-1.8632813 0.86718,0 1.42968,0.75 1.42968,1.8515625 z m 2.5459,2.4609375375 V -6.8202891 h -0.78515 V 2.34375e-5 Z m 5.4668,-2.2265625375 c 0,-0.7148437 -0.0586,-1.1601562 -0.19922,-1.5234375 -0.31641,-0.8085937 -1.06641,-1.3007812 -1.98047,-1.3007812 -1.37109,0 -2.25,1.0195312 -2.25,2.625 0,1.60546874 0.85547,2.56640624 2.22656,2.56640624 1.125,0 1.89844,-0.6328125 2.09766,-1.62890624 h -0.78516 c -0.21093,0.64453124 -0.65625,0.90234374 -1.27734,0.90234374 -0.82031,0 -1.42969,-0.51562504 -1.45312,-1.64062504 z m -0.83203,-0.6914062 c 0,0 0,0.035156 -0.0117,0.058594 h -2.75391 c 0.0703,-0.8789062 0.6211,-1.4648437 1.40625,-1.4648437 0.76172,0 1.35938,0.6328125 1.35938,1.40625 z m 0,0"
       style="fill:#000000;fill-opacity:1;fill-rule:nonzero;stroke:none"
       aria-label="Manifest(observed)variable"
       transform="matrix(1.3333333,0,0,1.3333333,75.4,177.832)" />
    <path
       id="path23"
       d="m 6.3621094,-0.00125 v -0.2109375 c -0.328125,-0.234375 -0.4101563,-0.46875 -0.421875,-1.3828125 -0.011719,-1.125 -0.1875,-1.453125 -0.9257813,-1.78125 0.7734375,-0.375 1.078125,-0.84375 1.078125,-1.6289062 0,-1.171875 -0.7382812,-1.8164063 -2.0742187,-1.8164063 H 0.86601562 V -0.00125 H 1.7449219 v -2.9414062 h 2.2382812 c 0.7734375,0 1.1367188,0.375 1.125,1.21875 l -0.011719,0.609375 c 0,0.42187495 0.082031,0.8320312 0.1992187,1.1132812 z m -1.171875,-4.875 c 0,0.796875 -0.421875,1.171875 -1.3476563,1.171875 H 1.7449219 v -2.3554687 h 2.0976562 c 0.9726563,0 1.3476563,0.4101562 1.3476563,1.1835937 z m 6.2812496,2.6484375 c 0,-0.7148437 -0.05859,-1.1601562 -0.199218,-1.5234375 -0.316407,-0.8085937 -1.066407,-1.3007812 -1.9804691,-1.3007812 -1.3710938,0 -2.25,1.0195312 -2.25,2.625 0,1.6054687 0.8554687,2.5664062 2.2265625,2.5664062 1.1249996,0 1.8984376,-0.6328125 2.0976566,-1.6289062 H 10.580859 C 10.369922,-0.845 9.9246094,-0.5871875 9.3035156,-0.5871875 c -0.8203125,0 -1.4296875,-0.515625 -1.453125,-1.640625 z m -0.832031,-0.6914062 c 0,0 0,0.035156 -0.01172,0.058594 H 7.8738281 c 0.070312,-0.8789062 0.6210938,-1.4648437 1.40625,-1.4648437 0.7617189,0 1.3593749,0.6328125 1.3593749,1.4062497 z M 14.289844,-4.266875 V -4.9114062 H 13.48125 V -5.673125 c 0,-0.328125 0.1875,-0.5039062 0.539062,-0.5039062 0.07031,0 0.09375,0 0.269532,0.011719 v -0.6445312 c -0.175782,-0.035156 -0.28125,-0.046875 -0.433594,-0.046875 -0.726563,0 -1.160156,0.4101562 -1.160156,1.1132812 v 0.8320313 h -0.65625 v 0.6445312 h 0.65625 v 4.265625 h 0.785156 v -4.265625 z m 1.605468,4.265625 V -6.8215625 H 15.110156 V -0.00125 Z m 5.466797,-2.2265625 c 0,-0.7148437 -0.05859,-1.1601562 -0.199218,-1.5234375 -0.316407,-0.8085937 -1.066407,-1.3007812 -1.980469,-1.3007812 -1.371094,0 -2.25,1.0195312 -2.25,2.625 0,1.6054687 0.855469,2.5664062 2.226562,2.5664062 1.125,0 1.898438,-0.6328125 2.097657,-1.6289062 h -0.785157 c -0.210937,0.6445312 -0.65625,0.9023437 -1.277343,0.9023437 -0.820313,0 -1.429688,-0.515625 -1.453125,-1.640625 z m -0.832031,-0.6914062 c 0,0 0,0.035156 -0.01172,0.058594 h -2.753906 c 0.07031,-0.8789062 0.621094,-1.4648437 1.40625,-1.4648437 0.761719,0 1.359375,0.6328125 1.359375,1.40625 z M 26.22832,-1.68875 h -0.785156 c -0.128906,0.78515625 -0.539062,1.1015625 -1.195312,1.1015625 -0.867188,0 -1.382813,-0.65625 -1.382813,-1.8164062 0,-1.2304688 0.503906,-1.921875 1.359375,-1.921875 0.65625,0 1.066406,0.3867187 1.160156,1.0664062 h 0.785157 c -0.09375,-1.1953125 -0.84375,-1.7929687 -1.933594,-1.7929687 -1.324219,0 -2.179688,1.0195312 -2.179688,2.6484375 0,1.5820312 0.84375,2.5429687 2.167969,2.5429687 1.171875,0 1.910156,-0.703125 2.003906,-1.828125 z m 2.595703,1.6875 V -0.6575 c -0.105468,0.0234375 -0.222656,0.0351563 -0.375,0.0351563 -0.339843,0 -0.433593,-0.09375 -0.433593,-0.4335937 V -4.266875 h 0.808593 V -4.9114062 H 28.01543 v -1.3476563 h -0.773438 v 1.3476563 h -0.667969 v 0.6445312 h 0.667969 v 3.55078125 c 0,0.50390625 0.339844,0.78515625 0.949219,0.78515625 0.1875,0 0.375,-0.0234375 0.632812,-0.0703125 z m 1.655274,0 V -4.9114062 H 29.705859 V -0.00125 Z m 0.105469,-5.6484375 v -0.9726562 h -0.972657 v 0.9726562 z m 5.091796,0.7382813 h -0.878906 l -1.382812,3.98437495 -1.3125,-3.98437495 h -0.878907 l 1.722657,4.9101562 h 0.855468 z m 4.751954,2.6835937 c 0,-0.7148437 -0.05859,-1.1601562 -0.199219,-1.5234375 -0.316406,-0.8085937 -1.066406,-1.3007812 -1.980469,-1.3007812 -1.371094,0 -2.25,1.0195312 -2.25,2.625 0,1.6054687 0.855469,2.5664062 2.226563,2.5664062 1.125,0 1.898437,-0.6328125 2.097656,-1.6289062 h -0.785156 c -0.210938,0.6445312 -0.65625,0.9023437 -1.277344,0.9023437 -0.820313,0 -1.429688,-0.515625 -1.453125,-1.640625 z m -0.832032,-0.6914062 c 0,0 0,0.035156 -0.01172,0.058594 h -2.753907 c 0.07031,-0.8789062 0.621094,-1.4648437 1.40625,-1.4648437 0.761719,0 1.359375,0.6328125 1.359375,1.40625 z m 5.25586,2.9179687 V -6.8215625 H 44.067187 V -0.00125 Z m 5.666015,-0.0234375 V -0.610625 c -0.08203,0.0234375 -0.117187,0.0234375 -0.164062,0.0234375 -0.269531,0 -0.421875,-0.140625 -0.421875,-0.38671875 V -3.704375 c 0,-0.8789062 -0.632813,-1.3476562 -1.839844,-1.3476562 -1.195312,0 -1.921875,0.4570312 -1.96875,1.59375 h 0.785156 c 0.07031,-0.5976563 0.421875,-0.8671875 1.148438,-0.8671875 0.703125,0 1.101562,0.2578125 1.101562,0.7265625 v 0.2109375 c 0,0.328125 -0.199218,0.46875 -0.820312,0.5390625 -1.101563,0.140625 -1.265625,0.1757812 -1.570313,0.3046875 -0.574218,0.234375 -0.855468,0.6679687 -0.855468,1.265625 0,0.89062495 0.609375,1.4179687 1.605468,1.4179687 0.632813,0 1.230469,-0.2578125 1.664063,-0.7265625 0.08203,0.375 0.421875,0.65625 0.808594,0.65625 0.164062,0 0.28125,-0.0234375 0.527343,-0.09375 z m -1.359375,-1.6757812 c 0,0.70312495 -0.714843,1.1601562 -1.476562,1.1601562 -0.609375,0 -0.960938,-0.22265625 -0.960938,-0.75 0,-0.515625 0.351563,-0.7382812 1.183594,-0.8671875 0.820313,-0.1054687 0.984375,-0.1523437 1.253906,-0.2695312 z m 3.94043,1.6992187 V -0.6575 c -0.105469,0.0234375 -0.222656,0.0351563 -0.375,0.0351563 -0.339844,0 -0.433594,-0.09375 -0.433594,-0.4335937 V -4.266875 h 0.808594 V -4.9114062 H 52.29082 v -1.3476563 h -0.773437 v 1.3476563 h -0.667969 v 0.6445312 h 0.667969 v 3.55078125 c 0,0.50390625 0.339844,0.78515625 0.949219,0.78515625 0.1875,0 0.375,-0.0234375 0.632812,-0.0703125 z m 4.889648,-2.2265625 c 0,-0.7148437 -0.05859,-1.1601562 -0.199218,-1.5234375 -0.316407,-0.8085937 -1.066407,-1.3007812 -1.980469,-1.3007812 -1.371094,0 -2.25,1.0195312 -2.25,2.625 0,1.6054687 0.855469,2.5664062 2.226562,2.5664062 1.125,0 1.898438,-0.6328125 2.097657,-1.6289062 h -0.785157 c -0.210937,0.6445312 -0.65625,0.9023437 -1.277343,0.9023437 -0.820313,0 -1.429688,-0.515625 -1.453125,-1.640625 z m -0.832031,-0.6914062 c 0,0 0,0.035156 -0.01172,0.058594 h -2.753906 c 0.07031,-0.8789062 0.621094,-1.4648437 1.40625,-1.4648437 0.761719,0 1.359375,0.6328125 1.359375,1.40625 z m 5.791992,2.9179687 v -3.703125 c 0,-0.8203125 -0.609375,-1.3476562 -1.558593,-1.3476562 -0.726563,0 -1.195313,0.28125 -1.628907,0.9726562 V -4.9114062 H 59.04668 V -0.00125 h 0.773437 v -2.7070312 c 0,-0.9960938 0.550781,-1.6523438 1.347656,-1.6523438 0.609375,0 1.007813,0.375 1.007813,0.9609375 V -0.00125 Z m 3.026368,0 V -0.6575 c -0.105469,0.0234375 -0.222657,0.0351563 -0.375,0.0351563 -0.339844,0 -0.433594,-0.09375 -0.433594,-0.4335937 V -4.266875 h 0.808594 v -0.6445312 h -0.808594 v -1.3476563 h -0.773438 v 1.3476563 h -0.667968 v 0.6445312 h 0.667968 v 3.55078125 c 0,0.50390625 0.339844,0.78515625 0.949219,0.78515625 0.1875,0 0.375,-0.0234375 0.632813,-0.0703125 z m 5.557617,1.9804688 c -0.832031,-1.33593755 -1.289063,-2.90625005 -1.289063,-4.40625 0,-1.4882813 0.457032,-3.0703125 1.289063,-4.3945313 h -0.515625 c -0.9375,1.21875 -1.535156,2.9296875 -1.535156,4.3945313 0,1.47656245 0.597656,3.18749995 1.535156,4.40625 z M 76.434375,-0.00125 v -4.9101562 h -0.773438 v 2.7070312 c 0,1.0078125 -0.527343,1.6640625 -1.335937,1.6640625 -0.621094,0 -1.019531,-0.375 -1.019531,-0.9726562 v -3.3984375 h -0.773438 v 3.7148437 c 0,0.80859375 0.609375,1.3359375 1.558594,1.3359375 0.726562,0 1.183594,-0.2578125 1.640625,-0.90234375 V -0.00125 Z m 5.25293,0 v -3.703125 c 0,-0.8203125 -0.609375,-1.3476562 -1.558594,-1.3476562 -0.726563,0 -1.195313,0.28125 -1.628906,0.9726562 V -4.9114062 H 77.784961 V -0.00125 h 0.773437 v -2.7070312 c 0,-0.9960938 0.550782,-1.6523438 1.347657,-1.6523438 0.609375,0 1.007812,0.375 1.007812,0.9609375 V -0.00125 Z m 5.416992,-2.4140625 c 0,-1.6992187 -0.808594,-2.6367187 -2.226563,-2.6367187 -1.371093,0 -2.203125,0.9492187 -2.203125,2.6015625 0,1.64062495 0.820313,2.5898437 2.214844,2.5898437 1.382813,0 2.214844,-0.94921875 2.214844,-2.5546875 z m -0.808594,-0.011719 c 0,1.1484375 -0.539062,1.8398437 -1.40625,1.8398437 -0.867187,0 -1.40625,-0.6796875 -1.40625,-1.8632812 0,-1.1835938 0.539063,-1.875 1.40625,-1.875 0.878906,0 1.40625,0.6796875 1.40625,1.8984375 z m 6.146484,-0.082031 c 0,-1.59375 -0.808593,-2.5429687 -2.097656,-2.5429687 -0.679687,0 -1.148437,0.2578125 -1.523437,0.8085937 v -2.578125 H 88.047656 V -0.00125 h 0.703125 v -0.703125 c 0.375,0.57421875 0.867188,0.84375 1.558594,0.84375 1.289062,0 2.132812,-1.0546875 2.132812,-2.6484375 z m -0.820312,0.046875 c 0,1.1132813 -0.574219,1.875 -1.429688,1.875 -0.820312,0 -1.371093,-0.75 -1.371093,-1.8632812 0,-1.1601563 0.550781,-1.9101563 1.371093,-1.8632813 0.867188,0 1.429688,0.75 1.429688,1.8515625 z m 5.428711,1.0898438 c 0,-0.7382813 -0.410156,-1.1015625 -1.394531,-1.3359375 l -0.738282,-0.1757813 c -0.644531,-0.1523437 -0.914062,-0.3515625 -0.914062,-0.703125 0,-0.4453125 0.398437,-0.7382812 1.042969,-0.7382812 0.621093,0 0.960937,0.2695312 0.984375,0.7851562 h 0.820312 c -0.01172,-0.9609375 -0.644531,-1.5117187 -1.78125,-1.5117187 -1.136719,0 -1.875,0.5976562 -1.875,1.5 0,0.7734375 0.386719,1.1367187 1.546875,1.4179687 l 0.738281,0.1757813 c 0.539063,0.1289062 0.75,0.2929687 0.75,0.6445312 0,0.45703125 -0.457031,0.7265625 -1.136718,0.7265625 -0.703125,0 -1.101563,-0.1640625 -1.207032,-0.9140625 h -0.820312 c 0.03516,1.13671875 0.679687,1.640625 1.957031,1.640625 1.242188,0 2.027344,-0.57421875 2.027344,-1.5117187 z m 5.185544,-0.8554688 c 0,-0.7148437 -0.0586,-1.1601562 -0.19922,-1.5234375 -0.3164,-0.8085937 -1.0664,-1.3007812 -1.98046,-1.3007812 -1.371098,0 -2.250005,1.0195312 -2.250005,2.625 0,1.6054687 0.855469,2.5664062 2.226565,2.5664062 1.125,0 1.89844,-0.6328125 2.09765,-1.6289062 h -0.78515 c -0.21094,0.6445312 -0.65625,0.9023437 -1.27735,0.9023437 -0.820308,0 -1.429683,-0.515625 -1.453121,-1.640625 z m -0.83203,-0.6914062 c 0,0 0,0.035156 -0.0117,0.058594 h -2.753903 c 0.07031,-0.8789062 0.621093,-1.4648437 1.406253,-1.4648437 0.76172,0 1.35937,0.6328125 1.35937,1.40625 z M 105.64043,-4.22 v -0.796875 c -0.12891,-0.023437 -0.1875,-0.035156 -0.29297,-0.035156 -0.50391,0 -0.89062,0.3046875 -1.33594,1.03125 v -0.890625 h -0.71484 v 4.910156 h 0.77344 v -2.5429687 c 0,-1.1132813 0.36328,-1.6640625 1.57031,-1.6757813 z m 4.94531,-0.6914062 h -0.8789 l -1.38282,3.98437495 -1.3125,-3.98437495 h -0.8789 l 1.72265,4.9101562 h 0.85547 z m 4.75196,2.6835937 c 0,-0.7148437 -0.0586,-1.1601562 -0.19922,-1.5234375 -0.31641,-0.8085937 -1.06641,-1.3007812 -1.98047,-1.3007812 -1.3711,0 -2.25,1.0195312 -2.25,2.625 0,1.6054687 0.85547,2.5664062 2.22656,2.5664062 1.125,0 1.89844,-0.6328125 2.09766,-1.6289062 h -0.78516 c -0.21094,0.6445312 -0.65625,0.9023437 -1.27734,0.9023437 -0.82032,0 -1.42969,-0.515625 -1.45313,-1.640625 z m -0.83204,-0.6914062 c 0,0 0,0.035156 -0.0117,0.058594 h -2.75391 c 0.0703,-0.8789062 0.62109,-1.4648437 1.40625,-1.4648437 0.76172,0 1.35937,0.6328125 1.35937,1.40625 z m 5.87696,2.9179687 v -6.8203125 h -0.78516 v 2.53125 c -0.32812,-0.4921875 -0.85547,-0.7617187 -1.5,-0.7617187 -1.27734,0 -2.10937,0.984375 -2.10937,2.5546875 0,1.6523437 0.80859,2.6367187 2.13281,2.6367187 0.66797,0 1.13672,-0.2578125 1.55859,-0.8671875 V -0.00125 Z m -0.78516,-2.4375 c 0,1.1367188 -0.53906,1.8515625 -1.35937,1.8515625 -0.86719,0 -1.44141,-0.7265625 -1.44141,-1.8632812 0,-1.1484375 0.57422,-1.8632813 1.42969,-1.8632813 0.84375,0 1.37109,0.75 1.37109,1.875 z m 3.75293,0.023437 c 0,-1.4765625 -0.59766,-3.1875 -1.53516,-4.40625 h -0.51562 c 0.83203,1.3359375 1.28906,2.90625 1.28906,4.40625 0,1.48828125 -0.45703,3.0703125 -1.28906,4.3945313 h 0.51562 c 0.9375,-1.21875005 1.53516,-2.92968755 1.53516,-4.3945313 z m 7.86621,-2.4960937 h -0.8789 l -1.38282,3.98437495 -1.3125,-3.98437495 h -0.8789 l 1.72265,4.9101562 h 0.85547 z m 4.95117,4.8867187 v -0.585937 c -0.082,0.0234375 -0.11718,0.0234375 -0.16406,0.0234375 -0.26953,0 -0.42187,-0.140625 -0.42187,-0.38671875 V -3.704375 c 0,-0.8789062 -0.63282,-1.3476562 -1.83985,-1.3476562 -1.19531,0 -1.92187,0.4570312 -1.96875,1.59375 h 0.78516 c 0.0703,-0.5976563 0.42187,-0.8671875 1.14844,-0.8671875 0.70312,0 1.10156,0.2578125 1.10156,0.7265625 v 0.2109375 c 0,0.328125 -0.19922,0.46875 -0.82031,0.5390625 -1.10157,0.140625 -1.26563,0.1757812 -1.57032,0.3046875 -0.57422,0.234375 -0.85547,0.6679687 -0.85547,1.265625 0,0.89062495 0.60938,1.4179687 1.60547,1.4179687 0.63282,0 1.23047,-0.2578125 1.66407,-0.7265625 0.082,0.375 0.42187,0.65625 0.80859,0.65625 0.16406,0 0.28125,-0.0234375 0.52734,-0.0937505 z m -1.35937,-1.6757812 c 0,0.70312495 -0.71485,1.1601562 -1.47656,1.1601562 -0.60938,0 -0.96094,-0.22265625 -0.96094,-0.75 0,-0.515625 0.35156,-0.7382812 1.18359,-0.8671875 0.82031,-0.1054687 0.98438,-0.1523437 1.25391,-0.2695312 z M 139.37285,-4.22 v -0.796875 c -0.1289,-0.023437 -0.1875,-0.035156 -0.29297,-0.035156 -0.5039,0 -0.89062,0.3046875 -1.33593,1.03125 v -0.890625 h -0.71485 v 4.910156 h 0.77344 v -2.5429687 c 0,-1.1132813 0.36328,-1.6640625 1.57031,-1.6757813 z m 1.54688,4.21875 v -4.9101562 h -0.77344 V -0.00125 Z m 0.10547,-5.6484375 v -0.9726562 h -0.97266 v 0.9726562 z m 5.54882,5.625 V -0.610625 c -0.082,0.0234375 -0.11718,0.0234375 -0.16406,0.0234375 -0.26953,0 -0.42187,-0.140625 -0.42187,-0.38671875 V -3.704375 c 0,-0.8789062 -0.63282,-1.3476562 -1.83985,-1.3476562 -1.19531,0 -1.92187,0.4570312 -1.96875,1.59375 h 0.78516 c 0.0703,-0.5976563 0.42187,-0.8671875 1.14844,-0.8671875 0.70312,0 1.10156,0.2578125 1.10156,0.7265625 v 0.2109375 c 0,0.328125 -0.19922,0.46875 -0.82031,0.5390625 -1.10157,0.140625 -1.26563,0.1757812 -1.57032,0.3046875 -0.57422,0.234375 -0.85547,0.6679687 -0.85547,1.265625 0,0.89062495 0.60938,1.4179687 1.60547,1.4179687 0.63282,0 1.23047,-0.2578125 1.66407,-0.7265625 0.082,0.375 0.42187,0.65625 0.80859,0.65625 0.16406,0 0.28125,-0.0234375 0.52734,-0.09375 z m -1.35937,-1.6757812 c 0,0.70312495 -0.71485,1.1601562 -1.47656,1.1601562 -0.60938,0 -0.96094,-0.22265625 -0.96094,-0.75 0,-0.515625 0.35156,-0.7382812 1.18359,-0.8671875 0.82031,-0.1054687 0.98438,-0.1523437 1.25391,-0.2695312 z m 6.45996,-0.8085938 c 0,-1.59375 -0.80859,-2.5429687 -2.09766,-2.5429687 -0.67968,0 -1.14843,0.2578125 -1.52343,0.8085937 v -2.578125 h -0.77344 V -0.00125 h 0.70312 v -0.703125 c 0.375,0.57421875 0.86719,0.84375 1.5586,0.84375 1.28906,0 2.13281,-1.0546875 2.13281,-2.6484375 z m -0.82031,0.046875 c 0,1.1132813 -0.57422,1.875 -1.42969,1.875 -0.82031,0 -1.37109,-0.75 -1.37109,-1.8632812 0,-1.1601563 0.55078,-1.9101563 1.37109,-1.8632813 0.86719,0 1.42969,0.75 1.42969,1.8515625 z m 2.5459,2.4609375 v -6.8203125 h -0.78516 V -0.00125 Z m 5.46679,-2.2265625 c 0,-0.7148437 -0.0586,-1.1601562 -0.19922,-1.5234375 -0.3164,-0.8085937 -1.0664,-1.3007812 -1.98047,-1.3007812 -1.37109,0 -2.25,1.0195312 -2.25,2.625 0,1.6054687 0.85547,2.5664062 2.22657,2.5664062 1.125,0 1.89843,-0.6328125 2.09765,-1.6289062 h -0.78515 c -0.21094,0.6445312 -0.65625,0.9023437 -1.27735,0.9023437 -0.82031,0 -1.42968,-0.515625 -1.45312,-1.640625 z m -0.83203,-0.6914062 c 0,0 0,0.035156 -0.0117,0.058594 h -2.7539 c 0.0703,-0.8789062 0.62109,-1.4648437 1.40625,-1.4648437 0.76171,0 1.35937,0.6328125 1.35937,1.40625 z m 0,0"
       style="fill:#000000;fill-opacity:1;fill-rule:nonzero;stroke:none"
       aria-label="Refectivelatent(unobserved)variable"
       transform="matrix(1.3333333,0,0,1.3333333,75.4,215.62667)" />
    <path
       id="path24"
       d="M 6.3386719,-2.4950547 H 5.4363281 c -0.1992187,1.3007813 -0.75,1.89843751 -1.8984375,1.89843751 -1.359375,0 -2.2148437,-1.04296871 -2.2148437,-2.74218751 0,-1.7578125 0.8203125,-2.8828125 2.1445312,-2.8828125 1.0664063,0 1.6289063,0.46875 1.8398438,1.5117188 h 0.890625 c -0.2695313,-1.5 -1.1367188,-2.2851563 -2.6367188,-2.2851563 -2.0625,0 -3.11718748,1.6640625 -3.11718748,3.6679688 0,1.9921875 1.07812498,3.49218746 3.08203128,3.49218746 1.6640625,0 2.6015625,-0.87890625 2.8125,-2.66015626 z m 5.1914061,0.082031 c 0,-1.6992188 -0.808594,-2.6367188 -2.2265624,-2.6367188 -1.3710937,0 -2.203125,0.9492188 -2.203125,2.6015625 0,1.64062501 0.8203125,2.58984376 2.2148438,2.58984376 1.3828126,0 2.2148436,-0.94921875 2.2148436,-2.55468746 z m -0.808594,-0.011719 c 0,1.1484375 -0.539062,1.83984376 -1.4062496,1.83984376 -0.8671875,0 -1.40625,-0.67968746 -1.40625,-1.86328126 0,-1.1835937 0.5390625,-1.875 1.40625,-1.875 0.8789066,0 1.4062496,0.6796875 1.4062496,1.8984375 z m 5.806641,2.42578126 V -3.7020859 c 0,-0.8203125 -0.609375,-1.3476563 -1.558594,-1.3476563 -0.726562,0 -1.195312,0.28125 -1.628906,0.9726563 v -0.8320313 h -0.714844 v 4.91015626 h 0.773438 V -2.7059922 c 0,-0.9960937 0.550781,-1.6523437 1.347656,-1.6523437 0.609375,0 1.007812,0.375 1.007812,0.9609375 v 3.39843746 z m 4.948242,-1.37109376 c 0,-0.7382812 -0.410156,-1.1015625 -1.394531,-1.3359375 l -0.738281,-0.1757812 c -0.644532,-0.1523438 -0.914063,-0.3515625 -0.914063,-0.703125 0,-0.4453125 0.398438,-0.7382813 1.042969,-0.7382813 0.621094,0 0.960937,0.2695313 0.984375,0.7851563 h 0.820312 c -0.01172,-0.9609375 -0.644531,-1.5117188 -1.78125,-1.5117188 -1.136718,0 -1.875,0.5976563 -1.875,1.5 0,0.7734375 0.386719,1.1367188 1.546875,1.4179688 l 0.738282,0.1757812 c 0.539062,0.1289063 0.75,0.2929688 0.75,0.6445313 0,0.45703121 -0.457032,0.72656246 -1.136719,0.72656246 -0.703125,0 -1.101563,-0.1640625 -1.207031,-0.91406246 h -0.820313 c 0.03516,1.13671871 0.679688,1.64062496 1.957031,1.64062496 1.242188,0 2.027344,-0.57421875 2.027344,-1.51171876 z m 2.712891,1.37109376 v -0.65625 c -0.105469,0.0234375 -0.222656,0.0351563 -0.375,0.0351563 -0.339844,0 -0.433594,-0.09375 -0.433594,-0.43359366 v -3.2109375 h 0.808594 v -0.6445313 h -0.808594 v -1.3476562 h -0.773437 v 1.3476562 h -0.667969 v 0.6445313 h 0.667969 v 3.55078116 c 0,0.50390625 0.339843,0.78515625 0.949218,0.78515625 0.1875,0 0.375,-0.0234375 0.632813,-0.07031255 z m 5.229492,-0.0234375 v -0.5859375 c -0.08203,0.0234375 -0.117188,0.0234375 -0.164063,0.0234375 -0.269531,0 -0.421875,-0.140625 -0.421875,-0.38671875 V -3.7020859 c 0,-0.8789063 -0.632812,-1.3476563 -1.839843,-1.3476563 -1.195313,0 -1.921875,0.4570313 -1.96875,1.59375 h 0.785156 c 0.07031,-0.5976562 0.421875,-0.8671875 1.148437,-0.8671875 0.703125,0 1.101563,0.2578125 1.101563,0.7265625 v 0.2109375 c 0,0.328125 -0.199219,0.46875 -0.820313,0.5390625 -1.101562,0.140625 -1.265625,0.1757813 -1.570312,0.3046875 -0.574219,0.234375 -0.855469,0.6679688 -0.855469,1.265625 0,0.89062501 0.609375,1.41796876 1.605469,1.41796876 0.632812,0 1.230469,-0.2578125 1.664062,-0.7265625 0.08203,0.375 0.421875,0.65625 0.808594,0.65625 0.164063,0 0.28125,-0.0234375 0.527344,-0.0937505 z M 28.059375,-1.6981797 c 0,0.70312501 -0.714844,1.16015626 -1.476563,1.16015626 -0.609375,0 -0.960937,-0.22265625 -0.960937,-0.74999996 0,-0.515625 0.351562,-0.7382813 1.183594,-0.8671875 0.820312,-0.1054688 0.984375,-0.1523438 1.253906,-0.2695313 z m 6.120117,1.69921876 V -3.7020859 c 0,-0.8203125 -0.609375,-1.3476563 -1.558594,-1.3476563 -0.726562,0 -1.195312,0.28125 -1.628906,0.9726563 v -0.8320313 h -0.714844 v 4.91015626 h 0.773438 V -2.7059922 c 0,-0.9960937 0.550781,-1.6523437 1.347656,-1.6523437 0.609375,0 1.007813,0.375 1.007813,0.9609375 v 3.39843746 z m 3.026367,0 v -0.65625 c -0.105468,0.0234375 -0.222656,0.0351563 -0.375,0.0351563 -0.339843,0 -0.433593,-0.09375 -0.433593,-0.43359366 v -3.2109375 h 0.808593 v -0.6445313 h -0.808593 v -1.3476562 h -0.773438 v 1.3476562 h -0.667969 v 0.6445313 h 0.667969 v 3.55078116 c 0,0.50390625 0.339844,0.78515625 0.949219,0.78515625 0.1875,0 0.375,-0.0234375 0.632812,-0.07031255 z m 5.560547,1.98046874 c -0.832031,-1.33593749 -1.289062,-2.90624999 -1.289062,-4.40625 0,-1.4882812 0.457031,-3.0703125 1.289062,-4.3945312 h -0.515625 c -0.9375,1.21875 -1.535156,2.9296875 -1.535156,4.3945312 0,1.47656251 0.597656,3.18750001 1.535156,4.40625 z M 44.582812,0.00103906 V -4.9091172 h -0.773437 v 4.91015626 z m 0.105469,-5.64843746 v -0.9726563 h -0.972656 v 0.9726563 z m 5.103516,5.64843746 V -3.7020859 c 0,-0.8203125 -0.609375,-1.3476563 -1.558594,-1.3476563 -0.726562,0 -1.195312,0.28125 -1.628906,0.9726563 v -0.8320313 h -0.714844 v 4.91015626 h 0.773438 V -2.7059922 c 0,-0.9960937 0.550781,-1.6523437 1.347656,-1.6523437 0.609375,0 1.007812,0.375 1.007812,0.9609375 v 3.39843746 z m 3.026367,0 v -0.65625 c -0.105469,0.0234375 -0.222656,0.0351563 -0.375,0.0351563 -0.339844,0 -0.433594,-0.09375 -0.433594,-0.43359366 v -3.2109375 h 0.808594 V -4.9091172 H 52.00957 v -1.3476562 h -0.773437 v 1.3476562 h -0.667969 v 0.6445313 h 0.667969 v 3.55078121 c 0,0.50390625 0.339844,0.78515625 0.949219,0.78515625 0.1875,0 0.375,-0.0234375 0.632812,-0.0703125 z m 4.889648,-2.22656246 c 0,-0.7148438 -0.05859,-1.1601563 -0.199218,-1.5234375 -0.316407,-0.8085938 -1.066407,-1.3007813 -1.980469,-1.3007813 -1.371094,0 -2.25,1.0195313 -2.25,2.625 0,1.60546876 0.855469,2.56640626 2.226562,2.56640626 1.125,0 1.898438,-0.6328125 2.097657,-1.62890626 h -0.785157 c -0.210937,0.64453126 -0.65625,0.90234376 -1.277343,0.90234376 -0.820313,0 -1.429688,-0.51562496 -1.453125,-1.64062496 z m -0.832031,-0.6914063 c 0,0 0,0.035156 -0.01172,0.058594 h -2.753906 c 0.07031,-0.8789063 0.621094,-1.4648438 1.40625,-1.4648438 0.761719,0 1.359375,0.6328125 1.359375,1.40625 z m 4.233399,-1.3007812 v -0.796875 c -0.128907,-0.023437 -0.1875,-0.035156 -0.292969,-0.035156 -0.503906,0 -0.890625,0.3046875 -1.335938,1.03125 v -0.890625 H 58.76543 v 4.91015626 h 0.773437 V -2.5419297 c 0,-1.1132812 0.363281,-1.6640625 1.570313,-1.6757812 z m 4.535156,2.53125 H 64.85918 c -0.128907,0.78515621 -0.539063,1.10156246 -1.195313,1.10156246 -0.867187,0 -1.382812,-0.65624996 -1.382812,-1.81640626 0,-1.2304687 0.503906,-1.921875 1.359375,-1.921875 0.65625,0 1.066406,0.3867188 1.160156,1.0664063 h 0.785156 c -0.09375,-1.1953125 -0.84375,-1.7929688 -1.933594,-1.7929688 -1.324218,0 -2.179687,1.0195313 -2.179687,2.6484375 0,1.58203126 0.84375,2.54296876 2.167969,2.54296876 1.171875,0 1.910156,-0.703125 2.003906,-1.82812496 z m 5.024414,-0.5390625 c 0,-0.7148438 -0.05859,-1.1601563 -0.199219,-1.5234375 -0.316406,-0.8085938 -1.066406,-1.3007813 -1.980469,-1.3007813 -1.371093,0 -2.25,1.0195313 -2.25,2.625 0,1.60546876 0.855469,2.56640626 2.226563,2.56640626 1.125,0 1.898437,-0.6328125 2.097656,-1.62890626 h -0.785156 c -0.210938,0.64453126 -0.65625,0.90234376 -1.277344,0.90234376 -0.820312,0 -1.429687,-0.51562496 -1.453125,-1.64062496 z m -0.832031,-0.6914063 c 0,0 0,0.035156 -0.01172,0.058594 h -2.753906 c 0.07031,-0.8789063 0.621093,-1.4648438 1.40625,-1.4648438 0.761718,0 1.359375,0.6328125 1.359375,1.40625 z m 6.131836,0.515625 c 0,-1.6523437 -0.808594,-2.6484375 -2.109375,-2.6484375 -0.667969,0 -1.195313,0.3046875 -1.558594,0.8789063 v -0.7382813 h -0.714844 v 6.9492188 h 0.773438 v -2.62500004 c 0.410156,0.50390625 0.878906,0.7265625 1.511718,0.7265625 1.265625,0 2.097657,-0.984375 2.097657,-2.54296876 z m -0.820313,-0.023437 c 0,1.1132813 -0.5625,1.83984376 -1.417969,1.83984376 -0.820312,0 -1.371093,-0.67968746 -1.371093,-1.82812496 0,-1.1484375 0.550781,-1.8984375 1.371093,-1.8984375 0.855469,0 1.417969,0.7148437 1.417969,1.8867187 z m 3.459961,2.42578126 v -0.65625 c -0.105469,0.0234375 -0.222656,0.0351563 -0.375,0.0351563 -0.339844,0 -0.433594,-0.09375 -0.433594,-0.43359376 v -3.2109375 h 0.808594 v -0.6445313 h -0.808594 v -1.3476562 h -0.773437 v 1.3476562 h -0.667969 v 0.6445313 h 0.667969 v 3.55078126 c 0,0.50390625 0.339844,0.78515625 0.949219,0.78515625 0.1875,0 0.375,-0.0234375 0.632812,-0.07031255 z m 7.599609,-2.41406246 c 0,-1.6992188 -0.808593,-2.6367188 -2.226562,-2.6367188 -1.371094,0 -2.203125,0.9492188 -2.203125,2.6015625 0,1.64062501 0.820312,2.58984376 2.214844,2.58984376 1.382812,0 2.214843,-0.94921875 2.214843,-2.55468746 z m -0.808593,-0.011719 c 0,1.1484375 -0.539063,1.83984376 -1.40625,1.83984376 -0.867188,0 -1.40625,-0.67968746 -1.40625,-1.86328126 0,-1.1835937 0.539062,-1.875 1.40625,-1.875 0.878906,0 1.40625,0.6796875 1.40625,1.8984375 z m 4.245117,-1.7929687 v -0.796875 c -0.128906,-0.023437 -0.1875,-0.035156 -0.292969,-0.035156 -0.503906,0 -0.890625,0.3046875 -1.335937,1.03125 v -0.890625 h -0.714844 v 4.91015626 h 0.773437 V -2.5419297 c 0,-1.1132812 0.363282,-1.6640625 1.570313,-1.6757809 z m 9.834961,4.21874996 V -3.6786484 c 0,-0.8789063 -0.480469,-1.3710938 -1.40625,-1.3710938 -0.65625,0 -1.042969,0.1992188 -1.5,0.75 -0.292969,-0.515625 -0.691406,-0.75 -1.324219,-0.75 -0.65625,0 -1.089844,0.2460938 -1.511719,0.8320313 v -0.6914063 h -0.703125 v 4.91015626 h 0.773438 V -3.0809922 c 0,-0.7148437 0.515625,-1.2773437 1.148437,-1.2773437 0.585938,0 0.914063,0.3515625 0.914063,0.984375 v 3.37499996 h 0.773437 V -3.0809922 c 0,-0.7148437 0.527344,-1.2773437 1.160157,-1.2773437 0.574218,0 0.902343,0.3632812 0.902343,0.984375 v 3.37499996 z m 5.493163,-2.22656246 c 0,-0.7148438 -0.0586,-1.1601563 -0.19922,-1.5234375 -0.3164,-0.8085938 -1.0664,-1.3007813 -1.98047,-1.3007813 -1.37109,0 -2.25,1.0195313 -2.25,2.625 0,1.60546876 0.85547,2.56640626 2.22657,2.56640626 1.125,0 1.89843,-0.6328125 2.09765,-1.62890626 h -0.78515 c -0.21094,0.64453126 -0.65625,0.90234376 -1.27735,0.90234376 -0.82031,0 -1.42969,-0.51562496 -1.45312,-1.64062496 z m -0.83203,-0.6914063 c 0,0 0,0.035156 -0.0117,0.058594 h -2.75391 c 0.0703,-0.8789063 0.6211,-1.4648438 1.40625,-1.4648438 0.76172,0 1.35938,0.6328125 1.35938,1.40625 z m 6.2373,2.89453126 v -0.5859375 c -0.082,0.0234375 -0.11718,0.0234375 -0.16406,0.0234375 -0.26953,0 -0.42187,-0.140625 -0.42187,-0.38671875 V -3.7020859 c 0,-0.8789063 -0.63282,-1.3476563 -1.83985,-1.3476563 -1.19531,0 -1.92187,0.4570313 -1.96875,1.59375 h 0.78516 c 0.0703,-0.5976562 0.42187,-0.8671875 1.14844,-0.8671875 0.70312,0 1.10156,0.2578125 1.10156,0.7265625 v 0.2109375 c 0,0.328125 -0.19922,0.46875 -0.82031,0.5390625 -1.10157,0.140625 -1.26563,0.1757813 -1.57032,0.3046875 -0.57421,0.234375 -0.85546,0.6679688 -0.85546,1.265625 0,0.89062501 0.60937,1.41796876 1.60546,1.41796876 0.63282,0 1.23047,-0.2578125 1.66407,-0.7265625 0.082,0.375 0.42187,0.65625 0.80859,0.65625 0.16406,0 0.28125,-0.0234375 0.52734,-0.0937497 z m -1.35937,-1.67578126 c 0,0.70312501 -0.71484,1.16015626 -1.47656,1.16015626 -0.60938,0 -0.96094,-0.22265625 -0.96094,-0.74999996 0,-0.515625 0.35156,-0.7382813 1.18359,-0.8671875 0.82032,-0.1054688 0.98438,-0.1523438 1.25391,-0.2695313 z m 6.12012,1.69921876 V -3.7020859 c 0,-0.8203125 -0.60938,-1.3476563 -1.5586,-1.3476563 -0.72656,0 -1.19531,0.28125 -1.6289,0.9726563 v -0.8320313 h -0.71485 v 4.91015626 h 0.77344 V -2.7059922 c 0,-0.9960937 0.55078,-1.6523437 1.34766,-1.6523437 0.60937,0 1.00781,0.375 1.00781,0.9609375 v 3.39843746 z m 3.05273,-2.41406246 c 0,-1.4765625 -0.59766,-3.1875 -1.53516,-4.40625 h -0.51562 c 0.83203,1.3359375 1.28906,2.90625 1.28906,4.40625 0,1.48828121 -0.45703,3.07031246 -1.28906,4.3945312 h 0.51562 c 0.9375,-1.21874999 1.53516,-2.92968749 1.53516,-4.3945312 z m 0,0"
       style="fill:#000000;fill-opacity:1;fill-rule:nonzero;stroke:none"
       aria-label="Constant(interceptormean)"
       transform="matrix(1.3333333,0,0,1.3333333,75.4,253.38533)" />
    <path
       id="path25"
       d="M 1.8035156,0.00122656 V -6.8190859 H 0.93632812 v 6.82031246 z m 5.3583985,0 V -3.7018984 c 0,-0.8203125 -0.609375,-1.3476563 -1.5585938,-1.3476563 -0.7265625,0 -1.1953125,0.28125 -1.6289062,0.9726563 V -4.9089297 H 3.2595703 V 0.00122656 H 4.0330078 V -2.7058047 c 0,-0.9960937 0.5507813,-1.6523437 1.3476563,-1.6523437 0.609375,0 1.0078125,0.375 1.0078125,0.9609375 v 3.39843746 z m 3.0263669,0 v -0.65625 c -0.105469,0.0234375 -0.222656,0.0351563 -0.3749998,0.0351563 -0.3398437,0 -0.4335937,-0.09375 -0.4335937,-0.43359366 V -4.2643984 H 10.188281 V -4.9089297 H 9.3796875 V -6.2565859 H 8.60625 v 1.3476562 H 7.9382812 v 0.6445313 H 8.60625 v 3.55078121 c 0,0.50390625 0.3398437,0.78515625 0.9492187,0.78515625 0.1875,0 0.375,-0.0234375 0.6328123,-0.0703125 z M 15.07793,-2.2253359 c 0,-0.7148438 -0.05859,-1.1601563 -0.199219,-1.5234375 -0.316406,-0.8085938 -1.066406,-1.3007813 -1.980469,-1.3007813 -1.371094,0 -2.25,1.0195313 -2.25,2.625 0,1.60546876 0.855469,2.56640626 2.226563,2.56640626 1.125,0 1.898437,-0.6328125 2.097656,-1.62890626 h -0.785156 c -0.210938,0.64453126 -0.65625,0.90234376 -1.277344,0.90234376 -0.820313,0 -1.429688,-0.51562496 -1.453125,-1.64062496 z m -0.832032,-0.6914063 c 0,0 0,0.035156 -0.01172,0.058594 h -2.753907 c 0.07031,-0.8789063 0.621094,-1.4648438 1.40625,-1.4648438 0.761719,0 1.359375,0.6328125 1.359375,1.40625 z m 4.233399,-1.3007812 v -0.796875 c -0.128906,-0.023437 -0.1875,-0.035156 -0.292969,-0.035156 -0.503906,0 -0.890625,0.3046875 -1.335937,1.03125 v -0.890625 h -0.714844 v 4.91015626 h 0.773437 V -2.5417422 c 0,-1.1132812 0.363282,-1.6640625 1.570313,-1.6757812 z m 5.077148,4.19531246 v -0.5859375 c -0.08203,0.0234375 -0.117187,0.0234375 -0.164062,0.0234375 -0.269531,0 -0.421875,-0.140625 -0.421875,-0.38671875 V -3.7018984 c 0,-0.8789063 -0.632813,-1.3476563 -1.839844,-1.3476563 -1.195312,0 -1.921875,0.4570313 -1.96875,1.59375 h 0.785156 c 0.07031,-0.5976562 0.421875,-0.8671875 1.148438,-0.8671875 0.703125,0 1.101562,0.2578125 1.101562,0.7265625 v 0.2109375 c 0,0.328125 -0.199218,0.46875 -0.820312,0.5390625 -1.101563,0.140625 -1.265625,0.1757813 -1.570313,0.3046875 -0.574218,0.234375 -0.855468,0.6679688 -0.855468,1.265625 0,0.89062501 0.609375,1.41796876 1.605468,1.41796876 0.632813,0 1.230469,-0.2578125 1.664063,-0.7265625 0.08203,0.375 0.421875,0.65625 0.808594,0.65625 0.164062,0 0.28125,-0.0234375 0.527343,-0.09375 z M 22.19707,-1.6979922 c 0,0.70312501 -0.714843,1.16015626 -1.476562,1.16015626 -0.609375,0 -0.960938,-0.22265625 -0.960938,-0.74999996 0,-0.515625 0.351563,-0.7382813 1.183594,-0.8671875 0.820313,-0.1054688 0.984375,-0.1523438 1.253906,-0.2695313 z m 6.026367,0.011719 h -0.785156 c -0.128906,0.78515621 -0.539062,1.10156246 -1.195312,1.10156246 -0.867188,0 -1.382813,-0.65624996 -1.382813,-1.81640626 0,-1.2304687 0.503906,-1.921875 1.359375,-1.921875 0.65625,0 1.066406,0.3867188 1.160156,1.0664063 h 0.785157 c -0.09375,-1.1953125 -0.84375,-1.7929688 -1.933594,-1.7929688 -1.324219,0 -2.179688,1.0195313 -2.179688,2.6484375 0,1.58203126 0.84375,2.54296876 2.167969,2.54296876 1.171875,0 1.910156,-0.703125 2.003906,-1.82812496 z m 2.595704,1.68749996 v -0.65625 c -0.105469,0.0234375 -0.222657,0.0351563 -0.375,0.0351563 -0.339844,0 -0.433594,-0.09375 -0.433594,-0.43359366 v -3.2109375 h 0.808594 v -0.6445313 h -0.808594 v -1.3476562 h -0.773438 v 1.3476562 h -0.667968 v 0.6445313 h 0.667968 v 3.55078116 c 0,0.50390625 0.339844,0.78515625 0.949219,0.78515625 0.1875,0 0.375,-0.0234375 0.632813,-0.07031255 z m 1.655273,0 V -4.9089297 H 31.700977 V 0.00122656 Z M 32.579883,-5.6472107 V -6.619867 h -0.972656 v 0.9726563 z m 5.314453,3.234375 c 0,-1.6992188 -0.808594,-2.6367188 -2.226563,-2.6367188 -1.371093,0 -2.203125,0.9492188 -2.203125,2.6015625 0,1.64062501 0.820313,2.58984376 2.214844,2.58984376 1.382813,0 2.214844,-0.94921875 2.214844,-2.55468746 z m -0.808594,-0.011719 c 0,1.1484375 -0.539062,1.83984376 -1.40625,1.83984376 -0.867187,0 -1.40625,-0.67968746 -1.40625,-1.86328126 0,-1.1835937 0.539063,-1.875 1.40625,-1.875 0.878906,0 1.40625,0.6796875 1.40625,1.8984375 z m 5.803711,2.42578126 V -3.7018984 c 0,-0.8203125 -0.609375,-1.3476563 -1.558594,-1.3476563 -0.726562,0 -1.195312,0.28125 -1.628906,0.9726563 v -0.8320313 h -0.714844 v 4.91015626 h 0.773438 V -2.7058047 c 0,-0.9960937 0.550781,-1.6523437 1.347656,-1.6523437 0.609375,0 1.007813,0.375 1.007813,0.9609375 v 3.39843746 z m 0,0"
       style="fill:#000000;fill-opacity:1;fill-rule:nonzero;stroke:none"
       aria-label="Interaction"
       transform="matrix(1.3333333,0,0,1.3333333,75.4,292.54133)" />
  </g>
</svg>
