<?xml version="1.0" encoding="UTF-8" standalone="no"?>
<svg
   width="447.283pt"
   height="262.78pt"
   viewBox="0 0 447.283 262.78"
   version="1.1"
   id="svg200"
   sodipodi:docname="TwoFactor3.pdf"
   xmlns:inkscape="http://www.inkscape.org/namespaces/inkscape"
   xmlns:sodipodi="http://sodipodi.sourceforge.net/DTD/sodipodi-0.dtd"
   xmlns:xlink="http://www.w3.org/1999/xlink"
   xmlns="http://www.w3.org/2000/svg"
   xmlns:svg="http://www.w3.org/2000/svg">
  <sodipodi:namedview
     id="namedview200"
     pagecolor="#ffffff"
     bordercolor="#000000"
     borderopacity="0.25"
     inkscape:showpageshadow="2"
     inkscape:pageopacity="0.0"
     inkscape:pagecheckerboard="0"
     inkscape:deskcolor="#d1d1d1"
     inkscape:document-units="pt" />
  <defs
     id="defs36">
    <g
       id="g36">
      <g
         id="glyph-0-0">
        <path
           d="M 4.890625 -2.40625 C 4.890625 -4.046875 4.09375 -5.046875 2.796875 -5.046875 C 2.125 -5.046875 1.59375 -4.75 1.21875 -4.171875 L 1.21875 -4.90625 L 0.515625 -4.90625 L 0.515625 2.046875 L 1.296875 2.046875 L 1.296875 -0.59375 C 1.703125 -0.078125 2.15625 0.140625 2.796875 0.140625 C 4.0625 0.140625 4.890625 -0.84375 4.890625 -2.40625 Z M 4.078125 -2.421875 C 4.078125 -1.3125 3.515625 -0.59375 2.65625 -0.59375 C 1.828125 -0.59375 1.296875 -1.265625 1.296875 -2.421875 C 1.296875 -3.5625 1.828125 -4.3125 2.65625 -4.3125 C 3.515625 -4.3125 4.078125 -3.59375 4.078125 -2.421875 Z M 4.078125 -2.421875 "
           id="path1" />
      </g>
      <g
         id="glyph-0-1">
        <path
           d="M 4.765625 -2.421875 C 4.765625 -4.109375 3.953125 -5.046875 2.546875 -5.046875 C 1.171875 -5.046875 0.34375 -4.09375 0.34375 -2.453125 C 0.34375 -0.8125 1.15625 0.140625 2.5625 0.140625 C 3.9375 0.140625 4.765625 -0.8125 4.765625 -2.421875 Z M 3.953125 -2.421875 C 3.953125 -1.265625 3.421875 -0.578125 2.5625 -0.578125 C 1.6875 -0.578125 1.15625 -1.265625 1.15625 -2.453125 C 1.15625 -3.625 1.6875 -4.328125 2.5625 -4.328125 C 3.4375 -4.328125 3.953125 -3.640625 3.953125 -2.421875 Z M 3.953125 -2.421875 "
           id="path2" />
      </g>
      <g
         id="glyph-0-2">
        <path
           d="M 4.296875 -1.375 C 4.296875 -2.109375 3.890625 -2.46875 2.90625 -2.703125 L 2.15625 -2.875 C 1.53125 -3.03125 1.25 -3.234375 1.25 -3.578125 C 1.25 -4.03125 1.65625 -4.328125 2.296875 -4.328125 C 2.921875 -4.328125 3.25 -4.046875 3.28125 -3.53125 L 4.09375 -3.53125 C 4.09375 -4.5 3.453125 -5.046875 2.328125 -5.046875 C 1.171875 -5.046875 0.4375 -4.453125 0.4375 -3.546875 C 0.4375 -2.78125 0.828125 -2.421875 2 -2.140625 L 2.71875 -1.953125 C 3.265625 -1.828125 3.484375 -1.671875 3.484375 -1.3125 C 3.484375 -0.859375 3.015625 -0.578125 2.34375 -0.578125 C 1.640625 -0.578125 1.25 -0.75 1.140625 -1.5 L 0.3125 -1.5 C 0.359375 -0.359375 0.984375 0.140625 2.28125 0.140625 C 3.515625 0.140625 4.296875 -0.4375 4.296875 -1.375 Z M 4.296875 -1.375 "
           id="path3" />
      </g>
      <g
         id="glyph-0-3">
        <path
           d="M 5.78125 -4.8125 C 5.78125 -6.109375 5.015625 -6.828125 3.671875 -6.828125 L 0.859375 -6.828125 L 0.859375 0 L 1.71875 0 L 1.71875 -2.890625 L 3.859375 -2.890625 C 4.984375 -2.890625 5.78125 -3.6875 5.78125 -4.8125 Z M 4.859375 -4.859375 C 4.859375 -4.109375 4.375 -3.65625 3.53125 -3.65625 L 1.71875 -3.65625 L 1.71875 -6.0625 L 3.53125 -6.0625 C 4.375 -6.0625 4.859375 -5.609375 4.859375 -4.859375 Z M 4.859375 -4.859375 "
           id="path4" />
      </g>
      <g
         id="glyph-0-4">
        <path
           d="M 6.9375 -3.296875 C 6.9375 -5.5 5.640625 -6.984375 3.640625 -6.984375 C 1.6875 -6.984375 0.359375 -5.5 0.359375 -3.359375 C 0.359375 -1.21875 1.6875 0.171875 3.65625 0.171875 C 5.65625 0.171875 6.9375 -1.296875 6.9375 -3.296875 Z M 6.078125 -3.328125 C 6.078125 -1.671875 5.09375 -0.59375 3.65625 -0.59375 C 2.203125 -0.59375 1.21875 -1.671875 1.21875 -3.359375 C 1.21875 -5.046875 2.203125 -6.21875 3.640625 -6.21875 C 5.125 -6.21875 6.078125 -5.046875 6.078125 -3.328125 Z M 6.078125 -3.328125 "
           id="path5" />
      </g>
      <g
         id="glyph-0-5">
        <path
           d="M 5.8125 -1.875 C 5.8125 -2.71875 5.28125 -3.328125 4.359375 -3.578125 L 2.65625 -4.046875 C 1.828125 -4.265625 1.53125 -4.53125 1.53125 -5.046875 C 1.53125 -5.75 2.140625 -6.265625 3.046875 -6.265625 C 4.140625 -6.265625 4.75 -5.765625 4.75 -4.875 L 5.578125 -4.875 C 5.578125 -6.21875 4.65625 -6.984375 3.078125 -6.984375 C 1.578125 -6.984375 0.65625 -6.171875 0.65625 -4.9375 C 0.65625 -4.09375 1.09375 -3.578125 2 -3.34375 L 3.6875 -2.890625 C 4.546875 -2.671875 4.9375 -2.328125 4.9375 -1.78125 C 4.9375 -1.03125 4.375 -0.59375 3.203125 -0.59375 C 1.90625 -0.59375 1.265625 -1.25 1.265625 -2.21875 L 0.453125 -2.21875 C 0.453125 -0.609375 1.53125 0.171875 3.140625 0.171875 C 4.875 0.171875 5.8125 -0.65625 5.8125 -1.875 Z M 5.8125 -1.875 "
           id="path6" />
      </g>
      <g
         id="glyph-0-6">
        <path
           d="M 3.25 0 L 3.25 -6.640625 L 2.703125 -6.640625 C 2.421875 -5.609375 2.234375 -5.46875 0.953125 -5.3125 L 0.953125 -4.71875 L 2.421875 -4.71875 L 2.421875 0 Z M 3.25 0 "
           id="path7" />
      </g>
      <g
         id="glyph-0-7">
        <path
           d="M 4.5625 0 L 4.5625 -3.703125 C 4.5625 -4.515625 3.953125 -5.046875 3 -5.046875 C 2.28125 -5.046875 1.8125 -4.765625 1.375 -4.078125 L 1.375 -4.90625 L 0.65625 -4.90625 L 0.65625 0 L 1.4375 0 L 1.4375 -2.703125 C 1.4375 -3.703125 1.96875 -4.359375 2.765625 -4.359375 C 3.390625 -4.359375 3.78125 -3.984375 3.78125 -3.390625 L 3.78125 0 Z M 4.5625 0 "
           id="path8" />
      </g>
      <g
         id="glyph-0-8">
        <path
           d="M 4.796875 -2.234375 C 4.796875 -2.9375 4.75 -3.390625 4.609375 -3.75 C 4.28125 -4.5625 3.53125 -5.046875 2.625 -5.046875 C 1.25 -5.046875 0.375 -4.03125 0.375 -2.421875 C 0.375 -0.8125 1.21875 0.140625 2.609375 0.140625 C 3.71875 0.140625 4.5 -0.5 4.703125 -1.484375 L 3.90625 -1.484375 C 3.703125 -0.84375 3.25 -0.578125 2.625 -0.578125 C 1.8125 -0.578125 1.203125 -1.109375 1.1875 -2.234375 Z M 3.96875 -2.921875 C 3.96875 -2.921875 3.96875 -2.875 3.953125 -2.859375 L 1.203125 -2.859375 C 1.265625 -3.734375 1.828125 -4.328125 2.609375 -4.328125 C 3.375 -4.328125 3.96875 -3.6875 3.96875 -2.921875 Z M 3.96875 -2.921875 "
           id="path9" />
      </g>
      <g
         id="glyph-0-9">
        <path
           d="M 4.578125 -0.8125 L 4.578125 -4.90625 L 3.859375 -4.90625 L 3.859375 -4.1875 C 3.46875 -4.765625 2.984375 -5.046875 2.359375 -5.046875 C 1.109375 -5.046875 0.265625 -4 0.265625 -2.40625 C 0.265625 -0.859375 1.140625 0.140625 2.296875 0.140625 C 2.90625 0.140625 3.34375 -0.125 3.859375 -0.734375 L 3.859375 -0.40625 C 3.859375 0.890625 3.328125 1.390625 2.421875 1.390625 C 1.796875 1.390625 1.3125 1.15625 1.21875 0.5625 L 0.4375 0.5625 C 0.515625 1.484375 1.234375 2.046875 2.390625 2.046875 C 3.921875 2.046875 4.578125 1.359375 4.578125 -0.8125 Z M 3.78125 -2.421875 C 3.78125 -1.25 3.28125 -0.578125 2.453125 -0.578125 C 1.59375 -0.578125 1.078125 -1.265625 1.078125 -2.453125 C 1.078125 -3.625 1.609375 -4.328125 2.4375 -4.328125 C 3.28125 -4.328125 3.78125 -3.609375 3.78125 -2.421875 Z M 3.78125 -2.421875 "
           id="path10" />
      </g>
      <g
         id="glyph-0-10">
        <path
           d="M 6.046875 0 L 6.046875 -6.828125 L 5.21875 -6.828125 L 5.21875 -1.25 L 1.65625 -6.828125 L 0.71875 -6.828125 L 0.71875 0 L 1.53125 0 L 1.53125 -5.53125 L 5.0625 0 Z M 6.046875 0 "
           id="path11" />
      </g>
      <g
         id="glyph-0-11">
        <path
           d="M 5.734375 0 L 5.734375 -0.765625 L 1.71875 -0.765625 L 1.71875 -3.109375 L 5.421875 -3.109375 L 5.421875 -3.875 L 1.71875 -3.875 L 1.71875 -6.0625 L 5.5625 -6.0625 L 5.5625 -6.828125 L 0.84375 -6.828125 L 0.84375 0 Z M 5.734375 0 "
           id="path12" />
      </g>
      <g
         id="glyph-0-12">
        <path
           d="M 6.640625 0 L 6.640625 -3.609375 L 3.796875 -3.609375 L 3.796875 -2.828125 L 5.875 -2.828125 L 5.875 -2.65625 C 5.875 -1.4375 4.96875 -0.59375 3.71875 -0.59375 C 2.1875 -0.59375 1.28125 -1.71875 1.28125 -3.390625 C 1.28125 -5.0625 2.234375 -6.21875 3.671875 -6.21875 C 4.71875 -6.21875 5.46875 -5.640625 5.65625 -4.75 L 6.546875 -4.75 C 6.296875 -6.140625 5.25 -6.984375 3.6875 -6.984375 C 1.59375 -6.984375 0.40625 -5.375 0.40625 -3.34375 C 0.40625 -1.25 1.6875 0.171875 3.53125 0.171875 C 4.46875 0.171875 5.203125 -0.15625 5.875 -0.90625 L 6.078125 0 Z M 6.640625 0 "
           id="path13" />
      </g>
      <g
         id="glyph-0-13">
        <path
           d="M 4.828125 -2.015625 L 4.828125 -2.65625 L 3.046875 -2.65625 L 3.046875 -4.4375 L 2.421875 -4.4375 L 2.421875 -2.65625 L 0.640625 -2.65625 L 0.640625 -2.015625 L 2.421875 -2.015625 L 2.421875 -0.25 L 3.046875 -0.25 L 3.046875 -2.015625 Z M 4.828125 -2.015625 "
           id="path14" />
      </g>
      <g
         id="glyph-0-14">
        <path
           d="M 4.828125 -2.875 L 4.828125 -3.515625 L 0.640625 -3.515625 L 0.640625 -2.875 Z M 4.828125 -1.171875 L 4.828125 -1.8125 L 0.640625 -1.8125 L 0.640625 -1.171875 Z M 4.828125 -1.171875 "
           id="path15" />
      </g>
      <g
         id="glyph-0-15">
        <path
           d="M 4.734375 -1.921875 C 4.734375 -2.734375 4.40625 -3.203125 3.609375 -3.46875 C 4.234375 -3.71875 4.546875 -4.140625 4.546875 -4.8125 C 4.546875 -5.953125 3.78125 -6.640625 2.515625 -6.640625 C 1.171875 -6.640625 0.46875 -5.90625 0.4375 -4.5 L 1.265625 -4.5 C 1.28125 -5.46875 1.6875 -5.921875 2.53125 -5.921875 C 3.25 -5.921875 3.703125 -5.484375 3.703125 -4.78125 C 3.703125 -4.078125 3.390625 -3.78125 2.0625 -3.78125 L 2.0625 -3.09375 L 2.515625 -3.09375 C 3.421875 -3.09375 3.890625 -2.65625 3.890625 -1.921875 C 3.890625 -1.078125 3.375 -0.59375 2.515625 -0.59375 C 1.625 -0.59375 1.171875 -1.03125 1.125 -2 L 0.296875 -2 C 0.40625 -0.53125 1.125 0.140625 2.484375 0.140625 C 3.859375 0.140625 4.734375 -0.671875 4.734375 -1.921875 Z M 4.734375 -1.921875 "
           id="path16" />
      </g>
      <g
         id="glyph-0-16">
        <path
           d="M 4.75 -3.1875 C 4.75 -5.5 4.015625 -6.640625 2.578125 -6.640625 C 1.140625 -6.640625 0.40625 -5.46875 0.40625 -3.25 C 0.40625 -1.015625 1.15625 0.140625 2.578125 0.140625 C 3.984375 0.140625 4.75 -1.015625 4.75 -3.1875 Z M 3.90625 -3.265625 C 3.90625 -1.390625 3.46875 -0.546875 2.5625 -0.546875 C 1.6875 -0.546875 1.25 -1.421875 1.25 -3.234375 C 1.25 -5.046875 1.6875 -5.90625 2.578125 -5.90625 C 3.46875 -5.90625 3.90625 -5.046875 3.90625 -3.265625 Z M 3.90625 -3.265625 "
           id="path17" />
      </g>
      <g
         id="glyph-1-0">
        <path
           d="M 2.59375 0 L 2.59375 -5.3125 L 2.15625 -5.3125 C 1.9375 -4.484375 1.78125 -4.375 0.765625 -4.25 L 0.765625 -3.78125 L 1.9375 -3.78125 L 1.9375 0 Z M 2.59375 0 "
           id="path18" />
      </g>
      <g
         id="glyph-1-1">
        <path
           d="M 3.828125 -3.75 C 3.828125 -4.640625 3.125 -5.3125 2.125 -5.3125 C 1.046875 -5.3125 0.40625 -4.75 0.375 -3.46875 L 1.03125 -3.46875 C 1.078125 -4.359375 1.453125 -4.734375 2.109375 -4.734375 C 2.703125 -4.734375 3.15625 -4.296875 3.15625 -3.734375 C 3.15625 -3.3125 2.90625 -2.953125 2.4375 -2.6875 L 1.75 -2.296875 C 0.640625 -1.671875 0.3125 -1.171875 0.25 0 L 3.78125 0 L 3.78125 -0.65625 L 1 -0.65625 C 1.0625 -1.078125 1.296875 -1.359375 1.953125 -1.75 L 2.703125 -2.140625 C 3.4375 -2.546875 3.828125 -3.09375 3.828125 -3.75 Z M 3.828125 -3.75 "
           id="path19" />
      </g>
      <g
         id="glyph-1-2">
        <path
           d="M 3.78125 -1.546875 C 3.78125 -2.1875 3.53125 -2.5625 2.890625 -2.78125 C 3.390625 -2.96875 3.625 -3.3125 3.625 -3.84375 C 3.625 -4.765625 3.03125 -5.3125 2.015625 -5.3125 C 0.9375 -5.3125 0.375 -4.71875 0.359375 -3.59375 L 1.015625 -3.59375 C 1.03125 -4.375 1.34375 -4.734375 2.015625 -4.734375 C 2.609375 -4.734375 2.953125 -4.390625 2.953125 -3.828125 C 2.953125 -3.25 2.703125 -3.03125 1.65625 -3.03125 L 1.65625 -2.46875 L 2.015625 -2.46875 C 2.734375 -2.46875 3.109375 -2.125 3.109375 -1.53125 C 3.109375 -0.875 2.703125 -0.46875 2.015625 -0.46875 C 1.296875 -0.46875 0.9375 -0.828125 0.890625 -1.609375 L 0.234375 -1.609375 C 0.328125 -0.421875 0.90625 0.109375 1.984375 0.109375 C 3.078125 0.109375 3.78125 -0.53125 3.78125 -1.546875 Z M 3.78125 -1.546875 "
           id="path20" />
      </g>
      <g
         id="glyph-1-3">
        <path
           d="M 3.890625 -1.265625 L 3.890625 -1.859375 L 3.109375 -1.859375 L 3.109375 -5.3125 L 2.625 -5.3125 L 0.203125 -1.96875 L 0.203125 -1.265625 L 2.453125 -1.265625 L 2.453125 0 L 3.109375 0 L 3.109375 -1.265625 Z M 2.453125 -1.859375 L 0.78125 -1.859375 L 2.453125 -4.1875 Z M 2.453125 -1.859375 "
           id="path21" />
      </g>
      <g
         id="glyph-1-4">
        <path
           d="M 3.84375 -1.765625 C 3.84375 -2.8125 3.140625 -3.5 2.125 -3.5 C 1.75 -3.5 1.453125 -3.390625 1.140625 -3.171875 L 1.359375 -4.546875 L 3.5625 -4.546875 L 3.5625 -5.1875 L 0.828125 -5.1875 L 0.421875 -2.421875 L 1.03125 -2.421875 C 1.34375 -2.78125 1.59375 -2.90625 2 -2.90625 C 2.71875 -2.90625 3.171875 -2.453125 3.171875 -1.671875 C 3.171875 -0.90625 2.71875 -0.46875 2 -0.46875 C 1.421875 -0.46875 1.078125 -0.765625 0.921875 -1.359375 L 0.265625 -1.359375 C 0.484375 -0.3125 1.078125 0.109375 2.015625 0.109375 C 3.09375 0.109375 3.84375 -0.640625 3.84375 -1.765625 Z M 3.84375 -1.765625 "
           id="path22" />
      </g>
      <g
         id="glyph-1-5">
        <path
           d="M 3.84375 -1.640625 C 3.84375 -2.640625 3.171875 -3.296875 2.21875 -3.296875 C 1.6875 -3.296875 1.28125 -3.09375 1 -2.703125 C 1 -4 1.421875 -4.71875 2.171875 -4.71875 C 2.640625 -4.71875 2.96875 -4.4375 3.0625 -3.921875 L 3.734375 -3.921875 C 3.59375 -4.796875 3.03125 -5.3125 2.21875 -5.3125 C 0.984375 -5.3125 0.328125 -4.265625 0.328125 -2.421875 C 0.328125 -0.765625 0.890625 0.109375 2.109375 0.109375 C 3.109375 0.109375 3.84375 -0.609375 3.84375 -1.640625 Z M 3.171875 -1.59375 C 3.171875 -0.921875 2.71875 -0.46875 2.109375 -0.46875 C 1.5 -0.46875 1.03125 -0.953125 1.03125 -1.625 C 1.03125 -2.296875 1.484375 -2.71875 2.140625 -2.71875 C 2.765625 -2.71875 3.171875 -2.3125 3.171875 -1.59375 Z M 3.171875 -1.59375 "
           id="path23" />
      </g>
      <g
         id="glyph-2-0">
        <path
           d="M 3.0625 0.15625 L 3.0625 2.796875 L 3.171875 2.875 C 3.34375 2.8125 3.515625 2.734375 3.640625 2.609375 C 3.5 1.78125 3.40625 0.984375 3.375 0.15625 C 4.96875 0.046875 6.125 -0.6875 6.125 -2.25 C 6.125 -2.4375 6.09375 -2.625 6.078125 -2.84375 C 5.84375 -4.25 4.59375 -4.71875 3.375 -4.71875 C 3.375 -4.71875 3.34375 -4.71875 3.34375 -4.71875 C 3.375 -5.46875 3.40625 -6.21875 3.515625 -6.96875 L 3.421875 -7.03125 C 3.296875 -6.984375 3.171875 -6.90625 3.046875 -6.8125 L 3.0625 -4.71875 C 3.046875 -4.71875 3.046875 -4.71875 3.046875 -4.71875 C 1.5 -4.71875 0.265625 -3.84375 0.265625 -2.328125 C 0.265625 -0.5 1.65625 0.0625 3.0625 0.15625 Z M 5.3125 -2.171875 C 5.3125 -1 4.640625 -0.09375 3.359375 -0.0625 L 3.34375 -4.46875 C 4.609375 -4.453125 5.3125 -3.5625 5.3125 -2.171875 Z M 3.0625 -4.46875 L 3.046875 -0.046875 C 1.890625 -0.140625 1.296875 -0.734375 1.109375 -1.859375 C 1.09375 -2.046875 1.0625 -2.25 1.0625 -2.421875 C 1.0625 -3.609375 1.734375 -4.4375 3.0625 -4.46875 Z M 3.0625 -4.46875 "
           id="path24" />
      </g>
      <g
         id="glyph-2-1">
        <path
           d="M 6.015625 -0.875 C 5.859375 -0.765625 5.609375 -0.546875 5.40625 -0.546875 C 5.015625 -0.546875 4.6875 -1.875 4.59375 -2.1875 C 4.25 -3.25 3.375 -6.671875 3.203125 -6.875 C 3.125 -6.96875 3.046875 -7 2.9375 -7 C 2.578125 -7 1.875 -6.671875 1.578125 -6.546875 L 1.546875 -6.453125 C 1.578125 -6.40625 1.59375 -6.375 1.65625 -6.34375 C 1.8125 -6.40625 2.109375 -6.515625 2.265625 -6.515625 C 2.78125 -6.515625 3.140625 -4.984375 3.25 -4.578125 C 2.21875 -3.1875 1.515625 -1.609375 0.859375 0.015625 L 0.984375 0.15625 C 1.203125 0.046875 1.453125 -0.046875 1.6875 -0.125 C 1.859375 -1.578125 2.59375 -3.078125 3.296875 -4.265625 L 3.375 -4.234375 C 3.5625 -3.625 4.40625 -0.125 4.609375 0.0625 C 4.6875 0.125 4.78125 0.15625 4.859375 0.15625 C 5.296875 0.15625 5.859375 -0.453125 6.125 -0.734375 L 6.140625 -0.796875 C 6.09375 -0.828125 6.078125 -0.875 6.015625 -0.875 Z M 6.015625 -0.875 "
           id="path25" />
      </g>
      <g
         id="glyph-2-2">
        <path
           d="M 0.46875 -2.765625 L 0.53125 -2.796875 C 0.828125 -4.21875 0.828125 -4 2.453125 -4.0625 C 2.265625 -3.296875 2.078125 -2.359375 2.078125 -1.46875 C 2.078125 -0.671875 2.15625 0.15625 2.96875 0.15625 C 3.53125 0.15625 4.03125 -0.21875 4.359375 -0.59375 L 4.375 -0.640625 L 4.265625 -0.75 L 4.21875 -0.734375 C 4.03125 -0.5625 3.796875 -0.328125 3.515625 -0.328125 C 2.96875 -0.328125 2.84375 -0.984375 2.796875 -1.375 C 2.75 -1.609375 2.734375 -1.875 2.734375 -2.140625 C 2.734375 -2.8125 2.828125 -3.53125 2.921875 -4.109375 C 3.375 -4.109375 3.90625 -4.09375 4.34375 -4.1875 L 4.375 -4.5625 L 4.328125 -4.609375 L 1.0625 -4.609375 C 1.03125 -4.609375 1 -4.609375 0.953125 -4.609375 C 0.84375 -4.609375 0.703125 -4.609375 0.65625 -4.578125 C 0.421875 -4.4375 0.375 -3.1875 0.34375 -2.859375 C 0.359375 -2.796875 0.40625 -2.78125 0.46875 -2.765625 Z M 0.46875 -2.765625 "
           id="path26" />
      </g>
      <g
         id="glyph-2-3">
        <path
           d="M 5.453125 -5.03125 C 5.28125 -6.15625 4.8125 -7 3.546875 -7 C 1.46875 -7 0.828125 -5.140625 0.828125 -3.3125 C 0.828125 -2.859375 0.875 -2.40625 0.9375 -1.984375 C 1.125 -0.796875 1.640625 0.15625 2.984375 0.15625 C 4.921875 0.15625 5.53125 -2.0625 5.53125 -3.890625 C 5.53125 -4.3125 5.5 -4.6875 5.453125 -5.03125 Z M 4.765625 -3.796875 L 1.609375 -3.796875 C 1.6875 -4.828125 2.125 -6.734375 3.40625 -6.734375 C 4.265625 -6.734375 4.59375 -5.828125 4.703125 -5.15625 C 4.75 -4.8125 4.765625 -4.453125 4.765625 -4.09375 C 4.765625 -4 4.765625 -3.890625 4.765625 -3.796875 Z M 4.765625 -3.484375 C 4.71875 -2.359375 4.53125 -0.125 3.09375 -0.125 C 2.078125 -0.125 1.796875 -1.25 1.6875 -2.03125 C 1.625 -2.40625 1.609375 -2.796875 1.609375 -3.1875 C 1.609375 -3.296875 1.609375 -3.375 1.609375 -3.484375 Z M 4.765625 -3.484375 "
           id="path27" />
      </g>
      <g
         id="glyph-2-4">
        <path
           d="M 5.390625 -0.75 C 5.21875 -0.59375 4.984375 -0.421875 4.71875 -0.421875 C 4.59375 -0.421875 4.5 -0.453125 4.375 -0.53125 C 4.0625 -0.734375 2.84375 -2.375 2.71875 -2.734375 C 2.78125 -3.109375 4.140625 -3.96875 4.578125 -3.96875 C 4.71875 -3.96875 4.828125 -3.921875 4.9375 -3.8125 L 5.03125 -3.84375 C 5.03125 -3.953125 5.046875 -4.109375 5.046875 -4.25 C 5.046875 -4.296875 5.046875 -4.34375 5.046875 -4.375 C 5 -4.609375 4.671875 -4.65625 4.5 -4.65625 C 4.046875 -4.65625 2.1875 -2.46875 2.015625 -2.265625 L 1.9375 -2.28125 C 1.9375 -2.71875 2 -3.21875 2 -3.703125 C 2 -3.96875 1.96875 -4.234375 1.9375 -4.46875 C 1.90625 -4.609375 1.828125 -4.71875 1.671875 -4.71875 C 1.28125 -4.71875 0.40625 -4.015625 0.125 -3.796875 L 0.125 -3.71875 C 0.15625 -3.671875 0.1875 -3.625 0.265625 -3.625 C 0.40625 -3.734375 0.875 -4.0625 1.0625 -4.0625 C 1.203125 -4.0625 1.25 -3.984375 1.265625 -3.875 C 1.3125 -3.53125 1.3125 -3.140625 1.3125 -2.796875 C 1.328125 -2.25 1.328125 -1.6875 1.328125 -1.140625 C 1.328125 -0.734375 1.328125 -0.34375 1.3125 0.0625 L 1.421875 0.15625 C 1.609375 0.046875 1.828125 -0.015625 2.03125 -0.109375 C 2 -0.34375 1.921875 -1.046875 1.921875 -1.515625 C 1.921875 -1.71875 1.9375 -1.890625 1.96875 -1.96875 C 2.03125 -2.046875 2.234375 -2.25 2.328125 -2.328125 C 2.515625 -2.03125 3.625 0.15625 4.296875 0.15625 C 4.765625 0.15625 5.234375 -0.3125 5.5 -0.609375 L 5.515625 -0.671875 C 5.46875 -0.703125 5.453125 -0.75 5.390625 -0.75 Z M 5.390625 -0.75 "
           id="path28" />
      </g>
      <g
         id="glyph-3-0">
        <path
           d="M 6.40625 -2.328125 L 5.046875 -2.328125 C 4.953125 -1.453125 4.40625 -1.0625 3.53125 -1.0625 C 2.453125 -1.0625 1.8125 -1.90625 1.8125 -3.390625 C 1.8125 -4.890625 2.484375 -5.734375 3.578125 -5.734375 C 4.34375 -5.734375 4.84375 -5.390625 5.046875 -4.515625 L 6.390625 -4.515625 C 6.265625 -6.078125 5.078125 -6.9375 3.53125 -6.9375 C 1.609375 -6.9375 0.40625 -5.609375 0.40625 -3.40625 C 0.40625 -1.21875 1.59375 0.109375 3.5 0.109375 C 5.1875 0.109375 6.328125 -0.765625 6.40625 -2.328125 Z M 6.40625 -2.328125 "
           id="path29" />
      </g>
      <g
         id="glyph-3-1">
        <path
           d="M 5.328125 -2.484375 C 5.328125 -4.203125 4.40625 -5.140625 2.8125 -5.140625 C 1.265625 -5.140625 0.328125 -4.1875 0.328125 -2.53125 C 0.328125 -0.859375 1.265625 0.078125 2.828125 0.078125 C 4.359375 0.078125 5.328125 -0.875 5.328125 -2.484375 Z M 4.015625 -2.515625 C 4.015625 -1.5625 3.53125 -0.96875 2.828125 -0.96875 C 2.109375 -0.96875 1.640625 -1.5625 1.640625 -2.53125 C 1.640625 -3.484375 2.109375 -4.078125 2.828125 -4.078125 C 3.546875 -4.078125 4.015625 -3.5 4.015625 -2.515625 Z M 4.015625 -2.515625 "
           id="path30" />
      </g>
      <g
         id="glyph-3-2">
        <path
           d="M 5.109375 0 L 5.109375 -3.390625 C 5.109375 -4.5 4.5 -5.140625 3.421875 -5.140625 C 2.734375 -5.140625 2.28125 -4.890625 1.90625 -4.328125 L 1.90625 -5.046875 L 0.59375 -5.046875 L 0.59375 0 L 1.90625 0 L 1.90625 -3.03125 C 1.90625 -3.625 2.328125 -4.03125 2.953125 -4.03125 C 3.515625 -4.03125 3.796875 -3.71875 3.796875 -3.109375 L 3.796875 0 Z M 5.109375 0 "
           id="path31" />
      </g>
      <g
         id="glyph-3-3">
        <path
           d="M 4.859375 -1.5 L 4.859375 -1.5625 C 4.859375 -2.140625 4.546875 -2.578125 3.875 -2.765625 L 2.21875 -3.25 C 1.859375 -3.34375 1.765625 -3.4375 1.765625 -3.640625 C 1.765625 -3.921875 2.0625 -4.109375 2.515625 -4.109375 C 3.140625 -4.109375 3.453125 -3.890625 3.46875 -3.421875 L 4.71875 -3.421875 C 4.703125 -4.5 3.890625 -5.140625 2.53125 -5.140625 C 1.25 -5.140625 0.453125 -4.5 0.453125 -3.453125 C 0.453125 -2.828125 0.625 -2.5 1.546875 -2.203125 L 3.109375 -1.71875 C 3.4375 -1.625 3.5625 -1.515625 3.5625 -1.375 C 3.5625 -1.0625 3.1875 -0.9375 2.578125 -0.9375 C 1.984375 -0.9375 1.671875 -1.0625 1.546875 -1.59375 L 0.265625 -1.59375 C 0.3125 -0.5 1.125 0.078125 2.65625 0.078125 C 4.078125 0.078125 4.859375 -0.484375 4.859375 -1.5 Z M 4.859375 -1.5 "
           id="path32" />
      </g>
      <g
         id="glyph-3-4">
        <path
           d="M 2.8125 0 L 2.8125 -0.921875 C 2.6875 -0.90625 2.609375 -0.890625 2.515625 -0.890625 C 2.171875 -0.890625 2.09375 -0.984375 2.09375 -1.4375 L 2.09375 -4.078125 L 2.8125 -4.078125 L 2.8125 -4.953125 L 2.09375 -4.953125 L 2.09375 -6.3125 L 0.78125 -6.3125 L 0.78125 -4.953125 L 0.125 -4.953125 L 0.125 -4.078125 L 0.78125 -4.078125 L 0.78125 -1.078125 C 0.78125 -0.296875 1.203125 0.03125 2.0625 0.03125 C 2.34375 0.03125 2.578125 0.015625 2.8125 0 Z M 2.8125 0 "
           id="path33" />
      </g>
      <g
         id="glyph-3-5">
        <path
           d="M 3.46875 -3.796875 L 3.46875 -5.125 C 3.390625 -5.140625 3.34375 -5.140625 3.296875 -5.140625 C 2.703125 -5.140625 2.1875 -4.75 1.90625 -4.0625 L 1.90625 -5.046875 L 0.59375 -5.046875 L 0.59375 0 L 1.90625 0 L 1.90625 -2.6875 C 1.90625 -3.453125 2.28125 -3.84375 3.046875 -3.84375 C 3.1875 -3.84375 3.28125 -3.828125 3.46875 -3.796875 Z M 3.46875 -3.796875 "
           id="path34" />
      </g>
      <g
         id="glyph-3-6">
        <path
           d="M 4.90625 0 L 4.90625 -0.15625 C 4.671875 -0.375 4.609375 -0.515625 4.609375 -0.78125 L 4.609375 -3.578125 C 4.609375 -4.609375 3.90625 -5.140625 2.53125 -5.140625 C 1.171875 -5.140625 0.453125 -4.5625 0.375 -3.390625 L 1.640625 -3.390625 C 1.703125 -3.90625 1.921875 -4.078125 2.5625 -4.078125 C 3.0625 -4.078125 3.328125 -3.90625 3.328125 -3.578125 C 3.328125 -3.046875 2.921875 -3.09375 2.28125 -2.984375 L 1.75 -2.890625 C 0.75 -2.71875 0.265625 -2.28125 0.265625 -1.359375 C 0.265625 -0.390625 0.953125 0.078125 1.796875 0.078125 C 2.359375 0.078125 2.875 -0.15625 3.328125 -0.640625 C 3.328125 -0.375 3.359375 -0.15625 3.484375 0 Z M 3.328125 -2.15625 C 3.328125 -1.40625 2.953125 -0.96875 2.28125 -0.96875 C 1.84375 -0.96875 1.578125 -1.140625 1.578125 -1.515625 C 1.578125 -1.90625 1.78125 -2.046875 2.328125 -2.140625 L 2.765625 -2.234375 C 3.109375 -2.296875 3.171875 -2.3125 3.328125 -2.390625 Z M 3.328125 -2.15625 "
           id="path35" />
      </g>
      <g
         id="glyph-3-7">
        <path
           d="M 1.9375 0 L 1.9375 -5.046875 L 0.625 -5.046875 L 0.625 0 Z M 1.953125 -5.65625 L 1.953125 -6.96875 L 0.640625 -6.96875 L 0.640625 -5.65625 Z M 1.953125 -5.65625 "
           id="path36" />
      </g>
    </g>
  </defs>
  <path
     fill="none"
     stroke-width="0.3985"
     stroke-linecap="butt"
     stroke-linejoin="miter"
     stroke="rgb(0%, 0%, 0%)"
     stroke-opacity="1"
     stroke-miterlimit="10"
     d="M -14.174344 -12.047438 L 14.173312 -12.047438 L 14.173312 12.046312 L -14.174344 12.046312 Z M -14.174344 -12.047438 "
     transform="matrix(1, 0, 0, -1, 90.147, 164.351)"
     id="path37" />
  <g
     fill="rgb(0%, 0%, 0%)"
     fill-opacity="1"
     id="g39">
    <use
       xlink:href="#glyph-0-0"
       x="80.267"
       y="165.819"
       id="use37" />
    <use
       xlink:href="#glyph-0-1"
       x="85.473884"
       y="165.819"
       id="use38" />
    <use
       xlink:href="#glyph-0-2"
       x="90.680769"
       y="165.819"
       id="use39" />
  </g>
  <g
     fill="rgb(0%, 0%, 0%)"
     fill-opacity="1"
     id="g40">
    <use
       xlink:href="#glyph-1-0"
       x="95.363"
       y="167.665"
       id="use40" />
  </g>
  <path
     fill="none"
     stroke-width="0.3985"
     stroke-linecap="butt"
     stroke-linejoin="miter"
     stroke="rgb(0%, 0%, 0%)"
     stroke-opacity="1"
     stroke-miterlimit="10"
     d="M 42.919406 -12.047438 L 71.267062 -12.047438 L 71.267062 12.046312 L 42.919406 12.046312 Z M 42.919406 -12.047438 "
     transform="matrix(1, 0, 0, -1, 90.147, 164.351)"
     id="path40" />
  <g
     fill="rgb(0%, 0%, 0%)"
     fill-opacity="1"
     id="g43">
    <use
       xlink:href="#glyph-0-0"
       x="137.358"
       y="165.819"
       id="use41" />
    <use
       xlink:href="#glyph-0-1"
       x="142.564884"
       y="165.819"
       id="use42" />
    <use
       xlink:href="#glyph-0-2"
       x="147.771769"
       y="165.819"
       id="use43" />
  </g>
  <g
     fill="rgb(0%, 0%, 0%)"
     fill-opacity="1"
     id="g44">
    <use
       xlink:href="#glyph-1-1"
       x="152.454"
       y="167.665"
       id="use44" />
  </g>
  <path
     fill="none"
     stroke-width="0.3985"
     stroke-linecap="butt"
     stroke-linejoin="miter"
     stroke="rgb(0%, 0%, 0%)"
     stroke-opacity="1"
     stroke-miterlimit="10"
     d="M 100.00925 -12.047438 L 128.356906 -12.047438 L 128.356906 12.046312 L 100.00925 12.046312 Z M 100.00925 -12.047438 "
     transform="matrix(1, 0, 0, -1, 90.147, 164.351)"
     id="path44" />
  <g
     fill="rgb(0%, 0%, 0%)"
     fill-opacity="1"
     id="g47">
    <use
       xlink:href="#glyph-0-0"
       x="194.449"
       y="165.819"
       id="use45" />
    <use
       xlink:href="#glyph-0-1"
       x="199.655884"
       y="165.819"
       id="use46" />
    <use
       xlink:href="#glyph-0-2"
       x="204.862769"
       y="165.819"
       id="use47" />
  </g>
  <g
     fill="rgb(0%, 0%, 0%)"
     fill-opacity="1"
     id="g48">
    <use
       xlink:href="#glyph-1-2"
       x="209.546"
       y="167.665"
       id="use48" />
  </g>
  <path
     fill="none"
     stroke-width="0.3985"
     stroke-linecap="butt"
     stroke-linejoin="miter"
     stroke="rgb(0%, 0%, 0%)"
     stroke-opacity="1"
     stroke-miterlimit="10"
     d="M 75.306125 109.534594 C 75.306125 116.186937 67.149875 121.581469 57.091281 121.581469 C 47.032687 121.581469 38.880344 116.186937 38.880344 109.534594 C 38.880344 102.878344 47.032687 97.487719 57.091281 97.487719 C 67.149875 97.487719 75.306125 102.878344 75.306125 109.534594 Z M 75.306125 109.534594 "
     transform="matrix(1, 0, 0, -1, 90.147, 164.351)"
     id="path48" />
  <g
     fill="rgb(0%, 0%, 0%)"
     fill-opacity="1"
     id="g51">
    <use
       xlink:href="#glyph-0-3"
       x="137.349"
       y="58.284"
       id="use49" />
    <use
       xlink:href="#glyph-0-4"
       x="143.595388"
       y="58.284"
       id="use50" />
    <use
       xlink:href="#glyph-0-5"
       x="150.881281"
       y="58.284"
       id="use51" />
  </g>
  <path
     fill="none"
     stroke-width="0.3985"
     stroke-linecap="butt"
     stroke-linejoin="miter"
     stroke="rgb(0%, 0%, 0%)"
     stroke-opacity="1"
     stroke-miterlimit="10"
     d="M 49.849094 124.612719 C 48.25925 133.640062 65.927219 133.640062 64.333469 124.612719 "
     transform="matrix(1, 0, 0, -1, 90.147, 164.351)"
     id="path51" />
  <path
     fill-rule="nonzero"
     fill="rgb(0%, 0%, 0%)"
     fill-opacity="1"
     stroke-width="0.3985"
     stroke-linecap="butt"
     stroke-linejoin="miter"
     stroke="rgb(0%, 0%, 0%)"
     stroke-opacity="1"
     stroke-miterlimit="10"
     d="M 3.683639 -0.000358205 L 0.645126 1.146209 L 1.644581 -0.00180738 L 0.641636 -1.145837 Z M 3.683639 -0.000358205 "
     transform="matrix(0.17363, 0.9848, 0.9848, -0.17363, 139.72795, 38.21604)"
     id="path52" />
  <path
     fill-rule="nonzero"
     fill="rgb(0%, 0%, 0%)"
     fill-opacity="1"
     stroke-width="0.3985"
     stroke-linecap="butt"
     stroke-linejoin="miter"
     stroke="rgb(0%, 0%, 0%)"
     stroke-opacity="1"
     stroke-miterlimit="10"
     d="M 3.683925 -0.00126429 L 0.641244 1.148061 L 1.644867 0.000184884 L 0.645412 -1.147832 Z M 3.683925 -0.00126429 "
     transform="matrix(-0.17363, 0.9848, 0.9848, 0.17363, 154.75026, 38.21604)"
     id="path53" />
  <path
     fill-rule="nonzero"
     fill="rgb(100%, 100%, 100%)"
     fill-opacity="1"
     d="M 139.007812 32.683594 L 155.46875 32.683594 L 155.46875 21.816406 L 139.007812 21.816406 Z M 139.007812 32.683594 "
     id="path54" />
  <g
     fill="rgb(0%, 0%, 0%)"
     fill-opacity="1"
     id="g54">
    <use
       xlink:href="#glyph-2-0"
       x="139.506"
       y="29.309"
       id="use54" />
  </g>
  <g
     fill="rgb(0%, 0%, 0%)"
     fill-opacity="1"
     id="g56">
    <use
       xlink:href="#glyph-1-0"
       x="146.141"
       y="31.155"
       id="use55" />
    <use
       xlink:href="#glyph-1-0"
       x="150.306496"
       y="31.155"
       id="use56" />
  </g>
  <path
     fill="none"
     stroke-width="0.3985"
     stroke-linecap="butt"
     stroke-linejoin="miter"
     stroke="rgb(69.999695%, 69.999695%, 69.999695%)"
     stroke-opacity="1"
     stroke-miterlimit="10"
     d="M 57.091281 -69.340406 L 46.1655 -88.266188 L 68.020969 -88.266188 Z M 57.091281 -69.340406 "
     transform="matrix(1, 0, 0, -1, 90.147, 164.351)"
     id="path56" />
  <g
     fill="rgb(69.999695%, 69.999695%, 69.999695%)"
     fill-opacity="1"
     id="g57">
    <use
       xlink:href="#glyph-0-6"
       x="144.634"
       y="249.774"
       id="use57" />
  </g>
  <path
     fill="none"
     stroke-width="0.3985"
     stroke-linecap="butt"
     stroke-linejoin="miter"
     stroke="rgb(0%, 0%, 0%)"
     stroke-opacity="1"
     stroke-miterlimit="10"
     d="M 50.395969 98.124437 L 1.872531 15.440844 "
     transform="matrix(1, 0, 0, -1, 90.147, 164.351)"
     id="path57" />
  <path
     fill-rule="nonzero"
     fill="rgb(0%, 0%, 0%)"
     fill-opacity="1"
     stroke-width="0.3985"
     stroke-linecap="butt"
     stroke-linejoin="miter"
     stroke="rgb(0%, 0%, 0%)"
     stroke-opacity="1"
     stroke-miterlimit="10"
     d="M 3.683469 -0.00168849 L 0.645533 1.146077 L 1.645371 -0.00195711 L 0.641972 -1.147919 Z M 3.683469 -0.00168849 "
     transform="matrix(-0.5061, 0.86241, 0.86241, 0.5061, 92.80316, 147.5781)"
     id="path58" />
  <path
     fill-rule="nonzero"
     fill="rgb(100%, 100%, 100%)"
     fill-opacity="1"
     d="M 108.636719 115.078125 L 122.054688 115.078125 L 122.054688 103.25 L 108.636719 103.25 Z M 108.636719 115.078125 "
     id="path59" />
  <g
     fill="rgb(0%, 0%, 0%)"
     fill-opacity="1"
     id="g59">
    <use
       xlink:href="#glyph-2-1"
       x="109.73"
       y="111.74"
       id="use59" />
  </g>
  <g
     fill="rgb(0%, 0%, 0%)"
     fill-opacity="1"
     id="g60">
    <use
       xlink:href="#glyph-1-0"
       x="115.897"
       y="113.585"
       id="use60" />
  </g>
  <path
     fill="none"
     stroke-width="0.3985"
     stroke-linecap="butt"
     stroke-linejoin="miter"
     stroke="rgb(69.999695%, 69.999695%, 69.999695%)"
     stroke-opacity="1"
     stroke-miterlimit="10"
     d="M 54.185031 -73.973219 L 2.442844 -15.027906 "
     transform="matrix(1, 0, 0, -1, 90.147, 164.351)"
     id="path60" />
  <path
     fill-rule="nonzero"
     fill="rgb(69.999695%, 69.999695%, 69.999695%)"
     fill-opacity="1"
     stroke-width="0.3985"
     stroke-linecap="butt"
     stroke-linejoin="miter"
     stroke="rgb(69.999695%, 69.999695%, 69.999695%)"
     stroke-opacity="1"
     stroke-miterlimit="10"
     d="M 3.683356 -0.000430799 L 0.641297 1.146977 L 1.646003 -0.0000970154 L 0.643857 -1.147622 Z M 3.683356 -0.000430799 "
     transform="matrix(-0.65968, -0.75148, -0.75148, 0.65968, 93.6092, 180.54169)"
     id="path61" />
  <path
     fill-rule="nonzero"
     fill="rgb(100%, 100%, 100%)"
     fill-opacity="1"
     d="M 110.824219 212.210938 L 123.65625 212.210938 L 123.65625 202.710938 L 110.824219 202.710938 Z M 110.824219 212.210938 "
     id="path62" />
  <g
     fill="rgb(69.999695%, 69.999695%, 69.999695%)"
     fill-opacity="1"
     id="g62">
    <use
       xlink:href="#glyph-2-2"
       x="112.317"
       y="208.872"
       id="use62" />
  </g>
  <g
     fill="rgb(69.999695%, 69.999695%, 69.999695%)"
     fill-opacity="1"
     id="g63">
    <use
       xlink:href="#glyph-1-0"
       x="117.498"
       y="210.718"
       id="use63" />
  </g>
  <g
     fill="rgb(0%, 0%, 0%)"
     fill-opacity="1"
     id="g64">
    <use
       xlink:href="#glyph-2-3"
       x="112.636"
       y="142.042"
       id="use64" />
  </g>
  <g
     fill="rgb(0%, 0%, 0%)"
     fill-opacity="1"
     id="g65">
    <use
       xlink:href="#glyph-1-0"
       x="118.853"
       y="143.888"
       id="use65" />
  </g>
  <path
     fill="none"
     stroke-width="0.3985"
     stroke-linecap="butt"
     stroke-linejoin="miter"
     stroke="rgb(0%, 0%, 0%)"
     stroke-opacity="1"
     stroke-miterlimit="10"
     d="M 23.005344 20.265062 L 17.087375 14.765062 "
     transform="matrix(1, 0, 0, -1, 90.147, 164.351)"
     id="path65" />
  <path
     fill-rule="nonzero"
     fill="rgb(0%, 0%, 0%)"
     fill-opacity="1"
     stroke-width="0.3985"
     stroke-linecap="butt"
     stroke-linejoin="miter"
     stroke="rgb(0%, 0%, 0%)"
     stroke-opacity="1"
     stroke-miterlimit="10"
     d="M 3.684783 -0.00187987 L 0.643075 1.148654 L 1.644783 -0.0000535184 L 0.642477 -1.148366 Z M 3.684783 -0.00187987 "
     transform="matrix(-0.73277, 0.68042, 0.68042, 0.73277, 108.36544, 148.53324)"
     id="path66" />
  <path
     fill="none"
     stroke-width="0.3985"
     stroke-linecap="butt"
     stroke-linejoin="miter"
     stroke="rgb(0%, 0%, 0%)"
     stroke-opacity="1"
     stroke-miterlimit="10"
     d="M 57.091281 97.2885 L 57.091281 15.948656 "
     transform="matrix(1, 0, 0, -1, 90.147, 164.351)"
     id="path67" />
  <path
     fill-rule="nonzero"
     fill="rgb(0%, 0%, 0%)"
     fill-opacity="1"
     stroke-width="0.3985"
     stroke-linecap="butt"
     stroke-linejoin="miter"
     stroke="rgb(0%, 0%, 0%)"
     stroke-opacity="1"
     stroke-miterlimit="10"
     d="M 3.683073 -0.00081875 L 0.64401 1.147619 L 1.64401 -0.00081875 L 0.64401 -1.14535 Z M 3.683073 -0.00081875 "
     transform="matrix(0, 1, 1, 0, 147.2391, 146.85599)"
     id="path68" />
  <path
     fill-rule="nonzero"
     fill="rgb(100%, 100%, 100%)"
     fill-opacity="1"
     d="M 140.527344 115.5 L 153.949219 115.5 L 153.949219 103.667969 L 140.527344 103.667969 Z M 140.527344 115.5 "
     id="path69" />
  <g
     fill="rgb(0%, 0%, 0%)"
     fill-opacity="1"
     id="g69">
    <use
       xlink:href="#glyph-2-1"
       x="141.623"
       y="112.159"
       id="use69" />
  </g>
  <g
     fill="rgb(0%, 0%, 0%)"
     fill-opacity="1"
     id="g70">
    <use
       xlink:href="#glyph-1-1"
       x="147.79"
       y="114.005"
       id="use70" />
  </g>
  <path
     fill="none"
     stroke-width="0.3985"
     stroke-linecap="butt"
     stroke-linejoin="miter"
     stroke="rgb(69.999695%, 69.999695%, 69.999695%)"
     stroke-opacity="1"
     stroke-miterlimit="10"
     d="M 57.091281 -68.941969 L 57.091281 -15.949781 "
     transform="matrix(1, 0, 0, -1, 90.147, 164.351)"
     id="path70" />
  <path
     fill-rule="nonzero"
     fill="rgb(69.999695%, 69.999695%, 69.999695%)"
     fill-opacity="1"
     stroke-width="0.3985"
     stroke-linecap="butt"
     stroke-linejoin="miter"
     stroke="rgb(69.999695%, 69.999695%, 69.999695%)"
     stroke-opacity="1"
     stroke-miterlimit="10"
     d="M 3.685854 0.00081875 L 0.642885 1.14535 L 1.646791 0.00081875 L 0.642885 -1.147619 Z M 3.685854 0.00081875 "
     transform="matrix(0, -1, -1, 0, 147.2391, 181.84601)"
     id="path71" />
  <path
     fill-rule="nonzero"
     fill="rgb(100%, 100%, 100%)"
     fill-opacity="1"
     d="M 140.824219 209.695312 L 153.65625 209.695312 L 153.65625 200.195312 L 140.824219 200.195312 Z M 140.824219 209.695312 "
     id="path72" />
  <g
     fill="rgb(69.999695%, 69.999695%, 69.999695%)"
     fill-opacity="1"
     id="g72">
    <use
       xlink:href="#glyph-2-2"
       x="142.316"
       y="206.355"
       id="use72" />
  </g>
  <g
     fill="rgb(69.999695%, 69.999695%, 69.999695%)"
     fill-opacity="1"
     id="g73">
    <use
       xlink:href="#glyph-1-1"
       x="147.496"
       y="208.201"
       id="use73" />
  </g>
  <g
     fill="rgb(0%, 0%, 0%)"
     fill-opacity="1"
     id="g74">
    <use
       xlink:href="#glyph-2-3"
       x="169.728"
       y="142.042"
       id="use74" />
  </g>
  <g
     fill="rgb(0%, 0%, 0%)"
     fill-opacity="1"
     id="g75">
    <use
       xlink:href="#glyph-1-1"
       x="175.944"
       y="143.888"
       id="use75" />
  </g>
  <path
     fill="none"
     stroke-width="0.3985"
     stroke-linecap="butt"
     stroke-linejoin="miter"
     stroke="rgb(0%, 0%, 0%)"
     stroke-opacity="1"
     stroke-miterlimit="10"
     d="M 80.099094 20.265062 L 74.177219 14.765062 "
     transform="matrix(1, 0, 0, -1, 90.147, 164.351)"
     id="path75" />
  <path
     fill-rule="nonzero"
     fill="rgb(0%, 0%, 0%)"
     fill-opacity="1"
     stroke-width="0.3985"
     stroke-linecap="butt"
     stroke-linejoin="miter"
     stroke="rgb(0%, 0%, 0%)"
     stroke-opacity="1"
     stroke-miterlimit="10"
     d="M 3.683581 -0.000763895 L 0.644735 1.147112 L 1.646443 -0.00159564 L 0.641275 -1.14725 Z M 3.683581 -0.000763895 "
     transform="matrix(-0.73277, 0.68042, 0.68042, 0.73277, 165.45755, 148.53324)"
     id="path76" />
  <path
     fill="none"
     stroke-width="0.3985"
     stroke-linecap="butt"
     stroke-linejoin="miter"
     stroke="rgb(0%, 0%, 0%)"
     stroke-opacity="1"
     stroke-miterlimit="10"
     d="M 63.786594 98.124437 L 112.310031 15.440844 "
     transform="matrix(1, 0, 0, -1, 90.147, 164.351)"
     id="path77" />
  <path
     fill-rule="nonzero"
     fill="rgb(0%, 0%, 0%)"
     fill-opacity="1"
     stroke-width="0.3985"
     stroke-linecap="butt"
     stroke-linejoin="miter"
     stroke="rgb(0%, 0%, 0%)"
     stroke-opacity="1"
     stroke-miterlimit="10"
     d="M 3.682635 0.000267507 L 0.641138 1.146498 L 1.644537 0.000536131 L 0.644699 -1.147498 Z M 3.682635 0.000267507 "
     transform="matrix(0.5061, 0.86241, 0.86241, -0.5061, 201.67505, 147.5781)"
     id="path78" />
  <path
     fill-rule="nonzero"
     fill="rgb(100%, 100%, 100%)"
     fill-opacity="1"
     d="M 172.421875 115.078125 L 185.84375 115.078125 L 185.84375 103.25 L 172.421875 103.25 Z M 172.421875 115.078125 "
     id="path79" />
  <g
     fill="rgb(0%, 0%, 0%)"
     fill-opacity="1"
     id="g79">
    <use
       xlink:href="#glyph-2-1"
       x="173.517"
       y="111.74"
       id="use79" />
  </g>
  <g
     fill="rgb(0%, 0%, 0%)"
     fill-opacity="1"
     id="g80">
    <use
       xlink:href="#glyph-1-2"
       x="179.683"
       y="113.585"
       id="use80" />
  </g>
  <path
     fill="none"
     stroke-width="0.3985"
     stroke-linecap="butt"
     stroke-linejoin="miter"
     stroke="rgb(69.999695%, 69.999695%, 69.999695%)"
     stroke-opacity="1"
     stroke-miterlimit="10"
     d="M 59.997531 -73.973219 L 111.743625 -15.027906 "
     transform="matrix(1, 0, 0, -1, 90.147, 164.351)"
     id="path80" />
  <path
     fill-rule="nonzero"
     fill="rgb(69.999695%, 69.999695%, 69.999695%)"
     fill-opacity="1"
     stroke-width="0.3985"
     stroke-linecap="butt"
     stroke-linejoin="miter"
     stroke="rgb(69.999695%, 69.999695%, 69.999695%)"
     stroke-opacity="1"
     stroke-miterlimit="10"
     d="M 3.684853 -0.00127429 L 0.642777 1.148852 L 1.644923 0.00132769 L 0.642794 -1.148682 Z M 3.684853 -0.00127429 "
     transform="matrix(0.65968, -0.75148, -0.75148, -0.65968, 200.869, 180.54169)"
     id="path81" />
  <path
     fill-rule="nonzero"
     fill="rgb(100%, 100%, 100%)"
     fill-opacity="1"
     d="M 170.820312 212.210938 L 183.65625 212.210938 L 183.65625 202.710938 L 170.820312 202.710938 Z M 170.820312 212.210938 "
     id="path82" />
  <g
     fill="rgb(69.999695%, 69.999695%, 69.999695%)"
     fill-opacity="1"
     id="g82">
    <use
       xlink:href="#glyph-2-2"
       x="172.315"
       y="208.872"
       id="use82" />
  </g>
  <g
     fill="rgb(69.999695%, 69.999695%, 69.999695%)"
     fill-opacity="1"
     id="g83">
    <use
       xlink:href="#glyph-1-2"
       x="177.495"
       y="210.718"
       id="use83" />
  </g>
  <g
     fill="rgb(0%, 0%, 0%)"
     fill-opacity="1"
     id="g84">
    <use
       xlink:href="#glyph-2-3"
       x="226.819"
       y="142.042"
       id="use84" />
  </g>
  <g
     fill="rgb(0%, 0%, 0%)"
     fill-opacity="1"
     id="g85">
    <use
       xlink:href="#glyph-1-2"
       x="233.036"
       y="143.888"
       id="use85" />
  </g>
  <path
     fill="none"
     stroke-width="0.3985"
     stroke-linecap="butt"
     stroke-linejoin="miter"
     stroke="rgb(0%, 0%, 0%)"
     stroke-opacity="1"
     stroke-miterlimit="10"
     d="M 137.192844 20.265062 L 131.270969 14.765062 "
     transform="matrix(1, 0, 0, -1, 90.147, 164.351)"
     id="path85" />
  <path
     fill-rule="nonzero"
     fill="rgb(0%, 0%, 0%)"
     fill-opacity="1"
     stroke-width="0.3985"
     stroke-linecap="butt"
     stroke-linejoin="miter"
     stroke="rgb(0%, 0%, 0%)"
     stroke-opacity="1"
     stroke-miterlimit="10"
     d="M 3.682379 0.000352079 L 0.643534 1.148228 L 1.645242 -0.000479664 L 0.642936 -1.148792 Z M 3.682379 0.000352079 "
     transform="matrix(-0.73277, 0.68042, 0.68042, 0.73277, 222.54966, 148.53324)"
     id="path86" />
  <path
     fill="none"
     stroke-width="0.3985"
     stroke-linecap="butt"
     stroke-linejoin="miter"
     stroke="rgb(0%, 0%, 0%)"
     stroke-opacity="1"
     stroke-miterlimit="10"
     d="M 185.450656 -12.047438 L 213.798313 -12.047438 L 213.798313 12.046312 L 185.450656 12.046312 Z M 185.450656 -12.047438 "
     transform="matrix(1, 0, 0, -1, 90.147, 164.351)"
     id="path87" />
  <g
     fill="rgb(0%, 0%, 0%)"
     fill-opacity="1"
     id="g89">
    <use
       xlink:href="#glyph-0-7"
       x="279.625"
       y="165.62"
       id="use87" />
    <use
       xlink:href="#glyph-0-8"
       x="284.831884"
       y="165.62"
       id="use88" />
    <use
       xlink:href="#glyph-0-9"
       x="290.038769"
       y="165.62"
       id="use89" />
  </g>
  <g
     fill="rgb(0%, 0%, 0%)"
     fill-opacity="1"
     id="g90">
    <use
       xlink:href="#glyph-1-0"
       x="295.246"
       y="168.06"
       id="use90" />
  </g>
  <path
     fill="none"
     stroke-width="0.3985"
     stroke-linecap="butt"
     stroke-linejoin="miter"
     stroke="rgb(0%, 0%, 0%)"
     stroke-opacity="1"
     stroke-miterlimit="10"
     d="M 242.5405 -12.047438 L 270.888156 -12.047438 L 270.888156 12.046312 L 242.5405 12.046312 Z M 242.5405 -12.047438 "
     transform="matrix(1, 0, 0, -1, 90.147, 164.351)"
     id="path90" />
  <g
     fill="rgb(0%, 0%, 0%)"
     fill-opacity="1"
     id="g93">
    <use
       xlink:href="#glyph-0-7"
       x="336.716"
       y="165.62"
       id="use91" />
    <use
       xlink:href="#glyph-0-8"
       x="341.922884"
       y="165.62"
       id="use92" />
    <use
       xlink:href="#glyph-0-9"
       x="347.129769"
       y="165.62"
       id="use93" />
  </g>
  <g
     fill="rgb(0%, 0%, 0%)"
     fill-opacity="1"
     id="g94">
    <use
       xlink:href="#glyph-1-1"
       x="352.337"
       y="168.06"
       id="use94" />
  </g>
  <path
     fill="none"
     stroke-width="0.3985"
     stroke-linecap="butt"
     stroke-linejoin="miter"
     stroke="rgb(0%, 0%, 0%)"
     stroke-opacity="1"
     stroke-miterlimit="10"
     d="M 299.63425 -12.047438 L 327.981906 -12.047438 L 327.981906 12.046312 L 299.63425 12.046312 Z M 299.63425 -12.047438 "
     transform="matrix(1, 0, 0, -1, 90.147, 164.351)"
     id="path94" />
  <g
     fill="rgb(0%, 0%, 0%)"
     fill-opacity="1"
     id="g97">
    <use
       xlink:href="#glyph-0-7"
       x="393.808"
       y="165.62"
       id="use95" />
    <use
       xlink:href="#glyph-0-8"
       x="399.014884"
       y="165.62"
       id="use96" />
    <use
       xlink:href="#glyph-0-9"
       x="404.221769"
       y="165.62"
       id="use97" />
  </g>
  <g
     fill="rgb(0%, 0%, 0%)"
     fill-opacity="1"
     id="g98">
    <use
       xlink:href="#glyph-1-2"
       x="409.428"
       y="168.06"
       id="use98" />
  </g>
  <path
     fill="none"
     stroke-width="0.3985"
     stroke-linecap="butt"
     stroke-linejoin="miter"
     stroke="rgb(0%, 0%, 0%)"
     stroke-opacity="1"
     stroke-miterlimit="10"
     d="M 275.2905 109.534594 C 275.2905 116.186937 266.974094 121.581469 256.716281 121.581469 C 246.454563 121.581469 238.138156 116.186937 238.138156 109.534594 C 238.138156 102.878344 246.454563 97.487719 256.716281 97.487719 C 266.974094 97.487719 275.2905 102.878344 275.2905 109.534594 Z M 275.2905 109.534594 "
     transform="matrix(1, 0, 0, -1, 90.147, 164.351)"
     id="path98" />
  <g
     fill="rgb(0%, 0%, 0%)"
     fill-opacity="1"
     id="g101">
    <use
       xlink:href="#glyph-0-10"
       x="336.712"
       y="58.284"
       id="use99" />
    <use
       xlink:href="#glyph-0-11"
       x="343.473458"
       y="58.284"
       id="use100" />
    <use
       xlink:href="#glyph-0-12"
       x="349.719846"
       y="58.284"
       id="use101" />
  </g>
  <path
     fill="none"
     stroke-width="0.3985"
     stroke-linecap="butt"
     stroke-linejoin="miter"
     stroke="rgb(0%, 0%, 0%)"
     stroke-opacity="1"
     stroke-miterlimit="10"
     d="M 249.458469 124.640062 C 247.860813 133.698656 265.57175 133.698656 263.974094 124.640062 "
     transform="matrix(1, 0, 0, -1, 90.147, 164.351)"
     id="path101" />
  <path
     fill-rule="nonzero"
     fill="rgb(0%, 0%, 0%)"
     fill-opacity="1"
     stroke-width="0.3985"
     stroke-linecap="butt"
     stroke-linejoin="miter"
     stroke="rgb(0%, 0%, 0%)"
     stroke-opacity="1"
     stroke-miterlimit="10"
     d="M 3.684656 0.00139699 L 0.642295 1.148643 L 1.645598 -0.0000521849 L 0.641974 -1.147928 Z M 3.684656 0.00139699 "
     transform="matrix(0.17363, 0.9848, 0.9848, -0.17363, 339.33542, 38.188)"
     id="path102" />
  <path
     fill-rule="nonzero"
     fill="rgb(0%, 0%, 0%)"
     fill-opacity="1"
     stroke-width="0.3985"
     stroke-linecap="butt"
     stroke-linejoin="miter"
     stroke="rgb(0%, 0%, 0%)"
     stroke-opacity="1"
     stroke-miterlimit="10"
     d="M 3.684297 0.000634207 L 0.642295 1.146113 L 1.645918 -0.00176358 L 0.641937 -1.146611 Z M 3.684297 0.000634207 "
     transform="matrix(-0.17363, 0.9848, 0.9848, 0.17363, 354.38908, 38.188)"
     id="path103" />
  <path
     fill-rule="nonzero"
     fill="rgb(100%, 100%, 100%)"
     fill-opacity="1"
     d="M 338.632812 32.632812 L 355.09375 32.632812 L 355.09375 21.765625 L 338.632812 21.765625 Z M 338.632812 32.632812 "
     id="path104" />
  <g
     fill="rgb(0%, 0%, 0%)"
     fill-opacity="1"
     id="g104">
    <use
       xlink:href="#glyph-2-0"
       x="339.126"
       y="29.258"
       id="use104" />
  </g>
  <g
     fill="rgb(0%, 0%, 0%)"
     fill-opacity="1"
     id="g106">
    <use
       xlink:href="#glyph-1-1"
       x="345.762"
       y="31.104"
       id="use105" />
    <use
       xlink:href="#glyph-1-1"
       x="349.927496"
       y="31.104"
       id="use106" />
  </g>
  <path
     fill="none"
     stroke-width="0.3985"
     stroke-linecap="butt"
     stroke-linejoin="miter"
     stroke="rgb(69.999695%, 69.999695%, 69.999695%)"
     stroke-opacity="1"
     stroke-miterlimit="10"
     d="M 256.716281 -69.340406 L 245.786594 -88.266188 L 267.642063 -88.266188 Z M 256.716281 -69.340406 "
     transform="matrix(1, 0, 0, -1, 90.147, 164.351)"
     id="path106" />
  <g
     fill="rgb(69.999695%, 69.999695%, 69.999695%)"
     fill-opacity="1"
     id="g107">
    <use
       xlink:href="#glyph-0-6"
       x="344.255"
       y="249.774"
       id="use107" />
  </g>
  <path
     fill="none"
     stroke-width="0.3985"
     stroke-linecap="butt"
     stroke-linejoin="miter"
     stroke="rgb(0%, 0%, 0%)"
     stroke-opacity="1"
     stroke-miterlimit="10"
     d="M 250.005344 98.097094 L 201.497531 15.440844 "
     transform="matrix(1, 0, 0, -1, 90.147, 164.351)"
     id="path107" />
  <path
     fill-rule="nonzero"
     fill="rgb(0%, 0%, 0%)"
     fill-opacity="1"
     stroke-width="0.3985"
     stroke-linecap="butt"
     stroke-linejoin="miter"
     stroke="rgb(0%, 0%, 0%)"
     stroke-opacity="1"
     stroke-miterlimit="10"
     d="M 3.682533 -0.0000928494 L 0.644597 1.147672 L 1.644434 -0.000361473 L 0.641036 -1.146323 Z M 3.682533 -0.0000928494 "
     transform="matrix(-0.5061, 0.86241, 0.86241, 0.5061, 292.42631, 147.5781)"
     id="path108" />
  <path
     fill-rule="nonzero"
     fill="rgb(100%, 100%, 100%)"
     fill-opacity="1"
     d="M 308.25 115.09375 L 321.671875 115.09375 L 321.671875 103.265625 L 308.25 103.265625 Z M 308.25 115.09375 "
     id="path109" />
  <g
     fill="rgb(0%, 0%, 0%)"
     fill-opacity="1"
     id="g109">
    <use
       xlink:href="#glyph-2-1"
       x="309.343"
       y="111.754"
       id="use109" />
  </g>
  <g
     fill="rgb(0%, 0%, 0%)"
     fill-opacity="1"
     id="g110">
    <use
       xlink:href="#glyph-1-3"
       x="315.51"
       y="113.6"
       id="use110" />
  </g>
  <path
     fill="none"
     stroke-width="0.3985"
     stroke-linecap="butt"
     stroke-linejoin="miter"
     stroke="rgb(69.999695%, 69.999695%, 69.999695%)"
     stroke-opacity="1"
     stroke-miterlimit="10"
     d="M 253.810031 -73.973219 L 202.063938 -15.027906 "
     transform="matrix(1, 0, 0, -1, 90.147, 164.351)"
     id="path110" />
  <path
     fill-rule="nonzero"
     fill="rgb(69.999695%, 69.999695%, 69.999695%)"
     fill-opacity="1"
     stroke-width="0.3985"
     stroke-linecap="butt"
     stroke-linejoin="miter"
     stroke="rgb(69.999695%, 69.999695%, 69.999695%)"
     stroke-opacity="1"
     stroke-miterlimit="10"
     d="M 3.684706 0.00110707 L 0.642647 1.148515 L 1.644776 -0.00149491 L 0.645207 -1.146084 Z M 3.684706 0.00110707 "
     transform="matrix(-0.65968, -0.75148, -0.75148, 0.65968, 293.23234, 180.54169)"
     id="path111" />
  <path
     fill-rule="nonzero"
     fill="rgb(100%, 100%, 100%)"
     fill-opacity="1"
     d="M 310.445312 212.210938 L 323.28125 212.210938 L 323.28125 202.710938 L 310.445312 202.710938 Z M 310.445312 212.210938 "
     id="path112" />
  <g
     fill="rgb(69.999695%, 69.999695%, 69.999695%)"
     fill-opacity="1"
     id="g112">
    <use
       xlink:href="#glyph-2-2"
       x="311.938"
       y="208.872"
       id="use112" />
  </g>
  <g
     fill="rgb(69.999695%, 69.999695%, 69.999695%)"
     fill-opacity="1"
     id="g113">
    <use
       xlink:href="#glyph-1-3"
       x="317.118"
       y="210.718"
       id="use113" />
  </g>
  <g
     fill="rgb(0%, 0%, 0%)"
     fill-opacity="1"
     id="g114">
    <use
       xlink:href="#glyph-2-3"
       x="312.257"
       y="142.042"
       id="use114" />
  </g>
  <g
     fill="rgb(0%, 0%, 0%)"
     fill-opacity="1"
     id="g115">
    <use
       xlink:href="#glyph-1-3"
       x="318.474"
       y="143.888"
       id="use115" />
  </g>
  <path
     fill="none"
     stroke-width="0.3985"
     stroke-linecap="butt"
     stroke-linejoin="miter"
     stroke="rgb(0%, 0%, 0%)"
     stroke-opacity="1"
     stroke-miterlimit="10"
     d="M 222.630344 20.265062 L 216.708469 14.765062 "
     transform="matrix(1, 0, 0, -1, 90.147, 164.351)"
     id="path115" />
  <path
     fill-rule="nonzero"
     fill="rgb(0%, 0%, 0%)"
     fill-opacity="1"
     stroke-width="0.3985"
     stroke-linecap="butt"
     stroke-linejoin="miter"
     stroke="rgb(0%, 0%, 0%)"
     stroke-opacity="1"
     stroke-miterlimit="10"
     d="M 3.683435 -0.000627801 L 0.644589 1.147248 L 1.646297 -0.00145954 L 0.641129 -1.147114 Z M 3.683435 -0.000627801 "
     transform="matrix(-0.73277, 0.68042, 0.68042, 0.73277, 307.9886, 148.53324)"
     id="path116" />
  <path
     fill="none"
     stroke-width="0.3985"
     stroke-linecap="butt"
     stroke-linejoin="miter"
     stroke="rgb(0%, 0%, 0%)"
     stroke-opacity="1"
     stroke-miterlimit="10"
     d="M 256.716281 97.2885 L 256.716281 15.948656 "
     transform="matrix(1, 0, 0, -1, 90.147, 164.351)"
     id="path117" />
  <path
     fill-rule="nonzero"
     fill="rgb(0%, 0%, 0%)"
     fill-opacity="1"
     stroke-width="0.3985"
     stroke-linecap="butt"
     stroke-linejoin="miter"
     stroke="rgb(0%, 0%, 0%)"
     stroke-opacity="1"
     stroke-miterlimit="10"
     d="M 3.683073 0.00102125 L 0.64401 1.145553 L 1.64401 0.00102125 L 0.64401 -1.147416 Z M 3.683073 0.00102125 "
     transform="matrix(0, 1, 1, 0, 346.86226, 146.85599)"
     id="path118" />
  <path
     fill-rule="nonzero"
     fill="rgb(100%, 100%, 100%)"
     fill-opacity="1"
     d="M 340.152344 115.5 L 353.574219 115.5 L 353.574219 103.667969 L 340.152344 103.667969 Z M 340.152344 115.5 "
     id="path119" />
  <g
     fill="rgb(0%, 0%, 0%)"
     fill-opacity="1"
     id="g119">
    <use
       xlink:href="#glyph-2-1"
       x="341.244"
       y="112.159"
       id="use119" />
  </g>
  <g
     fill="rgb(0%, 0%, 0%)"
     fill-opacity="1"
     id="g120">
    <use
       xlink:href="#glyph-1-4"
       x="347.411"
       y="114.005"
       id="use120" />
  </g>
  <path
     fill="none"
     stroke-width="0.3985"
     stroke-linecap="butt"
     stroke-linejoin="miter"
     stroke="rgb(69.999695%, 69.999695%, 69.999695%)"
     stroke-opacity="1"
     stroke-miterlimit="10"
     d="M 256.716281 -68.941969 L 256.716281 -15.949781 "
     transform="matrix(1, 0, 0, -1, 90.147, 164.351)"
     id="path120" />
  <path
     fill-rule="nonzero"
     fill="rgb(69.999695%, 69.999695%, 69.999695%)"
     fill-opacity="1"
     stroke-width="0.3985"
     stroke-linecap="butt"
     stroke-linejoin="miter"
     stroke="rgb(69.999695%, 69.999695%, 69.999695%)"
     stroke-opacity="1"
     stroke-miterlimit="10"
     d="M 3.685854 -0.00102125 L 0.642885 1.147416 L 1.646791 -0.00102125 L 0.642885 -1.145553 Z M 3.685854 -0.00102125 "
     transform="matrix(0, -1, -1, 0, 346.86226, 181.84601)"
     id="path121" />
  <path
     fill-rule="nonzero"
     fill="rgb(100%, 100%, 100%)"
     fill-opacity="1"
     d="M 340.445312 209.695312 L 353.277344 209.695312 L 353.277344 200.195312 L 340.445312 200.195312 Z M 340.445312 209.695312 "
     id="path122" />
  <g
     fill="rgb(69.999695%, 69.999695%, 69.999695%)"
     fill-opacity="1"
     id="g122">
    <use
       xlink:href="#glyph-2-2"
       x="341.936"
       y="206.355"
       id="use122" />
  </g>
  <g
     fill="rgb(69.999695%, 69.999695%, 69.999695%)"
     fill-opacity="1"
     id="g123">
    <use
       xlink:href="#glyph-1-4"
       x="347.117"
       y="208.201"
       id="use123" />
  </g>
  <g
     fill="rgb(0%, 0%, 0%)"
     fill-opacity="1"
     id="g124">
    <use
       xlink:href="#glyph-2-3"
       x="369.348"
       y="142.042"
       id="use124" />
  </g>
  <g
     fill="rgb(0%, 0%, 0%)"
     fill-opacity="1"
     id="g125">
    <use
       xlink:href="#glyph-1-4"
       x="375.565"
       y="143.888"
       id="use125" />
  </g>
  <path
     fill="none"
     stroke-width="0.3985"
     stroke-linecap="butt"
     stroke-linejoin="miter"
     stroke="rgb(0%, 0%, 0%)"
     stroke-opacity="1"
     stroke-miterlimit="10"
     d="M 279.724094 20.265062 L 273.802219 14.765062 "
     transform="matrix(1, 0, 0, -1, 90.147, 164.351)"
     id="path125" />
  <path
     fill-rule="nonzero"
     fill="rgb(0%, 0%, 0%)"
     fill-opacity="1"
     stroke-width="0.3985"
     stroke-linecap="butt"
     stroke-linejoin="miter"
     stroke="rgb(0%, 0%, 0%)"
     stroke-opacity="1"
     stroke-miterlimit="10"
     d="M 3.685088 -0.00216312 L 0.64338 1.148371 L 1.645088 -0.000336765 L 0.642782 -1.148649 Z M 3.685088 -0.00216312 "
     transform="matrix(-0.73277, 0.68042, 0.68042, 0.73277, 365.0807, 148.53324)"
     id="path126" />
  <path
     fill="none"
     stroke-width="0.3985"
     stroke-linecap="butt"
     stroke-linejoin="miter"
     stroke="rgb(0%, 0%, 0%)"
     stroke-opacity="1"
     stroke-miterlimit="10"
     d="M 263.427219 98.097094 L 311.935031 15.440844 "
     transform="matrix(1, 0, 0, -1, 90.147, 164.351)"
     id="path127" />
  <path
     fill-rule="nonzero"
     fill="rgb(0%, 0%, 0%)"
     fill-opacity="1"
     stroke-width="0.3985"
     stroke-linecap="butt"
     stroke-linejoin="miter"
     stroke="rgb(0%, 0%, 0%)"
     stroke-opacity="1"
     stroke-miterlimit="10"
     d="M 3.683572 0.00186314 L 0.642074 1.148094 L 1.645473 0.00213177 L 0.643659 -1.149271 Z M 3.683572 0.00186314 "
     transform="matrix(0.5061, 0.86241, 0.86241, -0.5061, 401.2982, 147.5781)"
     id="path128" />
  <path
     fill-rule="nonzero"
     fill="rgb(100%, 100%, 100%)"
     fill-opacity="1"
     d="M 372.054688 115.09375 L 385.472656 115.09375 L 385.472656 103.265625 L 372.054688 103.265625 Z M 372.054688 115.09375 "
     id="path129" />
  <g
     fill="rgb(0%, 0%, 0%)"
     fill-opacity="1"
     id="g129">
    <use
       xlink:href="#glyph-2-1"
       x="373.146"
       y="111.754"
       id="use129" />
  </g>
  <g
     fill="rgb(0%, 0%, 0%)"
     fill-opacity="1"
     id="g130">
    <use
       xlink:href="#glyph-1-5"
       x="379.312"
       y="113.6"
       id="use130" />
  </g>
  <path
     fill="none"
     stroke-width="0.3985"
     stroke-linecap="butt"
     stroke-linejoin="miter"
     stroke="rgb(69.999695%, 69.999695%, 69.999695%)"
     stroke-opacity="1"
     stroke-miterlimit="10"
     d="M 259.622531 -73.973219 L 311.364719 -15.027906 "
     transform="matrix(1, 0, 0, -1, 90.147, 164.351)"
     id="path130" />
  <path
     fill-rule="nonzero"
     fill="rgb(69.999695%, 69.999695%, 69.999695%)"
     fill-opacity="1"
     stroke-width="0.3985"
     stroke-linecap="butt"
     stroke-linejoin="miter"
     stroke="rgb(69.999695%, 69.999695%, 69.999695%)"
     stroke-opacity="1"
     stroke-miterlimit="10"
     d="M 3.683496 0.000271093 L 0.643997 1.147462 L 1.646143 -0.0000626901 L 0.641437 -1.147137 Z M 3.683496 0.000271093 "
     transform="matrix(0.65968, -0.75148, -0.75148, -0.65968, 400.49215, 180.54169)"
     id="path131" />
  <path
     fill-rule="nonzero"
     fill="rgb(100%, 100%, 100%)"
     fill-opacity="1"
     d="M 370.445312 212.210938 L 383.277344 212.210938 L 383.277344 202.710938 L 370.445312 202.710938 Z M 370.445312 212.210938 "
     id="path132" />
  <g
     fill="rgb(69.999695%, 69.999695%, 69.999695%)"
     fill-opacity="1"
     id="g132">
    <use
       xlink:href="#glyph-2-2"
       x="371.935"
       y="208.872"
       id="use132" />
  </g>
  <g
     fill="rgb(69.999695%, 69.999695%, 69.999695%)"
     fill-opacity="1"
     id="g133">
    <use
       xlink:href="#glyph-1-5"
       x="377.116"
       y="210.718"
       id="use133" />
  </g>
  <g
     fill="rgb(0%, 0%, 0%)"
     fill-opacity="1"
     id="g134">
    <use
       xlink:href="#glyph-2-3"
       x="426.44"
       y="142.042"
       id="use134" />
  </g>
  <g
     fill="rgb(0%, 0%, 0%)"
     fill-opacity="1"
     id="g135">
    <use
       xlink:href="#glyph-1-5"
       x="432.656"
       y="143.888"
       id="use135" />
  </g>
  <path
     fill="none"
     stroke-width="0.3985"
     stroke-linecap="butt"
     stroke-linejoin="miter"
     stroke="rgb(0%, 0%, 0%)"
     stroke-opacity="1"
     stroke-miterlimit="10"
     d="M 336.813938 20.265062 L 330.892063 14.765062 "
     transform="matrix(1, 0, 0, -1, 90.147, 164.351)"
     id="path135" />
  <path
     fill-rule="nonzero"
     fill="rgb(0%, 0%, 0%)"
     fill-opacity="1"
     stroke-width="0.3985"
     stroke-linecap="butt"
     stroke-linejoin="miter"
     stroke="rgb(0%, 0%, 0%)"
     stroke-opacity="1"
     stroke-miterlimit="10"
     d="M 3.683879 -0.00104034 L 0.645033 1.146835 L 1.643878 0.000786014 L 0.641573 -1.147526 Z M 3.683879 -0.00104034 "
     transform="matrix(-0.73277, 0.68042, 0.68042, 0.73277, 422.1728, 148.53324)"
     id="path136" />
  <path
     fill="none"
     stroke-width="0.3985"
     stroke-linecap="butt"
     stroke-linejoin="miter"
     stroke="rgb(69.999695%, 69.999695%, 69.999695%)"
     stroke-opacity="1"
     stroke-miterlimit="10"
     d="M 156.903781 122.151781 L 145.974094 103.226 L 167.833469 103.226 Z M 156.903781 122.151781 "
     transform="matrix(1, 0, 0, -1, 90.147, 164.351)"
     id="path137" />
  <g
     fill="rgb(69.999695%, 69.999695%, 69.999695%)"
     fill-opacity="1"
     id="g137">
    <use
       xlink:href="#glyph-0-6"
       x="244.445"
       y="58.284"
       id="use137" />
  </g>
  <path
     fill="none"
     stroke-width="0.3985"
     stroke-linecap="butt"
     stroke-linejoin="miter"
     stroke="rgb(69.999695%, 69.999695%, 69.999695%)"
     stroke-opacity="1"
     stroke-miterlimit="10"
     d="M 149.388156 109.534594 L 79.204562 109.534594 "
     transform="matrix(1, 0, 0, -1, 90.147, 164.351)"
     id="path138" />
  <path
     fill-rule="nonzero"
     fill="rgb(69.999695%, 69.999695%, 69.999695%)"
     fill-opacity="1"
     stroke-width="0.3985"
     stroke-linecap="butt"
     stroke-linejoin="miter"
     stroke="rgb(69.999695%, 69.999695%, 69.999695%)"
     stroke-opacity="1"
     stroke-miterlimit="10"
     d="M 3.684446 -0.00069375 L 0.641478 1.147744 L 1.645384 -0.00069375 L 0.641478 -1.145225 Z M 3.684446 -0.00069375 "
     transform="matrix(-1, 0, 0, 1, 170.89929, 54.8171)"
     id="path139" />
  <path
     fill-rule="nonzero"
     fill="rgb(100%, 100%, 100%)"
     fill-opacity="1"
     d="M 196.015625 59.566406 L 209.167969 59.566406 L 209.167969 50.066406 L 196.015625 50.066406 Z M 196.015625 59.566406 "
     id="path140" />
  <g
     fill="rgb(69.999695%, 69.999695%, 69.999695%)"
     fill-opacity="1"
     id="g140">
    <use
       xlink:href="#glyph-2-4"
       x="197.311"
       y="56.23"
       id="use140" />
  </g>
  <g
     fill="rgb(69.999695%, 69.999695%, 69.999695%)"
     fill-opacity="1"
     id="g141">
    <use
       xlink:href="#glyph-1-0"
       x="203.009"
       y="58.075"
       id="use141" />
  </g>
  <path
     fill="none"
     stroke-width="0.3985"
     stroke-linecap="butt"
     stroke-linejoin="miter"
     stroke="rgb(69.999695%, 69.999695%, 69.999695%)"
     stroke-opacity="1"
     stroke-miterlimit="10"
     d="M 164.419406 109.534594 L 234.235813 109.534594 "
     transform="matrix(1, 0, 0, -1, 90.147, 164.351)"
     id="path141" />
  <path
     fill-rule="nonzero"
     fill="rgb(69.999695%, 69.999695%, 69.999695%)"
     fill-opacity="1"
     stroke-width="0.3985"
     stroke-linecap="butt"
     stroke-linejoin="miter"
     stroke="rgb(69.999695%, 69.999695%, 69.999695%)"
     stroke-opacity="1"
     stroke-miterlimit="10"
     d="M 3.685578 0.00069375 L 0.642609 1.145225 L 1.646515 0.00069375 L 0.642609 -1.147744 Z M 3.685578 0.00069375 "
     transform="matrix(1, 0, 0, -1, 322.83786, 54.8171)"
     id="path142" />
  <path
     fill-rule="nonzero"
     fill="rgb(100%, 100%, 100%)"
     fill-opacity="1"
     d="M 284.75 59.566406 L 297.902344 59.566406 L 297.902344 50.066406 L 284.75 50.066406 Z M 284.75 59.566406 "
     id="path143" />
  <g
     fill="rgb(69.999695%, 69.999695%, 69.999695%)"
     fill-opacity="1"
     id="g143">
    <use
       xlink:href="#glyph-2-4"
       x="286.043"
       y="56.229"
       id="use143" />
  </g>
  <g
     fill="rgb(69.999695%, 69.999695%, 69.999695%)"
     fill-opacity="1"
     id="g144">
    <use
       xlink:href="#glyph-1-1"
       x="291.741"
       y="58.075"
       id="use144" />
  </g>
  <path
     fill="none"
     stroke-width="0.3985"
     stroke-linecap="butt"
     stroke-linejoin="miter"
     stroke="rgb(0%, 0%, 0%)"
     stroke-opacity="1"
     stroke-miterlimit="10"
     d="M 74.028781 119.686937 C 109.368625 144.460375 204.25925 144.50725 239.622531 119.772875 "
     transform="matrix(1, 0, 0, -1, 90.147, 164.351)"
     id="path144" />
  <path
     fill-rule="nonzero"
     fill="rgb(0%, 0%, 0%)"
     fill-opacity="1"
     stroke-width="0.3985"
     stroke-linecap="butt"
     stroke-linejoin="miter"
     stroke="rgb(0%, 0%, 0%)"
     stroke-opacity="1"
     stroke-miterlimit="10"
     d="M 3.682203 -0.00021057 L 0.642124 1.14812 L 1.64591 0.000819016 L 0.644762 -1.148353 Z M 3.682203 -0.00021057 "
     transform="matrix(-0.81883, 0.57399, 0.57399, 0.81883, 165.441, 43.77725)"
     id="path145" />
  <path
     fill-rule="nonzero"
     fill="rgb(0%, 0%, 0%)"
     fill-opacity="1"
     stroke-width="0.3985"
     stroke-linecap="butt"
     stroke-linejoin="miter"
     stroke="rgb(0%, 0%, 0%)"
     stroke-opacity="1"
     stroke-miterlimit="10"
     d="M 3.685511 -0.000419678 L 0.642877 1.1464 L 1.646025 -0.00156953 L 0.644251 -1.145582 Z M 3.685511 -0.000419678 "
     transform="matrix(0.81943, 0.57314, 0.57314, -0.81943, 328.50366, 43.69203)"
     id="path146" />
  <path
     fill-rule="nonzero"
     fill="rgb(100%, 100%, 100%)"
     fill-opacity="1"
     d="M 237.738281 33.019531 L 256.191406 33.019531 L 256.191406 20.15625 L 237.738281 20.15625 Z M 237.738281 33.019531 "
     id="path147" />
  <g
     fill="rgb(0%, 0%, 0%)"
     fill-opacity="1"
     id="g147">
    <use
       xlink:href="#glyph-2-0"
       x="239.229"
       y="28.646"
       id="use147" />
  </g>
  <g
     fill="rgb(0%, 0%, 0%)"
     fill-opacity="1"
     id="g149">
    <use
       xlink:href="#glyph-1-0"
       x="245.864"
       y="30.492"
       id="use148" />
    <use
       xlink:href="#glyph-1-1"
       x="250.029496"
       y="30.492"
       id="use149" />
  </g>
  <path
     fill="none"
     stroke-width="0.3985"
     stroke-linecap="butt"
     stroke-linejoin="miter"
     stroke="rgb(0%, 0%, 0%)"
     stroke-opacity="1"
     stroke-miterlimit="10"
     d="M -79.986844 64.874437 L -0.197781 64.874437 L -0.197781 154.190844 L -79.986844 154.190844 Z M -79.986844 64.874437 "
     transform="matrix(1, 0, 0, -1, 90.147, 164.351)"
     id="path149" />
  <g
     fill="rgb(0%, 0%, 0%)"
     fill-opacity="1"
     id="g155">
    <use
       xlink:href="#glyph-3-0"
       x="16.405"
       y="23.217"
       id="use150" />
    <use
       xlink:href="#glyph-3-1"
       x="23.166458"
       y="23.217"
       id="use151" />
    <use
       xlink:href="#glyph-3-2"
       x="28.888412"
       y="23.217"
       id="use152" />
    <use
       xlink:href="#glyph-3-3"
       x="34.610366"
       y="23.217"
       id="use153" />
    <use
       xlink:href="#glyph-3-4"
       x="39.81725"
       y="23.217"
       id="use154" />
    <use
       xlink:href="#glyph-3-5"
       x="42.935762"
       y="23.217"
       id="use155" />
  </g>
  <g
     fill="rgb(0%, 0%, 0%)"
     fill-opacity="1"
     id="g160">
    <use
       xlink:href="#glyph-3-6"
       x="46.625532"
       y="23.217"
       id="use156" />
    <use
       xlink:href="#glyph-3-7"
       x="51.832417"
       y="23.217"
       id="use157" />
    <use
       xlink:href="#glyph-3-2"
       x="54.435859"
       y="23.217"
       id="use158" />
    <use
       xlink:href="#glyph-3-4"
       x="60.157813"
       y="23.217"
       id="use159" />
    <use
       xlink:href="#glyph-3-3"
       x="63.276325"
       y="23.217"
       id="use160" />
  </g>
  <g
     fill="rgb(0%, 0%, 0%)"
     fill-opacity="1"
     id="g161">
    <use
       xlink:href="#glyph-2-1"
       x="16.006"
       y="36.454"
       id="use161" />
  </g>
  <g
     fill="rgb(0%, 0%, 0%)"
     fill-opacity="1"
     id="g162">
    <use
       xlink:href="#glyph-1-0"
       x="22.173"
       y="38.3"
       id="use162" />
  </g>
  <g
     fill="rgb(0%, 0%, 0%)"
     fill-opacity="1"
     id="g163">
    <use
       xlink:href="#glyph-0-13"
       x="29.05"
       y="36.454"
       id="use163" />
  </g>
  <g
     fill="rgb(0%, 0%, 0%)"
     fill-opacity="1"
     id="g164">
    <use
       xlink:href="#glyph-2-1"
       x="36.332295"
       y="36.454"
       id="use164" />
  </g>
  <g
     fill="rgb(0%, 0%, 0%)"
     fill-opacity="1"
     id="g165">
    <use
       xlink:href="#glyph-1-1"
       x="42.502"
       y="38.3"
       id="use165" />
  </g>
  <g
     fill="rgb(0%, 0%, 0%)"
     fill-opacity="1"
     id="g166">
    <use
       xlink:href="#glyph-0-13"
       x="49.379"
       y="36.454"
       id="use166" />
  </g>
  <g
     fill="rgb(0%, 0%, 0%)"
     fill-opacity="1"
     id="g167">
    <use
       xlink:href="#glyph-2-1"
       x="56.661295"
       y="36.454"
       id="use167" />
  </g>
  <g
     fill="rgb(0%, 0%, 0%)"
     fill-opacity="1"
     id="g168">
    <use
       xlink:href="#glyph-1-2"
       x="62.831"
       y="38.3"
       id="use168" />
  </g>
  <g
     fill="rgb(0%, 0%, 0%)"
     fill-opacity="1"
     id="g169">
    <use
       xlink:href="#glyph-0-14"
       x="70.261"
       y="36.454"
       id="use169" />
  </g>
  <g
     fill="rgb(0%, 0%, 0%)"
     fill-opacity="1"
     id="g170">
    <use
       xlink:href="#glyph-0-15"
       x="78.502112"
       y="36.454"
       id="use170" />
  </g>
  <g
     fill="rgb(0%, 0%, 0%)"
     fill-opacity="1"
     id="g171">
    <use
       xlink:href="#glyph-2-1"
       x="16.006"
       y="51.536"
       id="use171" />
  </g>
  <g
     fill="rgb(0%, 0%, 0%)"
     fill-opacity="1"
     id="g172">
    <use
       xlink:href="#glyph-1-3"
       x="22.173"
       y="53.382"
       id="use172" />
  </g>
  <g
     fill="rgb(0%, 0%, 0%)"
     fill-opacity="1"
     id="g173">
    <use
       xlink:href="#glyph-0-13"
       x="29.05"
       y="51.536"
       id="use173" />
  </g>
  <g
     fill="rgb(0%, 0%, 0%)"
     fill-opacity="1"
     id="g174">
    <use
       xlink:href="#glyph-2-1"
       x="36.332295"
       y="51.536"
       id="use174" />
  </g>
  <g
     fill="rgb(0%, 0%, 0%)"
     fill-opacity="1"
     id="g175">
    <use
       xlink:href="#glyph-1-4"
       x="42.502"
       y="53.382"
       id="use175" />
  </g>
  <g
     fill="rgb(0%, 0%, 0%)"
     fill-opacity="1"
     id="g176">
    <use
       xlink:href="#glyph-0-13"
       x="49.379"
       y="51.536"
       id="use176" />
  </g>
  <g
     fill="rgb(0%, 0%, 0%)"
     fill-opacity="1"
     id="g177">
    <use
       xlink:href="#glyph-2-1"
       x="56.661295"
       y="51.536"
       id="use177" />
  </g>
  <g
     fill="rgb(0%, 0%, 0%)"
     fill-opacity="1"
     id="g178">
    <use
       xlink:href="#glyph-1-5"
       x="62.831"
       y="53.382"
       id="use178" />
  </g>
  <g
     fill="rgb(0%, 0%, 0%)"
     fill-opacity="1"
     id="g179">
    <use
       xlink:href="#glyph-0-14"
       x="70.261"
       y="51.536"
       id="use179" />
  </g>
  <g
     fill="rgb(0%, 0%, 0%)"
     fill-opacity="1"
     id="g180">
    <use
       xlink:href="#glyph-0-15"
       x="78.502112"
       y="51.536"
       id="use180" />
  </g>
  <g
     fill="rgb(0%, 0%, 0%)"
     fill-opacity="1"
     id="g181">
    <use
       xlink:href="#glyph-2-2"
       x="16.405"
       y="76.369"
       id="use181" />
  </g>
  <g
     fill="rgb(0%, 0%, 0%)"
     fill-opacity="1"
     id="g182">
    <use
       xlink:href="#glyph-1-0"
       x="21.585"
       y="78.215"
       id="use182" />
  </g>
  <g
     fill="rgb(0%, 0%, 0%)"
     fill-opacity="1"
     id="g183">
    <use
       xlink:href="#glyph-0-13"
       x="28.463"
       y="76.369"
       id="use183" />
  </g>
  <g
     fill="rgb(0%, 0%, 0%)"
     fill-opacity="1"
     id="g184">
    <use
       xlink:href="#glyph-2-2"
       x="36.143799"
       y="76.369"
       id="use184" />
  </g>
  <g
     fill="rgb(0%, 0%, 0%)"
     fill-opacity="1"
     id="g185">
    <use
       xlink:href="#glyph-1-1"
       x="41.326"
       y="78.215"
       id="use185" />
  </g>
  <g
     fill="rgb(0%, 0%, 0%)"
     fill-opacity="1"
     id="g186">
    <use
       xlink:href="#glyph-0-13"
       x="48.204"
       y="76.369"
       id="use186" />
  </g>
  <g
     fill="rgb(0%, 0%, 0%)"
     fill-opacity="1"
     id="g187">
    <use
       xlink:href="#glyph-2-2"
       x="55.884799"
       y="76.369"
       id="use187" />
  </g>
  <g
     fill="rgb(0%, 0%, 0%)"
     fill-opacity="1"
     id="g188">
    <use
       xlink:href="#glyph-1-2"
       x="61.067"
       y="78.215"
       id="use188" />
  </g>
  <g
     fill="rgb(0%, 0%, 0%)"
     fill-opacity="1"
     id="g189">
    <use
       xlink:href="#glyph-0-14"
       x="68.498"
       y="76.369"
       id="use189" />
  </g>
  <g
     fill="rgb(0%, 0%, 0%)"
     fill-opacity="1"
     id="g190">
    <use
       xlink:href="#glyph-0-16"
       x="76.739112"
       y="76.369"
       id="use190" />
  </g>
  <g
     fill="rgb(0%, 0%, 0%)"
     fill-opacity="1"
     id="g191">
    <use
       xlink:href="#glyph-2-2"
       x="16.405"
       y="91.387"
       id="use191" />
  </g>
  <g
     fill="rgb(0%, 0%, 0%)"
     fill-opacity="1"
     id="g192">
    <use
       xlink:href="#glyph-1-3"
       x="21.585"
       y="93.233"
       id="use192" />
  </g>
  <g
     fill="rgb(0%, 0%, 0%)"
     fill-opacity="1"
     id="g193">
    <use
       xlink:href="#glyph-0-13"
       x="28.463"
       y="91.387"
       id="use193" />
  </g>
  <g
     fill="rgb(0%, 0%, 0%)"
     fill-opacity="1"
     id="g194">
    <use
       xlink:href="#glyph-2-2"
       x="36.143799"
       y="91.387"
       id="use194" />
  </g>
  <g
     fill="rgb(0%, 0%, 0%)"
     fill-opacity="1"
     id="g195">
    <use
       xlink:href="#glyph-1-4"
       x="41.326"
       y="93.233"
       id="use195" />
  </g>
  <g
     fill="rgb(0%, 0%, 0%)"
     fill-opacity="1"
     id="g196">
    <use
       xlink:href="#glyph-0-13"
       x="48.204"
       y="91.387"
       id="use196" />
  </g>
  <g
     fill="rgb(0%, 0%, 0%)"
     fill-opacity="1"
     id="g197">
    <use
       xlink:href="#glyph-2-2"
       x="55.884799"
       y="91.387"
       id="use197" />
  </g>
  <g
     fill="rgb(0%, 0%, 0%)"
     fill-opacity="1"
     id="g198">
    <use
       xlink:href="#glyph-1-5"
       x="61.067"
       y="93.233"
       id="use198" />
  </g>
  <g
     fill="rgb(0%, 0%, 0%)"
     fill-opacity="1"
     id="g199">
    <use
       xlink:href="#glyph-0-14"
       x="68.498"
       y="91.387"
       id="use199" />
  </g>
  <g
     fill="rgb(0%, 0%, 0%)"
     fill-opacity="1"
     id="g200">
    <use
       xlink:href="#glyph-0-16"
       x="76.739112"
       y="91.387"
       id="use200" />
  </g>
</svg>
