<?xml version="1.0" encoding="UTF-8" standalone="no"?>
<svg
   width="381.471pt"
   height="253.097pt"
   viewBox="0 0 381.471 253.097"
   version="1.1"
   id="svg147"
   sodipodi:docname="TwoFactor2.pdf"
   xmlns:inkscape="http://www.inkscape.org/namespaces/inkscape"
   xmlns:sodipodi="http://sodipodi.sourceforge.net/DTD/sodipodi-0.dtd"
   xmlns:xlink="http://www.w3.org/1999/xlink"
   xmlns="http://www.w3.org/2000/svg"
   xmlns:svg="http://www.w3.org/2000/svg">
  <sodipodi:namedview
     id="namedview147"
     pagecolor="#ffffff"
     bordercolor="#000000"
     borderopacity="0.25"
     inkscape:showpageshadow="2"
     inkscape:pageopacity="0.0"
     inkscape:pagecheckerboard="0"
     inkscape:deskcolor="#d1d1d1"
     inkscape:document-units="pt" />
  <defs
     id="defs26">
    <g
       id="g26">
      <g
         id="glyph-0-0">
        <path
           d="M 4.890625 -2.40625 C 4.890625 -4.046875 4.09375 -5.046875 2.796875 -5.046875 C 2.125 -5.046875 1.59375 -4.75 1.21875 -4.171875 L 1.21875 -4.90625 L 0.515625 -4.90625 L 0.515625 2.046875 L 1.296875 2.046875 L 1.296875 -0.59375 C 1.703125 -0.078125 2.15625 0.140625 2.796875 0.140625 C 4.0625 0.140625 4.890625 -0.84375 4.890625 -2.40625 Z M 4.078125 -2.421875 C 4.078125 -1.3125 3.515625 -0.59375 2.65625 -0.59375 C 1.828125 -0.59375 1.296875 -1.265625 1.296875 -2.421875 C 1.296875 -3.5625 1.828125 -4.3125 2.65625 -4.3125 C 3.515625 -4.3125 4.078125 -3.59375 4.078125 -2.421875 Z M 4.078125 -2.421875 "
           id="path1" />
      </g>
      <g
         id="glyph-0-1">
        <path
           d="M 4.765625 -2.421875 C 4.765625 -4.109375 3.953125 -5.046875 2.546875 -5.046875 C 1.171875 -5.046875 0.34375 -4.09375 0.34375 -2.453125 C 0.34375 -0.8125 1.15625 0.140625 2.5625 0.140625 C 3.9375 0.140625 4.765625 -0.8125 4.765625 -2.421875 Z M 3.953125 -2.421875 C 3.953125 -1.265625 3.421875 -0.578125 2.5625 -0.578125 C 1.6875 -0.578125 1.15625 -1.265625 1.15625 -2.453125 C 1.15625 -3.625 1.6875 -4.328125 2.5625 -4.328125 C 3.4375 -4.328125 3.953125 -3.640625 3.953125 -2.421875 Z M 3.953125 -2.421875 "
           id="path2" />
      </g>
      <g
         id="glyph-0-2">
        <path
           d="M 4.296875 -1.375 C 4.296875 -2.109375 3.890625 -2.46875 2.90625 -2.703125 L 2.15625 -2.875 C 1.53125 -3.03125 1.25 -3.234375 1.25 -3.578125 C 1.25 -4.03125 1.65625 -4.328125 2.296875 -4.328125 C 2.921875 -4.328125 3.25 -4.046875 3.28125 -3.53125 L 4.09375 -3.53125 C 4.09375 -4.5 3.453125 -5.046875 2.328125 -5.046875 C 1.171875 -5.046875 0.4375 -4.453125 0.4375 -3.546875 C 0.4375 -2.78125 0.828125 -2.421875 2 -2.140625 L 2.71875 -1.953125 C 3.265625 -1.828125 3.484375 -1.671875 3.484375 -1.3125 C 3.484375 -0.859375 3.015625 -0.578125 2.34375 -0.578125 C 1.640625 -0.578125 1.25 -0.75 1.140625 -1.5 L 0.3125 -1.5 C 0.359375 -0.359375 0.984375 0.140625 2.28125 0.140625 C 3.515625 0.140625 4.296875 -0.4375 4.296875 -1.375 Z M 4.296875 -1.375 "
           id="path3" />
      </g>
      <g
         id="glyph-0-3">
        <path
           d="M 5.78125 -4.8125 C 5.78125 -6.109375 5.015625 -6.828125 3.671875 -6.828125 L 0.859375 -6.828125 L 0.859375 0 L 1.71875 0 L 1.71875 -2.890625 L 3.859375 -2.890625 C 4.984375 -2.890625 5.78125 -3.6875 5.78125 -4.8125 Z M 4.859375 -4.859375 C 4.859375 -4.109375 4.375 -3.65625 3.53125 -3.65625 L 1.71875 -3.65625 L 1.71875 -6.0625 L 3.53125 -6.0625 C 4.375 -6.0625 4.859375 -5.609375 4.859375 -4.859375 Z M 4.859375 -4.859375 "
           id="path4" />
      </g>
      <g
         id="glyph-0-4">
        <path
           d="M 6.9375 -3.296875 C 6.9375 -5.5 5.640625 -6.984375 3.640625 -6.984375 C 1.6875 -6.984375 0.359375 -5.5 0.359375 -3.359375 C 0.359375 -1.21875 1.6875 0.171875 3.65625 0.171875 C 5.65625 0.171875 6.9375 -1.296875 6.9375 -3.296875 Z M 6.078125 -3.328125 C 6.078125 -1.671875 5.09375 -0.59375 3.65625 -0.59375 C 2.203125 -0.59375 1.21875 -1.671875 1.21875 -3.359375 C 1.21875 -5.046875 2.203125 -6.21875 3.640625 -6.21875 C 5.125 -6.21875 6.078125 -5.046875 6.078125 -3.328125 Z M 6.078125 -3.328125 "
           id="path5" />
      </g>
      <g
         id="glyph-0-5">
        <path
           d="M 5.8125 -1.875 C 5.8125 -2.71875 5.28125 -3.328125 4.359375 -3.578125 L 2.65625 -4.046875 C 1.828125 -4.265625 1.53125 -4.53125 1.53125 -5.046875 C 1.53125 -5.75 2.140625 -6.265625 3.046875 -6.265625 C 4.140625 -6.265625 4.75 -5.765625 4.75 -4.875 L 5.578125 -4.875 C 5.578125 -6.21875 4.65625 -6.984375 3.078125 -6.984375 C 1.578125 -6.984375 0.65625 -6.171875 0.65625 -4.9375 C 0.65625 -4.09375 1.09375 -3.578125 2 -3.34375 L 3.6875 -2.890625 C 4.546875 -2.671875 4.9375 -2.328125 4.9375 -1.78125 C 4.9375 -1.03125 4.375 -0.59375 3.203125 -0.59375 C 1.90625 -0.59375 1.265625 -1.25 1.265625 -2.21875 L 0.453125 -2.21875 C 0.453125 -0.609375 1.53125 0.171875 3.140625 0.171875 C 4.875 0.171875 5.8125 -0.65625 5.8125 -1.875 Z M 5.8125 -1.875 "
           id="path6" />
      </g>
      <g
         id="glyph-0-6">
        <path
           d="M 3.25 0 L 3.25 -6.640625 L 2.703125 -6.640625 C 2.421875 -5.609375 2.234375 -5.46875 0.953125 -5.3125 L 0.953125 -4.71875 L 2.421875 -4.71875 L 2.421875 0 Z M 3.25 0 "
           id="path7" />
      </g>
      <g
         id="glyph-0-7">
        <path
           d="M 4.828125 -2.875 L 4.828125 -3.515625 L 0.640625 -3.515625 L 0.640625 -2.875 Z M 4.828125 -1.171875 L 4.828125 -1.8125 L 0.640625 -1.8125 L 0.640625 -1.171875 Z M 4.828125 -1.171875 "
           id="path8" />
      </g>
      <g
         id="glyph-0-8">
        <path
           d="M 4.75 -3.1875 C 4.75 -5.5 4.015625 -6.640625 2.578125 -6.640625 C 1.140625 -6.640625 0.40625 -5.46875 0.40625 -3.25 C 0.40625 -1.015625 1.15625 0.140625 2.578125 0.140625 C 3.984375 0.140625 4.75 -1.015625 4.75 -3.1875 Z M 3.90625 -3.265625 C 3.90625 -1.390625 3.46875 -0.546875 2.5625 -0.546875 C 1.6875 -0.546875 1.25 -1.421875 1.25 -3.234375 C 1.25 -5.046875 1.6875 -5.90625 2.578125 -5.90625 C 3.46875 -5.90625 3.90625 -5.046875 3.90625 -3.265625 Z M 3.90625 -3.265625 "
           id="path9" />
      </g>
      <g
         id="glyph-0-9">
        <path
           d="M 4.5625 0 L 4.5625 -3.703125 C 4.5625 -4.515625 3.953125 -5.046875 3 -5.046875 C 2.28125 -5.046875 1.8125 -4.765625 1.375 -4.078125 L 1.375 -4.90625 L 0.65625 -4.90625 L 0.65625 0 L 1.4375 0 L 1.4375 -2.703125 C 1.4375 -3.703125 1.96875 -4.359375 2.765625 -4.359375 C 3.390625 -4.359375 3.78125 -3.984375 3.78125 -3.390625 L 3.78125 0 Z M 4.5625 0 "
           id="path10" />
      </g>
      <g
         id="glyph-0-10">
        <path
           d="M 4.796875 -2.234375 C 4.796875 -2.9375 4.75 -3.390625 4.609375 -3.75 C 4.28125 -4.5625 3.53125 -5.046875 2.625 -5.046875 C 1.25 -5.046875 0.375 -4.03125 0.375 -2.421875 C 0.375 -0.8125 1.21875 0.140625 2.609375 0.140625 C 3.71875 0.140625 4.5 -0.5 4.703125 -1.484375 L 3.90625 -1.484375 C 3.703125 -0.84375 3.25 -0.578125 2.625 -0.578125 C 1.8125 -0.578125 1.203125 -1.109375 1.1875 -2.234375 Z M 3.96875 -2.921875 C 3.96875 -2.921875 3.96875 -2.875 3.953125 -2.859375 L 1.203125 -2.859375 C 1.265625 -3.734375 1.828125 -4.328125 2.609375 -4.328125 C 3.375 -4.328125 3.96875 -3.6875 3.96875 -2.921875 Z M 3.96875 -2.921875 "
           id="path11" />
      </g>
      <g
         id="glyph-0-11">
        <path
           d="M 4.578125 -0.8125 L 4.578125 -4.90625 L 3.859375 -4.90625 L 3.859375 -4.1875 C 3.46875 -4.765625 2.984375 -5.046875 2.359375 -5.046875 C 1.109375 -5.046875 0.265625 -4 0.265625 -2.40625 C 0.265625 -0.859375 1.140625 0.140625 2.296875 0.140625 C 2.90625 0.140625 3.34375 -0.125 3.859375 -0.734375 L 3.859375 -0.40625 C 3.859375 0.890625 3.328125 1.390625 2.421875 1.390625 C 1.796875 1.390625 1.3125 1.15625 1.21875 0.5625 L 0.4375 0.5625 C 0.515625 1.484375 1.234375 2.046875 2.390625 2.046875 C 3.921875 2.046875 4.578125 1.359375 4.578125 -0.8125 Z M 3.78125 -2.421875 C 3.78125 -1.25 3.28125 -0.578125 2.453125 -0.578125 C 1.59375 -0.578125 1.078125 -1.265625 1.078125 -2.453125 C 1.078125 -3.625 1.609375 -4.328125 2.4375 -4.328125 C 3.28125 -4.328125 3.78125 -3.609375 3.78125 -2.421875 Z M 3.78125 -2.421875 "
           id="path12" />
      </g>
      <g
         id="glyph-0-12">
        <path
           d="M 6.046875 0 L 6.046875 -6.828125 L 5.21875 -6.828125 L 5.21875 -1.25 L 1.65625 -6.828125 L 0.71875 -6.828125 L 0.71875 0 L 1.53125 0 L 1.53125 -5.53125 L 5.0625 0 Z M 6.046875 0 "
           id="path13" />
      </g>
      <g
         id="glyph-0-13">
        <path
           d="M 5.734375 0 L 5.734375 -0.765625 L 1.71875 -0.765625 L 1.71875 -3.109375 L 5.421875 -3.109375 L 5.421875 -3.875 L 1.71875 -3.875 L 1.71875 -6.0625 L 5.5625 -6.0625 L 5.5625 -6.828125 L 0.84375 -6.828125 L 0.84375 0 Z M 5.734375 0 "
           id="path14" />
      </g>
      <g
         id="glyph-0-14">
        <path
           d="M 6.640625 0 L 6.640625 -3.609375 L 3.796875 -3.609375 L 3.796875 -2.828125 L 5.875 -2.828125 L 5.875 -2.65625 C 5.875 -1.4375 4.96875 -0.59375 3.71875 -0.59375 C 2.1875 -0.59375 1.28125 -1.71875 1.28125 -3.390625 C 1.28125 -5.0625 2.234375 -6.21875 3.671875 -6.21875 C 4.71875 -6.21875 5.46875 -5.640625 5.65625 -4.75 L 6.546875 -4.75 C 6.296875 -6.140625 5.25 -6.984375 3.6875 -6.984375 C 1.59375 -6.984375 0.40625 -5.375 0.40625 -3.34375 C 0.40625 -1.25 1.6875 0.171875 3.53125 0.171875 C 4.46875 0.171875 5.203125 -0.15625 5.875 -0.90625 L 6.078125 0 Z M 6.640625 0 "
           id="path15" />
      </g>
      <g
         id="glyph-1-0">
        <path
           d="M 2.59375 0 L 2.59375 -5.3125 L 2.15625 -5.3125 C 1.9375 -4.484375 1.78125 -4.375 0.765625 -4.25 L 0.765625 -3.78125 L 1.9375 -3.78125 L 1.9375 0 Z M 2.59375 0 "
           id="path16" />
      </g>
      <g
         id="glyph-1-1">
        <path
           d="M 3.828125 -3.75 C 3.828125 -4.640625 3.125 -5.3125 2.125 -5.3125 C 1.046875 -5.3125 0.40625 -4.75 0.375 -3.46875 L 1.03125 -3.46875 C 1.078125 -4.359375 1.453125 -4.734375 2.109375 -4.734375 C 2.703125 -4.734375 3.15625 -4.296875 3.15625 -3.734375 C 3.15625 -3.3125 2.90625 -2.953125 2.4375 -2.6875 L 1.75 -2.296875 C 0.640625 -1.671875 0.3125 -1.171875 0.25 0 L 3.78125 0 L 3.78125 -0.65625 L 1 -0.65625 C 1.0625 -1.078125 1.296875 -1.359375 1.953125 -1.75 L 2.703125 -2.140625 C 3.4375 -2.546875 3.828125 -3.09375 3.828125 -3.75 Z M 3.828125 -3.75 "
           id="path17" />
      </g>
      <g
         id="glyph-1-2">
        <path
           d="M 3.78125 -1.546875 C 3.78125 -2.1875 3.53125 -2.5625 2.890625 -2.78125 C 3.390625 -2.96875 3.625 -3.3125 3.625 -3.84375 C 3.625 -4.765625 3.03125 -5.3125 2.015625 -5.3125 C 0.9375 -5.3125 0.375 -4.71875 0.359375 -3.59375 L 1.015625 -3.59375 C 1.03125 -4.375 1.34375 -4.734375 2.015625 -4.734375 C 2.609375 -4.734375 2.953125 -4.390625 2.953125 -3.828125 C 2.953125 -3.25 2.703125 -3.03125 1.65625 -3.03125 L 1.65625 -2.46875 L 2.015625 -2.46875 C 2.734375 -2.46875 3.109375 -2.125 3.109375 -1.53125 C 3.109375 -0.875 2.703125 -0.46875 2.015625 -0.46875 C 1.296875 -0.46875 0.9375 -0.828125 0.890625 -1.609375 L 0.234375 -1.609375 C 0.328125 -0.421875 0.90625 0.109375 1.984375 0.109375 C 3.078125 0.109375 3.78125 -0.53125 3.78125 -1.546875 Z M 3.78125 -1.546875 "
           id="path18" />
      </g>
      <g
         id="glyph-1-3">
        <path
           d="M 3.890625 -1.265625 L 3.890625 -1.859375 L 3.109375 -1.859375 L 3.109375 -5.3125 L 2.625 -5.3125 L 0.203125 -1.96875 L 0.203125 -1.265625 L 2.453125 -1.265625 L 2.453125 0 L 3.109375 0 L 3.109375 -1.265625 Z M 2.453125 -1.859375 L 0.78125 -1.859375 L 2.453125 -4.1875 Z M 2.453125 -1.859375 "
           id="path19" />
      </g>
      <g
         id="glyph-1-4">
        <path
           d="M 3.84375 -1.765625 C 3.84375 -2.8125 3.140625 -3.5 2.125 -3.5 C 1.75 -3.5 1.453125 -3.390625 1.140625 -3.171875 L 1.359375 -4.546875 L 3.5625 -4.546875 L 3.5625 -5.1875 L 0.828125 -5.1875 L 0.421875 -2.421875 L 1.03125 -2.421875 C 1.34375 -2.78125 1.59375 -2.90625 2 -2.90625 C 2.71875 -2.90625 3.171875 -2.453125 3.171875 -1.671875 C 3.171875 -0.90625 2.71875 -0.46875 2 -0.46875 C 1.421875 -0.46875 1.078125 -0.765625 0.921875 -1.359375 L 0.265625 -1.359375 C 0.484375 -0.3125 1.078125 0.109375 2.015625 0.109375 C 3.09375 0.109375 3.84375 -0.640625 3.84375 -1.765625 Z M 3.84375 -1.765625 "
           id="path20" />
      </g>
      <g
         id="glyph-1-5">
        <path
           d="M 3.84375 -1.640625 C 3.84375 -2.640625 3.171875 -3.296875 2.21875 -3.296875 C 1.6875 -3.296875 1.28125 -3.09375 1 -2.703125 C 1 -4 1.421875 -4.71875 2.171875 -4.71875 C 2.640625 -4.71875 2.96875 -4.4375 3.0625 -3.921875 L 3.734375 -3.921875 C 3.59375 -4.796875 3.03125 -5.3125 2.21875 -5.3125 C 0.984375 -5.3125 0.328125 -4.265625 0.328125 -2.421875 C 0.328125 -0.765625 0.890625 0.109375 2.109375 0.109375 C 3.109375 0.109375 3.84375 -0.609375 3.84375 -1.640625 Z M 3.171875 -1.59375 C 3.171875 -0.921875 2.71875 -0.46875 2.109375 -0.46875 C 1.5 -0.46875 1.03125 -0.953125 1.03125 -1.625 C 1.03125 -2.296875 1.484375 -2.71875 2.140625 -2.71875 C 2.765625 -2.71875 3.171875 -2.3125 3.171875 -1.59375 Z M 3.171875 -1.59375 "
           id="path21" />
      </g>
      <g
         id="glyph-2-0">
        <path
           d="M 3.0625 0.15625 L 3.0625 2.796875 L 3.171875 2.875 C 3.34375 2.8125 3.515625 2.734375 3.640625 2.609375 C 3.5 1.78125 3.40625 0.984375 3.375 0.15625 C 4.96875 0.046875 6.125 -0.6875 6.125 -2.25 C 6.125 -2.4375 6.09375 -2.625 6.078125 -2.84375 C 5.84375 -4.25 4.59375 -4.71875 3.375 -4.71875 C 3.375 -4.71875 3.34375 -4.71875 3.34375 -4.71875 C 3.375 -5.46875 3.40625 -6.21875 3.515625 -6.96875 L 3.421875 -7.03125 C 3.296875 -6.984375 3.171875 -6.90625 3.046875 -6.8125 L 3.0625 -4.71875 C 3.046875 -4.71875 3.046875 -4.71875 3.046875 -4.71875 C 1.5 -4.71875 0.265625 -3.84375 0.265625 -2.328125 C 0.265625 -0.5 1.65625 0.0625 3.0625 0.15625 Z M 5.3125 -2.171875 C 5.3125 -1 4.640625 -0.09375 3.359375 -0.0625 L 3.34375 -4.46875 C 4.609375 -4.453125 5.3125 -3.5625 5.3125 -2.171875 Z M 3.0625 -4.46875 L 3.046875 -0.046875 C 1.890625 -0.140625 1.296875 -0.734375 1.109375 -1.859375 C 1.09375 -2.046875 1.0625 -2.25 1.0625 -2.421875 C 1.0625 -3.609375 1.734375 -4.4375 3.0625 -4.46875 Z M 3.0625 -4.46875 "
           id="path22" />
      </g>
      <g
         id="glyph-2-1">
        <path
           d="M 6.015625 -0.875 C 5.859375 -0.765625 5.609375 -0.546875 5.40625 -0.546875 C 5.015625 -0.546875 4.6875 -1.875 4.59375 -2.1875 C 4.25 -3.25 3.375 -6.671875 3.203125 -6.875 C 3.125 -6.96875 3.046875 -7 2.9375 -7 C 2.578125 -7 1.875 -6.671875 1.578125 -6.546875 L 1.546875 -6.453125 C 1.578125 -6.40625 1.59375 -6.375 1.65625 -6.34375 C 1.8125 -6.40625 2.109375 -6.515625 2.265625 -6.515625 C 2.78125 -6.515625 3.140625 -4.984375 3.25 -4.578125 C 2.21875 -3.1875 1.515625 -1.609375 0.859375 0.015625 L 0.984375 0.15625 C 1.203125 0.046875 1.453125 -0.046875 1.6875 -0.125 C 1.859375 -1.578125 2.59375 -3.078125 3.296875 -4.265625 L 3.375 -4.234375 C 3.5625 -3.625 4.40625 -0.125 4.609375 0.0625 C 4.6875 0.125 4.78125 0.15625 4.859375 0.15625 C 5.296875 0.15625 5.859375 -0.453125 6.125 -0.734375 L 6.140625 -0.796875 C 6.09375 -0.828125 6.078125 -0.875 6.015625 -0.875 Z M 6.015625 -0.875 "
           id="path23" />
      </g>
      <g
         id="glyph-2-2">
        <path
           d="M 0.46875 -2.765625 L 0.53125 -2.796875 C 0.828125 -4.21875 0.828125 -4 2.453125 -4.0625 C 2.265625 -3.296875 2.078125 -2.359375 2.078125 -1.46875 C 2.078125 -0.671875 2.15625 0.15625 2.96875 0.15625 C 3.53125 0.15625 4.03125 -0.21875 4.359375 -0.59375 L 4.375 -0.640625 L 4.265625 -0.75 L 4.21875 -0.734375 C 4.03125 -0.5625 3.796875 -0.328125 3.515625 -0.328125 C 2.96875 -0.328125 2.84375 -0.984375 2.796875 -1.375 C 2.75 -1.609375 2.734375 -1.875 2.734375 -2.140625 C 2.734375 -2.8125 2.828125 -3.53125 2.921875 -4.109375 C 3.375 -4.109375 3.90625 -4.09375 4.34375 -4.1875 L 4.375 -4.5625 L 4.328125 -4.609375 L 1.0625 -4.609375 C 1.03125 -4.609375 1 -4.609375 0.953125 -4.609375 C 0.84375 -4.609375 0.703125 -4.609375 0.65625 -4.578125 C 0.421875 -4.4375 0.375 -3.1875 0.34375 -2.859375 C 0.359375 -2.796875 0.40625 -2.78125 0.46875 -2.765625 Z M 0.46875 -2.765625 "
           id="path24" />
      </g>
      <g
         id="glyph-2-3">
        <path
           d="M 5.453125 -5.03125 C 5.28125 -6.15625 4.8125 -7 3.546875 -7 C 1.46875 -7 0.828125 -5.140625 0.828125 -3.3125 C 0.828125 -2.859375 0.875 -2.40625 0.9375 -1.984375 C 1.125 -0.796875 1.640625 0.15625 2.984375 0.15625 C 4.921875 0.15625 5.53125 -2.0625 5.53125 -3.890625 C 5.53125 -4.3125 5.5 -4.6875 5.453125 -5.03125 Z M 4.765625 -3.796875 L 1.609375 -3.796875 C 1.6875 -4.828125 2.125 -6.734375 3.40625 -6.734375 C 4.265625 -6.734375 4.59375 -5.828125 4.703125 -5.15625 C 4.75 -4.8125 4.765625 -4.453125 4.765625 -4.09375 C 4.765625 -4 4.765625 -3.890625 4.765625 -3.796875 Z M 4.765625 -3.484375 C 4.71875 -2.359375 4.53125 -0.125 3.09375 -0.125 C 2.078125 -0.125 1.796875 -1.25 1.6875 -2.03125 C 1.625 -2.40625 1.609375 -2.796875 1.609375 -3.1875 C 1.609375 -3.296875 1.609375 -3.375 1.609375 -3.484375 Z M 4.765625 -3.484375 "
           id="path25" />
      </g>
      <g
         id="glyph-2-4">
        <path
           d="M 5.390625 -0.75 C 5.21875 -0.59375 4.984375 -0.421875 4.71875 -0.421875 C 4.59375 -0.421875 4.5 -0.453125 4.375 -0.53125 C 4.0625 -0.734375 2.84375 -2.375 2.71875 -2.734375 C 2.78125 -3.109375 4.140625 -3.96875 4.578125 -3.96875 C 4.71875 -3.96875 4.828125 -3.921875 4.9375 -3.8125 L 5.03125 -3.84375 C 5.03125 -3.953125 5.046875 -4.109375 5.046875 -4.25 C 5.046875 -4.296875 5.046875 -4.34375 5.046875 -4.375 C 5 -4.609375 4.671875 -4.65625 4.5 -4.65625 C 4.046875 -4.65625 2.1875 -2.46875 2.015625 -2.265625 L 1.9375 -2.28125 C 1.9375 -2.71875 2 -3.21875 2 -3.703125 C 2 -3.96875 1.96875 -4.234375 1.9375 -4.46875 C 1.90625 -4.609375 1.828125 -4.71875 1.671875 -4.71875 C 1.28125 -4.71875 0.40625 -4.015625 0.125 -3.796875 L 0.125 -3.71875 C 0.15625 -3.671875 0.1875 -3.625 0.265625 -3.625 C 0.40625 -3.734375 0.875 -4.0625 1.0625 -4.0625 C 1.203125 -4.0625 1.25 -3.984375 1.265625 -3.875 C 1.3125 -3.53125 1.3125 -3.140625 1.3125 -2.796875 C 1.328125 -2.25 1.328125 -1.6875 1.328125 -1.140625 C 1.328125 -0.734375 1.328125 -0.34375 1.3125 0.0625 L 1.421875 0.15625 C 1.609375 0.046875 1.828125 -0.015625 2.03125 -0.109375 C 2 -0.34375 1.921875 -1.046875 1.921875 -1.515625 C 1.921875 -1.71875 1.9375 -1.890625 1.96875 -1.96875 C 2.03125 -2.046875 2.234375 -2.25 2.328125 -2.328125 C 2.515625 -2.03125 3.625 0.15625 4.296875 0.15625 C 4.765625 0.15625 5.234375 -0.3125 5.5 -0.609375 L 5.515625 -0.671875 C 5.46875 -0.703125 5.453125 -0.75 5.390625 -0.75 Z M 5.390625 -0.75 "
           id="path26" />
      </g>
    </g>
  </defs>
  <path
     fill="none"
     stroke-width="0.3985"
     stroke-linecap="butt"
     stroke-linejoin="miter"
     stroke="rgb(0%, 0%, 0%)"
     stroke-opacity="1"
     stroke-miterlimit="10"
     d="M -14.174844 -12.046844 L 14.172812 -12.046844 L 14.172812 12.046906 L -14.174844 12.046906 Z M -14.174844 -12.046844 "
     transform="matrix(1, 0, 0, -1, 24.335, 154.668)"
     id="path27" />
  <g
     fill="rgb(0%, 0%, 0%)"
     fill-opacity="1"
     id="g29">
    <use
       xlink:href="#glyph-0-0"
       x="14.455"
       y="156.136"
       id="use27" />
    <use
       xlink:href="#glyph-0-1"
       x="19.661884"
       y="156.136"
       id="use28" />
    <use
       xlink:href="#glyph-0-2"
       x="24.868769"
       y="156.136"
       id="use29" />
  </g>
  <g
     fill="rgb(0%, 0%, 0%)"
     fill-opacity="1"
     id="g30">
    <use
       xlink:href="#glyph-1-0"
       x="29.551"
       y="157.982"
       id="use30" />
  </g>
  <path
     fill="none"
     stroke-width="0.3985"
     stroke-linecap="butt"
     stroke-linejoin="miter"
     stroke="rgb(0%, 0%, 0%)"
     stroke-opacity="1"
     stroke-miterlimit="10"
     d="M 42.918906 -12.046844 L 71.266562 -12.046844 L 71.266562 12.046906 L 42.918906 12.046906 Z M 42.918906 -12.046844 "
     transform="matrix(1, 0, 0, -1, 24.335, 154.668)"
     id="path30" />
  <g
     fill="rgb(0%, 0%, 0%)"
     fill-opacity="1"
     id="g33">
    <use
       xlink:href="#glyph-0-0"
       x="71.547"
       y="156.136"
       id="use31" />
    <use
       xlink:href="#glyph-0-1"
       x="76.753884"
       y="156.136"
       id="use32" />
    <use
       xlink:href="#glyph-0-2"
       x="81.960769"
       y="156.136"
       id="use33" />
  </g>
  <g
     fill="rgb(0%, 0%, 0%)"
     fill-opacity="1"
     id="g34">
    <use
       xlink:href="#glyph-1-1"
       x="86.643"
       y="157.982"
       id="use34" />
  </g>
  <path
     fill="none"
     stroke-width="0.3985"
     stroke-linecap="butt"
     stroke-linejoin="miter"
     stroke="rgb(0%, 0%, 0%)"
     stroke-opacity="1"
     stroke-miterlimit="10"
     d="M 100.012656 -12.046844 L 128.356406 -12.046844 L 128.356406 12.046906 L 100.012656 12.046906 Z M 100.012656 -12.046844 "
     transform="matrix(1, 0, 0, -1, 24.335, 154.668)"
     id="path34" />
  <g
     fill="rgb(0%, 0%, 0%)"
     fill-opacity="1"
     id="g37">
    <use
       xlink:href="#glyph-0-0"
       x="128.638"
       y="156.136"
       id="use35" />
    <use
       xlink:href="#glyph-0-1"
       x="133.844884"
       y="156.136"
       id="use36" />
    <use
       xlink:href="#glyph-0-2"
       x="139.051769"
       y="156.136"
       id="use37" />
  </g>
  <g
     fill="rgb(0%, 0%, 0%)"
     fill-opacity="1"
     id="g38">
    <use
       xlink:href="#glyph-1-2"
       x="143.734"
       y="157.982"
       id="use38" />
  </g>
  <path
     fill="none"
     stroke-width="0.3985"
     stroke-linecap="butt"
     stroke-linejoin="miter"
     stroke="rgb(0%, 0%, 0%)"
     stroke-opacity="1"
     stroke-miterlimit="10"
     d="M 75.305625 109.535188 C 75.305625 116.187531 67.149375 121.582063 57.090781 121.582063 C 47.032187 121.582063 38.879844 116.187531 38.879844 109.535188 C 38.879844 102.878938 47.032187 97.488313 57.090781 97.488313 C 67.149375 97.488313 75.305625 102.878938 75.305625 109.535188 Z M 75.305625 109.535188 "
     transform="matrix(1, 0, 0, -1, 24.335, 154.668)"
     id="path38" />
  <g
     fill="rgb(0%, 0%, 0%)"
     fill-opacity="1"
     id="g41">
    <use
       xlink:href="#glyph-0-3"
       x="71.537"
       y="48.601"
       id="use39" />
    <use
       xlink:href="#glyph-0-4"
       x="77.783388"
       y="48.601"
       id="use40" />
    <use
       xlink:href="#glyph-0-5"
       x="85.069281"
       y="48.601"
       id="use41" />
  </g>
  <path
     fill="none"
     stroke-width="0.3985"
     stroke-linecap="butt"
     stroke-linejoin="miter"
     stroke="rgb(0%, 0%, 0%)"
     stroke-opacity="1"
     stroke-miterlimit="10"
     d="M 49.848594 124.613313 C 48.25875 133.640656 65.926719 133.640656 64.332969 124.613313 "
     transform="matrix(1, 0, 0, -1, 24.335, 154.668)"
     id="path41" />
  <path
     fill-rule="nonzero"
     fill="rgb(0%, 0%, 0%)"
     fill-opacity="1"
     stroke-width="0.3985"
     stroke-linecap="butt"
     stroke-linejoin="miter"
     stroke="rgb(0%, 0%, 0%)"
     stroke-opacity="1"
     stroke-miterlimit="10"
     d="M 3.682968 -0.000747521 L 0.644454 1.14582 L 1.644588 0.00165027 L 0.644812 -1.146904 Z M 3.682968 -0.000747521 "
     transform="matrix(0.17363, 0.9848, 0.9848, -0.17363, 73.91595, 28.53304)"
     id="path42" />
  <path
     fill-rule="nonzero"
     fill="rgb(0%, 0%, 0%)"
     fill-opacity="1"
     stroke-width="0.3985"
     stroke-linecap="butt"
     stroke-linejoin="miter"
     stroke="rgb(0%, 0%, 0%)"
     stroke-opacity="1"
     stroke-miterlimit="10"
     d="M 3.683427 -0.00185979 L 0.644593 1.148144 L 1.644369 -0.000410622 L 0.644914 -1.148427 Z M 3.683427 -0.00185979 "
     transform="matrix(-0.17363, 0.9848, 0.9848, 0.17363, 88.93826, 28.53304)"
     id="path43" />
  <path
     fill-rule="nonzero"
     fill="rgb(100%, 100%, 100%)"
     fill-opacity="1"
     d="M 73.195312 23 L 89.65625 23 L 89.65625 12.132812 L 73.195312 12.132812 Z M 73.195312 23 "
     id="path44" />
  <g
     fill="rgb(0%, 0%, 0%)"
     fill-opacity="1"
     id="g44">
    <use
       xlink:href="#glyph-2-0"
       x="73.694"
       y="19.626"
       id="use44" />
  </g>
  <g
     fill="rgb(0%, 0%, 0%)"
     fill-opacity="1"
     id="g46">
    <use
       xlink:href="#glyph-1-0"
       x="80.329"
       y="21.472"
       id="use45" />
    <use
       xlink:href="#glyph-1-0"
       x="84.494496"
       y="21.472"
       id="use46" />
  </g>
  <path
     fill="none"
     stroke-width="0.3985"
     stroke-linecap="butt"
     stroke-linejoin="miter"
     stroke="rgb(69.999695%, 69.999695%, 69.999695%)"
     stroke-opacity="1"
     stroke-miterlimit="10"
     d="M 57.090781 -69.339812 L 46.165 -88.2695 L 68.020469 -88.2695 Z M 57.090781 -69.339812 "
     transform="matrix(1, 0, 0, -1, 24.335, 154.668)"
     id="path46" />
  <g
     fill="rgb(69.999695%, 69.999695%, 69.999695%)"
     fill-opacity="1"
     id="g47">
    <use
       xlink:href="#glyph-0-6"
       x="78.823"
       y="240.091"
       id="use47" />
  </g>
  <path
     fill="none"
     stroke-width="0.3985"
     stroke-linecap="butt"
     stroke-linejoin="miter"
     stroke="rgb(0%, 0%, 0%)"
     stroke-opacity="1"
     stroke-miterlimit="10"
     d="M 50.395469 98.125031 L 1.872031 15.441438 "
     transform="matrix(1, 0, 0, -1, 24.335, 154.668)"
     id="path47" />
  <path
     fill-rule="nonzero"
     fill="rgb(0%, 0%, 0%)"
     fill-opacity="1"
     stroke-width="0.3985"
     stroke-linecap="butt"
     stroke-linejoin="miter"
     stroke="rgb(0%, 0%, 0%)"
     stroke-opacity="1"
     stroke-miterlimit="10"
     d="M 3.686579 -0.000443096 L 0.643297 1.148714 L 1.643135 0.000680272 L 0.645082 -1.146674 Z M 3.686579 -0.000443096 "
     transform="matrix(-0.5061, 0.86241, 0.86241, 0.5061, 26.99116, 137.8951)"
     id="path48" />
  <path
     fill-rule="nonzero"
     fill="rgb(100%, 100%, 100%)"
     fill-opacity="1"
     d="M 42.824219 105.394531 L 56.242188 105.394531 L 56.242188 93.566406 L 42.824219 93.566406 Z M 42.824219 105.394531 "
     id="path49" />
  <g
     fill="rgb(0%, 0%, 0%)"
     fill-opacity="1"
     id="g49">
    <use
       xlink:href="#glyph-2-1"
       x="43.919"
       y="102.057"
       id="use49" />
  </g>
  <g
     fill="rgb(0%, 0%, 0%)"
     fill-opacity="1"
     id="g50">
    <use
       xlink:href="#glyph-1-0"
       x="50.086"
       y="103.902"
       id="use50" />
  </g>
  <path
     fill="none"
     stroke-width="0.3985"
     stroke-linecap="butt"
     stroke-linejoin="miter"
     stroke="rgb(69.999695%, 69.999695%, 69.999695%)"
     stroke-opacity="1"
     stroke-miterlimit="10"
     d="M 54.184531 -73.972625 L 2.442344 -15.027312 "
     transform="matrix(1, 0, 0, -1, 24.335, 154.668)"
     id="path50" />
  <path
     fill-rule="nonzero"
     fill="rgb(69.999695%, 69.999695%, 69.999695%)"
     fill-opacity="1"
     stroke-width="0.3985"
     stroke-linecap="butt"
     stroke-linejoin="miter"
     stroke="rgb(69.999695%, 69.999695%, 69.999695%)"
     stroke-opacity="1"
     stroke-miterlimit="10"
     d="M 3.684132 -0.000446745 L 0.642073 1.146961 L 1.646779 -0.000112962 L 0.644633 -1.147638 Z M 3.684132 -0.000446745 "
     transform="matrix(-0.65968, -0.75148, -0.75148, 0.65968, 27.7972, 170.85869)"
     id="path51" />
  <path
     fill-rule="nonzero"
     fill="rgb(100%, 100%, 100%)"
     fill-opacity="1"
     d="M 45.011719 202.53125 L 57.84375 202.53125 L 57.84375 193.027344 L 45.011719 193.027344 Z M 45.011719 202.53125 "
     id="path52" />
  <g
     fill="rgb(69.999695%, 69.999695%, 69.999695%)"
     fill-opacity="1"
     id="g52">
    <use
       xlink:href="#glyph-2-2"
       x="46.506"
       y="199.189"
       id="use52" />
  </g>
  <g
     fill="rgb(69.999695%, 69.999695%, 69.999695%)"
     fill-opacity="1"
     id="g53">
    <use
       xlink:href="#glyph-1-0"
       x="51.686"
       y="201.035"
       id="use53" />
  </g>
  <g
     fill="rgb(0%, 0%, 0%)"
     fill-opacity="1"
     id="g54">
    <use
       xlink:href="#glyph-2-3"
       x="46.825"
       y="132.359"
       id="use54" />
  </g>
  <g
     fill="rgb(0%, 0%, 0%)"
     fill-opacity="1"
     id="g55">
    <use
       xlink:href="#glyph-1-0"
       x="53.041"
       y="134.205"
       id="use55" />
  </g>
  <path
     fill="none"
     stroke-width="0.3985"
     stroke-linecap="butt"
     stroke-linejoin="miter"
     stroke="rgb(0%, 0%, 0%)"
     stroke-opacity="1"
     stroke-miterlimit="10"
     d="M 23.00875 20.265656 L 17.086875 14.765656 "
     transform="matrix(1, 0, 0, -1, 24.335, 154.668)"
     id="path55" />
  <path
     fill-rule="nonzero"
     fill="rgb(0%, 0%, 0%)"
     fill-opacity="1"
     stroke-width="0.3985"
     stroke-linecap="butt"
     stroke-linejoin="miter"
     stroke="rgb(0%, 0%, 0%)"
     stroke-opacity="1"
     stroke-miterlimit="10"
     d="M 3.681883 0.00000287343 L 0.643037 1.147879 L 1.644745 -0.00082887 L 0.645097 -1.146278 Z M 3.681883 0.00000287343 "
     transform="matrix(-0.73277, 0.68042, 0.68042, 0.73277, 42.55344, 138.85024)"
     id="path56" />
  <path
     fill="none"
     stroke-width="0.3985"
     stroke-linecap="butt"
     stroke-linejoin="miter"
     stroke="rgb(0%, 0%, 0%)"
     stroke-opacity="1"
     stroke-miterlimit="10"
     d="M 57.090781 97.289094 L 57.090781 15.94925 "
     transform="matrix(1, 0, 0, -1, 24.335, 154.668)"
     id="path57" />
  <path
     fill-rule="nonzero"
     fill="rgb(0%, 0%, 0%)"
     fill-opacity="1"
     stroke-width="0.3985"
     stroke-linecap="butt"
     stroke-linejoin="miter"
     stroke="rgb(0%, 0%, 0%)"
     stroke-opacity="1"
     stroke-miterlimit="10"
     d="M 3.686385 -0.00131875 L 0.643416 1.147119 L 1.647323 -0.00131875 L 0.643416 -1.14585 Z M 3.686385 -0.00131875 "
     transform="matrix(0, 1, 1, 0, 81.4271, 137.17299)"
     id="path58" />
  <path
     fill-rule="nonzero"
     fill="rgb(100%, 100%, 100%)"
     fill-opacity="1"
     d="M 74.714844 105.816406 L 88.136719 105.816406 L 88.136719 93.988281 L 74.714844 93.988281 Z M 74.714844 105.816406 "
     id="path59" />
  <g
     fill="rgb(0%, 0%, 0%)"
     fill-opacity="1"
     id="g59">
    <use
       xlink:href="#glyph-2-1"
       x="75.812"
       y="102.476"
       id="use59" />
  </g>
  <g
     fill="rgb(0%, 0%, 0%)"
     fill-opacity="1"
     id="g60">
    <use
       xlink:href="#glyph-1-1"
       x="81.979"
       y="104.322"
       id="use60" />
  </g>
  <path
     fill="none"
     stroke-width="0.3985"
     stroke-linecap="butt"
     stroke-linejoin="miter"
     stroke="rgb(69.999695%, 69.999695%, 69.999695%)"
     stroke-opacity="1"
     stroke-miterlimit="10"
     d="M 57.090781 -68.941375 L 57.090781 -15.949187 "
     transform="matrix(1, 0, 0, -1, 24.335, 154.668)"
     id="path60" />
  <path
     fill-rule="nonzero"
     fill="rgb(69.999695%, 69.999695%, 69.999695%)"
     fill-opacity="1"
     stroke-width="0.3985"
     stroke-linecap="butt"
     stroke-linejoin="miter"
     stroke="rgb(69.999695%, 69.999695%, 69.999695%)"
     stroke-opacity="1"
     stroke-miterlimit="10"
     d="M 3.686448 0.00131875 L 0.643479 1.14585 L 1.647385 0.00131875 L 0.643479 -1.147119 Z M 3.686448 0.00131875 "
     transform="matrix(0, -1, -1, 0, 81.4271, 172.16301)"
     id="path61" />
  <path
     fill-rule="nonzero"
     fill="rgb(100%, 100%, 100%)"
     fill-opacity="1"
     d="M 75.011719 200.011719 L 87.84375 200.011719 L 87.84375 190.511719 L 75.011719 190.511719 Z M 75.011719 200.011719 "
     id="path62" />
  <g
     fill="rgb(69.999695%, 69.999695%, 69.999695%)"
     fill-opacity="1"
     id="g62">
    <use
       xlink:href="#glyph-2-2"
       x="76.504"
       y="196.672"
       id="use62" />
  </g>
  <g
     fill="rgb(69.999695%, 69.999695%, 69.999695%)"
     fill-opacity="1"
     id="g63">
    <use
       xlink:href="#glyph-1-1"
       x="81.685"
       y="198.518"
       id="use63" />
  </g>
  <g
     fill="rgb(0%, 0%, 0%)"
     fill-opacity="1"
     id="g64">
    <use
       xlink:href="#glyph-2-3"
       x="103.916"
       y="132.359"
       id="use64" />
  </g>
  <g
     fill="rgb(0%, 0%, 0%)"
     fill-opacity="1"
     id="g65">
    <use
       xlink:href="#glyph-1-1"
       x="110.133"
       y="134.205"
       id="use65" />
  </g>
  <path
     fill="none"
     stroke-width="0.3985"
     stroke-linecap="butt"
     stroke-linejoin="miter"
     stroke="rgb(0%, 0%, 0%)"
     stroke-opacity="1"
     stroke-miterlimit="10"
     d="M 80.098594 20.265656 L 74.176719 14.765656 "
     transform="matrix(1, 0, 0, -1, 24.335, 154.668)"
     id="path65" />
  <path
     fill-rule="nonzero"
     fill="rgb(0%, 0%, 0%)"
     fill-opacity="1"
     stroke-width="0.3985"
     stroke-linecap="butt"
     stroke-linejoin="miter"
     stroke="rgb(0%, 0%, 0%)"
     stroke-opacity="1"
     stroke-miterlimit="10"
     d="M 3.683543 -0.00153925 L 0.644698 1.146336 L 1.643543 0.000287104 L 0.643896 -1.145162 Z M 3.683543 -0.00153925 "
     transform="matrix(-0.73277, 0.68042, 0.68042, 0.73277, 99.64555, 138.85024)"
     id="path66" />
  <path
     fill="none"
     stroke-width="0.3985"
     stroke-linecap="butt"
     stroke-linejoin="miter"
     stroke="rgb(0%, 0%, 0%)"
     stroke-opacity="1"
     stroke-miterlimit="10"
     d="M 63.786094 98.125031 L 112.309531 15.441438 "
     transform="matrix(1, 0, 0, -1, 24.335, 154.668)"
     id="path67" />
  <path
     fill-rule="nonzero"
     fill="rgb(0%, 0%, 0%)"
     fill-opacity="1"
     stroke-width="0.3985"
     stroke-linecap="butt"
     stroke-linejoin="miter"
     stroke="rgb(0%, 0%, 0%)"
     stroke-opacity="1"
     stroke-miterlimit="10"
     d="M 3.685239 -0.00184039 L 0.645719 1.147759 L 1.643772 0.000405408 L 0.643934 -1.147629 Z M 3.685239 -0.00184039 "
     transform="matrix(0.5061, 0.86241, 0.86241, -0.5061, 135.86305, 137.8951)"
     id="path68" />
  <path
     fill-rule="nonzero"
     fill="rgb(100%, 100%, 100%)"
     fill-opacity="1"
     d="M 100.164062 105.394531 L 126.476562 105.394531 L 126.476562 93.566406 L 100.164062 93.566406 Z M 100.164062 105.394531 "
     id="path69" />
  <g
     fill="rgb(0%, 0%, 0%)"
     fill-opacity="1"
     id="g69">
    <use
       xlink:href="#glyph-2-1"
       x="101.26"
       y="102.057"
       id="use69" />
  </g>
  <g
     fill="rgb(0%, 0%, 0%)"
     fill-opacity="1"
     id="g70">
    <use
       xlink:href="#glyph-1-2"
       x="107.427"
       y="103.902"
       id="use70" />
  </g>
  <g
     fill="rgb(0%, 0%, 0%)"
     fill-opacity="1"
     id="g71">
    <use
       xlink:href="#glyph-0-7"
       x="113.197"
       y="102.057"
       id="use71" />
  </g>
  <g
     fill="rgb(0%, 0%, 0%)"
     fill-opacity="1"
     id="g72">
    <use
       xlink:href="#glyph-0-6"
       x="119.77116"
       y="102.057"
       id="use72" />
  </g>
  <path
     fill="none"
     stroke-width="0.3985"
     stroke-linecap="butt"
     stroke-linejoin="miter"
     stroke="rgb(69.999695%, 69.999695%, 69.999695%)"
     stroke-opacity="1"
     stroke-miterlimit="10"
     d="M 59.997031 -73.972625 L 111.743125 -15.027312 "
     transform="matrix(1, 0, 0, -1, 24.335, 154.668)"
     id="path72" />
  <path
     fill-rule="nonzero"
     fill="rgb(69.999695%, 69.999695%, 69.999695%)"
     fill-opacity="1"
     stroke-width="0.3985"
     stroke-linecap="butt"
     stroke-linejoin="miter"
     stroke="rgb(69.999695%, 69.999695%, 69.999695%)"
     stroke-opacity="1"
     stroke-miterlimit="10"
     d="M 3.684969 -0.00050679 L 0.64547 1.146684 L 1.645039 0.00209519 L 0.64291 -1.147915 Z M 3.684969 -0.00050679 "
     transform="matrix(0.65968, -0.75148, -0.75148, -0.65968, 135.057, 170.85869)"
     id="path73" />
  <path
     fill-rule="nonzero"
     fill="rgb(100%, 100%, 100%)"
     fill-opacity="1"
     d="M 98.566406 203.660156 L 124.289062 203.660156 L 124.289062 191.894531 L 98.566406 191.894531 Z M 98.566406 203.660156 "
     id="path74" />
  <g
     fill="rgb(69.999695%, 69.999695%, 69.999695%)"
     fill-opacity="1"
     id="g74">
    <use
       xlink:href="#glyph-2-2"
       x="100.058"
       y="200.32"
       id="use74" />
  </g>
  <g
     fill="rgb(69.999695%, 69.999695%, 69.999695%)"
     fill-opacity="1"
     id="g75">
    <use
       xlink:href="#glyph-1-2"
       x="105.239"
       y="202.166"
       id="use75" />
  </g>
  <g
     fill="rgb(69.999695%, 69.999695%, 69.999695%)"
     fill-opacity="1"
     id="g76">
    <use
       xlink:href="#glyph-0-7"
       x="111.009"
       y="200.32"
       id="use76" />
  </g>
  <g
     fill="rgb(69.999695%, 69.999695%, 69.999695%)"
     fill-opacity="1"
     id="g77">
    <use
       xlink:href="#glyph-0-8"
       x="117.58316"
       y="200.32"
       id="use77" />
  </g>
  <g
     fill="rgb(0%, 0%, 0%)"
     fill-opacity="1"
     id="g78">
    <use
       xlink:href="#glyph-2-3"
       x="161.007"
       y="132.359"
       id="use78" />
  </g>
  <g
     fill="rgb(0%, 0%, 0%)"
     fill-opacity="1"
     id="g79">
    <use
       xlink:href="#glyph-1-2"
       x="167.224"
       y="134.205"
       id="use79" />
  </g>
  <path
     fill="none"
     stroke-width="0.3985"
     stroke-linecap="butt"
     stroke-linejoin="miter"
     stroke="rgb(0%, 0%, 0%)"
     stroke-opacity="1"
     stroke-miterlimit="10"
     d="M 137.192344 20.265656 L 131.270469 14.765656 "
     transform="matrix(1, 0, 0, -1, 24.335, 154.668)"
     id="path79" />
  <path
     fill-rule="nonzero"
     fill="rgb(0%, 0%, 0%)"
     fill-opacity="1"
     stroke-width="0.3985"
     stroke-linecap="butt"
     stroke-linejoin="miter"
     stroke="rgb(0%, 0%, 0%)"
     stroke-opacity="1"
     stroke-miterlimit="10"
     d="M 3.682342 -0.000423272 L 0.643496 1.147452 L 1.645204 -0.00125502 L 0.645556 -1.146705 Z M 3.682342 -0.000423272 "
     transform="matrix(-0.73277, 0.68042, 0.68042, 0.73277, 156.73766, 138.85024)"
     id="path80" />
  <path
     fill="none"
     stroke-width="0.3985"
     stroke-linecap="butt"
     stroke-linejoin="miter"
     stroke="rgb(0%, 0%, 0%)"
     stroke-opacity="1"
     stroke-miterlimit="10"
     d="M 185.450156 -12.046844 L 213.797812 -12.046844 L 213.797812 12.046906 L 185.450156 12.046906 Z M 185.450156 -12.046844 "
     transform="matrix(1, 0, 0, -1, 24.335, 154.668)"
     id="path81" />
  <g
     fill="rgb(0%, 0%, 0%)"
     fill-opacity="1"
     id="g83">
    <use
       xlink:href="#glyph-0-9"
       x="213.813"
       y="155.937"
       id="use81" />
    <use
       xlink:href="#glyph-0-10"
       x="219.019884"
       y="155.937"
       id="use82" />
    <use
       xlink:href="#glyph-0-11"
       x="224.226769"
       y="155.937"
       id="use83" />
  </g>
  <g
     fill="rgb(0%, 0%, 0%)"
     fill-opacity="1"
     id="g84">
    <use
       xlink:href="#glyph-1-0"
       x="229.434"
       y="158.377"
       id="use84" />
  </g>
  <path
     fill="none"
     stroke-width="0.3985"
     stroke-linecap="butt"
     stroke-linejoin="miter"
     stroke="rgb(0%, 0%, 0%)"
     stroke-opacity="1"
     stroke-miterlimit="10"
     d="M 242.54 -12.046844 L 270.887656 -12.046844 L 270.887656 12.046906 L 242.54 12.046906 Z M 242.54 -12.046844 "
     transform="matrix(1, 0, 0, -1, 24.335, 154.668)"
     id="path84" />
  <g
     fill="rgb(0%, 0%, 0%)"
     fill-opacity="1"
     id="g87">
    <use
       xlink:href="#glyph-0-9"
       x="270.905"
       y="155.937"
       id="use85" />
    <use
       xlink:href="#glyph-0-10"
       x="276.111884"
       y="155.937"
       id="use86" />
    <use
       xlink:href="#glyph-0-11"
       x="281.318769"
       y="155.937"
       id="use87" />
  </g>
  <g
     fill="rgb(0%, 0%, 0%)"
     fill-opacity="1"
     id="g88">
    <use
       xlink:href="#glyph-1-1"
       x="286.525"
       y="158.377"
       id="use88" />
  </g>
  <path
     fill="none"
     stroke-width="0.3985"
     stroke-linecap="butt"
     stroke-linejoin="miter"
     stroke="rgb(0%, 0%, 0%)"
     stroke-opacity="1"
     stroke-miterlimit="10"
     d="M 299.63375 -12.046844 L 327.981406 -12.046844 L 327.981406 12.046906 L 299.63375 12.046906 Z M 299.63375 -12.046844 "
     transform="matrix(1, 0, 0, -1, 24.335, 154.668)"
     id="path88" />
  <g
     fill="rgb(0%, 0%, 0%)"
     fill-opacity="1"
     id="g91">
    <use
       xlink:href="#glyph-0-9"
       x="327.996"
       y="155.937"
       id="use89" />
    <use
       xlink:href="#glyph-0-10"
       x="333.202884"
       y="155.937"
       id="use90" />
    <use
       xlink:href="#glyph-0-11"
       x="338.409769"
       y="155.937"
       id="use91" />
  </g>
  <g
     fill="rgb(0%, 0%, 0%)"
     fill-opacity="1"
     id="g92">
    <use
       xlink:href="#glyph-1-2"
       x="343.617"
       y="158.377"
       id="use92" />
  </g>
  <path
     fill="none"
     stroke-width="0.3985"
     stroke-linecap="butt"
     stroke-linejoin="miter"
     stroke="rgb(0%, 0%, 0%)"
     stroke-opacity="1"
     stroke-miterlimit="10"
     d="M 275.293906 109.535188 C 275.293906 116.187531 266.973594 121.582063 256.715781 121.582063 C 246.454062 121.582063 238.137656 116.187531 238.137656 109.535188 C 238.137656 102.878938 246.454062 97.488313 256.715781 97.488313 C 266.973594 97.488313 275.293906 102.878938 275.293906 109.535188 Z M 275.293906 109.535188 "
     transform="matrix(1, 0, 0, -1, 24.335, 154.668)"
     id="path92" />
  <g
     fill="rgb(0%, 0%, 0%)"
     fill-opacity="1"
     id="g95">
    <use
       xlink:href="#glyph-0-12"
       x="270.9"
       y="48.601"
       id="use93" />
    <use
       xlink:href="#glyph-0-13"
       x="277.661458"
       y="48.601"
       id="use94" />
    <use
       xlink:href="#glyph-0-14"
       x="283.907846"
       y="48.601"
       id="use95" />
  </g>
  <path
     fill="none"
     stroke-width="0.3985"
     stroke-linecap="butt"
     stroke-linejoin="miter"
     stroke="rgb(0%, 0%, 0%)"
     stroke-opacity="1"
     stroke-miterlimit="10"
     d="M 249.457969 124.640656 C 247.860312 133.69925 265.57125 133.69925 263.973594 124.640656 "
     transform="matrix(1, 0, 0, -1, 24.335, 154.668)"
     id="path95" />
  <path
     fill-rule="nonzero"
     fill="rgb(0%, 0%, 0%)"
     fill-opacity="1"
     stroke-width="0.3985"
     stroke-linecap="butt"
     stroke-linejoin="miter"
     stroke="rgb(0%, 0%, 0%)"
     stroke-opacity="1"
     stroke-miterlimit="10"
     d="M 3.683984 0.00100767 L 0.645471 1.147575 L 1.644926 -0.000441501 L 0.641303 -1.148318 Z M 3.683984 0.00100767 "
     transform="matrix(0.17363, 0.9848, 0.9848, -0.17363, 273.52342, 28.505)"
     id="path96" />
  <path
     fill-rule="nonzero"
     fill="rgb(0%, 0%, 0%)"
     fill-opacity="1"
     stroke-width="0.3985"
     stroke-linecap="butt"
     stroke-linejoin="miter"
     stroke="rgb(0%, 0%, 0%)"
     stroke-opacity="1"
     stroke-miterlimit="10"
     d="M 3.6838 0.0000387012 L 0.641797 1.145517 L 1.644742 0.00148787 L 0.645286 -1.146529 Z M 3.6838 0.0000387012 "
     transform="matrix(-0.17363, 0.9848, 0.9848, 0.17363, 288.57708, 28.505)"
     id="path97" />
  <path
     fill-rule="nonzero"
     fill="rgb(100%, 100%, 100%)"
     fill-opacity="1"
     d="M 272.820312 22.949219 L 289.28125 22.949219 L 289.28125 12.082031 L 272.820312 12.082031 Z M 272.820312 22.949219 "
     id="path98" />
  <g
     fill="rgb(0%, 0%, 0%)"
     fill-opacity="1"
     id="g98">
    <use
       xlink:href="#glyph-2-0"
       x="273.315"
       y="19.575"
       id="use98" />
  </g>
  <g
     fill="rgb(0%, 0%, 0%)"
     fill-opacity="1"
     id="g100">
    <use
       xlink:href="#glyph-1-1"
       x="279.95"
       y="21.421"
       id="use99" />
    <use
       xlink:href="#glyph-1-1"
       x="284.115496"
       y="21.421"
       id="use100" />
  </g>
  <path
     fill="none"
     stroke-width="0.3985"
     stroke-linecap="butt"
     stroke-linejoin="miter"
     stroke="rgb(69.999695%, 69.999695%, 69.999695%)"
     stroke-opacity="1"
     stroke-miterlimit="10"
     d="M 256.715781 -69.339812 L 245.786094 -88.2695 L 267.641563 -88.2695 Z M 256.715781 -69.339812 "
     transform="matrix(1, 0, 0, -1, 24.335, 154.668)"
     id="path100" />
  <g
     fill="rgb(69.999695%, 69.999695%, 69.999695%)"
     fill-opacity="1"
     id="g101">
    <use
       xlink:href="#glyph-0-6"
       x="278.443"
       y="240.091"
       id="use101" />
  </g>
  <path
     fill="none"
     stroke-width="0.3985"
     stroke-linecap="butt"
     stroke-linejoin="miter"
     stroke="rgb(0%, 0%, 0%)"
     stroke-opacity="1"
     stroke-miterlimit="10"
     d="M 250.004844 98.097688 L 201.497031 15.441438 "
     transform="matrix(1, 0, 0, -1, 24.335, 154.668)"
     id="path101" />
  <path
     fill-rule="nonzero"
     fill="rgb(0%, 0%, 0%)"
     fill-opacity="1"
     stroke-width="0.3985"
     stroke-linecap="butt"
     stroke-linejoin="miter"
     stroke="rgb(0%, 0%, 0%)"
     stroke-opacity="1"
     stroke-miterlimit="10"
     d="M 3.685643 0.00115254 L 0.644338 1.146941 L 1.644175 -0.00109326 L 0.644146 -1.145078 Z M 3.685643 0.00115254 "
     transform="matrix(-0.5061, 0.86241, 0.86241, 0.5061, 226.61431, 137.8951)"
     id="path102" />
  <path
     fill-rule="nonzero"
     fill="rgb(100%, 100%, 100%)"
     fill-opacity="1"
     d="M 235.992188 105.410156 L 262.304688 105.410156 L 262.304688 93.582031 L 235.992188 93.582031 Z M 235.992188 105.410156 "
     id="path103" />
  <g
     fill="rgb(0%, 0%, 0%)"
     fill-opacity="1"
     id="g103">
    <use
       xlink:href="#glyph-2-1"
       x="237.086"
       y="102.071"
       id="use103" />
  </g>
  <g
     fill="rgb(0%, 0%, 0%)"
     fill-opacity="1"
     id="g104">
    <use
       xlink:href="#glyph-1-3"
       x="243.253"
       y="103.917"
       id="use104" />
  </g>
  <g
     fill="rgb(0%, 0%, 0%)"
     fill-opacity="1"
     id="g105">
    <use
       xlink:href="#glyph-0-7"
       x="249.024"
       y="102.071"
       id="use105" />
  </g>
  <g
     fill="rgb(0%, 0%, 0%)"
     fill-opacity="1"
     id="g106">
    <use
       xlink:href="#glyph-0-6"
       x="255.59816"
       y="102.071"
       id="use106" />
  </g>
  <path
     fill="none"
     stroke-width="0.3985"
     stroke-linecap="butt"
     stroke-linejoin="miter"
     stroke="rgb(69.999695%, 69.999695%, 69.999695%)"
     stroke-opacity="1"
     stroke-miterlimit="10"
     d="M 253.809531 -73.972625 L 202.067344 -15.027312 "
     transform="matrix(1, 0, 0, -1, 24.335, 154.668)"
     id="path106" />
  <path
     fill-rule="nonzero"
     fill="rgb(69.999695%, 69.999695%, 69.999695%)"
     fill-opacity="1"
     stroke-width="0.3985"
     stroke-linecap="butt"
     stroke-linejoin="miter"
     stroke="rgb(69.999695%, 69.999695%, 69.999695%)"
     stroke-opacity="1"
     stroke-miterlimit="10"
     d="M 3.685482 0.00109112 L 0.643423 1.148499 L 1.645552 -0.00151085 L 0.643406 -1.149035 Z M 3.685482 0.00109112 "
     transform="matrix(-0.65968, -0.75148, -0.75148, 0.65968, 227.42034, 170.85869)"
     id="path107" />
  <path
     fill-rule="nonzero"
     fill="rgb(100%, 100%, 100%)"
     fill-opacity="1"
     d="M 238.191406 203.660156 L 263.914062 203.660156 L 263.914062 191.894531 L 238.191406 191.894531 Z M 238.191406 203.660156 "
     id="path108" />
  <g
     fill="rgb(69.999695%, 69.999695%, 69.999695%)"
     fill-opacity="1"
     id="g108">
    <use
       xlink:href="#glyph-2-2"
       x="239.681"
       y="200.32"
       id="use108" />
  </g>
  <g
     fill="rgb(69.999695%, 69.999695%, 69.999695%)"
     fill-opacity="1"
     id="g109">
    <use
       xlink:href="#glyph-1-3"
       x="244.862"
       y="202.166"
       id="use109" />
  </g>
  <g
     fill="rgb(69.999695%, 69.999695%, 69.999695%)"
     fill-opacity="1"
     id="g110">
    <use
       xlink:href="#glyph-0-7"
       x="250.632"
       y="200.32"
       id="use110" />
  </g>
  <g
     fill="rgb(69.999695%, 69.999695%, 69.999695%)"
     fill-opacity="1"
     id="g111">
    <use
       xlink:href="#glyph-0-8"
       x="257.20616"
       y="200.32"
       id="use111" />
  </g>
  <g
     fill="rgb(0%, 0%, 0%)"
     fill-opacity="1"
     id="g112">
    <use
       xlink:href="#glyph-2-3"
       x="246.445"
       y="132.359"
       id="use112" />
  </g>
  <g
     fill="rgb(0%, 0%, 0%)"
     fill-opacity="1"
     id="g113">
    <use
       xlink:href="#glyph-1-3"
       x="252.662"
       y="134.205"
       id="use113" />
  </g>
  <path
     fill="none"
     stroke-width="0.3985"
     stroke-linecap="butt"
     stroke-linejoin="miter"
     stroke="rgb(0%, 0%, 0%)"
     stroke-opacity="1"
     stroke-miterlimit="10"
     d="M 222.629844 20.265656 L 216.707969 14.765656 "
     transform="matrix(1, 0, 0, -1, 24.335, 154.668)"
     id="path113" />
  <path
     fill-rule="nonzero"
     fill="rgb(0%, 0%, 0%)"
     fill-opacity="1"
     stroke-width="0.3985"
     stroke-linecap="butt"
     stroke-linejoin="miter"
     stroke="rgb(0%, 0%, 0%)"
     stroke-opacity="1"
     stroke-miterlimit="10"
     d="M 3.683397 -0.00140315 L 0.644551 1.146473 L 1.643397 0.000423199 L 0.643749 -1.145026 Z M 3.683397 -0.00140315 "
     transform="matrix(-0.73277, 0.68042, 0.68042, 0.73277, 242.1766, 138.85024)"
     id="path114" />
  <path
     fill="none"
     stroke-width="0.3985"
     stroke-linecap="butt"
     stroke-linejoin="miter"
     stroke="rgb(0%, 0%, 0%)"
     stroke-opacity="1"
     stroke-miterlimit="10"
     d="M 256.715781 97.289094 L 256.715781 15.94925 "
     transform="matrix(1, 0, 0, -1, 24.335, 154.668)"
     id="path115" />
  <path
     fill-rule="nonzero"
     fill="rgb(0%, 0%, 0%)"
     fill-opacity="1"
     stroke-width="0.3985"
     stroke-linecap="butt"
     stroke-linejoin="miter"
     stroke="rgb(0%, 0%, 0%)"
     stroke-opacity="1"
     stroke-miterlimit="10"
     d="M 3.686385 0.00052125 L 0.643416 1.145053 L 1.647323 0.00052125 L 0.643416 -1.147916 Z M 3.686385 0.00052125 "
     transform="matrix(0, 1, 1, 0, 281.05026, 137.17299)"
     id="path116" />
  <path
     fill-rule="nonzero"
     fill="rgb(100%, 100%, 100%)"
     fill-opacity="1"
     d="M 274.339844 105.816406 L 287.761719 105.816406 L 287.761719 93.988281 L 274.339844 93.988281 Z M 274.339844 105.816406 "
     id="path117" />
  <g
     fill="rgb(0%, 0%, 0%)"
     fill-opacity="1"
     id="g117">
    <use
       xlink:href="#glyph-2-1"
       x="275.432"
       y="102.476"
       id="use117" />
  </g>
  <g
     fill="rgb(0%, 0%, 0%)"
     fill-opacity="1"
     id="g118">
    <use
       xlink:href="#glyph-1-4"
       x="281.599"
       y="104.322"
       id="use118" />
  </g>
  <path
     fill="none"
     stroke-width="0.3985"
     stroke-linecap="butt"
     stroke-linejoin="miter"
     stroke="rgb(69.999695%, 69.999695%, 69.999695%)"
     stroke-opacity="1"
     stroke-miterlimit="10"
     d="M 256.715781 -68.941375 L 256.715781 -15.949187 "
     transform="matrix(1, 0, 0, -1, 24.335, 154.668)"
     id="path118" />
  <path
     fill-rule="nonzero"
     fill="rgb(69.999695%, 69.999695%, 69.999695%)"
     fill-opacity="1"
     stroke-width="0.3985"
     stroke-linecap="butt"
     stroke-linejoin="miter"
     stroke="rgb(69.999695%, 69.999695%, 69.999695%)"
     stroke-opacity="1"
     stroke-miterlimit="10"
     d="M 3.686448 -0.00052125 L 0.643479 1.147916 L 1.647385 -0.00052125 L 0.643479 -1.145053 Z M 3.686448 -0.00052125 "
     transform="matrix(0, -1, -1, 0, 281.05026, 172.16301)"
     id="path119" />
  <path
     fill-rule="nonzero"
     fill="rgb(100%, 100%, 100%)"
     fill-opacity="1"
     d="M 274.632812 200.011719 L 287.464844 200.011719 L 287.464844 190.511719 L 274.632812 190.511719 Z M 274.632812 200.011719 "
     id="path120" />
  <g
     fill="rgb(69.999695%, 69.999695%, 69.999695%)"
     fill-opacity="1"
     id="g120">
    <use
       xlink:href="#glyph-2-2"
       x="276.125"
       y="196.672"
       id="use120" />
  </g>
  <g
     fill="rgb(69.999695%, 69.999695%, 69.999695%)"
     fill-opacity="1"
     id="g121">
    <use
       xlink:href="#glyph-1-4"
       x="281.305"
       y="198.518"
       id="use121" />
  </g>
  <g
     fill="rgb(0%, 0%, 0%)"
     fill-opacity="1"
     id="g122">
    <use
       xlink:href="#glyph-2-3"
       x="303.537"
       y="132.359"
       id="use122" />
  </g>
  <g
     fill="rgb(0%, 0%, 0%)"
     fill-opacity="1"
     id="g123">
    <use
       xlink:href="#glyph-1-4"
       x="309.753"
       y="134.205"
       id="use123" />
  </g>
  <path
     fill="none"
     stroke-width="0.3985"
     stroke-linecap="butt"
     stroke-linejoin="miter"
     stroke="rgb(0%, 0%, 0%)"
     stroke-opacity="1"
     stroke-miterlimit="10"
     d="M 279.723594 20.265656 L 273.801719 14.765656 "
     transform="matrix(1, 0, 0, -1, 24.335, 154.668)"
     id="path123" />
  <path
     fill-rule="nonzero"
     fill="rgb(0%, 0%, 0%)"
     fill-opacity="1"
     stroke-width="0.3985"
     stroke-linecap="butt"
     stroke-linejoin="miter"
     stroke="rgb(0%, 0%, 0%)"
     stroke-opacity="1"
     stroke-miterlimit="10"
     d="M 3.682188 -0.000280373 L 0.643342 1.147595 L 1.64505 -0.00111212 L 0.645402 -1.146562 Z M 3.682188 -0.000280373 "
     transform="matrix(-0.73277, 0.68042, 0.68042, 0.73277, 299.2687, 138.85024)"
     id="path124" />
  <path
     fill="none"
     stroke-width="0.3985"
     stroke-linecap="butt"
     stroke-linejoin="miter"
     stroke="rgb(0%, 0%, 0%)"
     stroke-opacity="1"
     stroke-miterlimit="10"
     d="M 263.426719 98.097688 L 311.934531 15.441438 "
     transform="matrix(1, 0, 0, -1, 24.335, 154.668)"
     id="path125" />
  <path
     fill-rule="nonzero"
     fill="rgb(0%, 0%, 0%)"
     fill-opacity="1"
     stroke-width="0.3985"
     stroke-linecap="butt"
     stroke-linejoin="miter"
     stroke="rgb(0%, 0%, 0%)"
     stroke-opacity="1"
     stroke-miterlimit="10"
     d="M 3.686176 -0.000244753 L 0.644678 1.145986 L 1.644708 0.00200104 L 0.64487 -1.146033 Z M 3.686176 -0.000244753 "
     transform="matrix(0.5061, 0.86241, 0.86241, -0.5061, 335.4862, 137.8951)"
     id="path126" />
  <path
     fill-rule="nonzero"
     fill="rgb(100%, 100%, 100%)"
     fill-opacity="1"
     d="M 306.242188 105.410156 L 319.664062 105.410156 L 319.664062 93.582031 L 306.242188 93.582031 Z M 306.242188 105.410156 "
     id="path127" />
  <g
     fill="rgb(0%, 0%, 0%)"
     fill-opacity="1"
     id="g127">
    <use
       xlink:href="#glyph-2-1"
       x="307.334"
       y="102.071"
       id="use127" />
  </g>
  <g
     fill="rgb(0%, 0%, 0%)"
     fill-opacity="1"
     id="g128">
    <use
       xlink:href="#glyph-1-5"
       x="313.501"
       y="103.917"
       id="use128" />
  </g>
  <path
     fill="none"
     stroke-width="0.3985"
     stroke-linecap="butt"
     stroke-linejoin="miter"
     stroke="rgb(69.999695%, 69.999695%, 69.999695%)"
     stroke-opacity="1"
     stroke-miterlimit="10"
     d="M 259.622031 -73.972625 L 311.364219 -15.027312 "
     transform="matrix(1, 0, 0, -1, 24.335, 154.668)"
     id="path128" />
  <path
     fill-rule="nonzero"
     fill="rgb(69.999695%, 69.999695%, 69.999695%)"
     fill-opacity="1"
     stroke-width="0.3985"
     stroke-linecap="butt"
     stroke-linejoin="miter"
     stroke="rgb(69.999695%, 69.999695%, 69.999695%)"
     stroke-opacity="1"
     stroke-miterlimit="10"
     d="M 3.683612 0.0010386 L 0.644114 1.148229 L 1.64626 0.000704812 L 0.641553 -1.14637 Z M 3.683612 0.0010386 "
     transform="matrix(0.65968, -0.75148, -0.75148, -0.65968, 334.68015, 170.85869)"
     id="path129" />
  <path
     fill-rule="nonzero"
     fill="rgb(100%, 100%, 100%)"
     fill-opacity="1"
     d="M 304.632812 202.53125 L 317.464844 202.53125 L 317.464844 193.027344 L 304.632812 193.027344 Z M 304.632812 202.53125 "
     id="path130" />
  <g
     fill="rgb(69.999695%, 69.999695%, 69.999695%)"
     fill-opacity="1"
     id="g130">
    <use
       xlink:href="#glyph-2-2"
       x="306.124"
       y="199.189"
       id="use130" />
  </g>
  <g
     fill="rgb(69.999695%, 69.999695%, 69.999695%)"
     fill-opacity="1"
     id="g131">
    <use
       xlink:href="#glyph-1-5"
       x="311.304"
       y="201.035"
       id="use131" />
  </g>
  <g
     fill="rgb(0%, 0%, 0%)"
     fill-opacity="1"
     id="g132">
    <use
       xlink:href="#glyph-2-3"
       x="360.628"
       y="132.359"
       id="use132" />
  </g>
  <g
     fill="rgb(0%, 0%, 0%)"
     fill-opacity="1"
     id="g133">
    <use
       xlink:href="#glyph-1-5"
       x="366.845"
       y="134.205"
       id="use133" />
  </g>
  <path
     fill="none"
     stroke-width="0.3985"
     stroke-linecap="butt"
     stroke-linejoin="miter"
     stroke="rgb(0%, 0%, 0%)"
     stroke-opacity="1"
     stroke-miterlimit="10"
     d="M 336.813438 20.265656 L 330.891563 14.765656 "
     transform="matrix(1, 0, 0, -1, 24.335, 154.668)"
     id="path133" />
  <path
     fill-rule="nonzero"
     fill="rgb(0%, 0%, 0%)"
     fill-opacity="1"
     stroke-width="0.3985"
     stroke-linecap="butt"
     stroke-linejoin="miter"
     stroke="rgb(0%, 0%, 0%)"
     stroke-opacity="1"
     stroke-miterlimit="10"
     d="M 3.683841 -0.00181569 L 0.644996 1.14606 L 1.643841 0.0000106625 L 0.644193 -1.145439 Z M 3.683841 -0.00181569 "
     transform="matrix(-0.73277, 0.68042, 0.68042, 0.73277, 356.3608, 138.85024)"
     id="path134" />
  <path
     fill="none"
     stroke-width="0.3985"
     stroke-linecap="butt"
     stroke-linejoin="miter"
     stroke="rgb(69.999695%, 69.999695%, 69.999695%)"
     stroke-opacity="1"
     stroke-miterlimit="10"
     d="M 156.903281 122.152375 L 145.9775 103.222688 L 167.832969 103.222688 Z M 156.903281 122.152375 "
     transform="matrix(1, 0, 0, -1, 24.335, 154.668)"
     id="path135" />
  <g
     fill="rgb(69.999695%, 69.999695%, 69.999695%)"
     fill-opacity="1"
     id="g135">
    <use
       xlink:href="#glyph-0-6"
       x="178.633"
       y="48.601"
       id="use135" />
  </g>
  <path
     fill="none"
     stroke-width="0.3985"
     stroke-linecap="butt"
     stroke-linejoin="miter"
     stroke="rgb(69.999695%, 69.999695%, 69.999695%)"
     stroke-opacity="1"
     stroke-miterlimit="10"
     d="M 149.387656 109.535188 L 79.207969 109.535188 "
     transform="matrix(1, 0, 0, -1, 24.335, 154.668)"
     id="path136" />
  <path
     fill-rule="nonzero"
     fill="rgb(69.999695%, 69.999695%, 69.999695%)"
     fill-opacity="1"
     stroke-width="0.3985"
     stroke-linecap="butt"
     stroke-linejoin="miter"
     stroke="rgb(69.999695%, 69.999695%, 69.999695%)"
     stroke-opacity="1"
     stroke-miterlimit="10"
     d="M 3.684946 -0.0012875 L 0.641977 1.14715 L 1.645884 -0.0012875 L 0.641977 -1.145819 Z M 3.684946 -0.0012875 "
     transform="matrix(-1, 0, 0, 1, 105.08729, 45.1341)"
     id="path137" />
  <path
     fill-rule="nonzero"
     fill="rgb(100%, 100%, 100%)"
     fill-opacity="1"
     d="M 130.207031 49.886719 L 143.355469 49.886719 L 143.355469 40.382812 L 130.207031 40.382812 Z M 130.207031 49.886719 "
     id="path138" />
  <g
     fill="rgb(69.999695%, 69.999695%, 69.999695%)"
     fill-opacity="1"
     id="g138">
    <use
       xlink:href="#glyph-2-4"
       x="131.499"
       y="46.547"
       id="use138" />
  </g>
  <g
     fill="rgb(69.999695%, 69.999695%, 69.999695%)"
     fill-opacity="1"
     id="g139">
    <use
       xlink:href="#glyph-1-0"
       x="137.198"
       y="48.392"
       id="use139" />
  </g>
  <path
     fill="none"
     stroke-width="0.3985"
     stroke-linecap="butt"
     stroke-linejoin="miter"
     stroke="rgb(69.999695%, 69.999695%, 69.999695%)"
     stroke-opacity="1"
     stroke-miterlimit="10"
     d="M 164.418906 109.535188 L 234.235312 109.535188 "
     transform="matrix(1, 0, 0, -1, 24.335, 154.668)"
     id="path139" />
  <path
     fill-rule="nonzero"
     fill="rgb(69.999695%, 69.999695%, 69.999695%)"
     fill-opacity="1"
     stroke-width="0.3985"
     stroke-linecap="butt"
     stroke-linejoin="miter"
     stroke="rgb(69.999695%, 69.999695%, 69.999695%)"
     stroke-opacity="1"
     stroke-miterlimit="10"
     d="M 3.685078 0.0012875 L 0.642109 1.145819 L 1.646015 0.0012875 L 0.642109 -1.14715 Z M 3.685078 0.0012875 "
     transform="matrix(1, 0, 0, -1, 257.02586, 45.1341)"
     id="path140" />
  <path
     fill-rule="nonzero"
     fill="rgb(100%, 100%, 100%)"
     fill-opacity="1"
     d="M 218.9375 49.886719 L 232.089844 49.886719 L 232.089844 40.382812 L 218.9375 40.382812 Z M 218.9375 49.886719 "
     id="path141" />
  <g
     fill="rgb(69.999695%, 69.999695%, 69.999695%)"
     fill-opacity="1"
     id="g141">
    <use
       xlink:href="#glyph-2-4"
       x="220.231"
       y="46.546"
       id="use141" />
  </g>
  <g
     fill="rgb(69.999695%, 69.999695%, 69.999695%)"
     fill-opacity="1"
     id="g142">
    <use
       xlink:href="#glyph-1-1"
       x="225.93"
       y="48.392"
       id="use142" />
  </g>
  <path
     fill="none"
     stroke-width="0.3985"
     stroke-linecap="butt"
     stroke-linejoin="miter"
     stroke="rgb(0%, 0%, 0%)"
     stroke-opacity="1"
     stroke-miterlimit="10"
     d="M 74.028281 119.687531 C 109.368125 144.457063 204.25875 144.507844 239.622031 119.773469 "
     transform="matrix(1, 0, 0, -1, 24.335, 154.668)"
     id="path142" />
  <path
     fill-rule="nonzero"
     fill="rgb(0%, 0%, 0%)"
     fill-opacity="1"
     stroke-width="0.3985"
     stroke-linecap="butt"
     stroke-linejoin="miter"
     stroke="rgb(0%, 0%, 0%)"
     stroke-opacity="1"
     stroke-miterlimit="10"
     d="M 3.684513 0.00221494 L 0.642193 1.147346 L 1.645978 0.0000457993 L 0.641632 -1.146884 Z M 3.684513 0.00221494 "
     transform="matrix(-0.81883, 0.57399, 0.57399, 0.81883, 99.629, 34.09425)"
     id="path143" />
  <path
     fill-rule="nonzero"
     fill="rgb(0%, 0%, 0%)"
     fill-opacity="1"
     stroke-width="0.3985"
     stroke-linecap="butt"
     stroke-linejoin="miter"
     stroke="rgb(0%, 0%, 0%)"
     stroke-opacity="1"
     stroke-miterlimit="10"
     d="M 3.684761 -0.000219702 L 0.642126 1.1466 L 1.645275 -0.00136956 L 0.643501 -1.145382 Z M 3.684761 -0.000219702 "
     transform="matrix(0.81943, 0.57314, 0.57314, -0.81943, 262.69166, 34.00903)"
     id="path144" />
  <path
     fill-rule="nonzero"
     fill="rgb(100%, 100%, 100%)"
     fill-opacity="1"
     d="M 171.925781 23.335938 L 190.378906 23.335938 L 190.378906 10.472656 L 171.925781 10.472656 Z M 171.925781 23.335938 "
     id="path145" />
  <g
     fill="rgb(0%, 0%, 0%)"
     fill-opacity="1"
     id="g145">
    <use
       xlink:href="#glyph-2-0"
       x="173.417"
       y="18.963"
       id="use145" />
  </g>
  <g
     fill="rgb(0%, 0%, 0%)"
     fill-opacity="1"
     id="g147">
    <use
       xlink:href="#glyph-1-0"
       x="180.052"
       y="20.809"
       id="use146" />
    <use
       xlink:href="#glyph-1-1"
       x="184.217496"
       y="20.809"
       id="use147" />
  </g>
</svg>
