<?xml version="1.0" encoding="UTF-8" standalone="no"?>
<svg
   width="338.901pt"
   height="157.046pt"
   viewBox="0 0 338.901 157.046"
   version="1.1"
   id="svg114"
   sodipodi:docname="Styles3.pdf"
   xmlns:inkscape="http://www.inkscape.org/namespaces/inkscape"
   xmlns:sodipodi="http://sodipodi.sourceforge.net/DTD/sodipodi-0.dtd"
   xmlns:xlink="http://www.w3.org/1999/xlink"
   xmlns="http://www.w3.org/2000/svg"
   xmlns:svg="http://www.w3.org/2000/svg">
  <sodipodi:namedview
     id="namedview114"
     pagecolor="#ffffff"
     bordercolor="#000000"
     borderopacity="0.25"
     inkscape:showpageshadow="2"
     inkscape:pageopacity="0.0"
     inkscape:pagecheckerboard="0"
     inkscape:deskcolor="#d1d1d1"
     inkscape:document-units="pt" />
  <defs
     id="defs18">
    <g
       id="g18">
      <g
         id="glyph-0-0">
        <path
           d="M 3.671875 -3.65625 L 6.078125 -6.921875 L 5.125 -6.921875 L 3.25 -4.3125 L 1.3125 -6.921875 L 0.28125 -6.921875 L 2.828125 -3.65625 L 0.140625 0 L 1.09375 0 L 3.25 -3.046875 L 5.46875 0 L 6.5 0 Z M 3.671875 -3.65625 "
           id="path1" />
      </g>
      <g
         id="glyph-0-1">
        <path
           d="M 6.609375 -6.921875 L 5.734375 -6.921875 L 4.1875 -4.671875 C 4.140625 -4.59375 4.09375 -4.515625 4.015625 -4.40625 L 3.40625 -3.453125 C 3.21875 -3.765625 3.21875 -3.78125 3.046875 -4.03125 L 1.078125 -6.921875 L 0.03125 -6.921875 L 2.890625 -2.765625 L 2.890625 0 L 3.75 0 L 3.75 -2.765625 Z M 6.609375 -6.921875 "
           id="path2" />
      </g>
      <g
         id="glyph-0-2">
        <path
           d="M 3.984375 -2.875 C 3.984375 -3.890625 3.25 -4.59375 2.328125 -4.59375 C 1.6875 -4.59375 1.234375 -4.4375 0.765625 -4.171875 L 0.828125 -3.515625 C 1.34375 -3.875 1.84375 -4 2.328125 -4 C 2.796875 -4 3.203125 -3.609375 3.203125 -2.875 L 3.203125 -2.4375 C 1.703125 -2.421875 0.4375 -2 0.4375 -1.125 C 0.4375 -0.703125 0.703125 0.109375 1.578125 0.109375 C 1.71875 0.109375 2.65625 0.09375 3.234375 -0.359375 L 3.234375 0 L 3.984375 0 Z M 3.203125 -1.3125 C 3.203125 -1.125 3.203125 -0.875 2.859375 -0.6875 C 2.578125 -0.515625 2.1875 -0.5 2.078125 -0.5 C 1.609375 -0.5 1.15625 -0.734375 1.15625 -1.140625 C 1.15625 -1.84375 2.765625 -1.90625 3.203125 -1.9375 Z M 3.203125 -1.3125 "
           id="path3" />
      </g>
      <g
         id="glyph-0-3">
        <path
           d="M 1.171875 2.5 C 1.484375 2.1875 2.15625 1.578125 2.609375 0.359375 C 3.015625 -0.703125 3.078125 -1.765625 3.078125 -2.5 C 3.078125 -5.71875 1.640625 -7.03125 1.171875 -7.484375 L 0.5625 -7.484375 C 1.03125 -7 2.296875 -5.71875 2.296875 -2.5 C 2.296875 -1.9375 2.265625 -0.765625 1.859375 0.40625 C 1.453125 1.5625 0.890625 2.15625 0.5625 2.5 Z M 1.171875 2.5 "
           id="path4" />
      </g>
      <g
         id="glyph-0-4">
        <path
           d="M 3.765625 -6.921875 L 2.875 -6.921875 L 0.28125 0 L 1.015625 0 L 1.78125 -2.03125 L 4.6875 -2.03125 L 5.4375 0 L 6.359375 0 Z M 4.46875 -2.59375 L 2 -2.59375 L 2.640625 -4.390625 C 2.84375 -4.984375 3.15625 -5.828125 3.234375 -6.203125 C 3.265625 -6.0625 3.328125 -5.8125 3.5625 -5.15625 Z M 4.46875 -2.59375 "
           id="path5" />
      </g>
      <g
         id="glyph-0-5">
        <path
           d="M 1.5625 -2.140625 C 1.5625 -3.125 2.28125 -3.84375 3.265625 -3.875 L 3.265625 -4.53125 C 2.375 -4.53125 1.828125 -4.03125 1.515625 -3.578125 L 1.515625 -4.484375 L 0.8125 -4.484375 L 0.8125 0 L 1.5625 0 Z M 1.5625 -2.140625 "
           id="path6" />
      </g>
      <g
         id="glyph-0-6">
        <path
           d="M 4.671875 -2.1875 C 4.671875 -3.53125 3.671875 -4.59375 2.5 -4.59375 C 1.265625 -4.59375 0.296875 -3.5 0.296875 -2.1875 C 0.296875 -0.875 1.3125 0.109375 2.484375 0.109375 C 3.671875 0.109375 4.671875 -0.890625 4.671875 -2.1875 Z M 2.484375 -0.53125 C 1.796875 -0.53125 1.078125 -1.09375 1.078125 -2.296875 C 1.078125 -3.5 1.828125 -3.984375 2.484375 -3.984375 C 3.1875 -3.984375 3.890625 -3.46875 3.890625 -2.296875 C 3.890625 -1.109375 3.21875 -0.53125 2.484375 -0.53125 Z M 2.484375 -0.53125 "
           id="path7" />
      </g>
      <g
         id="glyph-0-7">
        <path
           d="M 6.65625 -4.421875 L 5.9375 -4.421875 L 5.296875 -2.3125 C 5.1875 -1.953125 4.890625 -0.96875 4.828125 -0.53125 C 4.78125 -0.84375 4.53125 -1.734375 4.359375 -2.296875 L 3.71875 -4.421875 L 3.015625 -4.421875 L 2.453125 -2.546875 C 2.34375 -2.203125 2 -1.0625 1.96875 -0.546875 L 1.953125 -0.546875 C 1.90625 -1.03125 1.578125 -2.15625 1.421875 -2.703125 L 0.890625 -4.421875 L 0.140625 -4.421875 L 1.5 0 L 2.296875 0 C 2.34375 -0.15625 2.6875 -1.28125 2.90625 -2.046875 C 3.046875 -2.515625 3.328125 -3.5 3.359375 -3.875 L 3.375 -3.875 C 3.390625 -3.59375 3.5625 -2.90625 3.6875 -2.46875 L 4.421875 0 L 5.296875 0 Z M 6.65625 -4.421875 "
           id="path8" />
      </g>
      <g
         id="glyph-0-8">
        <path
           d="M 4.34375 -2.96875 C 4.34375 -3.625 4.1875 -4.53125 2.96875 -4.53125 C 2.078125 -4.53125 1.578125 -3.859375 1.53125 -3.78125 L 1.53125 -4.484375 L 0.8125 -4.484375 L 0.8125 0 L 1.578125 0 L 1.578125 -2.4375 C 1.578125 -3.09375 1.828125 -3.921875 2.59375 -3.921875 C 3.546875 -3.921875 3.5625 -3.21875 3.5625 -2.90625 L 3.5625 0 L 4.34375 0 Z M 4.34375 -2.96875 "
           id="path9" />
      </g>
      <g
         id="glyph-0-9">
        <path
           d="M 1.5625 -6.921875 L 0.8125 -6.921875 L 0.8125 0 L 1.5625 0 Z M 1.5625 -6.921875 "
           id="path10" />
      </g>
      <g
         id="glyph-0-10">
        <path
           d="M 4.453125 -4.421875 L 3.703125 -4.421875 C 2.40625 -1.25 2.375 -0.796875 2.375 -0.5625 L 2.359375 -0.5625 C 2.296875 -1.234375 1.5 -3.09375 1.46875 -3.1875 L 0.921875 -4.421875 L 0.140625 -4.421875 L 2.078125 0 C 1.953125 0.3125 1.75 0.8125 1.71875 0.890625 C 1.453125 1.46875 1.28125 1.46875 1.140625 1.46875 C 0.984375 1.46875 0.671875 1.4375 0.375 1.3125 L 0.421875 1.96875 C 0.640625 2.015625 0.921875 2.046875 1.140625 2.046875 C 1.5 2.046875 1.859375 1.921875 2.265625 0.90625 Z M 4.453125 -4.421875 "
           id="path11" />
      </g>
      <g
         id="glyph-0-11">
        <path
           d="M 1.5625 -6.921875 L 0.8125 -6.921875 L 0.8125 0 L 1.59375 0 L 1.59375 -0.453125 C 1.828125 -0.234375 2.265625 0.109375 2.9375 0.109375 C 3.921875 0.109375 4.78125 -0.890625 4.78125 -2.21875 C 4.78125 -3.453125 4.109375 -4.53125 3.171875 -4.53125 C 2.78125 -4.53125 2.15625 -4.4375 1.5625 -3.953125 Z M 1.59375 -3.34375 C 1.75 -3.578125 2.109375 -3.921875 2.65625 -3.921875 C 3.25 -3.921875 4 -3.5 4 -2.21875 C 4 -0.921875 3.171875 -0.5 2.5625 -0.5 C 2.171875 -0.5 1.84375 -0.671875 1.59375 -1.140625 Z M 1.59375 -3.34375 "
           id="path12" />
      </g>
      <g
         id="glyph-0-12">
        <path
           d="M 4.328125 -6.921875 L 3.578125 -6.921875 L 3.578125 -3.984375 C 3.046875 -4.421875 2.5 -4.53125 2.125 -4.53125 C 1.140625 -4.53125 0.359375 -3.5 0.359375 -2.21875 C 0.359375 -0.90625 1.125 0.109375 2.078125 0.109375 C 2.40625 0.109375 2.984375 0.015625 3.546875 -0.515625 L 3.546875 0 L 4.328125 0 Z M 3.546875 -1.390625 C 3.546875 -1.25 3.53125 -1.0625 3.21875 -0.78125 C 2.984375 -0.578125 2.734375 -0.5 2.484375 -0.5 C 1.859375 -0.5 1.140625 -0.96875 1.140625 -2.203125 C 1.140625 -3.515625 2 -3.921875 2.578125 -3.921875 C 3.03125 -3.921875 3.328125 -3.703125 3.546875 -3.375 Z M 3.546875 -1.390625 "
           id="path13" />
      </g>
      <g
         id="glyph-0-13">
        <path
           d="M 4.125 -2.1875 C 4.125 -2.515625 4.109375 -3.265625 3.734375 -3.875 C 3.3125 -4.484375 2.71875 -4.59375 2.359375 -4.59375 C 1.25 -4.59375 0.34375 -3.53125 0.34375 -2.25 C 0.34375 -0.9375 1.3125 0.109375 2.5 0.109375 C 3.125 0.109375 3.703125 -0.125 4.09375 -0.40625 L 4.03125 -1.0625 C 3.40625 -0.53125 2.734375 -0.5 2.515625 -0.5 C 1.71875 -0.5 1.078125 -1.203125 1.046875 -2.1875 Z M 1.09375 -2.734375 C 1.25 -3.484375 1.78125 -3.984375 2.359375 -3.984375 C 2.875 -3.984375 3.421875 -3.65625 3.5625 -2.734375 Z M 1.09375 -2.734375 "
           id="path14" />
      </g>
      <g
         id="glyph-0-14">
        <path
           d="M 4.09375 -4.171875 C 3.5 -4.5 3.15625 -4.59375 2.546875 -4.59375 C 1.171875 -4.59375 0.359375 -3.390625 0.359375 -2.21875 C 0.359375 -0.984375 1.265625 0.109375 2.515625 0.109375 C 3.046875 0.109375 3.59375 -0.03125 4.140625 -0.40625 L 4.078125 -1.0625 C 3.5625 -0.671875 3.03125 -0.53125 2.515625 -0.53125 C 1.6875 -0.53125 1.140625 -1.25 1.140625 -2.21875 C 1.140625 -3 1.5 -3.953125 2.5625 -3.953125 C 3.078125 -3.953125 3.421875 -3.875 3.96875 -3.515625 Z M 4.09375 -4.171875 "
           id="path15" />
      </g>
      <g
         id="glyph-0-15">
        <path
           d="M 1.625 -6.78125 L 0.734375 -6.78125 L 0.734375 -5.890625 L 1.625 -5.890625 Z M 1.5625 -4.421875 L 0.8125 -4.421875 L 0.8125 0 L 1.5625 0 Z M 1.5625 -4.421875 "
           id="path16" />
      </g>
      <g
         id="glyph-0-16">
        <path
           d="M 1.796875 -0.015625 L 1.796875 -0.828125 L 0.96875 -0.828125 L 0.96875 0 L 1.21875 0 L 0.96875 1.25 L 1.375 1.25 Z M 1.796875 -0.015625 "
           id="path17" />
      </g>
      <g
         id="glyph-0-17">
        <path
           d="M 4.453125 -4.421875 L 3.703125 -4.421875 L 2.90625 -2.359375 C 2.703125 -1.796875 2.390625 -1 2.3125 -0.53125 L 2.296875 -0.53125 C 2.25 -0.890625 1.984375 -1.578125 1.890625 -1.84375 L 0.921875 -4.421875 L 0.140625 -4.421875 L 1.859375 0 L 2.734375 0 Z M 4.453125 -4.421875 "
           id="path18" />
      </g>
    </g>
  </defs>
  <path
     fill="none"
     stroke-width="0.3985"
     stroke-linecap="butt"
     stroke-linejoin="miter"
     stroke="rgb(0%, 0%, 0%)"
     stroke-opacity="1"
     stroke-miterlimit="10"
     d="M -14.174844 -12.049344 L 14.172812 -12.049344 L 14.172812 12.048312 L -14.174844 12.048312 Z M -14.174844 -12.049344 "
     transform="matrix(1, 0, 0, -1, 24.335, 34.853)"
     id="path19" />
  <g
     fill="rgb(0%, 0%, 0%)"
     fill-opacity="1"
     id="g19">
    <use
       xlink:href="#glyph-0-0"
       x="21.014"
       y="38.313"
       id="use19" />
  </g>
  <path
     fill="none"
     stroke-width="0.3985"
     stroke-linecap="butt"
     stroke-linejoin="miter"
     stroke="rgb(0%, 0%, 0%)"
     stroke-opacity="1"
     stroke-miterlimit="10"
     d="M 71.266562 -12.049344 L 99.614219 -12.049344 L 99.614219 12.048312 L 71.266562 12.048312 Z M 71.266562 -12.049344 "
     transform="matrix(1, 0, 0, -1, 24.335, 34.853)"
     id="path20" />
  <g
     fill="rgb(0%, 0%, 0%)"
     fill-opacity="1"
     id="g20">
    <use
       xlink:href="#glyph-0-1"
       x="106.452"
       y="38.313"
       id="use20" />
  </g>
  <path
     fill="none"
     stroke-width="0.3985"
     stroke-linecap="butt"
     stroke-linejoin="miter"
     stroke="rgb(0%, 0%, 0%)"
     stroke-opacity="1"
     stroke-miterlimit="10"
     d="M 14.372031 0.0014375 L 67.364219 0.0014375 "
     transform="matrix(1, 0, 0, -1, 24.335, 34.853)"
     id="path21" />
  <path
     fill-rule="nonzero"
     fill="rgb(0%, 0%, 0%)"
     fill-opacity="1"
     stroke-width="0.3985"
     stroke-linecap="butt"
     stroke-linejoin="miter"
     stroke="rgb(0%, 0%, 0%)"
     stroke-opacity="1"
     stroke-miterlimit="10"
     d="M 3.682938 0.0014375 L 0.643875 1.145969 L 1.643875 0.0014375 L 0.643875 -1.147 Z M 3.682938 0.0014375 "
     transform="matrix(1, 0, 0, -1, 90.153, 34.853)"
     id="path22" />
  <g
     fill="rgb(0%, 0%, 0%)"
     fill-opacity="1"
     id="g23">
    <use
       xlink:href="#glyph-0-2"
       x="10.361"
       y="59.553"
       id="use22" />
    <use
       xlink:href="#glyph-0-3"
       x="15.149026"
       y="59.553"
       id="use23" />
  </g>
  <g
     fill="rgb(0%, 0%, 0%)"
     fill-opacity="1"
     id="g27">
    <use
       xlink:href="#glyph-0-4"
       x="22.341027"
       y="59.553"
       id="use24" />
    <use
       xlink:href="#glyph-0-5"
       x="28.983092"
       y="59.553"
       id="use25" />
    <use
       xlink:href="#glyph-0-5"
       x="32.387312"
       y="59.553"
       id="use26" />
    <use
       xlink:href="#glyph-0-6"
       x="35.791533"
       y="59.553"
       id="use27" />
  </g>
  <g
     fill="rgb(0%, 0%, 0%)"
     fill-opacity="1"
     id="g28">
    <use
       xlink:href="#glyph-0-7"
       x="40.49388"
       y="59.553"
       id="use28" />
  </g>
  <g
     fill="rgb(0%, 0%, 0%)"
     fill-opacity="1"
     id="g32">
    <use
       xlink:href="#glyph-0-6"
       x="50.628833"
       y="59.553"
       id="use29" />
    <use
       xlink:href="#glyph-0-8"
       x="55.610133"
       y="59.553"
       id="use30" />
    <use
       xlink:href="#glyph-0-9"
       x="60.757808"
       y="59.553"
       id="use31" />
    <use
       xlink:href="#glyph-0-10"
       x="63.137873"
       y="59.553"
       id="use32" />
  </g>
  <path
     fill="none"
     stroke-width="0.3985"
     stroke-linecap="butt"
     stroke-linejoin="miter"
     stroke="rgb(0%, 0%, 0%)"
     stroke-opacity="1"
     stroke-miterlimit="10"
     d="M 107.829062 20.263156 L 102.430625 14.864719 "
     transform="matrix(1, 0, 0, -1, 24.335, 34.853)"
     id="path32" />
  <path
     fill-rule="nonzero"
     fill="rgb(0%, 0%, 0%)"
     fill-opacity="1"
     stroke-width="0.3985"
     stroke-linecap="butt"
     stroke-linejoin="miter"
     stroke="rgb(0%, 0%, 0%)"
     stroke-opacity="1"
     stroke-miterlimit="10"
     d="M 3.683053 0.000739818 L 0.641912 1.147037 L 1.644577 0.000739818 L 0.644675 -1.14832 Z M 3.683053 0.000739818 "
     transform="matrix(-0.7071, 0.7071, 0.7071, 0.7071, 127.85767, 18.89519)"
     id="path33" />
  <path
     fill="none"
     stroke-width="0.3985"
     stroke-linecap="butt"
     stroke-linejoin="miter"
     stroke="rgb(0%, 0%, 0%)"
     stroke-opacity="1"
     stroke-miterlimit="10"
     d="M 155.907187 -12.049344 L 184.254844 -12.049344 L 184.254844 12.048312 L 155.907187 12.048312 Z M 155.907187 -12.049344 "
     transform="matrix(1, 0, 0, -1, 24.335, 34.853)"
     id="path34" />
  <g
     fill="rgb(0%, 0%, 0%)"
     fill-opacity="1"
     id="g34">
    <use
       xlink:href="#glyph-0-0"
       x="191.093"
       y="38.313"
       id="use34" />
  </g>
  <path
     fill="none"
     stroke-width="0.3985"
     stroke-linecap="butt"
     stroke-linejoin="miter"
     stroke="rgb(0%, 0%, 0%)"
     stroke-opacity="1"
     stroke-miterlimit="10"
     d="M 241.344687 -12.049344 L 269.692344 -12.049344 L 269.692344 12.048312 L 241.344687 12.048312 Z M 241.344687 -12.049344 "
     transform="matrix(1, 0, 0, -1, 24.335, 34.853)"
     id="path35" />
  <g
     fill="rgb(0%, 0%, 0%)"
     fill-opacity="1"
     id="g35">
    <use
       xlink:href="#glyph-0-1"
       x="276.531"
       y="38.313"
       id="use35" />
  </g>
  <path
     fill="none"
     stroke-width="0.3985"
     stroke-linecap="butt"
     stroke-linejoin="miter"
     stroke="rgb(0%, 0%, 0%)"
     stroke-opacity="1"
     stroke-miterlimit="10"
     d="M 184.454062 0.0014375 L 237.44625 0.0014375 "
     transform="matrix(1, 0, 0, -1, 24.335, 34.853)"
     id="path36" />
  <path
     fill-rule="nonzero"
     fill="rgb(0%, 0%, 0%)"
     fill-opacity="1"
     stroke-width="0.3985"
     stroke-linecap="butt"
     stroke-linejoin="miter"
     stroke="rgb(0%, 0%, 0%)"
     stroke-opacity="1"
     stroke-miterlimit="10"
     d="M 3.684059 0.0014375 L 0.644996 1.145969 L 1.644996 0.0014375 L 0.644996 -1.147 Z M 3.684059 0.0014375 "
     transform="matrix(1, 0, 0, -1, 260.23391, 34.853)"
     id="path37" />
  <g
     fill="rgb(0%, 0%, 0%)"
     fill-opacity="1"
     id="g38">
    <use
       xlink:href="#glyph-0-11"
       x="180.44"
       y="59.553"
       id="use37" />
    <use
       xlink:href="#glyph-0-3"
       x="185.587675"
       y="59.553"
       id="use38" />
  </g>
  <g
     fill="rgb(0%, 0%, 0%)"
     fill-opacity="1"
     id="g42">
    <use
       xlink:href="#glyph-0-4"
       x="192.779676"
       y="59.553"
       id="use39" />
    <use
       xlink:href="#glyph-0-5"
       x="199.421742"
       y="59.553"
       id="use40" />
    <use
       xlink:href="#glyph-0-5"
       x="202.825962"
       y="59.553"
       id="use41" />
    <use
       xlink:href="#glyph-0-6"
       x="206.230183"
       y="59.553"
       id="use42" />
  </g>
  <g
     fill="rgb(0%, 0%, 0%)"
     fill-opacity="1"
     id="g43">
    <use
       xlink:href="#glyph-0-7"
       x="210.93253"
       y="59.553"
       id="use43" />
  </g>
  <g
     fill="rgb(0%, 0%, 0%)"
     fill-opacity="1"
     id="g46">
    <use
       xlink:href="#glyph-0-2"
       x="221.067483"
       y="59.553"
       id="use44" />
    <use
       xlink:href="#glyph-0-8"
       x="225.855508"
       y="59.553"
       id="use45" />
    <use
       xlink:href="#glyph-0-12"
       x="231.003184"
       y="59.553"
       id="use46" />
  </g>
  <g
     fill="rgb(0%, 0%, 0%)"
     fill-opacity="1"
     id="g49">
    <use
       xlink:href="#glyph-0-9"
       x="239.468405"
       y="59.553"
       id="use47" />
    <use
       xlink:href="#glyph-0-2"
       x="241.84847"
       y="59.553"
       id="use48" />
    <use
       xlink:href="#glyph-0-11"
       x="246.636496"
       y="59.553"
       id="use49" />
  </g>
  <g
     fill="rgb(0%, 0%, 0%)"
     fill-opacity="1"
     id="g51">
    <use
       xlink:href="#glyph-0-13"
       x="252.063124"
       y="59.553"
       id="use50" />
    <use
       xlink:href="#glyph-0-9"
       x="256.490503"
       y="59.553"
       id="use51" />
  </g>
  <g
     fill="rgb(0%, 0%, 0%)"
     fill-opacity="1"
     id="g52">
    <use
       xlink:href="#glyph-0-13"
       x="302.441"
       y="14.39"
       id="use52" />
  </g>
  <path
     fill="none"
     stroke-width="0.3985"
     stroke-linecap="butt"
     stroke-linejoin="miter"
     stroke="rgb(0%, 0%, 0%)"
     stroke-opacity="1"
     stroke-miterlimit="10"
     d="M 277.911094 20.263156 L 272.50875 14.864719 "
     transform="matrix(1, 0, 0, -1, 24.335, 34.853)"
     id="path52" />
  <path
     fill-rule="nonzero"
     fill="rgb(0%, 0%, 0%)"
     fill-opacity="1"
     stroke-width="0.3985"
     stroke-linecap="butt"
     stroke-linejoin="miter"
     stroke="rgb(0%, 0%, 0%)"
     stroke-opacity="1"
     stroke-miterlimit="10"
     d="M 3.684976 -0.00129054 L 0.643776 1.14498 L 1.646471 -0.00131937 L 0.643808 -1.147647 Z M 3.684976 -0.00129054 "
     transform="matrix(-0.7071, 0.70708, 0.70708, 0.7071, 297.93859, 18.89534)"
     id="path53" />
  <path
     fill="none"
     stroke-width="0.3985"
     stroke-linecap="butt"
     stroke-linejoin="miter"
     stroke="rgb(0%, 0%, 0%)"
     stroke-opacity="1"
     stroke-miterlimit="10"
     d="M -14.174844 -97.088406 L 14.172812 -97.088406 L 14.172812 -72.994656 L -14.174844 -72.994656 Z M -14.174844 -97.088406 "
     transform="matrix(1, 0, 0, -1, 24.335, 34.853)"
     id="path54" />
  <g
     fill="rgb(0%, 0%, 0%)"
     fill-opacity="1"
     id="g54">
    <use
       xlink:href="#glyph-0-0"
       x="21.014"
       y="123.352"
       id="use54" />
  </g>
  <path
     fill="none"
     stroke-width="0.3985"
     stroke-linecap="butt"
     stroke-linejoin="miter"
     stroke="rgb(0%, 0%, 0%)"
     stroke-opacity="1"
     stroke-miterlimit="10"
     d="M 71.266562 -97.088406 L 99.614219 -97.088406 L 99.614219 -72.994656 L 71.266562 -72.994656 Z M 71.266562 -97.088406 "
     transform="matrix(1, 0, 0, -1, 24.335, 34.853)"
     id="path55" />
  <g
     fill="rgb(0%, 0%, 0%)"
     fill-opacity="1"
     id="g55">
    <use
       xlink:href="#glyph-0-1"
       x="106.452"
       y="123.352"
       id="use55" />
  </g>
  <path
     fill="none"
     stroke-width="0.3985"
     stroke-linecap="butt"
     stroke-linejoin="miter"
     stroke="rgb(0%, 0%, 0%)"
     stroke-opacity="1"
     stroke-miterlimit="10"
     d="M 14.372031 -85.041531 L 67.364219 -85.041531 "
     transform="matrix(1, 0, 0, -1, 24.335, 34.853)"
     id="path56" />
  <path
     fill-rule="nonzero"
     fill="rgb(0%, 0%, 0%)"
     fill-opacity="1"
     stroke-width="0.3985"
     stroke-linecap="butt"
     stroke-linejoin="miter"
     stroke="rgb(0%, 0%, 0%)"
     stroke-opacity="1"
     stroke-miterlimit="10"
     d="M 3.682938 -0.00108125 L 0.643875 1.147356 L 1.643875 -0.00108125 L 0.643875 -1.145612 Z M 3.682938 -0.00108125 "
     transform="matrix(1, 0, 0, -1, 90.153, 119.89345)"
     id="path57" />
  <g
     fill="rgb(0%, 0%, 0%)"
     fill-opacity="1"
     id="g58">
    <use
       xlink:href="#glyph-0-14"
       x="10.361"
       y="144.593"
       id="use57" />
    <use
       xlink:href="#glyph-0-3"
       x="14.788379"
       y="144.593"
       id="use58" />
  </g>
  <g
     fill="rgb(0%, 0%, 0%)"
     fill-opacity="1"
     id="g62">
    <use
       xlink:href="#glyph-0-4"
       x="21.98038"
       y="144.593"
       id="use59" />
    <use
       xlink:href="#glyph-0-5"
       x="28.622446"
       y="144.593"
       id="use60" />
    <use
       xlink:href="#glyph-0-5"
       x="32.026666"
       y="144.593"
       id="use61" />
    <use
       xlink:href="#glyph-0-6"
       x="35.430887"
       y="144.593"
       id="use62" />
  </g>
  <g
     fill="rgb(0%, 0%, 0%)"
     fill-opacity="1"
     id="g63">
    <use
       xlink:href="#glyph-0-7"
       x="40.143196"
       y="144.593"
       id="use63" />
  </g>
  <g
     fill="rgb(0%, 0%, 0%)"
     fill-opacity="1"
     id="g66">
    <use
       xlink:href="#glyph-0-2"
       x="50.268187"
       y="144.593"
       id="use64" />
    <use
       xlink:href="#glyph-0-8"
       x="55.056212"
       y="144.593"
       id="use65" />
    <use
       xlink:href="#glyph-0-12"
       x="60.203888"
       y="144.593"
       id="use66" />
  </g>
  <g
     fill="rgb(0%, 0%, 0%)"
     fill-opacity="1"
     id="g72">
    <use
       xlink:href="#glyph-0-14"
       x="68.669109"
       y="144.593"
       id="use67" />
    <use
       xlink:href="#glyph-0-15"
       x="73.096488"
       y="144.593"
       id="use68" />
    <use
       xlink:href="#glyph-0-5"
       x="75.476554"
       y="144.593"
       id="use69" />
    <use
       xlink:href="#glyph-0-14"
       x="78.880774"
       y="144.593"
       id="use70" />
    <use
       xlink:href="#glyph-0-9"
       x="83.308153"
       y="144.593"
       id="use71" />
    <use
       xlink:href="#glyph-0-13"
       x="85.688219"
       y="144.593"
       id="use72" />
  </g>
  <path
     fill="none"
     stroke-width="0.3985"
     stroke-linecap="butt"
     stroke-linejoin="miter"
     stroke="rgb(0%, 0%, 0%)"
     stroke-opacity="1"
     stroke-miterlimit="10"
     d="M 117.649375 -60.627469 C 117.649375 -57.494656 115.110312 -54.955594 111.9775 -54.955594 C 108.848594 -54.955594 106.309531 -57.494656 106.309531 -60.627469 C 106.309531 -63.756375 108.848594 -66.295438 111.9775 -66.295438 C 115.110312 -66.295438 117.649375 -63.756375 117.649375 -60.627469 Z M 117.649375 -60.627469 "
     transform="matrix(1, 0, 0, -1, 24.335, 34.853)"
     id="path72" />
  <path
     fill="none"
     stroke-width="0.3985"
     stroke-linecap="butt"
     stroke-linejoin="miter"
     stroke="rgb(0%, 0%, 0%)"
     stroke-opacity="1"
     stroke-miterlimit="10"
     d="M 107.829062 -64.775906 L 102.430625 -70.174344 "
     transform="matrix(1, 0, 0, -1, 24.335, 34.853)"
     id="path73" />
  <path
     fill-rule="nonzero"
     fill="rgb(0%, 0%, 0%)"
     fill-opacity="1"
     stroke-width="0.3985"
     stroke-linecap="butt"
     stroke-linejoin="miter"
     stroke="rgb(0%, 0%, 0%)"
     stroke-opacity="1"
     stroke-miterlimit="10"
     d="M 3.682079 -0.000234231 L 0.643701 1.148825 L 1.643603 -0.000234231 L 0.643701 -1.149294 Z M 3.682079 -0.000234231 "
     transform="matrix(-0.7071, 0.7071, 0.7071, 0.7071, 127.85767, 103.93563)"
     id="path74" />
  <path
     fill="none"
     stroke-width="0.3985"
     stroke-linecap="butt"
     stroke-linejoin="miter"
     stroke="rgb(0%, 0%, 0%)"
     stroke-opacity="1"
     stroke-miterlimit="10"
     d="M 155.907187 -97.088406 L 184.254844 -97.088406 L 184.254844 -72.994656 L 155.907187 -72.994656 Z M 155.907187 -97.088406 "
     transform="matrix(1, 0, 0, -1, 24.335, 34.853)"
     id="path75" />
  <g
     fill="rgb(0%, 0%, 0%)"
     fill-opacity="1"
     id="g75">
    <use
       xlink:href="#glyph-0-0"
       x="191.093"
       y="123.352"
       id="use75" />
  </g>
  <path
     fill="none"
     stroke-width="0.3985"
     stroke-linecap="butt"
     stroke-linejoin="miter"
     stroke="rgb(0%, 0%, 0%)"
     stroke-opacity="1"
     stroke-miterlimit="10"
     d="M 241.344687 -97.088406 L 269.692344 -97.088406 L 269.692344 -72.994656 L 241.344687 -72.994656 Z M 241.344687 -97.088406 "
     transform="matrix(1, 0, 0, -1, 24.335, 34.853)"
     id="path76" />
  <g
     fill="rgb(0%, 0%, 0%)"
     fill-opacity="1"
     id="g76">
    <use
       xlink:href="#glyph-0-1"
       x="276.531"
       y="123.352"
       id="use76" />
  </g>
  <path
     fill="none"
     stroke-width="0.3985"
     stroke-linecap="butt"
     stroke-linejoin="miter"
     stroke="rgb(0%, 0%, 0%)"
     stroke-opacity="1"
     stroke-miterlimit="10"
     d="M 184.454062 -85.041531 L 237.44625 -85.041531 "
     transform="matrix(1, 0, 0, -1, 24.335, 34.853)"
     id="path77" />
  <path
     fill-rule="nonzero"
     fill="rgb(0%, 0%, 0%)"
     fill-opacity="1"
     stroke-width="0.3985"
     stroke-linecap="butt"
     stroke-linejoin="miter"
     stroke="rgb(0%, 0%, 0%)"
     stroke-opacity="1"
     stroke-miterlimit="10"
     d="M 3.684059 -0.00108125 L 0.644996 1.147356 L 1.644996 -0.00108125 L 0.644996 -1.145612 Z M 3.684059 -0.00108125 "
     transform="matrix(1, 0, 0, -1, 260.23391, 119.89345)"
     id="path78" />
  <g
     fill="rgb(0%, 0%, 0%)"
     fill-opacity="1"
     id="g79">
    <use
       xlink:href="#glyph-0-12"
       x="180.44"
       y="144.593"
       id="use78" />
    <use
       xlink:href="#glyph-0-3"
       x="185.587675"
       y="144.593"
       id="use79" />
  </g>
  <g
     fill="rgb(0%, 0%, 0%)"
     fill-opacity="1"
     id="g83">
    <use
       xlink:href="#glyph-0-4"
       x="192.779676"
       y="144.593"
       id="use80" />
    <use
       xlink:href="#glyph-0-5"
       x="199.421742"
       y="144.593"
       id="use81" />
    <use
       xlink:href="#glyph-0-5"
       x="202.825962"
       y="144.593"
       id="use82" />
    <use
       xlink:href="#glyph-0-6"
       x="206.230183"
       y="144.593"
       id="use83" />
  </g>
  <g
     fill="rgb(0%, 0%, 0%)"
     fill-opacity="1"
     id="g85">
    <use
       xlink:href="#glyph-0-7"
       x="210.93253"
       y="144.593"
       id="use84" />
    <use
       xlink:href="#glyph-0-16"
       x="217.739974"
       y="144.593"
       id="use85" />
  </g>
  <g
     fill="rgb(0%, 0%, 0%)"
     fill-opacity="1"
     id="g92">
    <use
       xlink:href="#glyph-0-14"
       x="223.835093"
       y="144.593"
       id="use86" />
    <use
       xlink:href="#glyph-0-15"
       x="228.262473"
       y="144.593"
       id="use87" />
    <use
       xlink:href="#glyph-0-5"
       x="230.642538"
       y="144.593"
       id="use88" />
    <use
       xlink:href="#glyph-0-14"
       x="234.046758"
       y="144.593"
       id="use89" />
    <use
       xlink:href="#glyph-0-9"
       x="238.474138"
       y="144.593"
       id="use90" />
    <use
       xlink:href="#glyph-0-13"
       x="240.854203"
       y="144.593"
       id="use91" />
    <use
       xlink:href="#glyph-0-16"
       x="245.281582"
       y="144.593"
       id="use92" />
  </g>
  <g
     fill="rgb(0%, 0%, 0%)"
     fill-opacity="1"
     id="g95">
    <use
       xlink:href="#glyph-0-9"
       x="251.366738"
       y="144.593"
       id="use93" />
    <use
       xlink:href="#glyph-0-2"
       x="253.746803"
       y="144.593"
       id="use94" />
    <use
       xlink:href="#glyph-0-11"
       x="258.534829"
       y="144.593"
       id="use95" />
  </g>
  <g
     fill="rgb(0%, 0%, 0%)"
     fill-opacity="1"
     id="g98">
    <use
       xlink:href="#glyph-0-13"
       x="263.961457"
       y="144.593"
       id="use96" />
    <use
       xlink:href="#glyph-0-9"
       x="268.388837"
       y="144.593"
       id="use97" />
    <use
       xlink:href="#glyph-0-16"
       x="270.768902"
       y="144.593"
       id="use98" />
  </g>
  <g
     fill="rgb(0%, 0%, 0%)"
     fill-opacity="1"
     id="g101">
    <use
       xlink:href="#glyph-0-2"
       x="276.854058"
       y="144.593"
       id="use99" />
    <use
       xlink:href="#glyph-0-8"
       x="281.642083"
       y="144.593"
       id="use100" />
    <use
       xlink:href="#glyph-0-12"
       x="286.789759"
       y="144.593"
       id="use101" />
  </g>
  <g
     fill="rgb(0%, 0%, 0%)"
     fill-opacity="1"
     id="g103">
    <use
       xlink:href="#glyph-0-17"
       x="295.25498"
       y="144.593"
       id="use102" />
    <use
       xlink:href="#glyph-0-2"
       x="299.848735"
       y="144.593"
       id="use103" />
  </g>
  <g
     fill="rgb(0%, 0%, 0%)"
     fill-opacity="1"
     id="g109">
    <use
       xlink:href="#glyph-0-5"
       x="304.36777"
       y="144.593"
       id="use104" />
    <use
       xlink:href="#glyph-0-15"
       x="307.771991"
       y="144.593"
       id="use105" />
    <use
       xlink:href="#glyph-0-2"
       x="310.152056"
       y="144.593"
       id="use106" />
    <use
       xlink:href="#glyph-0-8"
       x="314.940081"
       y="144.593"
       id="use107" />
    <use
       xlink:href="#glyph-0-14"
       x="320.087757"
       y="144.593"
       id="use108" />
    <use
       xlink:href="#glyph-0-13"
       x="324.515136"
       y="144.593"
       id="use109" />
  </g>
  <path
     fill="none"
     stroke-width="0.3985"
     stroke-linecap="butt"
     stroke-linejoin="miter"
     stroke="rgb(0%, 0%, 0%)"
     stroke-opacity="1"
     stroke-miterlimit="10"
     d="M 287.7275 -60.627469 C 287.7275 -57.494656 285.192344 -54.955594 282.059531 -54.955594 C 278.930625 -54.955594 276.391563 -57.494656 276.391563 -60.627469 C 276.391563 -63.756375 278.930625 -66.295438 282.059531 -66.295438 C 285.192344 -66.295438 287.7275 -63.756375 287.7275 -60.627469 Z M 287.7275 -60.627469 "
     transform="matrix(1, 0, 0, -1, 24.335, 34.853)"
     id="path109" />
  <g
     fill="rgb(0%, 0%, 0%)"
     fill-opacity="1"
     id="g110">
    <use
       xlink:href="#glyph-0-13"
       x="304.177"
       y="97.693"
       id="use110" />
  </g>
  <path
     fill="none"
     stroke-width="0.3985"
     stroke-linecap="butt"
     stroke-linejoin="miter"
     stroke="rgb(0%, 0%, 0%)"
     stroke-opacity="1"
     stroke-miterlimit="10"
     d="M 277.911094 -64.775906 L 272.50875 -70.174344 "
     transform="matrix(1, 0, 0, -1, 24.335, 34.853)"
     id="path110" />
  <path
     fill-rule="nonzero"
     fill="rgb(0%, 0%, 0%)"
     fill-opacity="1"
     stroke-width="0.3985"
     stroke-linecap="butt"
     stroke-linejoin="miter"
     stroke="rgb(0%, 0%, 0%)"
     stroke-opacity="1"
     stroke-miterlimit="10"
     d="M 3.684055 -0.00221061 L 0.645677 1.146849 L 1.64558 -0.00221061 L 0.642915 -1.148508 Z M 3.684055 -0.00221061 "
     transform="matrix(-0.7071, 0.7071, 0.7071, 0.7071, 297.93859, 103.93563)"
     id="path111" />
  <path
     fill="none"
     stroke-width="0.3985"
     stroke-linecap="butt"
     stroke-linejoin="miter"
     stroke="rgb(0%, 0%, 0%)"
     stroke-opacity="1"
     stroke-miterlimit="10"
     d="M 286.25875 -52.064969 C 289.688438 -42.643094 274.430625 -42.643094 277.860313 -52.064969 "
     transform="matrix(1, 0, 0, -1, 24.335, 34.853)"
     id="path112" />
  <path
     fill-rule="nonzero"
     fill="rgb(0%, 0%, 0%)"
     fill-opacity="1"
     stroke-width="0.3985"
     stroke-linecap="butt"
     stroke-linejoin="miter"
     stroke="rgb(0%, 0%, 0%)"
     stroke-opacity="1"
     stroke-miterlimit="10"
     d="M 3.683099 -0.0011197 L 0.642742 1.145393 L 1.64529 0.00129373 L 0.642405 -1.149394 Z M 3.683099 -0.0011197 "
     transform="matrix(-0.34201, 0.93968, 0.93968, 0.34201, 311.12399, 85.46523)"
     id="path113" />
  <path
     fill-rule="nonzero"
     fill="rgb(0%, 0%, 0%)"
     fill-opacity="1"
     stroke-width="0.3985"
     stroke-linecap="butt"
     stroke-linejoin="miter"
     stroke="rgb(0%, 0%, 0%)"
     stroke-opacity="1"
     stroke-miterlimit="10"
     d="M 3.682836 0.000398473 L 0.642143 1.148672 L 1.646364 0.00165578 L 0.642479 -1.146114 Z M 3.682836 0.000398473 "
     transform="matrix(0.34201, 0.93968, 0.93968, -0.34201, 301.66584, 85.46523)"
     id="path114" />
</svg>
